<svg xmlns="http://www.w3.org/2000/svg" xmlns:xlink="http://www.w3.org/1999/xlink" width="240" height="240" viewBox="0 0 240 240">
  <defs>
    <clipPath id="clip-path">
      <rect id="Rectangle_183176" data-name="Rectangle 183176" width="240" height="240" rx="4" fill="#fafafa"/>
    </clipPath>
    <filter id="Ellipse_10388" x="36.333" y="69.333" width="52.667" height="52.667" filterUnits="userSpaceOnUse">
      <feOffset dy="5" input="SourceAlpha"/>
      <feGaussianBlur stdDeviation="5" result="blur"/>
      <feFlood flood-opacity="0.161"/>
      <feComposite operator="in" in2="blur"/>
      <feComposite in="SourceGraphic"/>
    </filter>
  </defs>
  <g id="Left" clip-path="url(#clip-path)">
    <path id="Path_187715" data-name="Path 187715" d="M163.019,105.787c-22.566,28.38-134.4,43.54-154.759,0S7.069,28.3,44.913,15.15,126.676-13.481,147,20.767,185.587,77.407,163.019,105.787Z" transform="translate(41.285 250.965) rotate(-106)" fill="#f68d2e"/>
    <path id="Path_187716" data-name="Path 187716" d="M0,30.8S6.406,86,36.446,119.634s62.5,16.984,83.714,45.681S95.251,264.581,174.4,286.552,436.761,253.2,436.761,253.2V0Z" transform="matrix(-0.999, -0.035, 0.035, -0.999, 221.153, 286)" fill="#eb1100"/>
    <path id="Path_187717" data-name="Path 187717" d="M86.315,55.645a26.086,26.086,0,0,1,4.849,13.873,36.48,36.48,0,0,1-.473,3.874l.173.192c-.117.4-.21.8-.357,1.187-.079.5.3-.909.128-.028l-.253.414a7.469,7.469,0,0,1-.4,1.313c-.188.491-.261.742.22-.2a17.181,17.181,0,0,1-1.071,2.181,19.38,19.38,0,0,1-1.362,1.975c-.668.812-.512.372-1.251,1.251-.118.21.315-.27.3-.156a11.043,11.043,0,0,1-2.78,2.381c-.4.255-.81.488-1.272.771s-.978.62-1.642,1.021l.242-.11c-.485.221-1.349.733-1.374.714.242-.378.537-.184,1.292-.766-.163-.1-1.064.514-1.077.37a7.422,7.422,0,0,1-1.572.811c-.458.277-1.044.562-1.6.837l-.408.2-.4.166a6.555,6.555,0,0,0-.654.317c-.255.066-.535.111-.882.187s-.756.2-1.3.332c-.734.348.222.072-.821.419l-.2-.049c-.86.259-.718.248-.675.285a3.387,3.387,0,0,1-.9.153,5.923,5.923,0,0,0-1.074.2l.679-.037c-.442.069-.751.126-1.1.2a12.834,12.834,0,0,1-1.359.236,2.22,2.22,0,0,0,.887-.093,4.491,4.491,0,0,1-1.512.159c.1-.056.947-.181.516-.227a10.35,10.35,0,0,0-1.732.2l.675.014c-1.281.078-.689-.017-2.151.1.08,0,.043.03.076.049a10.337,10.337,0,0,0-1.591.026c-.59.022-1.236.027-1.922.021l.26.032c-.553-.045-.853-.141-1.151-.14.783-.041.57-.075.644-.17a3.454,3.454,0,0,1-.706.027,6.32,6.32,0,0,1-.668-.118,9.593,9.593,0,0,0-1.849-.237,1.578,1.578,0,0,0,.88.145,4.818,4.818,0,0,0,1.638.534c-.636-.085-1.385-.183-1.232-.1l-.186-.175-.981-.082c-.153-.113.794-.093-.089-.237-.992-.159-.55.091-.7.006a10.965,10.965,0,0,0-1.864-.411,3.189,3.189,0,0,0,.5.1,23.721,23.721,0,0,0-2.609-.349.983.983,0,0,0,.5.2l-.009-.031c1,.366-.851-.23-.567.009a11.363,11.363,0,0,0-1.815-.514l.216-.058c-1.842-.9.043.253-1.868-.357-1.2-.435.471.105-.252-.193a18.978,18.978,0,0,1-2.315-.759l-.66-.156c-.225-.058-.422-.093-.474-.045-.341-.179-.88-.4-1.378-.617-.249-.107-.488-.213-.685-.309a2.3,2.3,0,0,1-.427-.286c.6.267.9.4,1.207.576a7.129,7.129,0,0,0,1.39.572l-.343-.29c-.485-.211-1.031-.468-1.54-.7s-.956-.508-1.293-.651c.142.047.215.048.145-.02-.655-.37-1.063-.634-1.47-.884a16.408,16.408,0,0,0-1.415-.909c-.226,0,.514.429,1.041.763-.852-.414-.846-.507-2.112-1.245-.125.048.844.512.934.686-.453-.3-.923-.571-1.35-.9,0,.009-.007.011-.011.017-.1-.275-1.018-.7-1.8-1.313A15.1,15.1,0,0,1,33.88,79c-.288-.2-.394-.233-.314-.1.477.326.362.3.481.469-.574-.537-1.4-1.028-1.116-.683-.9-.876.4.236-.138-.315-.438-.37-.823-.795-1.237-1.19.205.082.644.494.064-.18-.5-.553-.8-.768-1.444-1.5.063.134-.3-.14.191.4a6.024,6.024,0,0,1-.964-1.144c.772.742-1.114-1.353-.479-.848l-.732-.775a5.878,5.878,0,0,0,.365.514c-.292-.151-.52-.7-.744-1-.256-.276-.881-1.024-.957-1.068a5.16,5.16,0,0,0-.825-1.027c-.275-.421.046-.083-.006-.226l-.507-.685c-.166-.23-.318-.47-.478-.7-.111-.035-.358-.041-.238.19-.3-.579.051-.313-.492-1.123.191.545-.8-1.02-.5-.251a17.4,17.4,0,0,1-1.626-2.573c-.182-.525.543.788.613.68a12.422,12.422,0,0,1-1.041-2.237c-.1-.27-.195-.52-.32-.8s-.28-.591-.484-.993l.233.407a11.906,11.906,0,0,1-.587-1.553c0,.171-.222-.074-.546-.575A15.29,15.29,0,0,1,19,57.976c0-.171.537.9.521.575l-.468-1.134c-.046-.077-.014.056.032.208a13.61,13.61,0,0,1-.882-2.193c-.2-.324-.407-.644-.587-.976.078.129.148.261.231.387.009-.166-.364-1.342-.422-1.592a13.57,13.57,0,0,0-.805-2.268c.119.193.4.675.141-.278-.11.039-.279-.453-.434-.946s-.266-1-.327-.964c-.1-.388-.345-1.058-.263-1.127l-.123.1c.086-.07.035-.457-.067-.963l-.334-1.681c-.213.3-.235-1.2-.577-1.632.14-.242-.313-1.952-.188-2.175a1.387,1.387,0,0,0-.4-.931l0-.4c-.164-.409-.452-1.988-.667-2.918l.016-.9-.127-.312c.017-.147-.077-.877.056-.437l-.087-.47c.17-.068-.06-.671-.139-1.63-.064-.214-.1-.149-.087.06-.078-.471-.136-.254-.237-.5.1.326.038-1.747.326-.491.086.076.017-.674-.091-1.131l-.2-.255.074-.583c-.1-.728-.25-1.021-.372-1.6.094.6-.074,1.383-.338-.163.123.815.1,1.231.138,1.657-.06-.319-.1-.476-.085.033-.157-1.216.032-.422-.156-1.618-.131.091-.232-.236-.467-1.267l.243.76a.565.565,0,0,0,.012-.156c.067.293.1.373.169.426a9.594,9.594,0,0,0-.194-1.6c.444,1.158-.219-2.123.054-1.382a3.37,3.37,0,0,0-.226-1.049c.091,1.015-.31-.715-.38-.532-.036-.377.266.757.216.248a7.8,7.8,0,0,0-.4-1.326l.026.252-.263-.894c.037-.165.315.852.165.008a8.332,8.332,0,0,0-.282-1.02c0,.418-.2.161-.062.877-.111-.6-.56-2.461-.243-1.741-.058-.233-.114-.467-.179-.7.174.422.572,1.632.253.217l-.025.019-.15-1-.183-.406c.039,0,.032-.16-.075-.518-.068-.082-.181-.416-.229-.372-.288-1.043-.205-.976-.2-1.124-.171-.58-.268-.788-.264-.492-.128-.394-.309-.932-.492-1.433a9.206,9.206,0,0,0-.5-1.218c-.33-1.056.109.2-.029-.437a7.4,7.4,0,0,1-.483-.885c-.181-.373-.357-.821-.57-1.281-.4-.93-.86-1.954-1.284-2.745.43.32-.216-.44-.2-.829.147.36-1.032-1.37-.265,0L5.065,6.3c-.444-.491.751,1.391.093.638A15.621,15.621,0,0,0,3.622,4.327c.129.429-.542-.8-.489-.45a6.284,6.284,0,0,0,.539.8l-.157-.158C2.8,3.6,2.729,3.443,2.757,3.382s.167-.031-.186-.537c-.226-.278-.389-.466-.51-.591A1.277,1.277,0,0,0,1.8,2.045c-.109-.054-.111.021-.167.016a11.482,11.482,0,0,1-.875-.976c.537.684,1.167,1.106.972.743A6.214,6.214,0,0,1,.754.9,11.4,11.4,0,0,1,0,0C1.6,1.3,1.033.969,2.48,2.268c.126.244-.016.3.765,1.16-.39-.619.1-.02.244.134-.208-.121.458.665.634.973.243.226-.222-.7.475.256L4.545,5.1c.285.364.022-.251.529.592-.2-.5.238.038-.486-1.089a8.939,8.939,0,0,1,.657.857,8.475,8.475,0,0,1,.433.8c.258.51.43,1.014.7,1.573-.05-.117-.031-.143-.08-.259.078.26.322.673.468,1.008.411.707-.2-.623-.059-.46L7.3,9.3c.019.021.025.025.029.023a2.768,2.768,0,0,0,.346.726c-.1-.387-.1-.563-.17-.825.164.44.3.89.455,1.332.008-.172.577,1.007.225.074.263.639.526,1.278.763,1.928l.2.111c.152.475.13.5-.1-.052.3.648.813,3.042.959,2.6.184.8.343,1.326.489,1.9s.324,1.192.532,2.153c-.251-1.5.6,1.64.257.07a10.827,10.827,0,0,1,.331,1.85c.209.664.289.33.165-.415.05.292.092.584.134.876l.025-.022.088.767c.25.777.179.136.372.955l-.089.205.189.542c-.1-.2-.025.294.079.894l.026-.018.117.732c-.062-.734.154.659.181.311.119.621.124.635.3,1.764l-.121-.182c.182,1.481.139.038.355,1.226l-.112-.056c.461,1.682.395,2.921.709,4.166-.1-.729.05-.564.024-.545.142,1.1.456,2.868.524,4.014a4.63,4.63,0,0,1,.534,1.621,3.926,3.926,0,0,1,.109,1.255,21.731,21.731,0,0,0,.512,2.356c-.049.2.159.722.177,1.181l.061.085-.113-.05c.51,1.383.376,2.441.913,3.827l-.037-.251.116.608c.067.084.031-.165.08-.207.255.92.468,1.852.755,2.763l-.235-.519a12.892,12.892,0,0,0,.443,1.642c-.182-1.144.274.913.447,1.052-.055-.2-.094-.4-.142-.6.227.808.252.8.125.769.319,1.043.424.645.646,1.631l-.235-.675c-.124-.181-.036.333.121.785.051.1.2.408.1.058.232.829.775,2,.864,2.372.2.422.208.252.143.008a8.928,8.928,0,0,0,.471,1.245c.087.189.174.377.5,1.238l.041-.052.188.607c.155.259.331.508.5.761l-.208-.259c.253.546.38.9.716,1.52l-.047-.292a10.966,10.966,0,0,0,.86,1.6,12,12,0,0,1,.817,1.552c.066.089-.029-.145-.078-.264.623,1.365.7.894,1.323,2.271-.023-.094.091.027.082-.036.1.206.2.411.313.609l.068-.106.164.556.331.286.1.251a4.9,4.9,0,0,1,.812.99,9.808,9.808,0,0,0,.941,1.136l-.218-.051A18.371,18.371,0,0,0,30.183,73c.525.537,1.063,1.081,1.588,1.638s1.1,1.072,1.6,1.635l.042-.12.393.489.417.467c.559.379-.233-.34-.037-.244.949.934.3.495,1.433,1.555.323.233.289.166.134.017s-.41-.406-.535-.546c.508.521,1.2,1.092,1.854,1.632.328.266.638.537.94.749s.575.392.794.527c.01.026.05.079,0,.054.383.3.837.63,1.316.946.492.294,1,.59,1.448.872,0-.059-.215-.2-.435-.352a8.276,8.276,0,0,1,1.044.653l-.291-.295c.177.1.385.241.615.37l.7.382a3.8,3.8,0,0,0,.952.432c-.107-.006-.109.09.517.413a4.2,4.2,0,0,1,1.155.472,10.482,10.482,0,0,0,1.646.732c-.118-.069-.868-.423-.654-.328a13.468,13.468,0,0,1,1.434.654l-.119-.119c.815.328,1.621.689,2.464.944a5.1,5.1,0,0,1,1.331.32c.521.183.993.273.918.2.92.2-.789-.1.368.183.326,0,1.043.272,1.018.148l-.121-.041.808.191-.488-.225a3.388,3.388,0,0,1,1.213.453c.681.043,1.626.243,1.944.19l-.245-.066a17.294,17.294,0,0,0,2.47.123c.367.013.722,0,1.077-.006a7.45,7.45,0,0,1,1.082.078c.111-.014.1-.043-.134-.046.389,0,.779.017,1.168.012-.093-.02-.186-.057-.279-.085.643.04,1.286.03,1.932.048l-.029-.056c.317-.026.682-.031,1.071-.072l1.232-.147c.428-.052.869-.093,1.3-.152l1.254-.238-.245.021a10.8,10.8,0,0,0,1.66-.333,11.485,11.485,0,0,1,1.282-.369.561.561,0,0,0-.139.014l1.129-.316-.266.017a2.581,2.581,0,0,0,.714-.209c.245-.1.487-.213.687-.31.4-.195.634-.33.4-.189l.847-.22a3.994,3.994,0,0,1,.6-.16c1.158-.541.252-.2.944-.582.414-.2.673-.289.959-.416a12.324,12.324,0,0,0,1.114-.647l-.051-.037c.254-.142.465-.251.7-.373a7.409,7.409,0,0,0,.835-.483l-.216.111c1.168-.64,1.249-1.07,2.208-1.514.4-.379,1.187-1.057,1.066-1.11a15.234,15.234,0,0,0,1.582-1.568,14.653,14.653,0,0,0,1.32-1.755.469.469,0,0,1,.118-.37,2.994,2.994,0,0,0,.395-.8l.061.105a10.507,10.507,0,0,0,.924-3.353,20.239,20.239,0,0,0,.057-3.693l-.107-.06c.026-.167.051-.335.066-.5-.077-.663-.214-1.373-.372-2.094-.173-.719-.375-1.45-.612-2.154a24.707,24.707,0,0,0-1.563-3.64,12.765,12.765,0,0,0-1.4-2.552l.055.106a20.428,20.428,0,0,0-4.09-4.644c.071.121-.108,0,.054.182a6.286,6.286,0,0,0-1.319-1.1c.161.085.315.18.469.275a4.672,4.672,0,0,0-1.48-1.018c-.243-.212-.487-.428-.744-.625a.592.592,0,0,0-.171-.057l-.117-.136c-.168-.054-.335-.107-.507-.15-.1-.069-.415-.273-.751-.488a6.225,6.225,0,0,1-.846-.577c-.1,0-.935-.339-.314-.029a20.514,20.514,0,0,0-3.288-1.17l.535.108c.047-.039-.177-.148-.48-.261a5.792,5.792,0,0,0-.964-.244c.675.249.024.148-.285.161-.452-.144.42-.007.188-.109a10.239,10.239,0,0,0-1.159-.285A5.921,5.921,0,0,0,68,47.729c.117.02.233.051.349.08a12.5,12.5,0,0,0-1.965.008c-.707-.08-1.227.03-1.091-.154-1.028.05-.385.152-.713.2a4.862,4.862,0,0,0-1.15.121,3.528,3.528,0,0,0-.892.279,1.535,1.535,0,0,0-.669.074,6.507,6.507,0,0,0-.879.288,4.8,4.8,0,0,1-1.178.462,5.893,5.893,0,0,0-.575.487c-.043-.03-.263-.07-.7.3-.323.415-.142.393-.19.54a3.053,3.053,0,0,0-.355.138,2.529,2.529,0,0,0-.265.975,4.473,4.473,0,0,0,.119,1.227,11.822,11.822,0,0,0,.444,1.49l.262.778c.092.259.212.51.316.766a20.155,20.155,0,0,0,3.445,5.544,23.839,23.839,0,0,0,4.459,4.52l-.174-.17.872.641.906.6c-.448-.274-.907-.535-1.334-.842a8.978,8.978,0,0,0,1.017.818l.784.5.862.5c.58.355,1.228.662,1.87,1.01,1.313.642,2.7,1.3,4.07,1.836a3.532,3.532,0,0,0,1.493.519,5.063,5.063,0,0,1,1.474.4c-.146-.064-.192-.113-.321-.174l1.279.41,1.132.324c.367.113.741.2,1.14.309s.826.229,1.315.339c-.186-.278,1.282.216,1.126.06l.151.123c.45,0,1.491.113,1.35.023.285.084.576.146.864.22l.086-.093a20.378,20.378,0,0,0,4.306.175,51.73,51.73,0,0,0,5.318.137c1.982-.037,4.061-.17,5.9-.311a19.328,19.328,0,0,0,2.447-.086l.889-.193a17.011,17.011,0,0,0,2.573-.1c-.006-.014-.039-.02-.1-.021a23.921,23.921,0,0,1,2.515-.181c.951-.1,1.87-.26,1.566-.343.116.194,2.008-.271,2.008-.271l2.115-.277c1.354-.182,3.3-.482,5.663-.846,4.729-.757,11.129-1.968,17.827-3.56s13.681-3.59,19.673-5.5,11.013-3.691,13.886-4.6c.41-.062,1.469-.429,1.119-.157.813-.295,1.111-.607,1.3-.58-1.06.508.438.1-.577.65l.692-.259c.167.008-.959.308-.742.358l-.264-.092a5.2,5.2,0,0,0-1,.553,6.362,6.362,0,0,0-2.171.663l.346-.13c-1.011.41-.576.36-.776.475l.225-.089-.824.42c.63-.3,1.751-.6,1.189-.384-1.192.53.3-.161-.619.173-.569.21-.374.241-.328.285l-1.019.388c.066.067.672-.266.292-.023l-1.314.412c-.162.293-1.428.45-1.946.855.946-.291-.057.1.115.111l-2.281.817c-.205.107.622-.155.272-.039a4.647,4.647,0,0,1-.953.292c-.177.131-1.7.614-1.594.721-1.525.622-.715.05-2.138.622-.163.148,1.159-.373.544-.067l-1.516.482a2.012,2.012,0,0,0,.9-.175c-4.035,1.483-6.126,2.6-9.939,3.6-.5.258.4-.045.8-.091a32.454,32.454,0,0,0-3.238.979c-.9.319-1.741.647-2.919.954l-.064-.073c-3.22,1.1-7.226,1.914-10.96,2.786l.436-.152c-.533.025-1.369.19-1.993.28-.086.062.482.088-.614.279.219-.077.672-.2.528-.217-.793.23-1.821.457-3,.7s-2.493.526-3.888.756-2.849.512-4.3.726l-4.22.654c-3.638.422-7.428.882-11.218,1.2-3.782.355-7.578.586-11.21.581,1.106-.007.634-.21-.2-.158-2.285.36-3.956-.118-6.307-.05-2.118-.229-4.13-.442-6.1-.778a27.509,27.509,0,0,1-5.748-1.56l-.105.073a7.113,7.113,0,0,1-1.308-.489l0,.032c-.354-.123-.725-.257-1.091-.4l-1.06-.475c-.687-.295-1.268-.628-1.668-.787l0-.127a6.7,6.7,0,0,1-1.222-.619l0,.063c-.292-.2-.586-.4-.873-.611-.007.114-.544-.213-1.158-.606s-1.271-.907-1.6-1.066c-.236-.166-.5-.4-.809-.649s-.647-.521-.986-.826L63.2,66.472c-.349-.313-.674-.649-1-.945a3.047,3.047,0,0,1-.434-.34c-.2-.183-.434-.434-.7-.705-.537-.531-1.092-1.225-1.544-1.75a26.4,26.4,0,0,1-4.408-8.983l.142.034a9.709,9.709,0,0,1-.18-.969c-.026.019-.06-.117-.053.04a3.868,3.868,0,0,1-.076-1.693,7.1,7.1,0,0,1,.561-1.769c-.162.579-.332.759-.486,1.426-.05.484.007.493.071.235a10.526,10.526,0,0,1,.438-1.389l-.037.01a5.55,5.55,0,0,1,.489-.71c-.045-.148.409-.767.412-.9a7.489,7.489,0,0,1,1.955-1.414,11.21,11.21,0,0,1,1.911-.757,25.451,25.451,0,0,1,4.044-.8c-.165-.037.392-.1.911-.126s1-.051.687-.139c1.868.087-.305.145.544.3a7.752,7.752,0,0,0,1.149.021c-.239-.066.427-.087.009-.138.411.039.825.067,1.231.135.119,0-.148-.062-.282-.093a22.915,22.915,0,0,1,6.461,1.729c.129.123-.833-.315-.708-.189l1.17.547.744.31c.221.092.438.18.714.312s.6.329,1.04.609l-.328-.3c.28.194.468.352.708.529s.543.354,1.018.641c.113.007-.068-.146-.33-.345s-.62-.418-.834-.585c.67.381,2.236,1.523,1.691,1.27a17.1,17.1,0,0,0,1.438.986c-.006.032-.709-.48-.329-.1a22.927,22.927,0,0,1,3.446,3.158c.012-.029.115.021.038-.087a5.06,5.06,0,0,0,.789.928A6.7,6.7,0,0,1,86.315,55.645Z" transform="translate(66.07 108.457) rotate(30)" fill="#404040"/>
    <g transform="matrix(1, 0, 0, 1, 0, 0)" filter="url(#Ellipse_10388)">
      <circle id="Ellipse_10388-2" data-name="Ellipse 10388" cx="11.333" cy="11.333" r="11.333" transform="translate(51.33 79.33)" fill="#fec62e"/>
    </g>
    <g id="Cube" transform="translate(127.516 17.248) rotate(16)">
      <path id="Path_187718" data-name="Path 187718" d="M24.432,0l-.049,26.318L0,29.745.049,3.427Z" transform="translate(9.09 4.945)" fill="#27c5c1"/>
      <path id="Path_187719" data-name="Path 187719" d="M9.09,31.263,0,26.318.049,0l9.09,4.945Z" transform="translate(0 3.427)" fill="#1c9390"/>
      <path id="Path_187720" data-name="Path 187720" d="M9.09,8.371,0,3.427,24.384,0l9.09,4.945Z" transform="translate(0.049 0)" fill="#23bab7"/>
    </g>
  </g>
</svg>
