<svg xmlns="http://www.w3.org/2000/svg" xmlns:xlink="http://www.w3.org/1999/xlink" width="450" height="96" viewBox="0 0 450 96">
  <defs>
    <clipPath id="clip-path">
      <rect id="Rectangle_175437" data-name="Rectangle 175437" width="450" height="96" transform="translate(0.076 0.231)" fill="#fff" stroke="#707070" stroke-width="1"/>
    </clipPath>
    <linearGradient id="linear-gradient" x1="0.5" y1="1" x2="0.5" gradientUnits="objectBoundingBox">
      <stop offset="0" stop-color="#f68d2e"/>
      <stop offset="1" stop-color="#fdcc2d"/>
    </linearGradient>
    <filter id="Ellipse_9536" x="18.815" y="16.311" width="66.666" height="66.666" filterUnits="userSpaceOnUse">
      <feOffset dy="3" input="SourceAlpha"/>
      <feGaussianBlur stdDeviation="3" result="blur"/>
      <feFlood flood-opacity="0.161"/>
      <feComposite operator="in" in2="blur"/>
      <feComposite in="SourceGraphic"/>
    </filter>
  </defs>
  <g id="Courses-MarqueeLeft" transform="translate(-0.076 -0.231)" clip-path="url(#clip-path)">
    <path id="Path_163326" data-name="Path 163326" d="M0,18.4c2.417,55.95,17.647,97.986,48.4,122.647,25.913,20.78,50.54,14.469,74.7,38.728,36.222,36.373,10.983,86.326,86.976,112.217s180.409,29.172,258.662-39.315S562.6,64.2,482.806,23.229C460.937,12,441.442,17.823,413.6,21.083,350.924,28.422,273.085-2.5,251.059.164Q132.224,14.552,3.219,15.183" transform="matrix(-0.966, 0.259, -0.259, -0.966, 582.947, -20.304)" fill="#eb1000"/>
    <g transform="matrix(1, 0, 0, 1, 0.08, 0.23)" filter="url(#Ellipse_9536)">
      <ellipse id="Ellipse_9536-2" data-name="Ellipse 9536" cx="17.229" cy="17.229" rx="17.229" ry="17.229" transform="translate(53.42 70.98) rotate(-138)" fill="url(#linear-gradient)"/>
    </g>
    <path id="Path_185341" data-name="Path 185341" d="M573.141,271.5c2.476-.227,5.7-.072,7.429,2.628a7.935,7.935,0,0,1-1.261,9.671c-3.551,3.434-10.461,2.671-12.755-1.541-1.762-3.234-.319-6.878,2.383-9.076A7.843,7.843,0,0,1,573.141,271.5Z" transform="translate(-507.095 -200.221)" fill="#46a8f7"/>
  </g>
</svg>
