<svg xmlns="http://www.w3.org/2000/svg" xmlns:xlink="http://www.w3.org/1999/xlink" width="240" height="240" viewBox="0 0 240 240">
  <defs>
    <clipPath id="clip-path">
      <rect id="Rectangle_183177" data-name="Rectangle 183177" width="240" height="240" rx="4" fill="#fff" stroke="#707070" stroke-width="1"/>
    </clipPath>
  </defs>
  <g id="Right" clip-path="url(#clip-path)">
    <path id="Path_187722" data-name="Path 187722" d="M177.565,213.48c-30.043,17.886-97.811,22.343-131.395-27.135S-21.807,59.3,17.616,18.914,158.087,49.057,216.092,23.4s114.441-41.33,146.016,13.8,11.779,154.248-63.231,149.142S207.607,195.593,177.565,213.48Z" transform="translate(-18.166 266.301) rotate(-56)" fill="#44a4f1"/>
    <g id="Group_177245" data-name="Group 177245" transform="translate(235.023 376.623) rotate(-135)">
      <path id="Path_187723" data-name="Path 187723" d="M196.215,26.7a34.042,34.042,0,0,0-2.294-4.128,49.709,49.709,0,0,0-6.8-9.324,38.485,38.485,0,0,0-6.784-5.919c.042.112,1.829,1.657,3.554,3.5l1.28,1.39,1.151,1.328,1.492,1.816a48.175,48.175,0,0,1,3.422,4.619c.509.742.94,1.5,1.387,2.224.411.744.835,1.458,1.191,2.187a41.2,41.2,0,0,1,3.326,8.632c.2.734.346,1.483.509,2.237.122.76.283,1.527.359,2.317a33.031,33.031,0,0,1,.254,4.956q-.026.652-.05,1.321c-.047.446-.093.9-.141,1.359s-.1.928-.15,1.4-.165.951-.246,1.44-.184.984-.279,1.489-.249,1.009-.371,1.528-.272,1.045-.411,1.581c-.154.534-.341,1.071-.516,1.622-.127.387-.319,1.021-.65,1.81s-.727,1.753-1.22,2.813c-.987,2.121-2.256,4.65-3.564,7.127,0,0,.166-.373.431-.969s.629-1.414,1.007-2.3c-1.708,3.454-3.984,7.837-6.187,12.576a76.95,76.95,0,0,0-5.246,14.744c.42-2.055.39-2.067.653-3.283-.226.958-.417,2.074-.68,3.28-.123.606-.193,1.252-.3,1.914-.091.665-.229,1.349-.277,2.064q-.1,1.069-.211,2.2c-.058.751-.072,1.523-.113,2.307-.014.393-.044.789-.043,1.188s0,.8.007,1.206c.009.809-.013,1.634.045,2.459a81.788,81.788,0,0,0,1.031,10.029c.521,3.3,1.183,6.5,1.866,9.385.285,1.145.555,2.11.805,2.992s.477,1.682.717,2.481c1.314,5.255,2.769,10.34,4.089,15.695.666,2.677,1.289,5.423,1.814,8.288a75.238,75.238,0,0,1,1.168,8.989c.121,1.317.146,2.7.195,4.149-.019,1.442,0,2.948-.145,4.487a41.744,41.744,0,0,1-1.777,9.534q-.422,1.19-.848,2.4-.515,1.17-1.04,2.353c-.375.773-.8,1.523-1.2,2.29-.467.728-.9,1.48-1.4,2.2a37.293,37.293,0,0,1-7.075,7.62,47.673,47.673,0,0,1-15.994,8.608,61.9,61.9,0,0,1-18.475,2.671,98.62,98.62,0,0,1-18.4-1.842c-1.485-.283-2.958-.581-4.413-.9s-2.888-.687-4.308-1.028-2.816-.728-4.193-1.113-2.738-.756-4.062-1.194c-3.558-1.062-10.227-3.15-16.177-5.147-6.4-2.773-15.542-6.729-24.823-11.844-2.339-1.241-4.655-2.608-6.988-3.95-1.157-.686-2.3-1.4-3.447-2.1-.571-.353-1.149-.694-1.715-1.054s-1.12-.727-1.68-1.089c-1.112-.732-2.24-1.426-3.318-2.173l-3.209-2.2c-1.062-.717-2.066-1.486-3.075-2.208s-2-1.438-2.941-2.17c-5.555-4.227-9.2-7.173-11.418-8.919A101.309,101.309,0,0,1,11.666,136.8a71,71,0,0,1-5.924-12.971l-.293-.843-.254-.855-.5-1.712c-.328-1.143-.574-2.307-.866-3.457-.216-1.166-.47-2.326-.652-3.495l-.248-1.756-.125-.877-.078-.881A51.641,51.641,0,0,1,3.958,92.058l.6-2.171L5.3,87.76c.226-.718.545-1.4.841-2.091s.574-1.391.929-2.059a53.434,53.434,0,0,1,4.8-7.815,156.73,156.73,0,0,1,12.61-14.458q1.693-1.787,3.406-3.59l3.492-3.57c1.161-1.206,2.36-2.386,3.567-3.57s2.4-2.4,3.647-3.568c2.716-2.606,8.128-7.391,11.054-9.669,1.234-1.1,2.432-2.211,3.672-3.293a191.973,191.973,0,0,1,18.6-13.32A203.452,203.452,0,0,1,90.458,10.324c1.047-.54,2.036-1.053,2.994-1.485l2.687-1.274,2.369-1.142,2.109-.939c2.623-1.181,4.5-2.115,5.938-2.757A22.481,22.481,0,0,0,111.2,0,184.845,184.845,0,0,0,81.848,11.938l-1.922.991-.971.505L78,13.977,74.087,16.2l-1,.574-.983.613-1.991,1.246c-1.335.844-2.713,1.681-4.054,2.627L61.927,24.11l-4.189,3.123c-1.437,1.046-2.823,2.221-4.271,3.375l-2.183,1.771-2.171,1.878L46.55,36.473c-.9.776-1.818,1.62-2.787,2.471L40.78,41.585,37.707,44.4l-1.574,1.436-1.559,1.477L31.449,50.28c-2.055,2-4.072,3.992-5.981,5.911A192.464,192.464,0,0,0,7.535,76.577C6.8,77.827,5.94,79.3,5.1,81.024c-.223.424-.417.877-.631,1.334l-.32.7q-.144.361-.291.729-.294.735-.6,1.5c-.1.256-.21.511-.305.775s-.173.536-.262.808A52.263,52.263,0,0,0,.027,101.791q-.011,1.022-.02,2.055c0,.344-.015.69,0,1.035l.046,1.039q.05,1.04.1,2.088.1,1.043.2,2.091l.1,1.048.157,1.043.309,2.088.413,2.068.2,1.032.252,1.02q.254,1.018.5,2.031.3,1,.59,1.993c.368,1.331.864,2.607,1.3,3.885.219.638.493,1.251.732,1.871.256.614.475,1.237.752,1.829s.538,1.185.8,1.769c.133.291.259.584.4.87l.426.844c.829,1.447-.021-.227,1.412,2.3a88.3,88.3,0,0,0,12.628,17.65,136.469,136.469,0,0,0,16.8,15.356,205.592,205.592,0,0,0,40.6,24.589,195.031,195.031,0,0,0,24.581,9.313c4.473,1.314,9.078,2.605,13.828,3.663,4.733,1.124,9.607,2.059,14.585,2.756.466.065,1.349.167,2.5.286,1.148.1,2.563.218,4.091.288,3.056.162,6.566.147,9.292.017.474-.014.948-.019,1.423-.041l1.42-.085c.949-.041,1.891-.155,2.837-.241.887-.107,1.776-.28,2.676-.418.9-.162,1.791-.359,2.693-.539.9-.229,1.8-.433,2.7-.685.888-.278,1.794-.506,2.669-.827a51.33,51.33,0,0,0,10.044-4.632,43.492,43.492,0,0,0,8.174-6.316,36.574,36.574,0,0,0,5.48-6.893,37.728,37.728,0,0,0,3.8-8.112q.179-.517.358-1.031.142-.525.282-1.048c.178-.7.4-1.384.538-2.083s.273-1.4.409-2.089a10.243,10.243,0,0,0,.163-1.042q.067-.522.134-1.042c.093-.692.184-1.381.213-2.072q.068-1.034.135-2.059c0-1.367.067-2.725-.021-4.067a67.343,67.343,0,0,0-.778-7.9c-.6-3.867-1.548-8.288-2.708-12.923s-2.508-9.494-3.775-14.29-2.432-9.536-3.276-13.916a99.538,99.538,0,0,1-1.608-11.681,43.6,43.6,0,0,1-.057-4.572c.026-.5.055-1.008.083-1.524s.049-1.034.119-1.542.112-1.01.167-1.494.1-.95.183-1.381l.334-2.444q.246-1.211.495-2.426c.053-.213.1-.422.154-.628s.127-.4.189-.593c.129-.386.252-.759.374-1.123.244-.728.487-1.414.779-2.084.277-.674.553-1.349.842-2.056.313-.7.632-1.436.962-2.247,2.174-5.255,5.03-10.6,7.563-16.1.649-1.367,1.238-2.763,1.833-4.148.294-.695.553-1.4.829-2.1l.407-1.048.359-1.061a48.412,48.412,0,0,0,2.161-8.478,35.929,35.929,0,0,0,.373-8.172,37.308,37.308,0,0,0-1.248-7.229,38,38,0,0,0-2.152-5.837,35.4,35.4,0,0,0-2.317-4.248c.215.413.568,1.13.955,1.929.362.811.763,1.7,1.04,2.477a12.227,12.227,0,0,1,.548,1.673C196.621,27.49,196.533,27.389,196.215,26.7Z" transform="translate(0 4.551)" fill="#2c2c2c"/>
      <path id="Path_187724" data-name="Path 187724" d="M6.326.82c.449-.076-.145.133-1.1.434l-1.632.494-1.666.531C2.8,1.935,3.49,1.64,4.45,1.308S6.609.528,8.533,0c-1,.261-2,.526-2.986.834s-1.988.57-2.966.909c-1.6.393-.155-.122,1.264-.546S6.643.4,4.859.866c-1.648.477-3.093.995-3.936,1.3S-.152,2.59.648,2.4c.26-.119.743-.282,1.4-.5s1.5-.487,2.477-.777c.188.04-.517.3-1.477.653L0,2.93l2.3-.754L3.458,1.8,4.62,1.459,6.946.775,9.289.162C8.3.383,7.308.573,6.326.82Z" transform="translate(111.828 3.451)" fill="#2c2c2c"/>
      <path id="Path_187725" data-name="Path 187725" d="M4.228.273,2.213.444C1.309.408,3.234.179,5.173,0,.846.359.847.484,1.275.516c.215.026.539.045.488.092A12.687,12.687,0,0,1,0,.922,15.166,15.166,0,0,1,2.384.56C3.579.425,4.684.294,4.228.273Z" transform="translate(135.119 0)" fill="#2c2c2c"/>
      <path id="Path_187726" data-name="Path 187726" d="M8.2.224C4.556,1.083.771,1.9,0,2.37,3.176,1.407,6.41.669,9.66,0,9.17.055,8.687.151,8.2.224Z" transform="translate(119.803 0.958)" fill="#2c2c2c"/>
      <path id="Path_187727" data-name="Path 187727" d="M.442.482c.911,1.131,1.1,1.444,1.479,1.9.35.479.894,1.1,2.22,3.071A49.436,49.436,0,0,0,0,0Z" transform="translate(187.254 17.898)" fill="#2c2c2c"/>
      <path id="Path_187728" data-name="Path 187728" d="M3.636,12.941C2.628,9.13,1.671,6.078,0,0,.828,3.086,1.675,6,2.331,8.3S3.46,12.3,3.636,12.941Z" transform="translate(185.778 139.418)" fill="#2c2c2c"/>
      <path id="Path_187729" data-name="Path 187729" d="M.446,2.614c.1,0-.311.245-.419.327s.1.029,1.348-.7a2.217,2.217,0,0,0,.614-.517c.1-.09.3-.207.691-.472S3.681.6,4.617,0L2.566,1.362Z" transform="translate(171.519 203.786)" fill="#2c2c2c"/>
      <path id="Path_187730" data-name="Path 187730" d="M2.573,0C1.718.39.879.833,0,1.183A5.1,5.1,0,0,1,.663.875C1.105.664,1.758.364,2.573,0Z" transform="translate(164.951 209.072)" fill="#2c2c2c"/>
      <path id="Path_187731" data-name="Path 187731" d="M.267,0,.229.4C.16.68.076,1.011,0,1.314.081.916.16.526.267,0Z" transform="translate(196.733 51.629)" fill="#2c2c2c"/>
      <path id="Path_187732" data-name="Path 187732" d="M0,7.6c.2-.51.353-1.028.511-1.545l.48-1.548c.3-1.034.532-2.08.8-3.116.15-.5.238-.929.357-1.393-.1.52-.186.953-.26,1.323-.091.367-.167.67-.232.933-.123.528-.209.895-.3,1.285-.048.2-.1.4-.153.628-.074.228-.158.484-.257.793s-.228.667-.375,1.1S.257,7.006,0,7.6Z" transform="translate(194.58 52.943)" fill="#2c2c2c"/>
      <path id="Path_187733" data-name="Path 187733" d="M.4,16.242l.063-.7a15.951,15.951,0,0,0,.349-1.908c.083-.6.162-1.173.237-1.728.032-.556.063-1.1.093-1.639.01-.543,0-1.089,0-1.651A42.086,42.086,0,0,0,0,0,34.467,34.467,0,0,1,1.231,8.456a31.429,31.429,0,0,1-.214,4.066L.759,14.438a7.775,7.775,0,0,1-.165.917Q.5,15.805.4,16.242Z" transform="translate(196.496 36.491)" fill="#2c2c2c"/>
      <path id="Path_187734" data-name="Path 187734" d="M.654,8.168C.7,7.431.769,6.691.763,5.949A8.561,8.561,0,0,0,.611,4.322C.565,4.13.537,4.2.519,4.241L.447,3.215.322,2.192C.255,1.509.123.833.01.155-.1-.686.641,2.014.8,5.417a35.578,35.578,0,0,1-.73,9.06c.083-.526.207-1.046.254-1.575l.158-1.581A28.449,28.449,0,0,0,.654,8.168Z" transform="translate(197.256 38.222)" fill="#2c2c2c"/>
      <path id="Path_187735" data-name="Path 187735" d="M.017.011C.065.052.106.086.156.127.1.085.059.048,0,0Z" transform="translate(181.878 10.981)" fill="#2c2c2c"/>
      <path id="Path_187736" data-name="Path 187736" d="M8.972,8.735l.115.667c-.412-.574-.792-1.081-1.162-1.53S7.232,7.006,6.9,6.64,6.27,5.922,5.965,5.6L5.053,4.65C3.815,3.421,2.524,2.134.138.117L0,0A27.222,27.222,0,0,1,4.171,3.479C5.827,5.084,7.54,7.023,8.972,8.735Z" transform="translate(181.894 10.992)" fill="#2c2c2c"/>
      <path id="Path_187737" data-name="Path 187737" d="M0,10.53q.438-.95.852-1.839c.271-.592.511-1.168.753-1.717S2.082,5.9,2.283,5.4s.393-.983.573-1.433.361-.871.512-1.266.283-.762.406-1.1c.253-.668.472-1.206.65-1.6A84.2,84.2,0,0,1,.711,9.562c.773-1.809.677-1.772.4-1.169C.8,8.991.241,10.136,0,10.53Z" transform="translate(191.82 57.23)" fill="#2c2c2c"/>
      <path id="Path_187738" data-name="Path 187738" d="M0,4.463,2.205,0,1.33,2C1.207,2.163.775,2.936,0,4.463Z" transform="translate(188.534 71.382)" fill="#2c2c2c"/>
      <path id="Path_187739" data-name="Path 187739" d="M.949.026C1.085-.142.806.512,0,2.2Z" transform="translate(188.916 73.36)" fill="#2c2c2c"/>
      <path id="Path_187740" data-name="Path 187740" d="M3.588,0a21.892,21.892,0,0,1-1.3,3.039c-.451.92-1.064,2.1-2.256,4.594C-.347,7.928,2.516,2.583,3.588,0Z" transform="translate(190.707 64.538)" fill="#2c2c2c"/>
      <path id="Path_187741" data-name="Path 187741" d="M.85,0C.657.575.518,1.171.354,1.756L0,2.1C.285,1.4.532.685.85,0Z" transform="translate(183.79 85.571)" fill="#2c2c2c"/>
      <path id="Path_187742" data-name="Path 187742" d="M.3,1.75c-1.02-5.281.885,3.03,1.158,3.467Q.856,3.493.3,1.75Z" transform="translate(182.332 125.139)" fill="#2c2c2c"/>
      <path id="Path_187743" data-name="Path 187743" d="M0,7.211.316,5.5c.127-.279.236-.565.379-.839C1.179,3.33,1.919,1.294,2.345.122c.34-.5-.1.6-.7,2.155-.285.786-.611,1.687-.926,2.552C.443,5.707.191,6.553,0,7.211Z" transform="translate(183.112 84.309)" fill="#2c2c2c"/>
      <path id="Path_187744" data-name="Path 187744" d="M0,0C.255,1.787.531,3.569.883,5.334" transform="translate(181.078 112.965)" fill="#2c2c2c"/>
      <path id="Path_187745" data-name="Path 187745" d="M3.054,1.023a6.661,6.661,0,0,1-.343.94c-.2.541-.438,1.187-.583,1.578s-.167.53.063.057S2.909,2.039,3.849,0C3.1,1.568,2.251,3.489,1.755,4.661c-.474,1.181-.6,1.609.072.19C.772,7.43.684,7.512.667,7.37c-.008-.071,0-.2-.077-.094A6.223,6.223,0,0,0,0,8.575C.277,7.865.556,7.2.822,6.559s.494-1.269.727-1.882C2.052,3.461,2.482,2.26,3.054,1.023Z" transform="translate(185.359 78.91)" fill="#2c2c2c"/>
      <path id="Path_187746" data-name="Path 187746" d="M1.319,0A71.624,71.624,0,0,0,0,7.457C.068,6.767.135,6.1.2,5.447q.143-.972.281-1.9c.047-.31.089-.618.146-.92L.84,1.736C.986,1.147,1.143.569,1.319,0Z" transform="translate(182.406 92.709)" fill="#2c2c2c"/>
      <path id="Path_187747" data-name="Path 187747" d="M0,3.715l.355-1.86c.063-.31.114-.623.184-.932L.775,0C.7.385.608.765.546,1.15L.381,2.308Z" transform="translate(183.637 91.51)" fill="#2c2c2c"/>
      <line id="Line_1" data-name="Line 1" x1="0.308" y1="0.066" transform="translate(189.515 149.203)" fill="#2c2c2c"/>
      <path id="Path_187748" data-name="Path 187748" d="M.266,9.729A62.611,62.611,0,0,1,.212,0,65.853,65.853,0,0,0,.328,8.734C.5,11.4.52,12.093.432,11.646.39,11.422.323,10.914.24,10.223S.049,8.662,0,7.713A10.564,10.564,0,0,0,.266,9.729Z" transform="translate(182.578 101.293)" fill="#2c2c2c"/>
      <path id="Path_187749" data-name="Path 187749" d="M.069,2.9l.2-1.455C.334.963.4.478.506,0A5.273,5.273,0,0,1,.425.679C.38,1.132.316,1.785.239,2.558.139,3.329.108,4.229.068,5.17.052,5.641.016,6.121.014,6.6s.01.966.016,1.439C.023,7.409-.007,6.791,0,6.216S.03,5.111.042,4.647s.01-.859.015-1.159A4.991,4.991,0,0,0,.069,2.9Z" transform="translate(182.395 97.748)" fill="#2c2c2c"/>
      <path id="Path_187750" data-name="Path 187750" d="M0,0C.018.541.008,1.086.047,1.627S.12,2.7.153,3.216C.083,2.3-.007,1.208,0,0Z" transform="translate(182.425 105.789)" fill="#2c2c2c"/>
      <path id="Path_187751" data-name="Path 187751" d="M.349,9.068A64.523,64.523,0,0,0,0,0,51.1,51.1,0,0,1,.349,9.068Z" transform="translate(192.414 164.204)" fill="#2c2c2c"/>
      <path id="Path_187752" data-name="Path 187752" d="M.141.134c.074.458.146.915.24,1.372l-.137.452C-.225-.864.123.221.141.134Z" transform="translate(183.86 117.955)" fill="#2c2c2c"/>
      <path id="Path_187753" data-name="Path 187753" d="M.449.892C1.183,3.324,2.4,8.4,2.947,10.5,1.958,7.421,1.032,3.976,0,0,1.045,3.975.408,1.084.449.892Z" transform="translate(186.423 128.619)" fill="#2c2c2c"/>
      <path id="Path_187754" data-name="Path 187754" d="M2.2,8.161,0,0C.641,1.511,1.283,4.694,2.2,8.161Z" transform="translate(188.045 133.011)" fill="#2c2c2c"/>
      <path id="Path_187755" data-name="Path 187755" d="M1.2,4.447c.137.756-.043.192.2,1.706-.081-.306-.171-.717-.271-1.194S.9,3.945.773,3.38C.536,2.245.252,1.018,0,0,.424,1.47.813,2.955,1.2,4.447Z" transform="translate(192.212 150.1)" fill="#2c2c2c"/>
      <path id="Path_187756" data-name="Path 187756" d="M2.449,3.1C1.963,4.289,1.48,5.4,1.1,6.509.9,7.058.7,7.6.5,8.126S.166,9.195,0,9.719A75.313,75.313,0,0,1,3.625,0C3.25,1.021,2.853,1.989,2.449,3.1Z" transform="translate(183.447 80.943)" fill="#2c2c2c"/>
      <path id="Path_187757" data-name="Path 187757" d="M71.123,17.147c-2.312,1.326-4.984,3.162-7.923,5.127l-4.454,3.214c-1.523,1.1-3.015,2.315-4.542,3.485-6.042,4.766-11.844,9.916-15.883,13.7-6.611,6.265-13.863,13.532-21.074,21.3A75.045,75.045,0,0,0,7.626,76.547,45.074,45.074,0,0,0,2.271,91.256c.035-.051.075-.1.115-.152a53.971,53.971,0,0,0-.542,12.959,63.753,63.753,0,0,0,2.628,13.831l.258.864.3.852.593,1.707c.419,1.13.886,2.244,1.341,3.362l.753,1.645c.253.547.492,1.1.78,1.631.559,1.069,1.079,2.156,1.691,3.189a84.178,84.178,0,0,0,7.909,11.626l-.71-.713c-1.943-2.369-4.2-5.7-2.975-3.649a77.785,77.785,0,0,0,6.915,8.29l.988,1.225,1.021,1.2a9.506,9.506,0,0,0,1.65,1.335c.56.416,1.47,1.288,4.065,3.8a67.447,67.447,0,0,0,7.355,6.446l3.7,2.85c.963.766,1.586,1.276,1.571,1.42,2.49,1.49,7.9,5.7,10.969,7.584l-2.169-1.145c1.593.992,3.146,1.993,4.681,2.884s3,1.745,4.384,2.512l6.72,3.651a208.418,208.418,0,0,0,29.132,13.154c.561.124.217-.03-.514-.3l-1.325-.479-1.51-.575c-1.975-.749-3.458-1.312-.38-.294,2.216.938,4.6,1.757,7.062,2.655,2.488.809,5.056,1.689,7.743,2.428,2.668.8,5.447,1.479,8.269,2.184,2.839.632,5.726,1.3,8.666,1.823a113.955,113.955,0,0,0,17.875,1.966,70.9,70.9,0,0,0,17.373-1.647c-.6.2-2.587.608-1.134.36,2.13-.587,4.619-1.257,7.372-2.3a42.7,42.7,0,0,0,8.79-4.491,30.9,30.9,0,0,1-5.256,3.116,47.685,47.685,0,0,1-7.357,2.863,8.1,8.1,0,0,0,1.364-.235c.405-.121.822-.3,1.445-.551.309-.132.678-.262,1.105-.457l1.524-.67c1.187-.527,2.73-1.253,4.773-2.322a16.694,16.694,0,0,0-1.586.962,24.542,24.542,0,0,0,5.21-3.2c.25-.2.437-.376.911-.763s1.268-.947,2.605-2.076c-.482.424-.947.868-1.441,1.279l-1.506,1.209,1.664-1.242.985-.811,1-.8,1.086-.952a14.8,14.8,0,0,0,1.077-1.025l.737-.758.434-.447.448-.525c-.457.364-.118-.209.488-1.058.317-.415.637-.947.979-1.453s.692-1,.938-1.437c.141-.175.486-.7.92-1.362.392-.692.866-1.535,1.283-2.346.379-.831.741-1.607,1-2.119s.354-.779.337-.536a54.591,54.591,0,0,0,1.517-5.718c.146-.829.333-1.593.442-2.343s.209-1.472.311-2.188a39.6,39.6,0,0,0-.131-10.094c-.064-1.918.067-1,.234.354.042.34.086.706.13,1.062s.06.7.085,1c.054.6.1,1,.144.917-.023-1.159-.047-2.077-.121-2.8-.058-.722-.105-1.25-.146-1.631-.09-.763-.165-.944-.205-.939-.085.01-.106.76-.346-.89a81.954,81.954,0,0,0-1.5-9.129c-.844-3.959-1.977-8.169-2.74-10.7l.078-.382c-1.129-3.887-2.618-9.051-3.812-13.668-.292-1.158-.574-2.276-.836-3.327s-.481-2.046-.691-2.936c-.383-1.792-.716-3.18-.886-3.941-.144-1.7.032-.941.381.94.377,1.874.962,4.864,1.637,7.622.393,1.1-.892-4.617-1.383-7.338.276,1.391.444,1.858.707,3.445.221.363-.693-3.636-.869-5.151-.429-2.437-.525-3.44-.572-3.606a12.646,12.646,0,0,0,.127,1.32c.215,1.663.581,4.038.2,2.013-.068-.458-.149-1-.239-1.6-.073-.6-.153-1.246-.233-1.907-.185-1.319-.267-2.713-.367-3.863-.122-2.311-.114-3.673.082-1.74-.12-1.984-.087-3.178-.121-3.909a9.958,9.958,0,0,0-.083-1.153c-.06-.3-.156-.123-.094-2.207-.026.778-.052,1.491-.073,2.154s0,1.273-.009,1.847-.009,1.109-.014,1.621c.015.51.028,1,.042,1.469s.028.936.041,1.4.069.921.108,1.395a30.69,30.69,0,0,0,.4,3.088c.121,1.607-.02,1.032-.344-.958-.162-1.649-.353-3.675-.431-5.8-.037-.529-.043-1.065-.04-1.6s-.005-1.075-.008-1.609.02-1.064.045-1.585.05-1.035.074-1.534a43.486,43.486,0,0,1,.617-5.023,6.546,6.546,0,0,1,.461-1.916c.217-1.091.4-2.2.653-3.283.38-1.024.725-2.061,1.136-3.065l.422-1.3c-.2.759-.514,1.683-.761,2.731s-.585,2.149-.782,3.278c-.113.559-.223,1.112-.329,1.648s-.152,1.062-.223,1.549a22.444,22.444,0,0,0-.231,2.442c.015.126.05-.043.1-.4s.164-.9.269-1.53c.121-.626.209-1.346.375-2.027s.327-1.343.456-1.881l.111-.876.158-.863a31.19,31.19,0,0,1,1.829-4.95c.585-1.216,1.23-2.691,2.8-6.2-1.1,2.133-.337.145,1.051-2.941s3.392-7.234,4.4-9.649c.717-1.265,1.067-1.854,1.229-2.091s.161-.115.141.028c-.038.286-.126.669,1.041-1.535a66.457,66.457,0,0,0,3.25-9.459,35.012,35.012,0,0,0,1.037-10.685c.016.5.03.953.042,1.375-.008.421-.018.806-.024,1.158,0,.7-.07,1.267-.1,1.716a8.624,8.624,0,0,1-.187,1.433c-.031.109-.021-.1.008-.479s.03-.932.054-1.506,0-1.174-.018-1.65a5,5,0,0,0-.071-.911c-.032-.083-.035.1-.077.7-.014.3-.032.7-.057,1.226-.045.522-.1,1.166-.17,1.948a37.179,37.179,0,0,0-.057-7.5c-.316-.991-.226-.007-.226.784s.005,1.385-.27-.355l.094-1.147a34.726,34.726,0,0,0-1.365-5.077,52.5,52.5,0,0,0-3.08-7.279,23.971,23.971,0,0,0-1.3-2.713,32.09,32.09,0,0,0-2.639-4.01c-.187-.179-.35-.338-.551-.561s-.465-.494-.824-.915A60.034,60.034,0,0,0,183.4,6.265c-2.3-2.329-2.937-2.865-2.364-2.526.284.172.827.612,1.565,1.2l1.2,1.048c.435.386.879.831,1.359,1.284a50.332,50.332,0,0,1,5.468,6.389c1.548,2.143,2.637,4,3.022,4.537a47.106,47.106,0,0,1,4.09,10.708,40.906,40.906,0,0,1,1.152,8.429c.039.7-.006,1.4-.006,2.129-.037.726-.115,1.469-.176,2.246-.04.387-.056.787-.118,1.188s-.135.81-.2,1.23c-.141.84-.273,1.725-.52,2.637a69.5,69.5,0,0,1-4.95,13.564c-1.8,3.4-1.274,2.175-4.512,8.64-1.246,2.188-.191-.27,1.459-3.754s3.793-8.033,4.508-10.138c-.934,2.041-1.934,4.033-2.737,5.856.26-.728.5-1.459.745-2.19-2.51,5.168-3.166,6.6-3.672,7.9-.258.649-.506,1.252-.958,2.272s-1.128,2.441-2.179,4.764l.977-2.036L185.33,74.3,184.183,77l.464-1.254c-.715,1.654-1.117,2.766-1.65,4.082a40.264,40.264,0,0,0-1.6,5.636l.625-2.239c.236-.736.5-1.463.748-2.193-.257.735-.448,1.342-.608,1.9s-.236,1.095-.35,1.658-.246,1.167-.37,1.908-.26,1.617-.467,2.712c.258-1.213.452-1.994.613-2.661s.356-1.2.527-1.943c-.4,1.588-.6,3.169-.842,4.7-.146,1.548-.326,3.056-.353,4.547-.1,1.488-.033,2.951-.034,4.394.088,1.44.121,2.866.284,4.271,1.671,19.384,9.992,36.708,11.6,55.276-.1-.787-.213-1.738-.272-2.207.053.827.11,1.576.169,2.266s.075,1.324.122,1.914.093,1.139.113,1.661.042,1.022.062,1.511a45.867,45.867,0,0,1-1.189,10.335q-.19.686-.379,1.357-.094.335-.187.667c-.067.22-.153.432-.229.648-.322.853-.589,1.712-.947,2.529l-1.1,2.432c-.434.779-.835,1.581-1.3,2.36a40.342,40.342,0,0,1-7.758,9.274c-.234.367.271.02,1.1-.767l-.873.8-.787.642c-.475.385-.84.674-1.047.827-.429.292-.2.077,1.009-1.034-1.09.941-2.1,1.661-2.991,2.338-.452.327-.9.613-1.312.9s-.812.572-1.222.81c-.813.485-1.559,1-2.388,1.422-.816.447-1.659.91-2.634,1.343a48.042,48.042,0,0,0,8.488-4.76,19.964,19.964,0,0,1-2,1.411c-.55.352-1.008.638-1.531.906l-1.792.98-1.252.65-.754.4-.875.421-1.27.572c-.355.15-.65.256-.879.345a5.927,5.927,0,0,1-.712.248,12.987,12.987,0,0,1,1.449-.691c.844-.444,1.922-.944,2.676-1.4s1.242-.752.976-.667l-1.536.822-1.575.746,1.619-.9,1.572-.977a60.411,60.411,0,0,1-8.133,3.744c-.535.217-1.057.372-1.542.547s-.942.344-1.39.472c-.893.26-1.7.534-2.479.73.895-.2,1.772-.465,2.658-.694q1.313-.4,2.615-.834c1.008-.2-1.145.61-3.932,1.272-2.779.688-6.17,1.166-7.4,1.375l.743-.072-1.375.171-.989.086c-.541.043-.858.065-1.016.072-.318.013-.005-.035.391-.092.793-.114,1.924-.262-.945-.032a80.81,80.81,0,0,1-10.142.284c.581-.023,1.162-.081,1.741-.121-2.952-.17-7.292-.455-12.076-1.144-2.4-.326-4.9-.749-7.4-1.226-1.253-.229-2.5-.508-3.734-.774s-2.464-.515-3.653-.82a179.33,179.33,0,0,1-19.246-5.939c1.272.393,3.874,1.246,3.1.91-4.046-1.276-12.613-4.72-9.655-3.31-1.831-.821-3.678-1.6-5.488-2.453-1.956-.878-3.547-1.514-4.789-2.052.5.212,1.015.4,1.525.593-1.1-.484-2.176-1.04-3.263-1.56-1.079-.536-2.175-1.038-3.24-1.6.06.076-2.353-1.035.835.586-1.82-.852-3.743-1.795-5.752-2.86-1.991-1.1-4.118-2.236-6.292-3.569-4.4-2.582-9.149-5.659-14.325-9.183,1.012.729,2,1.5,3.034,2.2-1.529-1.049-2.683-1.9-3.709-2.591l-1.436-.968-1.311-.914c-1.73-1.215-3.562-2.44-6.685-5.008.5.336,1.006.673,1.519,1-2.279-1.813-5.541-4.449-8.016-6.573s-4.185-3.7-3.625-3.069a7.483,7.483,0,0,0-1.634-1.766c-.427-.4-.916-.863-1.438-1.395s-1.052-1.162-1.6-1.859c-.912-.766-1.766-1.592-2.653-2.392-2.406-2.894-4.575-5.874-2.909-4.019a55.181,55.181,0,0,1-7.8-11.669c-.006-.019-.034-.073-.067-.137-.018-.037-.037-.075-.054-.11l0,.006c-.3-.576-1.125-2.138-1.693-3.288-.535-1.169-.85-1.906-.24-.786-.352-.765-.685-1.454-.967-2.092-.266-.644-.507-1.225-.726-1.752-.458-1.047-.75-1.907-1.018-2.608-.549-1.4-.821-2.227-1.1-3.03-.142-.4-.28-.8-.443-1.264s-.292-1.013-.481-1.7-.426-1.513-.621-2.578c-.106-.531-.223-1.118-.354-1.768s-.209-1.377-.332-2.172l.184-.553-.133-.912L.3,105.761q-.083-.916-.167-1.827C.053,102.718.04,101.5,0,100.3c.043-1.2.04-2.4.129-3.57q.082-.879.16-1.747.039-.433.079-.864c.035-.286.086-.569.126-.851A46.644,46.644,0,0,1,3.85,81.238l.18-.975c.258-.579.445-1,.589-1.3s.262-.48.333-.6c.141-.231.15-.189.2-.226.123-.06.264-.514,2.313-3.867.278-.476.532-.931.7-1.249s.26-.5.183-.433C12.571,66.151,19.573,58.755,27.6,50.458c-.091.034-1.184,1.066-1.721,1.6,3.506-3.554,9.2-9.152,13.567-12.994A216.515,216.515,0,0,1,57.072,23.594,176.338,176.338,0,0,1,79.352,8.7l4.4-2.17,1.036-.506,1.025-.455L87.778,4.7c1.277-.552,2.469-1.078,3.591-1.536l3.147-1.176A48.6,48.6,0,0,1,99.209.444,9.566,9.566,0,0,1,101.538,0c-.758.425-2.124,1.056-3.965,1.957l-3.1,1.565c-1.144.584-2.426,1.167-3.753,1.913l-4.3,2.307c-1.518.834-3.086,1.781-4.753,2.733-1.679.93-3.355,2.04-5.128,3.132-.877.562-1.8,1.089-2.685,1.7Z" transform="translate(0.266 8.918)" fill="#2c2c2c"/>
    </g>
    <path id="Path_187758" data-name="Path 187758" d="M119.392,77.477c-16.527,20.785-98.435,31.888-113.342,0S5.177,20.724,32.894,11.1,92.776-9.873,107.661,15.21,135.921,56.692,119.392,77.477Z" transform="translate(209.076 68.05) rotate(120)" fill="#ffcd2e"/>
    <g id="Group_177246" data-name="Group 177246" transform="translate(6.924 130.864) rotate(-15)">
      <path id="Path_187759" data-name="Path 187759" d="M20.94,1.717C22.9,5.752,18.5,9.906,15.7,12.341a25.452,25.452,0,0,1-5.057,3.881A29.963,29.963,0,0,1,4.2,18.562c-2.884.667-5.838-3.235-3.143-5.4a27.267,27.267,0,0,0,4.062-4.1C6.338,7.577,7.834,6.282,9.16,4.88A27.318,27.318,0,0,1,14.2.856C15.894-.229,19.809-.611,20.94,1.717Z" transform="translate(43.729 0)" fill="#27c5c1"/>
      <path id="Path_187760" data-name="Path 187760" d="M22.754,2.16c1.55,4.311-3.37,8.048-6.481,10.214a25.994,25.994,0,0,1-5.56,3.388A30.619,30.619,0,0,1,3.92,17.435c-3,.362-5.575-3.923-2.6-5.825A27.861,27.861,0,0,0,5.89,7.9c1.4-1.381,3.058-2.533,4.557-3.811A27.883,27.883,0,0,1,16,.549C17.843-.367,21.86-.328,22.754,2.16Z" transform="translate(13.098 26.133)" fill="#4725a0"/>
      <path id="Path_187761" data-name="Path 187761" d="M25.432.576c-4.126-1.714-9.338.753-13.052,2.76a68.279,68.279,0,0,0-11.255,7.9c-2.4,2-.689,6.584,2.615,5.214,4-1.656,8.108-2.944,12.122-4.564a42.782,42.782,0,0,0,6.262-3.163,9.757,9.757,0,0,0,4.7-5.427A2.489,2.489,0,0,0,25.432.576Z" transform="translate(63.623 40.676) rotate(164)" fill="#ffce2e"/>
      <path id="Path_187762" data-name="Path 187762" d="M2,21.178c4.425.7,8.922-2.936,12.068-5.768A68.5,68.5,0,0,0,23.17,5.053c1.87-2.514-.881-6.578-3.778-4.464C15.888,3.146,12.184,5.37,8.655,7.9A42.847,42.847,0,0,0,3.3,12.455a9.781,9.781,0,0,0-3.3,6.4A2.5,2.5,0,0,0,2,21.178Z" transform="translate(2.592 48.088) rotate(7)" fill="#ff0782"/>
    </g>
  </g>
</svg>
