<svg xmlns="http://www.w3.org/2000/svg" width="18.767" height="18" viewBox="0 0 18.767 18">
  <g id="Decorative_icon" data-name="Decorative icon" transform="translate(0.384)">
    <g id="Placement_Area" data-name="Placement Area" fill="red" stroke="rgba(0,0,0,0)" stroke-width="1" opacity="0">
      <rect width="18" height="18" stroke="none"/>
      <rect x="0.5" y="0.5" width="17" height="17" fill="none"/>
    </g>
    <g id="Icon">
      <g id="Canvas" fill="#747474" stroke="#747474" stroke-width="1" opacity="0">
        <rect width="18" height="18" stroke="none"/>
        <rect x="0.5" y="0.5" width="17" height="17" fill="none"/>
      </g>
      <path id="Path_186998" data-name="Path 186998" d="M17.666,10.125,9.375,1.834a.532.532,0,0,0-.75,0L.334,10.125a.531.531,0,0,0,0,.75l.979.979A.5.5,0,0,0,1.666,12H2v4.5a.5.5,0,0,0,.5.5h4a.5.5,0,0,0,.5-.5v-5a.5.5,0,0,1,.5-.5h3a.5.5,0,0,1,.5.5v5a.5.5,0,0,0,.5.5h4a.5.5,0,0,0,.5-.5V12h.333a.5.5,0,0,0,.353-.146l.979-.979A.531.531,0,0,0,17.666,10.125Z" fill="#747474" stroke="rgba(0,0,0,0)" stroke-width="1"/>
    </g>
  </g>
</svg>
