<svg xmlns="http://www.w3.org/2000/svg" width="18" height="18" viewBox="0 0 18 18">
  <g id="Icon" transform="translate(-14 -7)">
    <g id="Canvas" transform="translate(14 7)" fill="#505050" stroke="#505050" stroke-width="1" opacity="0">
      <rect width="18" height="18" stroke="none"/>
      <rect x="0.5" y="0.5" width="17" height="17" fill="none"/>
    </g>
    <path id="Path_185175" data-name="Path 185175" d="M9,1a8,8,0,1,0,8,8A8,8,0,0,0,9,1Zm4.268,8.43-6.013,3.5A.5.5,0,0,1,7,13H6.5a.5.5,0,0,1-.5-.5v-7A.5.5,0,0,1,6.5,5H7a.5.5,0,0,1,.255.07l6.013,3.5a.5.5,0,0,1,0,.86Z" transform="translate(14 7)" fill="#505050"/>
  </g>
</svg>
