<svg xmlns="http://www.w3.org/2000/svg" xmlns:xlink="http://www.w3.org/1999/xlink" width="113" height="132" viewBox="0 0 113 132">
  <defs>
    <clipPath id="clip-path">
      <path id="Rectangle_183002" data-name="Rectangle 183002" d="M4,0H113a0,0,0,0,1,0,0V132a0,0,0,0,1,0,0H4a4,4,0,0,1-4-4V4A4,4,0,0,1,4,0Z" transform="translate(193 88.995)" fill="#fff" stroke="#95989a" stroke-width="1"/>
    </clipPath>
    <linearGradient id="linear-gradient" x1="0.99" y1="0.44" x2="0.027" y2="0.421" gradientUnits="objectBoundingBox">
      <stop offset="0" stop-color="#f9c486"/>
      <stop offset="1" stop-color="#ea0e00"/>
    </linearGradient>
  </defs>
  <g id="Image" transform="translate(-193 -88.995)" clip-path="url(#clip-path)">
    <path id="Path_186580" data-name="Path 186580" d="M8263.453,521.768c-50.206,63.141-299.024,96.868-344.309,0s-2.651-172.4,81.545-201.651,181.908-63.7,227.126,12.5S8313.661,458.627,8263.453,521.768Z" transform="translate(-7835.584 -316.168)" fill="#fafafa"/>
    <path id="Path_186581" data-name="Path 186581" d="M8145.295,445.092c-33.85,42.57-201.606,65.31-232.138,0s-1.787-116.237,54.979-135.956,122.645-42.946,153.132,8.426S8179.146,402.522,8145.295,445.092Z" transform="matrix(0.819, 0.574, -0.574, 0.819, -6117.603, -4716.876)" fill="#f58880"/>
    <g id="Group_177228" data-name="Group 177228" transform="translate(-43.312 69.063) rotate(-19)">
      <g id="Rectangle_182998" data-name="Rectangle 182998" transform="translate(197.658 168.281)" fill="none" stroke="#fff" stroke-width="0.5">
        <rect width="45" height="45" rx="1" stroke="none"/>
        <rect x="0.25" y="0.25" width="44.5" height="44.5" rx="0.75" fill="none"/>
      </g>
      <rect id="Rectangle_182999" data-name="Rectangle 182999" width="45" height="45" transform="translate(204.31 174.214)" fill="url(#linear-gradient)"/>
      <rect id="Rectangle_183000" data-name="Rectangle 183000" width="45" height="45" transform="translate(175.599 192.414)" fill="#4c50cc"/>
      <g id="Rectangle_183001" data-name="Rectangle 183001" transform="translate(167.616 200.241)" fill="none" stroke="#fff" stroke-width="0.5">
        <rect width="45" height="45" rx="1" stroke="none"/>
        <rect x="0.25" y="0.25" width="44.5" height="44.5" rx="0.75" fill="none"/>
      </g>
    </g>
    <circle id="Ellipse_10222" data-name="Ellipse 10222" cx="88" cy="88" r="88" transform="translate(246 77.995)" fill="#eb1000"/>
    <path id="Path_186582" data-name="Path 186582" d="M997.31,229.936a13.9,13.9,0,0,0-2.584,7.392,19.453,19.453,0,0,0,.252,2.064l-.092.1c.063.212.112.425.19.632.042.268-.159-.484-.068-.015l.135.221a3.993,3.993,0,0,0,.215.7c.1.262.139.4-.117-.106a9.16,9.16,0,0,0,.571,1.162,10.3,10.3,0,0,0,.726,1.052c.356.433.273.2.667.667.063.112-.168-.144-.161-.083a5.884,5.884,0,0,0,1.481,1.269c.215.136.432.26.678.411s.521.33.875.544l-.129-.059c.258.118.719.391.732.38-.129-.2-.286-.1-.689-.408.087-.056.567.274.574.2a3.953,3.953,0,0,0,.838.432c.244.148.557.3.853.446l.218.108.21.089a3.482,3.482,0,0,1,.348.169c.136.035.285.059.47.1s.4.1.693.177c.391.186-.118.038.437.223l.1-.026c.458.138.383.132.36.152a1.8,1.8,0,0,0,.479.082,3.158,3.158,0,0,1,.573.107l-.362-.02c.235.037.4.067.587.1a6.854,6.854,0,0,0,.724.126,1.184,1.184,0,0,1-.473-.049,2.394,2.394,0,0,0,.806.085c-.052-.03-.5-.1-.275-.121a5.517,5.517,0,0,1,.923.1l-.36.007c.683.041.367-.009,1.146.051-.042,0-.023.016-.04.026a5.508,5.508,0,0,1,.848.014c.314.012.658.014,1.024.011l-.138.017c.295-.024.455-.075.613-.075-.417-.022-.3-.04-.343-.091a1.843,1.843,0,0,0,.376.014,3.367,3.367,0,0,0,.356-.063,5.112,5.112,0,0,1,.985-.126.84.84,0,0,1-.469.077,2.569,2.569,0,0,1-.873.284c.339-.045.738-.1.656-.051l.1-.093.523-.044c.081-.06-.423-.049.047-.126.529-.085.293.048.371,0a5.844,5.844,0,0,1,.993-.219,1.7,1.7,0,0,1-.265.055,12.641,12.641,0,0,1,1.39-.186.523.523,0,0,1-.267.106l0-.017c-.533.195.454-.122.3,0a6.048,6.048,0,0,1,.967-.274l-.115-.031c.982-.482-.023.135,1-.19.637-.232-.251.056.134-.1a10.117,10.117,0,0,0,1.234-.4l.352-.083c.12-.031.225-.049.253-.024.182-.1.469-.214.734-.329.133-.057.26-.113.365-.165a1.224,1.224,0,0,0,.227-.152c-.319.142-.478.213-.643.307a3.8,3.8,0,0,1-.74.3l.183-.155c.259-.112.549-.249.821-.375s.51-.27.689-.347c-.076.025-.115.026-.077-.01.349-.2.566-.338.783-.471a8.727,8.727,0,0,1,.754-.484c.12,0-.274.228-.555.407.454-.22.451-.27,1.125-.663.066.025-.45.273-.5.365.241-.159.492-.3.719-.481,0,0,0,.006.006.009.051-.147.542-.373.958-.7a8.052,8.052,0,0,0,1.518-1.5c.154-.1.21-.124.167-.055-.254.174-.193.161-.256.25.306-.286.745-.548.594-.364.481-.466-.212.126.074-.168.233-.2.438-.423.659-.634-.109.044-.343.263-.034-.1.268-.294.425-.409.77-.8-.034.071.162-.075-.1.215a3.206,3.206,0,0,0,.514-.61c-.411.4.594-.721.255-.452l.39-.413a3.09,3.09,0,0,1-.195.274c.155-.081.277-.374.4-.532.136-.147.469-.546.51-.569a2.751,2.751,0,0,1,.44-.547c.147-.224-.025-.044,0-.12l.27-.365c.088-.123.169-.25.255-.375.059-.018.191-.022.127.1.16-.308-.027-.167.262-.6-.1.29.428-.543.265-.134a9.265,9.265,0,0,0,.867-1.371c.1-.28-.29.42-.327.362a6.628,6.628,0,0,0,.555-1.192c.054-.144.1-.277.17-.426s.149-.315.258-.529l-.124.217a6.349,6.349,0,0,0,.313-.828c0,.091.118-.04.291-.306a8.139,8.139,0,0,0,.563-1.136c0-.091-.286.478-.278.306l.25-.6c.024-.041.007.03-.017.111a7.259,7.259,0,0,0,.47-1.168c.1-.172.217-.343.313-.52-.041.069-.079.139-.123.206,0-.089.194-.715.225-.848a7.241,7.241,0,0,1,.429-1.208c-.064.1-.215.36-.075-.148.058.021.148-.241.231-.5s.142-.531.174-.514c.052-.207.184-.564.14-.6l.065.054c-.046-.038-.019-.244.036-.513l.178-.9c.114.162.125-.639.307-.87-.074-.129.167-1.04.1-1.159a.739.739,0,0,1,.213-.5v-.216c.087-.218.241-1.059.355-1.555l-.009-.48.068-.166c-.009-.078.041-.467-.03-.233l.046-.251c-.091-.036.032-.357.074-.868.034-.114.051-.079.046.032.042-.251.073-.135.126-.267-.054.174-.02-.931-.174-.262-.046.04-.009-.359.048-.6l.109-.136-.039-.31c.053-.388.133-.544.2-.853-.05.32.04.737.18-.087-.066.434-.053.656-.073.883.032-.17.055-.254.045.018.084-.648-.017-.225.083-.862.07.048.124-.126.249-.675l-.129.4a.3.3,0,0,1-.006-.083c-.036.156-.055.2-.09.227a5.1,5.1,0,0,1,.1-.851c-.237.617.117-1.131-.029-.737a1.791,1.791,0,0,1,.121-.559c-.048.541.165-.381.2-.284.019-.2-.142.4-.115.132a4.154,4.154,0,0,1,.215-.707l-.014.134.14-.476c-.019-.088-.168.454-.088,0a4.47,4.47,0,0,1,.151-.543c0,.223.106.086.033.467.059-.317.3-1.311.129-.927.031-.124.061-.249.1-.372-.093.225-.3.869-.135.116l.013.01.08-.534.1-.216c-.021,0-.017-.085.04-.276.036-.044.1-.221.122-.2.153-.556.109-.52.109-.6.091-.309.143-.42.141-.262.068-.21.165-.5.262-.764a4.913,4.913,0,0,1,.268-.649c.176-.563-.058.108.015-.233a3.93,3.93,0,0,0,.258-.471c.1-.2.19-.438.3-.683.215-.5.458-1.041.684-1.463-.229.171.115-.234.109-.441-.079.192.55-.73.141,0l.257-.441c.236-.262-.4.741-.049.34a8.328,8.328,0,0,1,.818-1.39c-.069.229.289-.428.26-.24a3.35,3.35,0,0,1-.287.426l.084-.084c.381-.489.419-.573.4-.606s-.089-.017.1-.286c.12-.148.208-.248.272-.315a.681.681,0,0,1,.139-.111c.058-.029.059.011.089.008a6.149,6.149,0,0,0,.466-.52c-.286.364-.622.589-.518.4a3.311,3.311,0,0,0,.52-.495,6.071,6.071,0,0,0,.4-.479c-.853.691-.55.516-1.321,1.208-.067.13.008.162-.407.618.208-.33-.056-.011-.13.071.111-.065-.244.354-.338.518-.129.12.118-.373-.253.136l.028.163c-.152.194-.012-.134-.282.315.107-.268-.127.02.259-.58a4.768,4.768,0,0,0-.35.457,4.519,4.519,0,0,0-.231.424c-.137.272-.229.54-.371.838.026-.062.017-.076.042-.138-.042.139-.172.358-.25.537-.219.377.109-.332.031-.245l-.317.632c-.01.011-.013.013-.015.012a1.471,1.471,0,0,1-.184.387c.055-.206.052-.3.091-.44-.088.234-.161.474-.242.71,0-.092-.307.537-.12.039-.14.341-.28.681-.406,1.027l-.105.059c-.081.253-.069.265.052-.028-.162.345-.433,1.621-.511,1.385-.1.424-.183.707-.26,1.015s-.172.635-.284,1.147c.134-.8-.319.874-.137.037a5.759,5.759,0,0,0-.176.986c-.111.354-.154.176-.088-.221-.026.155-.049.311-.071.467l-.013-.012-.047.408c-.133.414-.1.073-.2.509l.047.109-.1.289c.053-.105.013.156-.042.476l-.014-.01-.063.39c.033-.391-.082.351-.1.166-.064.331-.066.338-.161.94l.064-.1c-.1.789-.074.02-.189.653l.06-.03c-.246.9-.21,1.556-.378,2.22.051-.388-.027-.3-.013-.291-.076.584-.243,1.528-.279,2.139a2.465,2.465,0,0,0-.284.864,2.091,2.091,0,0,0-.058.669,11.619,11.619,0,0,1-.273,1.255c.026.109-.085.385-.094.629l-.033.045.06-.026c-.272.737-.2,1.3-.487,2.039l.02-.134-.062.324c-.036.045-.016-.088-.042-.11-.136.49-.249.987-.4,1.472l.125-.277a6.875,6.875,0,0,1-.236.875c.1-.61-.146.486-.238.56.029-.105.05-.213.076-.319-.121.43-.134.426-.067.41-.17.556-.226.344-.344.869l.125-.36c.066-.1.019.178-.064.418-.027.055-.108.217-.052.031-.124.442-.413,1.066-.46,1.264-.1.225-.111.134-.076,0a4.763,4.763,0,0,1-.251.663c-.047.1-.093.2-.266.66l-.022-.028-.1.323c-.082.138-.177.27-.264.405l.111-.138c-.135.291-.2.481-.381.81l.025-.156a5.839,5.839,0,0,1-.458.853,6.379,6.379,0,0,0-.435.827c-.035.047.016-.077.042-.141-.332.727-.373.476-.705,1.21.012-.05-.048.015-.044-.019-.053.11-.106.219-.167.324l-.036-.056-.087.3-.176.152-.053.134a2.61,2.61,0,0,0-.432.527,5.23,5.23,0,0,1-.5.605l.116-.027a9.788,9.788,0,0,1-1.36,1.769c-.28.286-.566.576-.846.873s-.583.571-.853.871l-.022-.064-.21.261-.222.249c-.3.2.124-.181.02-.13-.505.5-.159.264-.763.829-.172.124-.154.088-.071.009s.219-.216.285-.291c-.271.278-.641.582-.988.87-.175.142-.34.286-.5.4s-.306.209-.423.281c-.005.014-.027.042,0,.029-.2.159-.446.336-.7.5s-.531.315-.771.464c0-.031.115-.109.232-.187a4.425,4.425,0,0,0-.556.348l.155-.157c-.095.053-.2.128-.328.2l-.375.2a2.024,2.024,0,0,1-.507.23c.057,0,.058.048-.275.22a2.239,2.239,0,0,0-.616.252,5.579,5.579,0,0,1-.877.39c.063-.037.462-.225.349-.175a7.176,7.176,0,0,0-.764.348l.063-.063c-.434.175-.864.367-1.313.5a2.714,2.714,0,0,0-.709.171c-.278.1-.529.145-.489.107-.49.107.421-.052-.2.1-.174,0-.556.145-.542.079l.064-.022-.431.1.26-.12a1.806,1.806,0,0,0-.646.241c-.363.023-.867.13-1.036.1l.13-.035a9.221,9.221,0,0,1-1.316.066c-.2.007-.385,0-.574,0a3.966,3.966,0,0,0-.577.042c-.059-.007-.052-.023.071-.025-.208,0-.415.009-.622.006.05-.011.1-.03.149-.045-.343.021-.685.016-1.03.025l.015-.03c-.169-.014-.363-.017-.57-.038l-.657-.078c-.228-.028-.463-.05-.693-.081l-.668-.127.13.011a5.754,5.754,0,0,1-.885-.177,6.129,6.129,0,0,0-.683-.2.3.3,0,0,1,.074.007l-.6-.168.142.009a1.374,1.374,0,0,1-.38-.111c-.131-.053-.259-.113-.366-.165-.213-.1-.338-.176-.215-.1l-.451-.117a2.133,2.133,0,0,0-.317-.085c-.617-.288-.134-.107-.5-.31-.221-.107-.359-.154-.511-.221a6.559,6.559,0,0,1-.594-.345l.027-.02c-.135-.076-.248-.134-.373-.2a3.935,3.935,0,0,1-.445-.258l.115.059c-.622-.341-.666-.57-1.177-.807-.214-.2-.632-.563-.568-.591a8.118,8.118,0,0,1-.843-.835,7.786,7.786,0,0,1-.7-.935.25.25,0,0,0-.063-.2,1.6,1.6,0,0,1-.21-.429l-.032.056a5.6,5.6,0,0,1-.492-1.786,10.791,10.791,0,0,1-.03-1.967l.057-.032c-.014-.089-.027-.178-.035-.268.041-.353.114-.731.2-1.116s.2-.773.326-1.148a13.171,13.171,0,0,1,.833-1.94,6.807,6.807,0,0,1,.747-1.36l-.029.057a10.885,10.885,0,0,1,2.179-2.474c-.038.064.057,0-.029.1a3.35,3.35,0,0,1,.7-.585c-.086.045-.168.1-.25.146a2.489,2.489,0,0,1,.789-.542c.13-.113.259-.228.4-.333a.317.317,0,0,1,.091-.03l.062-.073c.089-.029.178-.057.27-.08.052-.037.221-.145.4-.26a3.323,3.323,0,0,0,.451-.307c.056,0,.5-.181.167-.016a10.937,10.937,0,0,1,1.752-.623l-.285.057c-.025-.021.094-.079.256-.139a3.09,3.09,0,0,1,.513-.13c-.359.133-.013.079.152.086.241-.077-.224,0-.1-.058a5.459,5.459,0,0,1,.618-.152,3.159,3.159,0,0,1,.52-.058c-.062.011-.124.027-.186.043a6.658,6.658,0,0,1,1.047,0c.377-.042.654.016.581-.082.548.027.2.081.38.105a2.589,2.589,0,0,1,.612.064,1.882,1.882,0,0,1,.475.149.817.817,0,0,1,.356.039,3.469,3.469,0,0,1,.468.153,2.557,2.557,0,0,0,.628.246,3.145,3.145,0,0,1,.306.26c.023-.016.14-.038.375.159.172.221.075.209.1.288a1.622,1.622,0,0,1,.189.074,1.347,1.347,0,0,1,.141.52,2.381,2.381,0,0,1-.063.654,6.254,6.254,0,0,1-.236.794l-.14.415c-.049.138-.113.272-.169.408a10.737,10.737,0,0,1-1.836,2.954,12.706,12.706,0,0,1-2.376,2.408l.093-.09-.465.342-.483.318c.239-.146.484-.285.711-.449a4.786,4.786,0,0,1-.542.436l-.418.267-.459.264c-.309.189-.654.353-1,.538-.7.342-1.438.69-2.169.978a1.882,1.882,0,0,1-.8.277,2.7,2.7,0,0,0-.785.211c.078-.034.1-.06.171-.093l-.682.219-.6.173c-.2.06-.395.108-.608.165s-.44.122-.7.18c.1-.148-.683.115-.6.032l-.08.065c-.24,0-.795.06-.719.012-.152.045-.307.078-.461.117l-.046-.05a10.861,10.861,0,0,1-2.294.093,27.56,27.56,0,0,1-2.833.073c-1.056-.02-2.164-.091-3.146-.166a10.3,10.3,0,0,1-1.3-.046l-.474-.1a9.07,9.07,0,0,1-1.371-.056c0-.007.021-.011.052-.011a12.737,12.737,0,0,0-1.34-.1c-.507-.055-1-.138-.834-.182-.062.1-1.07-.145-1.07-.145l-1.127-.148c-.721-.1-1.756-.257-3.017-.451-2.52-.4-5.93-1.048-9.5-1.9s-7.289-1.913-10.482-2.933-5.868-1.966-7.4-2.45c-.219-.033-.783-.229-.6-.084-.433-.157-.592-.324-.695-.309.565.271-.233.052.307.346l-.369-.138c-.089,0,.511.164.4.191l.141-.049a2.776,2.776,0,0,1,.533.295,3.39,3.39,0,0,1,1.157.353l-.185-.07c.539.219.307.192.413.253l-.12-.047.439.224c-.336-.161-.933-.321-.633-.2.635.282-.159-.086.33.092.3.112.2.128.174.152l.543.207c-.035.036-.358-.142-.155-.012l.7.219c.086.156.761.24,1.037.455-.5-.155.031.053-.061.059l1.215.436c.109.057-.331-.082-.145-.021a2.472,2.472,0,0,0,.508.156c.094.07.906.327.849.384.813.331.381.026,1.139.331.087.079-.617-.2-.29-.036l.807.257a1.074,1.074,0,0,1-.478-.093,51.716,51.716,0,0,0,5.3,1.916c.269.138-.214-.024-.427-.049a17.287,17.287,0,0,1,1.725.522c.479.17.928.345,1.555.508l.034-.039c1.715.584,3.85,1.02,5.84,1.484l-.232-.081c.284.014.73.1,1.062.149.046.033-.257.047.327.149-.117-.041-.358-.108-.281-.116.423.123.97.244,1.6.375s1.328.28,2.072.4,1.518.273,2.29.387l2.249.348c1.938.225,3.958.47,5.977.637,2.015.189,4.037.312,5.973.309-.589,0-.338-.112.106-.084a24.21,24.21,0,0,0,3.36-.027c1.129-.122,2.2-.235,3.248-.414a14.657,14.657,0,0,0,3.063-.831l.056.039a3.789,3.789,0,0,0,.7-.261l0,.017c.189-.065.386-.137.581-.214l.565-.253c.366-.157.675-.335.889-.419V238.5a3.574,3.574,0,0,0,.651-.33l0,.034c.156-.109.312-.214.465-.326,0,.061.29-.114.617-.323s.677-.483.85-.568c.126-.088.268-.212.431-.346s.345-.278.525-.44l.555-.5c.186-.167.359-.346.532-.5a1.628,1.628,0,0,0,.231-.181c.106-.1.231-.231.371-.376.286-.283.582-.653.823-.933a14.069,14.069,0,0,0,2.349-4.786l-.076.018a5.15,5.15,0,0,0,.1-.517c.014.01.032-.062.028.021a2.06,2.06,0,0,0,.041-.9,3.781,3.781,0,0,0-.3-.942c.086.308.177.4.259.76.027.258,0,.263-.038.125a5.575,5.575,0,0,0-.233-.74l.02.006a2.955,2.955,0,0,0-.261-.379c.024-.079-.218-.408-.22-.478a3.99,3.99,0,0,0-1.042-.754,5.974,5.974,0,0,0-1.018-.4,13.562,13.562,0,0,0-2.155-.429c.088-.02-.209-.052-.485-.067s-.534-.027-.366-.074c-1,.046.163.077-.29.158a4.134,4.134,0,0,1-.613.011c.128-.035-.228-.046,0-.073-.219.021-.439.036-.656.072-.063,0,.079-.033.15-.05a12.209,12.209,0,0,0-3.443.921c-.068.066.444-.168.377-.1l-.624.291-.4.165c-.118.049-.234.1-.381.166s-.318.175-.554.324l.175-.16c-.149.1-.249.188-.377.282s-.289.188-.542.341c-.06,0,.036-.078.176-.184s.33-.223.444-.312c-.357.2-1.191.812-.9.677a9.127,9.127,0,0,1-.766.525c0,.017.378-.256.175-.053a12.206,12.206,0,0,0-1.836,1.683c-.007-.016-.061.011-.02-.047a2.691,2.691,0,0,1-.42.495A3.578,3.578,0,0,0,997.31,229.936Z" transform="matrix(0.966, 0.259, -0.259, 0.966, -580.699, -273.87)" fill="#fff"/>
    <g id="Ellipse_10223" data-name="Ellipse 10223" transform="translate(266 184.995)" fill="none" stroke="#fff" stroke-width="1">
      <circle cx="4.5" cy="4.5" r="4.5" stroke="none"/>
      <circle cx="4.5" cy="4.5" r="4" fill="none"/>
    </g>
  </g>
</svg>
