<svg xmlns="http://www.w3.org/2000/svg" xmlns:xlink="http://www.w3.org/1999/xlink" width="180" height="250" viewBox="0 0 180 250">
  <defs>
    <clipPath id="clip-path">
      <rect id="Rectangle_183010" data-name="Rectangle 183010" width="180" height="250" transform="translate(0 -12)" fill="#fff" stroke="#707070" stroke-width="1"/>
    </clipPath>
    <filter id="Red" x="31.328" y="49.373" width="67.217" height="67.217" filterUnits="userSpaceOnUse">
      <feOffset input="SourceAlpha"/>
      <feGaussianBlur stdDeviation="5.5" result="blur"/>
      <feFlood flood-opacity="0.2"/>
      <feComposite operator="in" in2="blur"/>
      <feComposite in="SourceGraphic"/>
    </filter>
  </defs>
  <g id="Right" transform="translate(0 12)" clip-path="url(#clip-path)">
    <path id="Path_186606" data-name="Path 186606" d="M102.022.1C91.25.546,80.364,2.4,71,7.557,62.611,12.18,55.842,19.224,49.2,26.166L26.553,49.84C13.6,63.382-.192,78.955,0,98.205c.14,14,8.075,27.321,18.665,36.6s23.627,15.048,36.707,19.768c26.486,9.554,44.687-26.722,72.262-29.4s64.543,27.585,81.992,6.126c4.644-5.714,8.626-12.157,10.466-19.4,5.088-20.045-6.84-40.659-18.23-58.405-13.066-20.358-20.1-33.61-42.488-42.962A135.483,135.483,0,0,0,102.022.1Z" transform="matrix(-0.695, 0.719, -0.719, -0.695, 275.468, 114.754)" fill="#facf2f"/>
    <path id="Blob" d="M49.864,170.511c22.629,1.079,26.223-24.41,66.016-40.39,26.512-10.647,36.591-4.022,48.012-16.244,15.221-16.289,14.226-46.151,5.573-66.292C153.744,10.991,106.5-8.056,68.725,3.244,36.544,12.869,21,41.592,15.141,52.414,8.472,64.735-7.38,94.022,4,126.17,10.54,144.668,27.993,169.468,49.864,170.511Z" transform="translate(208.908 196.818) rotate(-180)" fill="#3273de"/>
    <g id="Group_177232" data-name="Group 177232" transform="matrix(-1, 0.017, -0.017, -1, 128.827, 86.959)">
      <g id="Strokes" transform="matrix(-1, 0.017, -0.017, -1, 50.997, 75.293)">
        <path id="Path_186607" data-name="Path 186607" d="M14.774,1.212c1.383,2.846-1.72,5.777-3.7,7.495a17.957,17.957,0,0,1-3.568,2.738A21.14,21.14,0,0,1,2.966,13.1C.931,13.567-1.153,10.814.748,9.287A19.237,19.237,0,0,0,3.614,6.4c.858-1.052,1.913-1.966,2.848-2.954A19.274,19.274,0,0,1,10.016.6C11.214-.162,13.976-.431,14.774,1.212Z" transform="translate(33.094 0)" fill="#3273de"/>
        <path id="Path_186608" data-name="Path 186608" d="M18.6,1.766c1.267,3.524-2.755,6.578-5.3,8.349a21.247,21.247,0,0,1-4.544,2.769A25.028,25.028,0,0,1,3.2,14.252c-2.454.3-4.557-3.206-2.127-4.761A22.773,22.773,0,0,0,4.815,6.454c1.142-1.129,2.5-2.07,3.725-3.115a22.791,22.791,0,0,1,4.54-2.89C14.585-.3,17.869-.268,18.6,1.766Z" transform="translate(0 35.279)" fill="#009c3b"/>
        <path id="Path_186609" data-name="Path 186609" d="M20.5.464C17.174-.917,12.973,1.071,9.98,2.689A55.04,55.04,0,0,0,.907,9.06c-1.937,1.611-.556,5.307,2.108,4.2,3.221-1.335,6.536-2.373,9.771-3.679a34.486,34.486,0,0,0,5.047-2.55,7.865,7.865,0,0,0,3.785-4.375A2.006,2.006,0,0,0,20.5.464Z" transform="translate(8.467 16.623)" fill="#ffce2e"/>
        <path id="Path_186610" data-name="Path 186610" d="M1.605,17.026c3.558.56,7.173-2.36,9.7-4.637a55.07,55.07,0,0,0,7.32-8.326c1.5-2.021-.708-5.289-3.037-3.589C12.773,2.53,9.8,4.318,6.958,6.348a34.447,34.447,0,0,0-4.306,3.666A7.864,7.864,0,0,0,0,15.156,2.006,2.006,0,0,0,1.605,17.026Z" transform="translate(31.021 14.851)" fill="#27c5c1"/>
      </g>
      <g transform="matrix(-1, -0.02, 0.02, -1, 127.08, 101.19)" filter="url(#Red)">
        <circle id="Red-2" data-name="Red" cx="12.114" cy="12.114" r="12.114" transform="translate(82.05 83.88) rotate(138)" fill="#e91018"/>
      </g>
    </g>
  </g>
</svg>
