<svg xmlns="http://www.w3.org/2000/svg" xmlns:xlink="http://www.w3.org/1999/xlink" width="274.109" height="274.109" viewBox="0 0 274.109 274.109">
  <defs>
    <clipPath id="clip-path">
      <rect id="Rectangle_183010" data-name="Rectangle 183010" width="223.809" height="223.809" rx="4" transform="translate(0.18 -0.011)" fill="#fff" stroke="#707070" stroke-width="1"/>
    </clipPath>
    <filter id="Red" x="133.809" y="58.651" width="60.39" height="60.39" filterUnits="userSpaceOnUse">
      <feOffset input="SourceAlpha"/>
      <feGaussianBlur stdDeviation="5.5" result="blur"/>
      <feFlood flood-opacity="0.2"/>
      <feComposite operator="in" in2="blur"/>
      <feComposite in="SourceGraphic"/>
    </filter>
  </defs>
  <g id="Visual" transform="matrix(0.966, -0.259, 0.259, 0.966, -0.171, 57.984)" clip-path="url(#clip-path)">
    <path id="Path_186606" data-name="Path 186606" d="M85.751,131.182c-9.054-.374-18.2-1.928-26.075-6.267-7.051-3.886-12.74-9.806-18.322-15.641l-19.036-19.9C11.429,77.993-.161,64.9,0,48.724.12,36.955,6.789,25.76,15.69,17.959S35.548,5.311,46.542,1.344C68.8-6.687,84.1,23.8,107.28,26.053S161.529,2.867,176.2,20.9c3.9,4.8,7.251,10.218,8.8,16.308,4.276,16.848-5.749,34.174-15.322,49.09-10.982,17.112-16.9,28.249-35.712,36.11A113.875,113.875,0,0,1,85.751,131.182Z" transform="matrix(0.695, 0.719, -0.719, 0.695, 65.982, 16.788)" fill="#facf2f"/>
    <path id="Blob" d="M41.911.028C60.931-.879,63.952,20.545,97.4,33.976c22.283,8.949,30.755,3.38,40.355,13.653,12.794,13.691,11.957,38.791,4.684,55.72-13.213,30.757-52.919,46.767-84.673,37.269-27.048-8.09-40.115-32.232-45.039-41.329C7.121,88.934-6.2,64.318,3.358,37.3,8.859,21.749,23.529.9,41.911.028Z" transform="translate(31.183 34.725)" fill="#3273de"/>
    <g id="Group_177232" data-name="Group 177232" transform="matrix(1, 0.017, -0.017, 1, 98.009, 21.721)">
      <g id="Strokes" transform="translate(42.137 42.375) rotate(-179)">
        <path id="Path_186607" data-name="Path 186607" d="M12.418,10.034c1.162-2.392-1.446-4.856-3.107-6.3a15.093,15.093,0,0,0-3-2.3A17.769,17.769,0,0,0,2.493.045C.783-.351-.969,1.963.629,3.246A16.169,16.169,0,0,1,3.038,5.675c.721.884,1.608,1.652,2.394,2.483a16.2,16.2,0,0,0,2.987,2.387C9.426,11.188,11.747,11.415,12.418,10.034Z" transform="translate(27.816 30.594)" fill="#3273de"/>
        <path id="Path_186608" data-name="Path 186608" d="M15.633,10.51C16.7,7.548,13.317,4.98,11.18,3.492a17.859,17.859,0,0,0-3.82-2.328A21.036,21.036,0,0,0,2.693.015C.631-.234-1.137,2.71.906,4.017A19.141,19.141,0,0,1,4.047,6.569c.96.949,2.1,1.74,3.131,2.618a19.156,19.156,0,0,0,3.816,2.429C12.259,12.246,15.019,12.219,15.633,10.51Z" transform="translate(0 0)" fill="#009c3b"/>
        <path id="Path_186609" data-name="Path 186609" d="M17.231,10.928c-2.8,1.161-6.327-.51-8.843-1.87A46.262,46.262,0,0,1,.762,3.7C-.866,2.349.3-.758,2.534.17c2.707,1.122,5.494,1.994,8.213,3.092a28.986,28.986,0,0,1,4.242,2.143A6.611,6.611,0,0,1,18.17,9.083,1.686,1.686,0,0,1,17.231,10.928Z" transform="translate(7.117 16.357)" fill="#ffce2e"/>
        <path id="Path_186610" data-name="Path 186610" d="M1.349.059c2.99-.471,6.029,1.984,8.155,3.9a46.287,46.287,0,0,1,6.153,7c1.263,1.7-.6,4.445-2.553,3.017-2.368-1.728-4.87-3.231-7.255-4.937A28.953,28.953,0,0,1,2.23,5.953,6.609,6.609,0,0,1,0,1.63,1.686,1.686,0,0,1,1.349.059Z" transform="translate(26.074 14.794)" fill="#27c5c1"/>
      </g>
      <g transform="matrix(0.97, 0.24, -0.24, 0.97, -84.18, -76.23)" filter="url(#Red)">
        <circle id="Red-2" data-name="Red" cx="10.182" cy="10.182" r="10.182" transform="translate(159.55 75.15) rotate(27)" fill="#e91018"/>
      </g>
    </g>
  </g>
</svg>
