<svg xmlns="http://www.w3.org/2000/svg" width="18" height="18" viewBox="0 0 18 18">
  <g id="Icon" transform="translate(-10 -7)">
    <g id="Canvas" transform="translate(10 7)" fill="#6e6e6e" stroke="#6e6e6e" stroke-width="1" opacity="0">
      <rect width="18" height="18" stroke="none"/>
      <rect x="0.5" y="0.5" width="17" height="17" fill="none"/>
    </g>
    <path id="Path_186988" data-name="Path 186988" d="M16.5,1h-9a.5.5,0,0,0-.5.5V7h5V17h4.5a.5.5,0,0,0,.5-.5V1.5A.5.5,0,0,0,16.5,1ZM11,5H8V3h3Zm5,8H13V11h3Zm0-4H13V7h3Zm0-4H13V3h3Z" transform="translate(10 7)" fill="#6e6e6e"/>
    <path id="Path_186989" data-name="Path 186989" d="M1,8.5v8a.5.5,0,0,0,.5.5h9a.5.5,0,0,0,.5-.5v-8a.5.5,0,0,0-.5-.5h-9A.5.5,0,0,0,1,8.5ZM7,9h3v2H7ZM2,9H5v2H2Zm0,4H5v2H2Z" transform="translate(10 7)" fill="#6e6e6e"/>
  </g>
</svg>
