<?xml version="1.0" standalone="no"?>
<!DOCTYPE svg PUBLIC "-//W3C//DTD SVG 1.1//EN" "http://www.w3.org/Graphics/SVG/1.1/DTD/svg11.dtd" >
<svg xmlns="http://www.w3.org/2000/svg" xmlns:xlink="http://www.w3.org/1999/xlink" version="1.1">
<metadata>
Created by FontForge 20170731 at Mon Dec 13 08:57:45 2021
 By Aleksey,,,
(c) 2008 Adobe Systems Incorporated. All Rights Reserved.
</metadata>
<defs>
<font id="AdobeClean-Bold" horiz-adv-x="796" >
  <font-face 
    font-family="Adobe Clean"
    font-weight="700"
    font-stretch="normal"
    units-per-em="2048"
    panose-1="2 11 8 3 2 4 4 2 2 4"
    ascent="1495"
    descent="-553"
    x-height="1010"
    cap-height="1346"
    bbox="-367.941 -494 2400 2019"
    underline-thickness="102"
    underline-position="-307"
    unicode-range="U+0020-FB04"
  />
<missing-glyph horiz-adv-x="1024" 
d="M0 0v1434h1024v-1434h-1024zM164 102h696l-348 523zM571 717l351 -522v1044zM102 1239v-1044l349 522zM164 1331l348 -522l348 522h-696z" />
    <glyph glyph-name="f_f" unicode="ff" horiz-adv-x="1148" 
d="M12 815v182q0 13 13 13h125v65q0 139 45 228q80 174 301 174q70 0 102 -13q12 -5 12 -20v-178q0 -7 -3.5 -11.5t-10.5 -1.5q-34 11 -72 11q-62 0 -94.5 -41t-32.5 -138v-75h330v75q1 100 27.5 176.5t73 123t106.5 69.5t131 23q81 0 115 -15q10 -4 10 -18v-176
q0 -18 -14 -13q-41 9 -68 9q-31 0 -51.5 -5.5t-41.5 -23t-31.5 -56t-10.5 -98.5l2 -71h182q14 0 14 -13v-180q0 -14 -14 -14h-182v-787q0 -16 -17 -16h-215q-16 0 -16 16v787h-330v-785q0 -18 -18 -18h-213q-16 0 -16 18v785h-127q-11 0 -11 12z" />
    <glyph glyph-name="f_f_i" unicode="ffi" horiz-adv-x="1683" 
d="M397 1010h324v75q1 100 27.5 176.5t73.5 123t107.5 69.5t131.5 23q77 0 115 -15q10 -4 10 -18v-176q0 -7 -4 -11.5t-11 -1.5q-41 9 -69 9q-31 0 -51 -5.5t-41 -23t-31 -56t-10 -98.5v-71h184q12 0 12 -13v-180q0 -14 -12 -14h-184v-787q0 -16 -17 -16h-213q-16 0 -16 16
v787h-326v-785q0 -18 -18 -18h-213q-16 0 -16 18v785h-127q-11 0 -11 12v182q0 13 13 13h125v65q0 139 45 228q80 174 301 174q70 0 102 -13q12 -5 12 -20v-178q0 -7 -3.5 -11.5t-10.5 -1.5q-34 11 -72 11q-62 0 -94.5 -41t-32.5 -138v-75zM1305 18v977q0 15 16 15h215
q16 0 16 -15v-979q0 -9 -3 -12.5t-13 -3.5h-213q-18 0 -18 18zM1430 1147q-64 0 -103 39t-39 102q0 62 41 102t103 40q63 0 101 -39.5t38 -102.5t-39 -102t-102 -39z" />
    <glyph glyph-name="f_f_l" unicode="ffl" horiz-adv-x="1716" 
d="M397 1010h326v75q1 100 27.5 176.5t73 123t106.5 69.5t131 23q81 0 115 -15q12 -5 12 -18v-176q0 -7 -4.5 -11.5t-12.5 -1.5q-41 9 -67 9q-31 0 -51.5 -5.5t-41.5 -23t-31.5 -56t-10.5 -98.5l2 -71h182q14 0 14 -13v-180q0 -14 -14 -14h-182v-787q0 -16 -17 -16h-215
q-16 0 -16 16v787h-326v-785q0 -18 -18 -18h-213q-16 0 -16 18v785h-127q-11 0 -11 12v182q0 13 13 13h125v65q0 139 45 228q80 174 301 174q70 0 102 -13q12 -5 12 -20v-178q0 -7 -3.5 -11.5t-10.5 -1.5q-34 11 -72 11q-62 0 -94.5 -41t-32.5 -138v-75zM1305 244v1198
q0 16 18 16h211q18 0 18 -16v-1176q0 -46 17 -65t55 -19q21 0 37 2q6 1 8 -1.5t2 -10.5v-154q0 -15 -12 -22q-37 -16 -117 -16q-53 0 -93 11.5t-74 39.5t-52 81.5t-18 131.5z" />
    <glyph glyph-name="T_h" unicode="Th" horiz-adv-x="2187" 
d="M434 18v1104h-414q-15 0 -12 19l29 202q3 15 18 15h1024q18 0 21 -17v-198q3 -21 -17 -21h-401v-1104q0 -18 -16 -18h-211q-21 -4 -21 18zM1434 743v-729q0 -14 -13 -14h-217q-16 0 -16 16v1428q0 14 14 14h219q13 0 13 -14l2 -508q129 94 280 94q64 0 119.5 -18
t108 -60.5t83.5 -126t31 -200.5v-607q0 -18 -18 -18h-211q-19 0 -19 18v582q0 104 -45 159.5t-133 55.5q-114 0 -198 -72z" />
    <glyph glyph-name="Tcaron_h" unicode="&#x164;h" horiz-adv-x="2187" 
d="M434 18v1104h-414q-15 0 -12 19l29 202q3 15 18 15h1024q18 0 21 -17v-198q3 -21 -17 -21h-401v-1104q0 -18 -16 -18h-211q-21 -4 -21 18zM1434 743v-729q0 -14 -13 -14h-217q-16 0 -16 16v1428q0 14 14 14h219q13 0 13 -14l2 -508q129 94 280 94q64 0 119.5 -18
t108 -60.5t83.5 -126t31 -200.5v-607q0 -18 -18 -18h-211q-19 0 -19 18v582q0 104 -45 159.5t-133 55.5q-114 0 -198 -72zM401 1714l129 -133l127 131q12 12 23 12h184q6 0 8.5 -6.5t-2.5 -9.5l-231 -240q-6 -6 -21 -6h-186q-17 0 -22 8l-240 242q-4 4 -2 8t10 4h199
q9 0 24 -10z" />
    <glyph glyph-name="uni021A_h" unicode="&#x21a;h" horiz-adv-x="2187" 
d="M434 18v1104h-414q-15 0 -12 19l29 202q3 15 18 15h1024q18 0 21 -17v-198q3 -21 -17 -21h-401v-1104q0 -18 -16 -18h-211q-21 -4 -21 18zM1434 743v-729q0 -14 -13 -14h-217q-16 0 -16 16v1428q0 14 14 14h219q13 0 13 -14l2 -508q129 94 280 94q64 0 119.5 -18
t108 -60.5t83.5 -126t31 -200.5v-607q0 -18 -18 -18h-211q-19 0 -19 18v582q0 104 -45 159.5t-133 55.5q-114 0 -198 -72zM565 -461h-186q-7 0 -9 5.5t1 9.5q75 118 75 225q0 47 -30 129q-6 12 8 12h203q11 0 20 -12q31 -48 31 -117q0 -134 -92 -246q-6 -6 -21 -6z" />
    <glyph glyph-name="f_b" unicode="fb" horiz-adv-x="1714" 
d="M150 803h-125q-13 0 -13 14v180q0 13 13 13h125v65q0 139 45 228q80 174 301 174q70 0 102 -13q12 -5 12 -20v-178q0 -7 -3.5 -11.5t-10.5 -1.5q-34 11 -72 11q-63 0 -96 -41t-33 -138v-75h183q16 0 16 -13v-180q0 -5 -1.5 -7.5t-5 -4t-9.5 -2.5h-183v-787q0 -16 -16 -16
h-213q-16 0 -16 16v787zM741 1458h215q11 0 15 -3t4 -13v-441q92 29 188 29q218 0 351 -137t133 -346q0 -137 -50.5 -247.5t-135.5 -179t-190.5 -104.5t-221.5 -36q-169 0 -308 45q-6 1 -10 7t-4 11v1401q0 14 14 14zM1395 522q0 142 -76 219.5t-201 77.5q-79 0 -143 -22
v-598q43 -11 96 -11q136 0 230 86.5t94 247.5z" />
    <glyph glyph-name="f_h" unicode="fh" horiz-adv-x="1726" 
d="M150 803h-125q-13 0 -13 14v180q0 13 13 13h125v65q0 139 45 228q80 174 301 174q70 0 102 -13q12 -5 12 -20v-178q0 -7 -3.5 -11.5t-10.5 -1.5q-34 11 -72 11q-62 0 -94.5 -41t-32.5 -138v-75h181q16 0 16 -13v-180q0 -5 -1.5 -7.5t-5 -4t-9.5 -2.5h-181v-787
q0 -8 -3.5 -12t-14.5 -4h-213q-16 0 -16 16v787zM973 743v-729q0 -14 -15 -14h-217q-16 0 -16 16v1428q0 14 16 14h217q15 0 15 -14v-508q129 94 280 94q51 0 96 -10t91.5 -38t79.5 -72t54 -117t21 -168v-607q0 -18 -16 -18h-213q-18 0 -18 18v582q0 104 -45.5 159.5
t-133.5 55.5q-112 0 -196 -72z" />
    <glyph glyph-name="f_i" unicode="fi" horiz-adv-x="1103" 
d="M727 18v977q0 15 16 15h218q16 0 16 -15v-979q0 -16 -19 -16h-210q-21 0 -21 18zM852 1149q-62 0 -99.5 37.5t-37.5 99.5q0 61 39.5 100t99.5 39q62 0 99.5 -39t37.5 -100q0 -62 -38 -99.5t-101 -37.5zM150 803h-125q-13 0 -13 14v180q0 13 13 13h125v65q0 139 45 228
q80 174 301 174q70 0 102 -13q12 -5 12 -20v-178q0 -7 -3.5 -11.5t-10.5 -1.5q-34 11 -72 11q-62 0 -94.5 -41t-32.5 -138v-75h181q16 0 16 -13v-180q0 -5 -1.5 -7.5t-5 -4t-9.5 -2.5h-181v-787q0 -8 -3.5 -12t-14.5 -4h-213q-16 0 -16 16v787z" />
    <glyph glyph-name="f_j" unicode="fj" horiz-adv-x="1103" 
d="M150 803h-125q-13 0 -13 14v180q0 13 13 13h125v65q0 139 45 228q80 174 301 174q70 0 102 -13q12 -5 12 -20v-178q0 -7 -3.5 -11.5t-10.5 -1.5q-34 11 -72 11q-62 0 -94.5 -41t-32.5 -138v-75h181q16 0 16 -13v-180q0 -5 -1.5 -7.5t-5 -4t-9.5 -2.5h-181v-787
q0 -8 -3.5 -12t-14.5 -4h-213q-16 0 -16 16v787zM745 1010h213q17 0 17 -15v-942q0 -158 -24.5 -241t-78.5 -150q-47 -55 -122.5 -80.5t-147.5 -25.5q-33 0 -47 2q-16 2 -16 18v180q0 17 14 17q86 0 130 45.5t44 169.5v1007q0 15 18 15zM852 1147q-64 0 -102.5 39t-38.5 102
t40 102.5t103 39.5t101 -39.5t38 -102.5t-39 -102t-102 -39z" />
    <glyph glyph-name="f_k" unicode="fk" horiz-adv-x="1619" 
d="M150 1010v65q0 139 45 228q80 174 301 174q70 0 102 -13q12 -5 12 -20v-178q0 -7 -3.5 -11.5t-10.5 -1.5q-34 11 -72 11q-62 0 -94.5 -41t-32.5 -138v-75h181q16 0 16 -13v-180q0 -5 -1.5 -7.5t-5 -4t-9.5 -2.5h-181v-787q0 -8 -3.5 -12t-14.5 -4h-213q-16 0 -16 16v787
h-125q-13 0 -13 14v180q0 13 13 13h125zM1372 1010h230q10 0 13 -6t-3 -13q-56 -66 -406 -434v-8q21 -24 202 -232.5t261 -298.5q6 -6 2.5 -12t-12.5 -6h-281q-16 0 -24 14q-52 57 -379 453v-449q0 -18 -17 -18h-213q-12 0 -15 3.5t-3 14.5v1424q0 8 3.5 12t14.5 4h213
q17 0 17 -16v-867q65 73 218 247t153 175q10 13 26 13z" />
    <glyph glyph-name="f_l" unicode="fl" horiz-adv-x="1140" 
d="M150 803h-125q-13 0 -13 14v180q0 13 13 13h125v65q0 139 45 228q80 174 301 174q70 0 102 -13q12 -5 12 -20v-178q0 -7 -3.5 -11.5t-10.5 -1.5q-34 11 -72 11q-62 0 -94.5 -41t-32.5 -138v-75h181q16 0 16 -13v-180q0 -5 -1.5 -7.5t-5 -4t-9.5 -2.5h-181v-787
q0 -8 -3.5 -12t-14.5 -4h-213q-16 0 -16 16v787zM729 244v1198q0 16 19 16h210q19 0 19 -16v-1176q0 -46 17 -65t55 -19q20 0 36 2q11 3 11 -12v-154q0 -14 -13 -22q-37 -16 -116 -16q-53 0 -93 11.5t-74.5 39.5t-52.5 81.5t-18 131.5z" />
    <glyph glyph-name="f_t" unicode="ft" horiz-adv-x="1222" 
d="M397 1010h332q5 169 21 252q3 15 16 18l209 29q14 3 14 -13q-8 -89 -12 -286h199q14 0 14 -15v-178q0 -14 -12 -14h-203v-481q0 -71 27 -104.5t90 -33.5q36 0 88 15q5 2 9.5 -1.5t4.5 -11.5v-147q0 -20 -14 -25q-67 -34 -181 -34q-272 0 -272 284v539h-330v-785
q0 -18 -18 -18h-213q-16 0 -16 18v785h-125q-13 0 -13 16v178q0 13 15 13h123v65q0 139 45 228q80 174 303 174q64 0 102 -15q12 -2 12 -18v-180q0 -7 -3.5 -11.5t-10.5 -1.5q-37 13 -72 13q-65 0 -97 -39t-32 -135v-80z" />
    <glyph glyph-name="f_f_b" unicode="ffb" horiz-adv-x="2291" 
d="M397 1010h330v75q1 100 27.5 176.5t73 123t106.5 69.5t131 23q81 0 115 -15q10 -4 10 -18v-176q0 -18 -14 -13q-41 9 -68 9q-31 0 -51.5 -5.5t-41.5 -23t-31.5 -56t-10.5 -98.5l2 -71h182q14 0 14 -13v-180q0 -14 -14 -14h-182v-787q0 -16 -17 -16h-215q-16 0 -16 16v787
h-330v-785q0 -18 -18 -18h-213q-16 0 -16 18v785h-127q-11 0 -11 12v182q0 13 13 13h125v65q0 139 45 228q80 174 301 174q70 0 102 -13q12 -5 12 -20v-178q0 -7 -3.5 -11.5t-10.5 -1.5q-34 11 -72 11q-62 0 -94.5 -41t-32.5 -138v-75zM1321 1456h215q10 0 13 -2t3 -12
l2 -441q89 29 187 29q219 0 352 -137t133 -348q0 -136 -51 -246.5t-136 -178.5t-191 -104t-222 -36q-173 0 -307 45q-12 3 -12 18v1401q0 12 14 12zM1972 522q0 143 -74.5 220t-199.5 77q-67 0 -144 -22v-600q53 -11 95 -11q137 0 230 86.5t93 249.5z" />
    <glyph glyph-name="f_f_h" unicode="ffh" horiz-adv-x="2304" 
d="M397 1010h330v75q1 100 27.5 176.5t73 123t106.5 69.5t131 23q81 0 115 -15q10 -4 10 -18v-176q0 -18 -14 -13q-41 9 -68 9q-31 0 -51.5 -5.5t-41.5 -23t-31.5 -56t-10.5 -98.5l2 -71h182q14 0 14 -13v-180q0 -14 -14 -14h-182v-787q0 -16 -17 -16h-215q-16 0 -16 16v787
h-330v-785q0 -18 -18 -18h-213q-16 0 -16 18v785h-127q-11 0 -11 12v182q0 13 13 13h125v65q0 139 45 228q80 174 301 174q70 0 102 -13q12 -5 12 -20v-178q0 -7 -3.5 -11.5t-10.5 -1.5q-34 11 -72 11q-62 0 -94.5 -41t-32.5 -138v-75zM1552 743v-729q0 -14 -14 -14h-217
q-16 0 -16 16v1428q0 14 14 14h219q14 0 14 -14v-508q129 94 281 94q64 0 119.5 -18t108 -60.5t83.5 -126t31 -200.5v-607q0 -18 -18 -18h-211q-19 0 -19 18v582q0 104 -45 159.5t-133 55.5q-116 0 -197 -72z" />
    <glyph glyph-name="f_f_j" unicode="ffj" horiz-adv-x="1681" 
d="M397 1010h330v75q1 100 27.5 176.5t73 123t106.5 69.5t131 23q81 0 115 -15q10 -4 10 -18v-176q0 -18 -14 -13q-41 9 -68 9q-31 0 -51.5 -5.5t-41.5 -23t-31.5 -56t-10.5 -98.5l2 -71h182q14 0 14 -13v-180q0 -14 -14 -14h-182v-787q0 -16 -17 -16h-215q-16 0 -16 16v787
h-330v-785q0 -18 -18 -18h-213q-16 0 -16 18v785h-127q-11 0 -11 12v182q0 13 13 13h125v65q0 139 45 228q80 174 301 174q70 0 102 -13q12 -5 12 -20v-178q0 -7 -3.5 -11.5t-10.5 -1.5q-34 11 -72 11q-62 0 -94.5 -41t-32.5 -138v-75zM1321 1010h215q16 0 16 -15v-942
q0 -159 -24 -241.5t-78 -149.5q-47 -55 -122.5 -80.5t-149.5 -25.5q-32 0 -48 2q-16 3 -16 18v180q0 17 14 17q88 0 132.5 45.5t44.5 169.5v1007q0 15 16 15zM1427 1147q-63 0 -101 39t-38 102t40 102.5t102 39.5q65 0 102 -39.5t37 -102.5t-39 -102t-103 -39z" />
    <glyph glyph-name="f_f_k" unicode="ffk" horiz-adv-x="2197" 
d="M727 1010v75q1 100 27.5 176.5t73 123t106.5 69.5t131 23q81 0 115 -15q10 -4 10 -18v-176q0 -18 -14 -13q-41 9 -68 9q-31 0 -51.5 -5.5t-41.5 -23t-31.5 -56t-10.5 -98.5l2 -71h182q14 0 14 -13v-180q0 -14 -14 -14h-182v-787q0 -16 -17 -16h-215q-16 0 -16 16v787
h-330v-785q0 -18 -18 -18h-213q-16 0 -16 18v785h-127q-11 0 -11 12v182q0 13 13 13h125v65q0 139 45 228q80 174 301 174q70 0 102 -13q12 -5 12 -20v-178q0 -7 -3.5 -11.5t-10.5 -1.5q-34 11 -72 11q-62 0 -94.5 -41t-32.5 -138v-75h330zM1950 1010h231q9 0 12 -6t-4 -13
q-80 -95 -403 -434q-3 -3 0 -8q264 -307 463 -531q4 -6 0.5 -12t-11.5 -6h-282q-17 0 -25 14q-98 108 -379 455v-451q0 -18 -16 -18h-213q-12 0 -15 3.5t-3 14.5v1424q0 8 3.5 12t14.5 4h213q16 0 16 -16v-869q40 45 127.5 145.5t155 178t88.5 100.5q13 13 27 13z" />
    <glyph glyph-name="f_f_t" unicode="fft" horiz-adv-x="1785" 
d="M1540 1010h199q14 0 14 -15v-178q0 -14 -12 -14h-203v-486q0 -69 27 -101t90 -32q35 0 78 9q14 3 14 -13v-147q0 -20 -14 -25q-74 -28 -172 -28q-132 0 -200.5 68t-68.5 216v539h-84h-45h-192v-787q0 -16 -17 -16h-215q-16 0 -16 16v787h-326v-785q0 -18 -18 -18h-213
q-16 0 -16 18v785h-127q-11 0 -11 12v182q0 13 13 13h125v65q0 139 45 228q80 174 301 174q70 0 102 -13q12 -5 12 -20v-178q0 -7 -3.5 -11.5t-10.5 -1.5q-34 11 -72 11q-62 0 -94.5 -41t-32.5 -138v-75h326v75q1 100 27.5 176.5t73 123t106.5 69.5t131 23q81 0 115 -15
q12 -5 12 -18v-176q0 -7 -4.5 -11.5t-12.5 -1.5q-41 9 -67 9q-31 0 -51.5 -5.5t-41.5 -23t-31.5 -56t-10.5 -98.5v-71h194h45h84q5 169 21 252q3 15 16 18l209 29q14 3 14 -11q-8 -91 -12 -288z" />
    <glyph glyph-name="t_t" unicode="tt" horiz-adv-x="1275" 
d="M780 803h-385v-481q0 -71 27 -104.5t90 -33.5q36 0 88 15q5 2 9.5 -1.5t4.5 -11.5v-147q0 -20 -14 -25q-67 -34 -182 -34q-132 0 -200 68t-68 216v539h-127q-9 1 -12 5t-3 13v172q0 17 15 17h127q5 175 20 252q3 15 16 18l209 29q15 4 15 -13q-9 -103 -13 -286h385
q5 169 21 252q3 15 16 18l209 29q14 3 14 -13q-8 -89 -12 -286h199q14 0 14 -15v-178q0 -14 -12 -14h-203v-481q0 -71 27 -104.5t90 -33.5q35 0 88 15q5 2 9.5 -1.5t4.5 -11.5v-147q0 -20 -14 -25q-67 -34 -182 -34q-271 0 -271 284v539z" />
    <glyph glyph-name=".notdef" horiz-adv-x="1024" 
d="M0 0v1434h1024v-1434h-1024zM164 102h696l-348 523zM571 717l351 -522v1044zM102 1239v-1044l349 522zM164 1331l348 -522l348 522h-696z" />
    <glyph glyph-name=".null" horiz-adv-x="0" 
 />
    <glyph glyph-name="nonmarkingreturn" horiz-adv-x="682" 
 />
    <glyph glyph-name="space" unicode=" " horiz-adv-x="468" 
 />
    <glyph glyph-name="exclam" unicode="!" horiz-adv-x="600" 
d="M356 1368q32 0 71.5 -5.5t53.5 -12.5q13 -8 13 -23v-147q0 -112 -16.5 -376t-24.5 -341q0 -12 -15 -12h-164q-11 0 -14 12q-37 527 -37 711v147q0 16 10 22q19 10 58.5 17.5t64.5 7.5zM356 -16q-66 0 -106.5 37t-40.5 100q0 62 41.5 101.5t105.5 39.5q66 0 107 -39
t41 -102t-41 -100t-107 -37z" />
    <glyph glyph-name="quotedbl" unicode="&#x22;" horiz-adv-x="741" 
d="M80 936l-2 506q0 16 18 16h199q17 0 14 -16l-35 -508q-3 -14 -14 -14h-160q-20 0 -20 16zM436 936l-2 502q-3 20 17 20h198q18 0 15 -20l-33 -504q-2 -14 -19 -14h-157q-19 0 -19 16z" />
    <glyph glyph-name="numbersign" unicode="#" horiz-adv-x="1071" 
d="M301 82h-131q-8 0 -10.5 2.5t-1.5 9.5l73 316h-157q-13 0 -13 14v147q0 13 13 13h194l47 204h-143q-10 0 -10 9v155q0 9 10 9h182l64 282q2 12 16 12h129q13 0 10 -14l-63 -280h186l64 284q2 10 10 10h133q13 0 10 -12l-65 -282h156q16 0 16 -13v-149q0 -11 -12 -11h-197
l-45 -204h137q12 0 12 -13v-151q0 -10 -12 -10h-172l-72 -314q-5 -12 -9 -13q-2 -1 -5 -1h-129q-18 0 -12 14l69 314h-186l-74 -318q-3 -10 -12 -10zM469 788l-45 -204h186l47 204h-188z" />
    <glyph glyph-name="dollar" unicode="$" horiz-adv-x="1030" 
d="M610 16v-176q0 -12 -10 -12h-174q-12 0 -12 14v162q-88 3 -171.5 23.5t-142.5 52.5q-14 8 -14 33v211q0 8 6 12t12 -2q80 -62 181 -89.5t194 -27.5q100 0 159.5 34.5t59.5 92.5t-50.5 100.5t-190.5 100.5q-209 82 -289 169t-80 224q0 131 88.5 227.5t241.5 122.5v162
q0 8 2 10t10 2h172q8 0 10 -2t2 -10l7 -158q180 -11 253 -65q9 -6 9 -23v-200q0 -7 -5.5 -10.5t-11.5 -0.5q-133 99 -340 99q-100 0 -155.5 -37t-55.5 -92q0 -37 18.5 -64.5t74 -60t163.5 -76.5q112 -44 186 -90.5t113.5 -97.5t54.5 -100.5t15 -113.5q0 -80 -31 -144.5
t-81 -104.5t-105.5 -63.5t-112.5 -31.5z" />
    <glyph glyph-name="percent" unicode="%" horiz-adv-x="1730" 
d="M1405 1282l-895 -1270q-8 -12 -29 -12h-155q-7 0 -9.5 5t2.5 13l902 1266q9 12 22 12h158q13 0 4 -14zM414 1317q164 0 249 -103.5t85 -273.5q0 -56 -12.5 -109t-39.5 -102t-65.5 -85.5t-95 -58.5t-123.5 -22q-166 0 -251 104t-85 267q0 175 98 279t240 104zM264 940
q0 -92 40 -151.5t112 -59.5q67 0 105 55.5t38 155.5q0 101 -38 156t-107 55q-67 0 -108.5 -54t-41.5 -157zM1319 733q164 0 250 -104t86 -273q0 -70 -20.5 -135t-60 -120t-106 -88t-149.5 -33q-165 0 -251.5 105t-86.5 267q0 174 98 277.5t240 103.5zM1171 356
q0 -93 39.5 -151t112.5 -58q67 0 105 54t38 155t-38 156t-107 55q-67 0 -108.5 -54.5t-41.5 -156.5z" />
    <glyph glyph-name="ampersand" unicode="&#x26;" horiz-adv-x="1423" 
d="M1260 621h-431q45 -43 112.5 -124.5t109.5 -144.5q60 -80 112.5 -112.5t122.5 -32.5q29 0 53 4q15 0 15 -14v-177q0 -12 -3 -16.5t-14 -9.5q-40 -14 -106 -14q-114 0 -198 49t-181 192q-102 151 -201.5 261.5t-138.5 127.5q-61 -4 -118.5 -55.5t-57.5 -138.5
q0 -90 64.5 -148.5t185.5 -58.5q93 0 162 29q6 1 8 -2t2 -11v-194q0 -15 -15 -21q-81 -30 -200 -30q-202 0 -329.5 111t-127.5 300q0 76 24.5 141t67 111t91.5 78.5t104 52.5q-50 58 -80.5 118.5t-30.5 139.5q0 154 112.5 245t297.5 91q156 0 231 -41q12 -6 12 -24v-187
q0 -9 -5 -12t-11 2q-85 47 -217 47q-176 0 -176 -127q0 -77 139 -190h649q18 0 15 -15l-31 -184q-1 -10 -5 -13t-13 -3z" />
    <glyph glyph-name="quotesingle" unicode="'" horiz-adv-x="385" 
d="M80 934l-2 508q0 9 2.5 12.5t11.5 3.5h205q12 0 12 -12l-37 -512q-2 -14 -16 -14h-162q-14 0 -14 14z" />
    <glyph glyph-name="parenleft" unicode="(" horiz-adv-x="727" 
d="M102 604q0 157 29 305t78 264.5t101.5 204.5t111.5 158q10 10 22 10h207q8 0 11 -5t-3 -13q-167 -215 -250 -438t-83 -484q0 -264 83 -488.5t250 -439.5q6 -8 3 -13t-11 -5h-207q-13 0 -22 12q-60 70 -113 158.5t-101.5 205t-77 264t-28.5 304.5z" />
    <glyph glyph-name="parenright" unicode=")" horiz-adv-x="720" 
d="M629 602q0 -158 -29 -306t-78.5 -264t-101.5 -203t-111 -157q-12 -12 -22 -12h-207q-9 0 -11.5 5t3.5 13q168 215 251 438.5t83 485.5t-83.5 486.5t-250.5 439.5q-6 8 -3.5 13t11.5 5h207q9 0 22 -10q61 -71 114 -159t101.5 -204.5t76.5 -264t28 -306.5z" />
    <glyph glyph-name="asterisk" unicode="*" horiz-adv-x="821" 
d="M504 944l190 -244q12 -12 0 -22l-127 -82q-12 -7 -18 8l-158 275l-207 -228q-6 -11 -14 0l-98 103q-13 8 0 18l233 195l-266 100q-4 0 -6.5 5.5t0.5 12.5l69 140q7 13 19 4l233 -152l15 299q0 13 12 13l170 -23q13 0 10 -14l-80 -293l271 82q11 7 16 -8l27 -152
q3 -14 -9 -14z" />
    <glyph glyph-name="plus" unicode="+" horiz-adv-x="1144" 
d="M494 1051h159q13 0 13 -17v-411h397q12 0 12 -17v-145q0 -17 -14 -17h-395v-417q0 -13 -15 -13h-157q-13 0 -13 13v417h-395q-16 0 -16 17v149q0 13 14 13h397v415q0 13 13 13z" />
    <glyph glyph-name="comma" unicode="," horiz-adv-x="425" 
d="M186 -274h-174q-18 0 -10 16q72 143 96.5 273.5t16.5 279.5q0 10 12 10h201q8 0 11 -2.5t3 -11.5q11 -152 -22.5 -296.5t-110.5 -256.5q-6 -12 -23 -12z" />
    <glyph glyph-name="hyphen" unicode="-" horiz-adv-x="669" 
d="M578 418h-484q-14 0 -14 14v186q0 13 14 13h481q3 0 5.5 -0.5t4 -1.5t2.5 -4t1 -7v-188q0 -12 -10 -12z" />
    <glyph glyph-name="period" unicode="." horiz-adv-x="425" 
d="M213 -20q-67 0 -108.5 41t-41.5 112q0 66 42 108t108 42q67 0 109.5 -42.5t42.5 -107.5q0 -69 -41 -111t-111 -42z" />
    <glyph glyph-name="slash" unicode="/" horiz-adv-x="743" 
d="M670 1423l-402 -1501q-2 -10 -14 -10h-170q-13 0 -10 12l403 1501q2 9 12 9h173q11 0 8 -11z" />
    <glyph glyph-name="zero" unicode="0" horiz-adv-x="1120" 
d="M559 1108q-103 0 -164 -112.5t-61 -338.5q0 -222 58 -343t173 -121t169 115.5t54 344.5q0 455 -229 455zM565 -20q-123 0 -216.5 51.5t-150 144t-84.5 212t-28 263.5q0 192 54.5 341.5t163.5 237t259 87.5q109 0 193.5 -40t135.5 -104t84 -153.5t45.5 -179t12.5 -189.5
q0 -107 -15.5 -202.5t-51 -182t-88.5 -149.5t-133.5 -100t-180.5 -37z" />
    <glyph glyph-name="one" unicode="1" horiz-adv-x="694" 
d="M498 0h-219q-17 0 -17 14v1030q-92 -51 -215 -73q-16 -3 -16 12v174q0 15 12 17q164 43 285 122q12 9 30 9h142q10 0 10 -15v-1276q0 -14 -12 -14z" />
    <glyph glyph-name="two" unicode="2" horiz-adv-x="1013" 
d="M895 0h-832q-10 0 -12 3.5t-2 12.5v138q0 18 8 24q9 7 46.5 35.5t56.5 43.5t56 44.5t62.5 51t58 50t60.5 54.5q142 129 192 224.5t50 186.5q0 105 -59 165.5t-183 60.5q-87 0 -155.5 -21.5t-145.5 -62.5q-16 -10 -16 8v188q0 16 10 23q166 88 361 88q109 0 195 -34
t138.5 -92.5t79.5 -132t27 -157.5q0 -123 -53 -238t-179 -235q-117 -117 -253 -221q78 6 301 6h235q10 0 14 -3t2 -11l-43 -185q-6 -14 -20 -14z" />
    <glyph glyph-name="three" unicode="3" horiz-adv-x="1028" 
d="M420 567h-119q-14 0 -14 15v186q0 18 12 18h102q114 0 175 38t61 114q0 74 -58.5 117t-172.5 43q-154 0 -295 -78q-15 -5 -15 8v189q0 14 5 17q2 2 5 3q147 80 347 80q196 0 311 -94.5t115 -251.5q0 -100 -56 -170.5t-131 -102.5q44 -13 84 -36t79 -60t62 -94.5
t23 -128.5q0 -125 -70 -217t-184.5 -137t-257.5 -45q-214 0 -340 67q-12 5 -12 27v202q0 6 6 9t12 0q165 -86 326 -86q135 0 200.5 51t65.5 135q0 182 -266 182z" />
    <glyph glyph-name="four" unicode="4" horiz-adv-x="1087" 
d="M649 309h-579q-17 0 -17 13v159q0 17 10 29l521 774q10 12 28 12h256q17 0 17 -14v-772h155q16 0 13 -14l-27 -177q-3 -10 -16 -10h-125v-293q0 -16 -15 -16h-204q-17 0 -17 16v293zM649 510v182q0 145 13 379h-3q-61 -122 -352 -561h342z" />
    <glyph glyph-name="five" unicode="5" horiz-adv-x="1028" 
d="M823 1079h-424q-2 -7 -25 -100t-30 -123q309 -33 450.5 -145t141.5 -305q0 -191 -137.5 -308.5t-364.5 -117.5q-199 0 -328 63q-12 6 -12 25v200q0 7 5 9t10 -1q151 -79 323 -79q131 0 192.5 53.5t61.5 138.5q0 123 -130 186.5t-431 88.5q-19 0 -19 14v100q8 36 72 265.5
t68 238.5q3 9 6 11.5t12 2.5h621q15 0 10 -16l-53 -186q-3 -15 -19 -15z" />
    <glyph glyph-name="six" unicode="6" horiz-adv-x="1122" 
d="M555 639q-126 0 -219 -66q-4 -24 -4 -69q0 -145 66.5 -227t179.5 -82q100 0 157.5 60.5t57.5 158.5q0 104 -64 164.5t-174 60.5zM924 1305v-189q0 -10 -11 -12q-185 -24 -327 -109.5t-203 -222.5q111 66 248 66q115 0 207.5 -48t149 -143.5t56.5 -222.5q0 -85 -31 -163.5
t-88.5 -141.5t-150 -101t-205.5 -38q-152 0 -263 71.5t-165.5 190t-54.5 268.5q0 162 65 304t177.5 244.5t263.5 170t323 88.5q9 0 9 -12z" />
    <glyph glyph-name="seven" unicode="7" horiz-adv-x="946" 
d="M57 1296h846q12 0 12 -12v-141q0 -12 -6 -27q-160 -373 -508 -1104q-6 -12 -18 -12h-236q-14 0 -8 14q283 573 518 1063h-634q-14 0 -11 15l31 192q2 12 14 12z" />
    <glyph glyph-name="eight" unicode="8" horiz-adv-x="1081" 
d="M541 1112q-87 0 -136 -49.5t-49 -124.5q0 -82 58 -143q17 -17 47 -17h166q27 0 45 21q51 51 51 133q0 83 -48.5 131.5t-133.5 48.5zM543 188q104 0 158.5 55t54.5 140q3 108 -78 170q-22 14 -47 14h-178q-25 0 -41 -12q-86 -56 -86 -168q0 -89 60 -144t157 -55zM545 1317
q101 0 182 -31.5t129.5 -84t74 -115.5t25.5 -130q0 -91 -41.5 -160t-97.5 -114q187 -114 187 -315q0 -172 -133 -279.5t-341 -107.5q-210 0 -331 110.5t-121 274.5q0 192 182 305q-139 111 -139 286q0 71 28 135.5t80 115t134 80.5t182 30z" />
    <glyph glyph-name="nine" unicode="9" horiz-adv-x="1112" 
d="M221 -6l-2 186q0 7 2.5 9.5t11.5 5.5q177 34 303 116.5t185 192.5q-98 -45 -215 -45q-118 0 -214.5 47.5t-156 142.5t-59.5 221q0 187 131.5 317t343.5 130q207 0 339 -146t132 -391q0 -165 -61.5 -307.5t-168 -243.5t-249 -165.5t-305.5 -83.5q-17 -3 -17 14zM573 657
q117 0 197 50q0 6 2 32.5t2 40.5q0 152 -62 240t-173 88q-97 0 -154 -65t-57 -162q0 -112 67 -168t178 -56z" />
    <glyph glyph-name="colon" unicode=":" horiz-adv-x="563" 
d="M281 639q-67 0 -108.5 41.5t-41.5 112.5q0 66 42 107.5t108 41.5q67 0 109 -42t42 -107q0 -70 -40 -112t-111 -42zM281 -20q-67 0 -108.5 41t-41.5 112q0 66 42 109t108 43q67 0 109 -43.5t42 -108.5q0 -70 -40 -111.5t-111 -41.5z" />
    <glyph glyph-name="semicolon" unicode=";" horiz-adv-x="563" 
d="M281 639q-67 0 -108.5 41.5t-41.5 112.5q0 66 42 107.5t108 41.5q67 0 109 -42t42 -107q0 -70 -40 -112t-111 -42zM238 -274h-172q-9 0 -12.5 5t-0.5 11q73 142 97 272.5t16 280.5q0 10 12 10h201q14 0 16 -14q9 -153 -24 -297t-109 -256q-6 -12 -24 -12z" />
    <glyph glyph-name="less" unicode="&#x3c;" horiz-adv-x="1116" 
d="M123 465v137q0 14 10 21l844 426q16 10 16 -7v-163q0 -13 -14 -17l-655 -325v-5l657 -327q12 -6 12 -19v-155q0 -10 -3 -13.5t-11 -1.5l-846 430q-10 8 -10 19z" />
    <glyph glyph-name="equal" unicode="=" horiz-adv-x="1124" 
d="M61 805q0 14 17 14h973q14 0 14 -12v-148q0 -16 -18 -16h-969q-17 0 -17 16v146zM61 410q0 14 15 14h973q16 0 16 -16v-144q0 -16 -21 -16h-968q-15 0 -15 16v146z" />
    <glyph glyph-name="greater" unicode="&#x3e;" horiz-adv-x="1116" 
d="M993 602v-133q0 -13 -10 -18l-850 -435q-5 -2 -7.5 0.5t-2.5 10.5v159q0 16 10 19l655 327v3l-653 327q-12 5 -12 17v161q0 7 3.5 10.5t8.5 0.5l848 -433q10 -5 10 -16z" />
    <glyph glyph-name="question" unicode="?" horiz-adv-x="878" 
d="M442 1366q179 0 280 -91t101 -231q0 -91 -33 -156t-98 -126q-45 -43 -60.5 -58t-44.5 -47.5t-39.5 -55t-10.5 -44.5q0 -59 32 -113q3 -4 1 -9t-9 -5h-178q-17 0 -27 8q-49 57 -49 142q0 66 35.5 117.5t122.5 138.5q58 58 82 94t24 80q0 125 -174 125q-133 0 -258 -68
q-6 -3 -11 -0.5t-5 8.5v199q0 16 8 20q131 72 311 72zM461 -20q-64 0 -104 38.5t-40 104.5q0 64 40.5 102.5t103.5 38.5q64 0 103.5 -39.5t39.5 -101.5q0 -66 -37.5 -104.5t-105.5 -38.5z" />
    <glyph glyph-name="at" unicode="@" horiz-adv-x="1753" 
d="M995 178l33 549q-24 8 -63 8q-114 0 -181 -82.5t-67 -206.5q0 -119 60 -195.5t175 -76.5q31 0 43 4zM1237 862l-39 -667q30 7 60.5 22t66.5 46.5t63 74t45.5 110.5t18.5 150q0 231 -141.5 368.5t-378.5 137.5q-132 0 -245 -43t-197 -123.5t-131.5 -203t-47.5 -273.5
q0 -420 338 -596q10 -7 10 -21l-4 -196q0 -9 -2.5 -10.5t-11.5 2.5q-259 100 -405 314t-146 495q0 239 105 430.5t300.5 302t446.5 110.5q207 0 370 -83t257 -239t94 -360q0 -149 -53 -269t-145.5 -198t-216 -119.5t-267.5 -41.5q-218 0 -346.5 116.5t-128.5 329.5
q0 216 140 350.5t349 134.5q152 0 230 -34q12 -2 12 -17z" />
    <glyph glyph-name="A" unicode="A" horiz-adv-x="1241" 
d="M852 354h-490l-112 -338q-5 -16 -23 -16h-204q-18 0 -15 20l422 1201q15 37 19 110q0 15 12 15h284q12 0 15 -13l473 -1315q3 -18 -12 -18h-230q-14 0 -20 12zM428 578h358q-13 42 -53.5 164.5t-74.5 229t-52 169.5h-2q-9 -39 -24 -90t-36 -117.5t-36 -113t-42.5 -129
t-37.5 -113.5z" />
    <glyph glyph-name="B" unicode="B" horiz-adv-x="1193" 
d="M152 16v1309q0 16 12 18q259 7 397 7q89 0 162 -13t123 -34.5t88.5 -52t61 -62t36.5 -68t18.5 -66.5t4.5 -61q0 -97 -39 -163t-90 -103q34 -17 63.5 -40.5t62 -61t51.5 -93.5t19 -122q0 -192 -152.5 -303t-408.5 -111q-239 0 -395 4q-14 3 -14 16zM395 596v-389
q90 -4 158 -4q148 -2 231.5 48.5t83.5 151.5q0 142 -147 179q-52 14 -139 14h-187zM395 1137v-328h156q124 0 186 -12q78 63 78 161q0 181 -258 181q-36 0 -89.5 -1t-72.5 -1z" />
    <glyph glyph-name="C" unicode="C" horiz-adv-x="1140" 
d="M1073 225v-182q0 -21 -14 -27q-98 -36 -283 -36q-145 0 -270 43t-222.5 126t-153.5 217t-56 304q0 311 200.5 503.5t532.5 192.5q188 0 266 -35q12 -6 12 -22v-195q0 -20 -16 -12q-96 45 -266 45q-217 0 -345 -128t-128 -343q0 -102 29 -185t76.5 -136t111 -88.5
t128 -50.5t132.5 -15q153 0 252 35q14 7 14 -11z" />
    <glyph glyph-name="D" unicode="D" horiz-adv-x="1351" 
d="M152 18v1309q0 14 14 16q207 7 387 7q177 0 315.5 -48.5t227 -136t134.5 -206.5t46 -263q0 -145 -42.5 -264.5t-113.5 -198.5t-166 -134t-196.5 -79t-208.5 -24q-317 0 -383 4q-14 0 -14 18zM399 1130v-917q41 -2 140 -2q221 0 352 125t131 354q0 216 -128.5 330.5
t-342.5 114.5q-29 0 -152 -5z" />
    <glyph glyph-name="E" unicode="E" horiz-adv-x="1085" 
d="M1034 207l-30 -191q-2 -16 -19 -16h-815q-18 0 -18 16v1313q0 17 16 17h790q16 0 19 -15l22 -190q4 -19 -14 -19h-586v-325h533q14 0 14 -15v-194q0 -13 -14 -13h-533v-352h621q17 0 14 -16z" />
    <glyph glyph-name="F" unicode="F" horiz-adv-x="1040" 
d="M399 543v-527q0 -16 -16 -16h-217q-14 0 -14 16v1315q0 15 16 15h790q16 0 19 -17l20 -190q3 -17 -16 -17h-582v-358h523q16 0 16 -14v-193q0 -14 -16 -14h-523z" />
    <glyph glyph-name="G" unicode="G" horiz-adv-x="1323" 
d="M961 532l-230 7q-10 1 -13 5t-3 13v182q0 13 14 13h463q10 0 13 -3.5t3 -13.5v-667q3 -16 -12 -19q-179 -69 -403 -69q-175 0 -313.5 53.5t-226 147t-133.5 216.5t-46 267q0 211 94 370.5t265 245.5t396 86q228 0 332 -49q13 -7 13 -25v-196q0 -9 -5.5 -11.5t-11.5 0.5
q-117 60 -319 60q-245 3 -376.5 -122.5t-131.5 -350.5q0 -208 125 -341.5t350 -133.5q95 0 156 18v317z" />
    <glyph glyph-name="H" unicode="H" horiz-adv-x="1370" 
d="M1202 0h-215q-16 0 -16 16v572h-572v-570q0 -18 -16 -18h-211q-18 0 -18 18v1309q0 19 16 19h213q16 0 16 -17v-518h572v520q0 15 14 15h219q15 0 15 -15v-1315q0 -16 -17 -16z" />
    <glyph glyph-name="I" unicode="I" horiz-adv-x="552" 
d="M399 1329v-1311q0 -18 -16 -18h-215q-16 0 -16 18v1311q0 17 16 17h215q16 0 16 -17z" />
    <glyph glyph-name="J" unicode="J" horiz-adv-x="659" 
d="M268 365v966q0 15 17 15h217q14 0 14 -15v-942q0 -119 -16 -190q-34 -156 -141.5 -232t-270.5 -76q-54 0 -92 9q-14 5 -14 22v189q0 15 18 12q29 -4 63 -4q103 0 154 53.5t51 192.5z" />
    <glyph glyph-name="K" unicode="K" horiz-adv-x="1196" 
d="M649 692l590 -669q6 -7 2.5 -15t-12.5 -8h-260q-21 0 -35 16l-535 609v-607q0 -18 -16 -18h-213q-18 0 -18 18v1313q0 15 16 15h215q16 0 16 -17v-602l527 606q10 13 24 13h236q13 0 16 -7.5t-4 -13.5l-549 -614q-5 -8 0 -19z" />
    <glyph glyph-name="L" unicode="L" horiz-adv-x="1026" 
d="M963 0h-791q-20 0 -20 20v1307q0 19 16 19h219q12 0 12 -15v-1108h602q9 0 13 -4t2 -10l-35 -193q-2 -16 -18 -16z" />
    <glyph glyph-name="M" unicode="M" horiz-adv-x="1701" 
d="M207 1333q2 13 16 13h328q14 0 20 -15q240 -813 281 -1005h2q25 102 160.5 532.5t148.5 472.5q7 15 19 15h319q14 0 17 -13l55 -1317q3 -16 -14 -16h-228q-16 0 -16 14q-7 301 -10.5 672.5t-1.5 482.5h-3q-13 -56 -43.5 -163.5t-74.5 -255t-78 -262t-82.5 -273
t-60.5 -199.5q-2 -16 -19 -16h-205q-18 0 -20 14q-233 823 -309 1157h-5q-4 -429 -38 -1157q0 -14 -17 -14h-205q-9 0 -12 3t-2 13z" />
    <glyph glyph-name="N" unicode="N" horiz-adv-x="1398" 
d="M369 0h-199q-10 0 -14 3.5t-4 14.5v1313q0 15 14 15h289q11 0 15 -3t9 -12q127 -225 307 -559t230 -442h2q-6 171 -6 317v682q0 17 18 17h197q18 0 18 -19v-1309q0 -18 -20 -18h-260q-19 0 -27 14q-14 28 -264 489.5t-297 579.5h-2q10 -130 10 -381v-684q0 -18 -16 -18z
" />
    <glyph glyph-name="O" unicode="O" horiz-adv-x="1417" 
d="M709 1366q147 0 267 -54t199 -147t122 -217.5t44 -267.5q1 -316 -174.5 -508t-457.5 -192q-194 0 -339.5 90.5t-220.5 247t-75 356.5q0 195 79.5 352.5t225 248.5t330.5 91zM330 674q0 -134 43.5 -240t132.5 -170.5t211 -64.5q172 0 271 129.5t97 345.5q0 217 -101 345
t-279 128q-167 0 -271 -125.5t-104 -347.5z" />
    <glyph glyph-name="P" unicode="P" horiz-adv-x="1161" 
d="M152 14v1313q0 16 14 16q273 7 379 7q143 0 251.5 -37.5t170.5 -102t92.5 -142t30.5 -165.5q0 -119 -44 -210t-121.5 -146.5t-177.5 -83t-219 -27.5h-129v-420q0 -16 -16 -16h-215q-16 0 -16 14zM399 1130v-475q35 -2 129 -2q68 0 123 12.5t100 39.5t70 76t25 116
q0 113 -77 175.5t-218 62.5q-95 0 -152 -5z" />
    <glyph glyph-name="Q" unicode="Q" horiz-adv-x="1417" 
d="M332 674q0 -134 43.5 -240t132.5 -170.5t211 -64.5q172 0 271.5 129.5t99.5 345.5q-2 217 -103 345t-278 128q-168 0 -272.5 -125.5t-104.5 -347.5zM1395 -270h-318q-15 0 -33 12q-97 84 -266 242q-46 -4 -67 -4q-194 0 -339 90.5t-219.5 247t-74.5 356.5q0 195 79 352.5
t224 248.5t330 91q147 0 267 -54t199 -147t122 -217.5t44 -267.5q1 -207 -78 -365.5t-221 -244.5q308 -283 355 -324q5 -4 3.5 -10t-7.5 -6z" />
    <glyph glyph-name="R" unicode="R" horiz-adv-x="1202" 
d="M379 0h-211q-16 0 -16 16v1309q0 18 14 18q284 7 405 7q248 0 384.5 -104.5t136.5 -299.5q0 -128 -73.5 -222.5t-191.5 -137.5q56 -78 194 -284.5t179 -278.5q12 -23 -4 -23h-256q-19 0 -29 10q-31 49 -141.5 227t-151.5 244q-11 20 -20.5 27.5t-26.5 7.5h-176v-500
q0 -16 -16 -16zM395 727h178q126 0 199.5 54t73.5 151q0 99 -75 151t-208 52q-85 0 -168 -5v-403z" />
    <glyph glyph-name="S" unicode="S" horiz-adv-x="1015" 
d="M446 -20q-222 0 -358 73q-14 8 -14 31v213q0 6 5 8.5t11 -0.5q163 -106 365 -106q121 0 180 41.5t59 111.5q0 59 -45.5 105t-159.5 94l-98 41q-178 75 -247.5 168.5t-69.5 218.5q0 170 125 278.5t350 108.5q210 0 313 -53q12 -7 12 -27v-199q0 -7 -4.5 -10t-13.5 2
q-118 68 -309 68q-122 0 -177 -42t-55 -104q0 -57 45 -99.5t164 -92.5l78 -33q190 -79 266 -175.5t76 -225.5q0 -181 -133.5 -288t-364.5 -107z" />
    <glyph glyph-name="T" unicode="T" horiz-adv-x="1105" 
d="M430 18v1104h-416q-15 0 -12 17l27 190q3 17 18 17h1018q17 0 20 -19l19 -186q3 -19 -14 -19h-414v-1104q0 -18 -17 -18h-210q-19 -3 -19 18z" />
    <glyph glyph-name="U" unicode="U" horiz-adv-x="1335" 
d="M381 1329v-807q0 -151 73.5 -237t217.5 -86q132 0 207 75t75 252v801q0 19 17 19h215q16 0 16 -17v-815q0 -140 -41 -244.5t-115 -167t-169.5 -92.5t-212.5 -30q-249 0 -390 133t-141 391v823q0 19 17 19h215q16 0 16 -17z" />
    <glyph glyph-name="V" unicode="V" horiz-adv-x="1236" 
d="M633 246h4q123 437 342 1083q6 17 18 17h224q18 0 12 -19l-469 -1313q-5 -14 -21 -14h-237q-16 0 -21 12l-481 1315q-3 8 0 13.5t12 5.5h236q13 0 16 -13q307 -848 365 -1087z" />
    <glyph glyph-name="W" unicode="W" horiz-adv-x="1751" 
d="M1030 1329q187 -791 234 -1030h2q43 249 217 1030q3 17 20 17h215q18 0 15 -19l-347 -1315q-5 -12 -20 -12h-221q-15 0 -21 12q-217 948 -239 1055h-2q-31 -175 -262 -1049q-4 -18 -21 -18h-217q-13 0 -23 16l-342 1313q-3 17 13 17h231q19 0 21 -15q200 -842 227 -1030
h2q11 58 35.5 159.5t85 351t123.5 517.5q3 17 20 17h238q7 0 10 -3.5t6 -13.5z" />
    <glyph glyph-name="X" unicode="X" horiz-adv-x="1114" 
d="M1104 1325l-387 -633l413 -672q5 -8 2.5 -13t-10.5 -7h-252q-22 0 -30 16q-268 459 -299 514h-2q-128 -238 -285 -514q-8 -16 -25 -16h-239q-10 0 -11.5 7t3.5 13l401 656l-393 651q-4 7 -1 13t11 6h250q16 0 24 -15q48 -91 145.5 -261t139.5 -247h2q37 70 281 506
q7 17 24 17h230q18 0 8 -21z" />
    <glyph glyph-name="Y" unicode="Y" horiz-adv-x="1101" 
d="M410 543l-439 784q-5 9 -0.5 14t11.5 5h247q12 0 19 -11q53 -103 112 -217t86 -166.5t54.5 -107t40.5 -81.5t22 -48q57 125 305 618q3 13 17 13h239q16 0 9 -17l-445 -792q-16 -27 -16 -62v-457q0 -18 -19 -18h-209q-20 0 -20 18v465q0 33 -14 60z" />
    <glyph glyph-name="Z" unicode="Z" horiz-adv-x="1120" 
d="M1044 0h-997q-16 0 -16 16v138q0 12 6 24l711 946h-687q-17 0 -14 15l31 190q3 17 18 17h953q12 0 12 -13v-147q0 -16 -10 -29l-699 -934h733q17 0 11 -18l-33 -189q-3 -16 -19 -16z" />
    <glyph glyph-name="bracketleft" unicode="[" horiz-adv-x="651" 
d="M319 1364v-1518l261 -8q10 0 10 -12v-152q-2 -10 -12 -10h-431q-16 0 -16 19v1839q0 18 16 18h431q10 0 10 -10v-152q0 -10 -10 -10z" />
    <glyph glyph-name="backslash" unicode="\" horiz-adv-x="739" 
d="M465 -74l-391 1493q-4 15 10 15h168q12 0 16 -11l398 -1493q3 -11 0 -14.5t-13 -3.5h-170q-10 0 -13 3t-5 11z" />
    <glyph glyph-name="bracketright" unicode="]" horiz-adv-x="663" 
d="M350 -158v1516l-260 8q-8 0 -8 10v152q3 12 12 12h430q17 0 17 -20v-1839q0 -17 -17 -17h-432q-8 0 -8 10v150q0 12 10 12z" />
    <glyph glyph-name="asciicircum" unicode="^" horiz-adv-x="1048" 
d="M973 516h-166q-14 0 -23 12l-262 596h-2l-254 -594q-3 -8 -6.5 -11t-11.5 -3h-162q-18 0 -12 19l340 751q3 10 12 10h188q14 0 19 -12l346 -749q4 -7 2 -13t-8 -6z" />
    <glyph glyph-name="underscore" unicode="_" horiz-adv-x="1054" 
d="M0 -152h1055v-100h-1055v100z" />
    <glyph glyph-name="grave" unicode="`" 
d="M346 1446l209 -293q3 -6 0 -11t-10 -5h-195q-12 0 -20 12l-256 289q-4 8 -2 13t8 5h244q14 0 22 -10z" />
    <glyph glyph-name="a" unicode="a" horiz-adv-x="1015" 
d="M647 199v252q-46 6 -112 6q-234 0 -234 -142q0 -62 48.5 -101.5t152.5 -39.5q82 0 145 25zM887 625v-416q0 -86 4 -129q0 -6 -4 -8q-121 -52 -218.5 -72t-207.5 -20q-178 0 -290 85t-112 250q0 158 127 242t334 84q91 0 127 -4v25q0 22 -8 44.5t-27.5 49t-64 43
t-107.5 16.5q-151 0 -268 -57q-5 -2 -10.5 1t-5.5 11v178q0 14 12 21q131 61 311 61q104 0 183.5 -31t128 -86.5t72.5 -128t24 -159.5z" />
    <glyph glyph-name="b" unicode="b" horiz-adv-x="1116" 
d="M143 1458h215q11 0 15 -3t4 -13l2 -441q89 29 186 29q218 0 351 -137t133 -346q0 -137 -50.5 -247.5t-135.5 -179t-190.5 -104.5t-221.5 -36q-166 0 -308 45q-6 1 -10 7t-4 11v1401q0 14 14 14zM797 522q0 143 -75 220t-200 77q-82 0 -143 -22v-598q40 -11 94 -11
q136 0 230 86.5t94 247.5z" />
    <glyph glyph-name="c" unicode="c" horiz-adv-x="882" 
d="M831 211v-182q0 -15 -10 -17q-78 -32 -227 -32q-243 0 -385.5 147.5t-142.5 374.5q0 230 156 379t407 149q128 0 192 -22q10 -5 10 -23l-2 -182q0 -16 -16 -12q-70 26 -176 26q-143 0 -230.5 -81t-87.5 -226q0 -80 27.5 -141.5t74 -97t101.5 -53t117 -17.5q119 0 178 20
q14 6 14 -10z" />
    <glyph glyph-name="d" unicode="d" horiz-adv-x="1112" 
d="M590 -20q-151 0 -267.5 56t-186.5 174.5t-70 285.5q0 111 40.5 208.5t114.5 170t184 114t242 41.5q35 0 88 -6v420q0 14 13 14h223q10 0 10 -12v-1237q0 -57 8 -131q0 -14 -12 -19q-184 -79 -387 -79zM735 209v600q-38 14 -96 14q-140 0 -230 -84.5t-90 -230.5
q0 -159 82.5 -237t214.5 -78q70 0 119 16z" />
    <glyph glyph-name="e" unicode="e" horiz-adv-x="1028" 
d="M731 449h-416q5 -115 83 -187t227 -72q136 0 254 50q5 3 8.5 0.5t3.5 -9.5v-170q0 -16 -12 -22q-124 -59 -308 -59q-108 0 -195 29.5t-144 78.5t-95 116.5t-54.5 139t-16.5 150.5q0 145 54.5 265t166 195.5t260.5 75.5q88 0 160 -26.5t119 -69.5t80 -100t47 -116t14 -120
q0 -92 -9 -127q-3 -11 -16 -14q-39 -8 -211 -8zM315 625h306q104 0 112 2v16q0 26 -9.5 55.5t-29.5 61.5t-61 53t-96 21q-97 0 -152.5 -61.5t-69.5 -147.5z" />
    <glyph glyph-name="f" unicode="f" horiz-adv-x="567" 
d="M150 803h-125q-13 0 -13 14v180q0 13 13 13h125v47q0 144 45 239q86 181 303 181q70 0 100 -13q12 -4 12 -20v-176q0 -17 -14 -11q-35 7 -64 7q-67 0 -101 -43t-34 -144v-67h181q16 0 16 -13v-180q0 -5 -1.5 -7.5t-5 -4t-9.5 -2.5h-181v-787q0 -8 -3.5 -12t-14.5 -4h-213
q-16 0 -16 16v787z" />
    <glyph glyph-name="g" unicode="g" horiz-adv-x="1052" 
d="M596 6l-223 10q-42 -29 -70.5 -70.5t-28.5 -66.5q0 -58 74 -104.5t195 -46.5q137 0 208.5 46t71.5 111q0 62 -60 89t-167 32zM498 852q-77 0 -121.5 -45t-44.5 -123q0 -73 43.5 -118.5t122.5 -45.5q77 0 120.5 42.5t43.5 117.5q0 77 -41 124.5t-123 47.5zM440 223l209 -8
q205 -10 303.5 -86.5t98.5 -206.5q0 -160 -145.5 -268.5t-379.5 -108.5q-119 0 -213.5 28t-150.5 74t-85.5 101t-29.5 113q0 100 191 266q-46 67 -43 154q0 74 36 133q-141 89 -141 266q0 152 109.5 251t298.5 99q105 0 180 -14q27 -6 47 -6h285q12 0 12 -13v-168
q0 -12 -12 -12q-83 0 -158 10q45 -65 45 -155q0 -158 -111 -244t-284 -86q-41 0 -82 6q-11 -36 -6 -61q3 -35 26 -64z" />
    <glyph glyph-name="h" unicode="h" horiz-adv-x="1130" 
d="M377 743v-729q0 -14 -15 -14h-217q-16 0 -16 16v1428q0 14 16 14h217q15 0 15 -14v-508q129 94 280 94q51 0 96 -10t91.5 -38t79.5 -72t54 -117t21 -168v-607q0 -18 -16 -18h-213q-18 0 -18 18v582q0 104 -45.5 159.5t-133.5 55.5q-115 0 -196 -72z" />
    <glyph glyph-name="i" unicode="i" horiz-adv-x="507" 
d="M129 18v977q0 15 16 15h217q17 0 17 -15v-979q0 -16 -19 -16h-210q-21 0 -21 18zM254 1147q-63 0 -101 39t-38 102t39.5 102.5t101.5 39.5q65 0 102 -39.5t37 -102.5t-38.5 -102t-102.5 -39z" />
    <glyph glyph-name="j" unicode="j" horiz-adv-x="507" 
d="M147 1010h215q17 0 17 -15v-942q0 -158 -24.5 -241t-78.5 -150q-47 -55 -122.5 -80.5t-149.5 -25.5q-31 0 -47 2q-16 3 -16 18v180q0 17 14 17q88 0 132 45.5t44 169.5v1007q0 15 16 15zM256 1147q-64 0 -102.5 39t-38.5 102t39.5 102.5t101.5 39.5q65 0 103 -39.5
t38 -102.5t-39 -102t-102 -39z" />
    <glyph glyph-name="k" unicode="k" horiz-adv-x="1021" 
d="M772 1010h232q10 0 13 -6t-3 -13q-56 -66 -406 -434v-8q21 -24 202 -232.5t261 -298.5q5 -6 2 -12t-12 -6h-281q-15 0 -26 14q-40 46 -377 453v-449q0 -18 -17 -18h-215q-11 0 -14.5 4t-3.5 14v1424q0 16 18 16h215q17 0 17 -16v-867q65 73 218 247t153 175q10 13 24 13z
" />
    <glyph glyph-name="l" unicode="l" horiz-adv-x="542" 
d="M129 244v1198q0 16 18 16h211q19 0 19 -16v-1176q0 -46 17 -65t55 -19q20 0 38 2q9 3 9 -12v-154q0 -14 -13 -22q-37 -16 -116 -16q-53 0 -93 11.5t-74.5 39.5t-52.5 81.5t-18 131.5z" />
    <glyph glyph-name="m" unicode="m" horiz-adv-x="1732" 
d="M360 0h-215q-16 0 -16 18v775q0 124 -8 202q-1 7 3 11t13 4h189q12 0 20 -13q8 -22 12 -82q135 115 299 115q183 0 265 -135q156 135 335 135q54 0 101.5 -11.5t93.5 -40.5t79 -73t53 -114t20 -160v-615q0 -16 -19 -16h-211q-18 0 -18 18v590q0 95 -41.5 152t-130.5 57
q-114 0 -201 -84q6 -34 6 -121v-596q0 -16 -14 -16h-213q-19 0 -19 18v596q0 201 -172 201q-103 0 -194 -76v-723q0 -16 -17 -16z" />
    <glyph glyph-name="n" unicode="n" horiz-adv-x="1128" 
d="M129 16v758q0 139 -8 221q0 15 14 15h187q18 0 24 -15q7 -22 14 -77q133 112 297 112q64 0 119.5 -18t108 -60.5t83.5 -126t31 -200.5v-607q0 -18 -16 -18h-213q-18 0 -18 18v584q0 103 -44.5 158t-132.5 55q-120 0 -198 -84v-715q0 -16 -17 -16h-215q-16 0 -16 16z" />
    <glyph glyph-name="o" unicode="o" horiz-adv-x="1114" 
d="M563 1030q115 0 208.5 -41.5t154 -113t93 -165.5t32.5 -200q0 -237 -137 -383.5t-355 -146.5q-99 0 -182 29.5t-139.5 80t-96 118t-57.5 142t-18 154.5q0 146 59.5 265t174 190t263.5 71zM551 823q-104 0 -170 -85.5t-66 -229.5q0 -143 66.5 -231.5t181.5 -88.5
q101 0 168.5 82.5t67.5 233.5q0 138 -62.5 228.5t-185.5 90.5z" />
    <glyph glyph-name="p" unicode="p" horiz-adv-x="1116" 
d="M545 1030q123 0 221 -39.5t159.5 -108t93.5 -156t32 -187.5q0 -109 -34 -201.5t-92.5 -157.5t-137 -111t-167 -67.5t-182.5 -21.5q-25 0 -61 4v-369q0 -13 -15 -16q-189 -21 -219 -21q-9 0 -11.5 2t-2.5 10v1227q0 77 -6 121q0 8 8 10q73 25 113.5 37t129.5 28.5
t171 16.5zM522 819q-81 0 -145 -20v-604q27 -7 82 -7q63 0 121 19t107.5 57.5t79.5 105t30 152.5q0 140 -72.5 218.5t-202.5 78.5z" />
    <glyph glyph-name="q" unicode="q" horiz-adv-x="1116" 
d="M571 -20q-141 0 -254.5 59t-182 177t-68.5 276q0 111 39.5 208.5t112.5 171t184 116t247 42.5q193 0 340 -57q4 -2 4 -15q-8 -74 -8 -129v-1216q0 -14 -12 -16q-194 -21 -221 -21q-13 0 -13 16v410q-84 -22 -168 -22zM739 211v600q-50 12 -110 12q-138 0 -224 -84.5
t-86 -230.5q0 -151 85 -232t208 -81q65 0 127 16z" />
    <glyph glyph-name="r" unicode="r" horiz-adv-x="712" 
d="M131 1010h193q16 0 22 -17q18 -48 21 -123q57 70 142 115t185 45q17 0 17 -14v-217q0 -15 -19 -15q-105 3 -190.5 -28.5t-122.5 -79.5v-660q0 -16 -19 -16h-213q-18 0 -18 16v707q0 189 -10 274q0 13 12 13z" />
    <glyph glyph-name="s" unicode="s" horiz-adv-x="819" 
d="M692 772q-47 26 -118 42.5t-138 16.5q-75 0 -110 -25.5t-35 -62.5q0 -35 33.5 -62.5t128.5 -64.5q172 -63 242.5 -137.5t70.5 -185.5q0 -145 -108 -229t-296 -84q-189 0 -288 57q-15 9 -15 22v195q0 7 5.5 10t11.5 0q127 -82 293 -82q77 0 117 24.5t40 65.5
q0 39 -36 68.5t-130 67.5q-165 61 -234 135t-69 186q0 125 100.5 213t282.5 88q178 0 258 -41q13 -8 13 -24v-181q0 -18 -19 -12z" />
    <glyph glyph-name="t" unicode="t" horiz-adv-x="645" 
d="M606 180v-147q0 -20 -12 -25q-77 -28 -174 -28q-268 0 -268 284v539h-129q-15 3 -15 18v172q0 17 17 17h129q5 175 20 252q3 15 16 18l207 29q15 3 15 -11q-11 -125 -11 -288h199q14 0 14 -15v-178q0 -14 -14 -14h-201v-486q0 -70 26.5 -101.5t90.5 -31.5q34 0 78 9
q5 2 8.5 -1.5t3.5 -11.5z" />
    <glyph glyph-name="u" unicode="u" horiz-adv-x="1116" 
d="M985 995v-770q0 -82 12 -211q1 -7 -3 -10.5t-13 -3.5h-188q-18 0 -21 12q-10 34 -14 72q-112 -104 -285 -104q-76 0 -136.5 21t-108 66t-73.5 122t-26 182v624q0 15 16 15h215q15 0 15 -15v-596q0 -204 178 -204q107 0 186 73v727q0 15 17 15h215q14 0 14 -15z" />
    <glyph glyph-name="v" unicode="v" horiz-adv-x="983" 
d="M604 0h-235q-13 0 -21 12q-12 35 -154 448.5t-184 534.5q-4 15 13 15h233q13 0 18 -13q188 -612 222 -766h4q35 137 239 766q3 13 17 13h207q5 0 9 -4.5t1 -12.5q-36 -100 -172.5 -489.5t-173.5 -489.5q-6 -14 -23 -14z" />
    <glyph glyph-name="w" unicode="w" horiz-adv-x="1513" 
d="M1178 0h-226q-16 0 -22 18q-112 431 -174 740h-2q-63 -273 -195 -742q-5 -16 -22 -16h-224q-14 0 -18.5 3t-7.5 13l-267 977q-3 7 1.5 12t13.5 5h225q13 0 16 -13q117 -456 168 -757h5q84 379 186 753q2 10 5 13.5t13 3.5h236q13 0 16 -13q30 -119 55.5 -225t41.5 -176
t30.5 -138t21 -101t14 -74.5t9.5 -49.5h4q3 16 20.5 107t32 160.5t47.5 207.5t74 289q3 13 19 13h207q7 0 11 -4t1 -11l-293 -979q-5 -10 -8.5 -13t-13.5 -3z" />
    <glyph glyph-name="x" unicode="x" horiz-adv-x="935" 
d="M301 502l-307 489q-5 6 -2.5 12.5t12.5 6.5h246q16 0 24 -15l195 -354h4l205 358q7 11 18 11h217q9 0 12 -5t-1 -12q-223 -356 -310 -479q190 -296 330 -498q6 -6 3 -11t-13 -5h-252q-17 0 -27 16l-204 357h-2l-211 -361q-6 -12 -23 -12h-219q-8 0 -11 6t1 12
q36 54 151.5 233.5t163.5 250.5z" />
    <glyph glyph-name="y" unicode="y" horiz-adv-x="978" 
d="M14 1010h240q13 0 18 -13q179 -517 230 -704q220 671 231 704q7 13 23 13h211q15 0 12 -17q-198 -610 -537 -1384q-8 -15 -26 -15l-223 -16q-16 0 -11 16q93 187 193 424q6 18 2 33q-231 567 -375 944q-3 6 0.5 10.5t11.5 4.5z" />
    <glyph glyph-name="z" unicode="z" horiz-adv-x="862" 
d="M805 0h-770q-12 0 -12 14v123q0 12 6 21q76 109 280 367.5t219 279.5q-39 -2 -194 -2h-287q-20 0 -14 18l28 174q3 15 19 15h725q5 0 7.5 -1.5t4 -4t2.5 -7.5v-127q0 -16 -10 -28q-57 -84 -139.5 -194t-142.5 -186.5t-128.5 -163t-72.5 -91.5q24 1 58 1t87 -0.5t90 -0.5
h281q17 0 12 -17l-33 -176q-3 -14 -16 -14z" />
    <glyph glyph-name="braceleft" unicode="{" horiz-adv-x="786" 
d="M63 498q-10 0 -10 12v170q0 12 10 12q137 0 189 39.5t55 138.5q1 46 -5.5 148.5t-6.5 142.5q0 54 11 102t40.5 96.5t75 84.5t119 61.5t168.5 32.5q14 4 14 -10v-150q0 -12 -10 -14q-55 -9 -95 -26t-62.5 -36.5t-35 -47t-16.5 -52t-4 -57.5q0 -47 5 -142t5 -139
q0 -213 -197 -264v-6q112 -26 156.5 -96.5t44.5 -175.5q1 -52 -6.5 -157t-7.5 -149q0 -87 47 -137.5t170 -71.5q7 -1 8.5 -3.5t1.5 -10.5v-153q0 -13 -12 -13q-207 17 -313.5 110t-106.5 261q0 49 9 147t9 154q0 102 -54.5 150.5t-195.5 48.5z" />
    <glyph glyph-name="bar" unicode="|" horiz-adv-x="477" 
d="M344 -401h-209v2007h209v-2007z" />
    <glyph glyph-name="braceright" unicode="}" horiz-adv-x="786" 
d="M721 690q8 0 8 -14v-170q0 -10 -10 -10q-136 0 -188 -40t-54 -139q-1 -47 4.5 -158.5t5.5 -150.5q0 -51 -10.5 -97t-38.5 -94.5t-73 -85.5t-119.5 -64.5t-171.5 -37.5q-13 0 -13 13l-2 151q0 11 11 14q59 10 100.5 28t63 37.5t34 48.5t15 51t2.5 53q0 45 -6.5 149.5
t-6.5 149.5q0 107 49 171.5t150 92.5v6q-112 26 -157.5 96.5t-47.5 175.5q0 49 9.5 142t9.5 141q0 86 -46.5 139t-170.5 70q-9 1 -11 3.5t-2 10.5v156q0 10 11 10q209 -10 315 -104.5t106 -266.5q0 -57 -8 -141.5t-8 -136.5q0 -102 54.5 -150.5t195.5 -48.5z" />
    <glyph glyph-name="asciitilde" unicode="~" horiz-adv-x="1132" 
d="M227 367h-145q-12 0 -12 14q-4 187 67.5 274.5t192.5 87.5q70 0 128 -25.5t144 -88.5q80 -59 119 -80t78 -21q51 0 74 42.5t20 146.5q0 12 16 12h142q12 0 12 -12q5 -82 -7 -147t-36 -105t-58.5 -66t-71 -36.5t-77.5 -10.5q-72 0 -130.5 24t-145.5 87q-15 11 -42.5 31.5
t-38.5 28t-29.5 20t-29.5 16.5t-25 8t-28 4q-107 0 -102 -192q0 -12 -15 -12z" />
    <glyph glyph-name="uni00A0" unicode="&#xa0;" horiz-adv-x="468" 
 />
    <glyph glyph-name="exclamdown" unicode="&#xa1;" horiz-adv-x="520" 
d="M233 -369q-85 0 -124 17q-13 10 -13 22v148q0 112 17 378.5t24 338.5q0 12 15 12h163q12 0 15 -12q39 -556 39 -709v-150q0 -14 -13 -22q-19 -10 -58 -16.5t-65 -6.5zM236 1014q65 0 105 -37t40 -100q0 -62 -41 -102t-104 -40q-66 0 -108 40t-42 102q0 64 41.5 100.5
t108.5 36.5z" />
    <glyph glyph-name="cent" unicode="&#xa2;" horiz-adv-x="989" 
d="M719 158v-181q0 -12 -12 -12h-170q-13 0 -13 15v180q-187 31 -299 158t-112 319q0 98 33.5 183t90.5 145t131 99.5t158 55.5v180q0 11 13 11h168q12 0 12 -13v-168q86 0 153 -26q11 -6 11 -21v-188q0 -9 -5.5 -12t-13.5 0q-70 32 -196 32q-140 0 -223 -72t-83 -196
q0 -73 28.5 -128.5t76.5 -86t101 -45t110 -14.5q112 0 192 30q15 6 15 -12v-180q0 -17 -15 -21q-45 -23 -151 -32z" />
    <glyph glyph-name="sterling" unicode="&#xa3;" horiz-adv-x="1001" 
d="M948 0h-891q-12 0 -12 10v164q0 9 10 12q115 39 162 119.5t47 220.5v43h-168q-12 0 -12 15v143q0 7 2 9.5t10 2.5h162v76q0 234 118.5 368t328.5 134q131 0 188 -29q16 -8 16 -26v-187q0 -18 -14 -12q-75 35 -168 35q-115 0 -169 -67t-54 -210v-82h278q13 0 13 -12v-143
q0 -15 -13 -15h-280q-2 -126 -32 -208t-99 -138h610q20 0 14 -14l-30 -195q-3 -14 -17 -14z" />
    <glyph glyph-name="currency" unicode="&#xa4;" horiz-adv-x="1110" 
d="M350 647q0 -62 18.5 -109.5t49 -74t65.5 -39t72 -12.5q40 0 74.5 11.5t65 37t48 72.5t17.5 112q0 100 -54 169t-153 69q-92 0 -147.5 -65.5t-55.5 -170.5zM162 645q0 123 63 217l-149 146q-9 9 0 18l98 100q8 12 19 -2l147 -145q92 65 213 65q127 0 217 -65l150 141
q8 11 20 2l94 -98q7 -7 -2 -16l-147 -146q65 -91 65 -219q0 -125 -63 -215l143 -143q10 -9 0 -19l-94 -92q-13 -13 -23 0l-135 141q-37 -29 -96.5 -48t-126.5 -19q-132 0 -223 65l-131 -139q-11 -11 -23 -2l-94 90q-11 11 -2 23l143 141q-63 87 -63 219z" />
    <glyph glyph-name="yen" unicode="&#xa5;" horiz-adv-x="1050" 
d="M627 0h-209q-17 2 -17 16v287h-266q-12 0 -12 14v125q0 15 14 15h264v121h-264q-5 0 -7.5 0.5t-4.5 3.5t-2 10v121q0 14 16 14h226l-355 557q-4 12 10 12h244q15 0 17 -8q142 -258 188 -347t63 -138h5q7 18 16 38t29 61t40 79.5t65.5 128.5t88.5 174q6 12 19 12h235
q14 0 8 -12l-346 -557h223q11 0 11 -12v-125q0 -12 -13 -12h-272v-121h272q13 0 13 -13v-127q0 -14 -15 -14h-270v-287q-1 -10 -3.5 -13t-10.5 -3z" />
    <glyph glyph-name="brokenbar" unicode="&#xa6;" horiz-adv-x="477" 
d="M344 -401h-209v802h209v-802zM342 1606v-803h-207v803h207z" />
    <glyph glyph-name="section" unicode="&#xa7;" horiz-adv-x="1046" 
d="M692 14q78 91 78 215q0 196 -227 435q-153 160 -198 235.5t-48 147.5q-60 -86 -57 -199q2 -86 51 -176t184 -244q126 -141 176 -234.5t41 -179.5zM115 -190v196q0 5 4 7t10 -1q130 -88 287 -88q102 0 102 58q0 44 -35 96t-172 205q-141 160 -197.5 277.5t-56.5 254.5
q0 157 73 284t197 197t273 70q168 0 236 -47q10 -6 10 -19v-186q0 -8 -7 -10t-12 2q-116 65 -241 65q-119 0 -119 -67q0 -33 37.5 -80.5t167.5 -179.5q71 -73 117 -130t87.5 -127.5t61.5 -147t20 -163.5q0 -119 -43.5 -223.5t-117.5 -178t-173 -115.5t-208 -42
q-95 0 -175 21.5t-114 48.5q-12 6 -12 23z" />
    <glyph glyph-name="dieresis" unicode="&#xa8;" 
d="M197 1163q-55 0 -89 34.5t-34 90.5q0 58 35.5 93.5t91.5 35.5q54 0 87.5 -36t33.5 -93t-35 -91t-90 -34zM594 1163q-53 0 -87 34.5t-34 90.5q0 58 35.5 93.5t89.5 35.5q55 0 88 -35.5t33 -93.5q0 -57 -34.5 -91t-90.5 -34z" />
    <glyph glyph-name="copyright" unicode="&#xa9;" horiz-adv-x="1556" 
d="M96 676q0 143 53 269.5t143.5 216.5t217 142t268.5 52t268 -52.5t216.5 -142.5t143 -216.5t52.5 -270.5q0 -196 -89 -353t-244 -244t-347 -87q-191 0 -347 88t-245.5 245.5t-89.5 352.5zM227 676q0 -163 73 -292t198.5 -200t279.5 -71q251 0 402 157t149 404
q-1 121 -44 226.5t-117 179t-175 115.5t-215 42q-244 0 -397.5 -160t-153.5 -401zM1038 492v-136q0 -11 -10 -16q-73 -37 -203 -37q-179 0 -286 106t-107 263q0 165 114.5 272t293.5 107q113 0 180 -29q10 -3 10 -21v-131q0 -17 -14 -12q-68 33 -158 33q-107 0 -171 -57
t-64 -154q0 -107 68 -162t167 -55q94 0 168 33q12 5 12 -4z" />
    <glyph glyph-name="ordfeminine" unicode="&#xaa;" horiz-adv-x="727" 
d="M344 1202q140 0 217.5 -72.5t75.5 -191.5v-340q0 -11 -10 -18q-160 -48 -283 -48q-84 0 -149.5 20.5t-108.5 69.5t-43 123q0 64 36.5 110t98 69t133 31t148.5 1v11q0 34 -31 59t-109 25q-110 0 -196 -37q-12 -4 -12 10v123q0 7 6 10q102 45 227 45zM221 752
q0 -78 135 -78q67 0 103 12v148q-238 14 -238 -82z" />
    <glyph glyph-name="guillemotleft" unicode="&#xab;" horiz-adv-x="1169" 
d="M111 444v125q0 12 10 17l428 360q7 5 12.5 1.5t5.5 -13.5v-189q0 -15 -14 -24l-246 -217l250 -217q10 -7 10 -23v-196q0 -21 -20 -11l-428 367q-8 8 -8 20zM594 444v125q0 6 10 13l428 364q8 5 13.5 1.5t5.5 -13.5v-189q0 -14 -13 -24l-247 -217l245 -215q13 -10 13 -25
v-196q0 -20 -19 -11l-426 367q-10 7 -10 20z" />
    <glyph glyph-name="logicalnot" unicode="&#xac;" horiz-adv-x="1128" 
d="M72 821h981q12 0 12 -14v-567q0 -15 -10 -15h-162q-10 0 -10 15v403h-811q-11 0 -11 14v150q0 14 11 14z" />
    <glyph glyph-name="uni00AD" unicode="&#xad;" horiz-adv-x="669" 
d="M578 418h-484q-14 0 -14 14v186q0 13 14 13h481q3 0 5.5 -0.5t4 -1.5t2.5 -4t1 -7v-188q0 -12 -10 -12z" />
    <glyph glyph-name="registered" unicode="&#xae;" horiz-adv-x="495" 
d="M268 815q-122 0 -199 79t-77 198q0 116 78 195t198 79q116 0 194.5 -79.5t78.5 -194.5q0 -120 -78 -198.5t-195 -78.5zM268 879q93 0 149 58.5t56 154.5q0 92 -58.5 152.5t-150.5 60.5t-148.5 -59.5t-56.5 -155.5q0 -91 58 -151t151 -60zM227 1061v-86q0 -8 -4 -8h-55
q-6 0 -6 8v252q0 6 6 6h96q115 0 115 -82q0 -52 -57 -74q4 -6 36 -46.5t41 -55.5q4 -8 -4 -8h-63q-7 0 -13 6q-3 5 -57 82q-3 6 -12 6h-23zM227 1176v-62h35q47 0 47 33q0 29 -45 29h-37z" />
    <glyph glyph-name="macron" unicode="&#xaf;" 
d="M115 1372h571q12 0 12 -14v-148q0 -12 -12 -12h-573q-13 0 -13 14v146q0 14 15 14z" />
    <glyph glyph-name="degree" unicode="&#xb0;" horiz-adv-x="587" 
d="M297 1317q112 0 184 -74.5t72 -187.5q0 -114 -71 -190.5t-185 -76.5q-115 0 -188.5 76.5t-73.5 190.5q0 110 74 186t188 76zM297 1196q-56 0 -93.5 -40.5t-37.5 -100.5q0 -61 37.5 -101.5t93.5 -40.5t92.5 40.5t36.5 101.5q0 60 -37.5 100.5t-91.5 40.5z" />
    <glyph glyph-name="plusminus" unicode="&#xb1;" horiz-adv-x="1144" 
d="M494 1270h159q13 0 13 -15v-389h397q8 0 10 -3t2 -13v-145q0 -15 -14 -15h-395v-393q0 -12 -15 -12h-157q-13 0 -13 12v393h-395q-16 0 -16 17v147q0 12 14 12h397v391q0 13 13 13zM84 178h979q7 0 9.5 -3.5t2.5 -14.5v-146q0 -14 -14 -14h-975q-16 0 -16 16v148
q0 14 14 14z" />
    <glyph glyph-name="twosuperior" unicode="&#xb2;" horiz-adv-x="690" 
d="M602 877h-541q-8 0 -8 10v102q0 6 6 12q7 5 48.5 32t55 36.5t51.5 36t54 40.5t45.5 39.5t43.5 43.5t31 41t23.5 45t6.5 43q0 117 -142 117q-101 0 -192 -54q-16 -6 -16 9v133q0 13 10 18q97 57 237 57q136 0 210.5 -71.5t74.5 -180.5q0 -53 -17.5 -99.5t-53.5 -89
t-77.5 -78t-103.5 -79.5h285q10 0 10 -10l-27 -143q-5 -10 -14 -10z" />
    <glyph glyph-name="threesuperior" unicode="&#xb3;" horiz-adv-x="681" 
d="M207 1196v121q0 10 10 10h74q123 0 123 76q0 80 -140 80q-94 0 -188 -49q-12 -7 -12 6v133q0 9 8 14q91 51 235 51q126 0 196.5 -54.5t70.5 -139.5q0 -116 -105 -166v-2q58 -17 98.5 -62.5t40.5 -117.5q0 -113 -89 -171.5t-228 -58.5q-141 0 -229 49q-9 5 -9 19v137
q0 10 11 6q108 -57 219 -57q74 0 110.5 22t36.5 60q0 46 -38 66t-115 20h-70q-10 0 -10 8z" />
    <glyph glyph-name="acute" unicode="&#xb4;" 
d="M276 1151l203 289q9 18 23 18h235q22 0 13 -18l-250 -291q-12 -12 -27 -12h-190q-6 0 -8 4.5t1 9.5z" />
    <glyph glyph-name="uni00B5" unicode="&#xb5;" horiz-adv-x="1153" 
d="M983 -20q-177 0 -207 161q0 2 -1 13.5t-1 13.5q-39 -96 -109 -142t-155 -46q-102 0 -150 59q10 -133 7 -426q0 -17 -15 -19q-42 -5 -118.5 -11.5t-88.5 -6.5q-16 0 -16 16v1403q0 9 3.5 12t14.5 3h215q15 0 15 -13v-632q0 -81 37 -126.5t106 -45.5q97 0 158 86.5
t61 267.5v450q0 13 13 13h223q12 0 12 -13v-712q0 -58 17 -80.5t55 -22.5q21 0 39 2q8 3 8 -12v-154q0 -17 -12 -22q-37 -16 -111 -16z" />
    <glyph glyph-name="paragraph" unicode="&#xb6;" horiz-adv-x="1230" 
d="M649 1346h391q14 0 11 -13q-7 -51 -7 -149l-4 -946q0 -306 11 -379q2 -6 -1.5 -10.5t-9.5 -4.5h-114q-11 0 -15 13q-16 65 -16 454v867h-143v-869q0 -375 -17 -456q-4 -11 -14 -11h-113q-12 0 -12 15q10 82 10 381v393q-83 -3 -158.5 7t-147 35.5t-124 66t-84 104.5
t-31.5 145q0 183 148.5 270t439.5 87z" />
    <glyph glyph-name="periodcentered" unicode="&#xb7;" horiz-adv-x="532" 
d="M266 375q-67 0 -108 40.5t-41 110.5q0 67 41.5 109.5t107.5 42.5q67 0 109.5 -43.5t42.5 -108.5q0 -68 -41 -109.5t-111 -41.5z" />
    <glyph glyph-name="cedilla" unicode="&#xb8;" 
d="M348 12h150l-70 -94q89 -27 131.5 -74t42.5 -123q0 -84 -68.5 -139t-175.5 -55q-97 0 -149 27q-12 7 -12 24v96q0 16 14 13q63 -29 131 -29q88 0 88 61q0 74 -192 97q-5 6 -5.5 26.5t3.5 26.5z" />
    <glyph glyph-name="onesuperior" unicode="&#xb9;" horiz-adv-x="540" 
d="M393 877h-168q-7 0 -9.5 2.5t-2.5 9.5v563q-38 -15 -125 -39q-12 -2 -12 10v125q0 9 8 13q87 18 174 61q6 4 18 4h119q8 0 8 -10v-727q0 -12 -10 -12z" />
    <glyph glyph-name="ordmasculine" unicode="&#xba;" horiz-adv-x="790" 
d="M399 1202q158 0 249 -95t91 -241q0 -154 -95 -244t-247 -90q-87 0 -155 28.5t-109.5 76.5t-62.5 106.5t-21 124.5q0 149 96.5 241.5t253.5 92.5zM397 1055q-69 0 -108 -50t-39 -133q0 -78 39.5 -133t111.5 -55q66 0 106 47.5t40 134.5q0 48 -13.5 88.5t-49 70.5t-87.5 30
z" />
    <glyph glyph-name="guillemotright" unicode="&#xbb;" horiz-adv-x="1169" 
d="M1059 559v-125q0 -11 -10 -16l-428 -361q-9 -4 -15 -1t-6 12v190q0 14 14 25l248 217l-250 215q-10 7 -10 24v195q0 23 19 12l428 -368q10 -5 10 -19zM575 559v-125q0 -9 -12 -12l-428 -365q-16 -10 -16 11v190q0 15 12 25l246 217l-246 215q-12 10 -12 24v195
q0 21 18 12l428 -368q10 -7 10 -19z" />
    <glyph glyph-name="onequarter" unicode="&#xbc;" horiz-adv-x="1484" 
d="M414 -20h-146q-6 0 -8.5 4t0.5 8l729 1313q5 8 15 8h147q6 0 7.5 -3.5t-1.5 -6.5l-725 -1313q-7 -10 -18 -10zM393 547h-168q-7 0 -9.5 2.5t-2.5 9.5v563q-38 -15 -125 -39q-12 -2 -12 11v125q0 8 8 12q87 18 174 61q6 4 18 4h119q8 0 8 -10v-727q0 -12 -10 -12zM1288 0
h-139q-12 0 -12 12v164h-338q-11 0 -11 8v90q0 8 7 19q38 53 178.5 247t144.5 199q10 13 21 13h149q12 0 12 -15v-432h119q11 0 8 -10l-14 -111q-3 -8 -12 -8h-101v-164q0 -12 -12 -12zM950 305h187q0 150 6 279h-4q-20 -31 -99 -147t-90 -132z" />
    <glyph glyph-name="onehalf" unicode="&#xbd;" horiz-adv-x="1550" 
d="M393 -20h-145q-6 0 -8.5 4t0.5 8l727 1313q5 8 14 8h149q4 0 6.5 -3.5t0.5 -6.5l-725 -1313q-10 -10 -19 -10zM395 547h-168q-9 0 -10.5 2t-1.5 10v563q-42 -17 -127 -39q-6 -1 -8 1.5t-2 9.5v125q0 8 8 12q87 18 174 61q4 4 16 4h121q9 0 9 -10v-727q0 -12 -11 -12z
M1450 0h-541q-8 0 -8 10v103q0 6 6 12l54 36t61.5 41.5t58 41.5t59 46t48.5 45.5t42.5 49.5t25 48t10.5 50q0 51 -34 83t-108 32q-102 0 -194 -53q-6 -3 -10.5 -0.5t-4.5 8.5v133q0 14 11 19q96 56 237 59q136 0 209.5 -72.5t73.5 -181.5q0 -101 -61.5 -179t-188.5 -167h285
q10 0 10 -10l-27 -144q-5 -10 -14 -10z" />
    <glyph glyph-name="threequarters" unicode="&#xbe;" horiz-adv-x="1556" 
d="M520 -20h-145q-6 0 -8.5 4t0.5 8l727 1313q5 8 14 8h147q6 0 8 -3.5t-1 -6.5l-723 -1313q-10 -10 -19 -10zM1370 0h-139q-10 0 -10 12v164h-338q-13 0 -13 8v90q0 10 9 19q38 54 321 446q10 13 21 13h149q12 0 12 -15v-432h121q8 0 8 -10l-16 -111q-3 -8 -10 -8h-103
v-164q0 -12 -12 -12zM1032 305h189q0 193 4 279h-4q-41 -67 -189 -279zM211 866v121q0 10 10 10h74q121 0 121 76q0 80 -137 80q-95 0 -189 -49q-12 -7 -12 6v133q0 8 6 14q96 52 235 52q127 0 197 -55t70 -140q0 -117 -103 -166v-2q58 -17 98 -62.5t40 -117.5
q0 -113 -89.5 -171t-228.5 -58t-227 49q-10 5 -10 18v137q0 11 12 7q107 -58 219 -58q145 0 145 82q0 46 -37.5 66t-113.5 20h-70q-10 0 -10 8z" />
    <glyph glyph-name="questiondown" unicode="&#xbf;" horiz-adv-x="776" 
d="M420 -373q-179 0 -280 92t-101 232q0 90 33.5 155t97.5 127q41 38 60.5 57t46.5 49t38 53.5t11 45.5q0 55 -33 111q-3 6 0 11t10 5h178q15 0 25 -8q51 -56 51 -143q0 -65 -36.5 -118t-123.5 -136q-57 -57 -81.5 -94t-24.5 -80q0 -59 42 -93t132 -34q129 0 260 69
q14 7 14 -8v-199q0 -17 -8 -22q-131 -72 -311 -72zM401 1014q64 0 104 -38t40 -104q0 -64 -40 -102.5t-104 -38.5t-103.5 39.5t-39.5 101.5q0 65 38 103.5t105 38.5z" />
    <glyph glyph-name="Agrave" unicode="&#xc0;" horiz-adv-x="1241" 
d="M852 354h-490l-112 -338q-5 -16 -23 -16h-204q-18 0 -15 20l422 1201q15 37 19 110q0 15 12 15h284q12 0 15 -13l473 -1315q3 -18 -12 -18h-230q-14 0 -20 12zM428 578h358q-13 42 -53.5 164.5t-74.5 229t-52 169.5h-2q-9 -39 -24 -90t-36 -117.5t-36 -113t-42.5 -129
t-37.5 -113.5zM487 1708l236 -225q6 -7 3 -12t-11 -5h-205q-20 0 -29 9l-282 225q-4 8 -2 13t10 5h254q16 0 26 -10z" />
    <glyph glyph-name="Aacute" unicode="&#xc1;" horiz-adv-x="1241" 
d="M852 354h-490l-112 -338q-5 -16 -23 -16h-204q-18 0 -15 20l422 1201q15 37 19 110q0 15 12 15h284q12 0 15 -13l473 -1315q3 -18 -12 -18h-230q-14 0 -20 12zM428 578h358q-13 42 -53.5 164.5t-74.5 229t-52 169.5h-2q-9 -39 -24 -90t-36 -117.5t-36 -113t-42.5 -129
t-37.5 -113.5zM463 1473l246 229q8 10 24 10h258q7 0 8.5 -6t-2.5 -10l-282 -226q-10 -12 -29 -12h-215q-7 0 -10 5t2 10z" />
    <glyph glyph-name="Acircumflex" unicode="&#xc2;" horiz-adv-x="1241" 
d="M852 354h-490l-112 -338q-5 -16 -23 -16h-204q-18 0 -15 20l422 1201q15 37 19 110q0 15 12 15h284q12 0 15 -13l473 -1315q3 -18 -12 -18h-230q-14 0 -20 12zM428 578h358q-13 42 -53.5 164.5t-74.5 229t-52 169.5h-2q-9 -39 -24 -90t-36 -117.5t-36 -113t-42.5 -129
t-37.5 -113.5zM733 1458l-129 133l-127 -133q-7 -10 -20 -10h-187q-6 0 -7.5 6t3.5 10l230 240q9 6 20 6h186q17 0 25 -8l238 -242q4 -4 1.5 -8t-10.5 -4h-196q-14 0 -27 10z" />
    <glyph glyph-name="Atilde" unicode="&#xc3;" horiz-adv-x="1241" 
d="M852 354h-490l-112 -338q-5 -16 -23 -16h-204q-18 0 -15 20l422 1201q15 37 19 110q0 15 12 15h284q12 0 15 -13l473 -1315q3 -18 -12 -18h-230q-14 0 -20 12zM428 578h358q-13 42 -53.5 164.5t-74.5 229t-52 169.5h-2q-9 -39 -24 -90t-36 -117.5t-36 -113t-42.5 -129
t-37.5 -113.5zM418 1452h-137q-17 0 -17 12q1 126 60.5 193t148.5 67q55 0 106.5 -26t91.5 -52t68 -26q50 0 60 86q0 12 12 12h135q15 0 15 -12q-8 -258 -199 -258q-42 0 -83.5 15.5t-68 34.5t-58 34.5t-56.5 15.5t-44 -22t-22 -64q0 -10 -12 -10z" />
    <glyph glyph-name="Adieresis" unicode="&#xc4;" horiz-adv-x="1241" 
d="M852 354h-490l-112 -338q-5 -16 -23 -16h-204q-18 0 -15 20l422 1201q15 37 19 110q0 15 12 15h284q12 0 15 -13l473 -1315q3 -18 -12 -18h-230q-14 0 -20 12zM428 578h358q-13 42 -53.5 164.5t-74.5 229t-52 169.5h-2q-9 -39 -24 -90t-36 -117.5t-36 -113t-42.5 -129
t-37.5 -113.5zM393 1458q-59 0 -95 32t-36 87q0 54 38.5 89.5t96.5 35.5q59 0 95 -35t36 -90t-37 -87t-98 -32zM819 1458q-58 0 -94.5 32t-36.5 87q0 54 38.5 89.5t96.5 35.5q57 0 94 -35.5t37 -89.5q0 -55 -37 -87t-98 -32z" />
    <glyph glyph-name="Aring" unicode="&#xc5;" horiz-adv-x="1241" 
d="M852 354h-490l-112 -338q-5 -16 -23 -16h-204q-18 0 -15 20l422 1201q15 37 19 110q0 15 12 15h284q12 0 15 -13l473 -1315q3 -18 -12 -18h-230q-14 0 -20 12zM428 578h358q-13 42 -53.5 164.5t-74.5 229t-52 169.5h-2q-9 -39 -24 -90t-36 -117.5t-36 -113t-42.5 -129
t-37.5 -113.5zM383 1591q0 86 62.5 135.5t160.5 49.5q99 0 161 -50.5t62 -134.5q0 -87 -62 -137.5t-161 -50.5t-161 50.5t-62 137.5zM516 1591q0 -37 25 -59.5t65 -22.5q42 0 67 22t25 60q0 37 -25.5 59.5t-66.5 22.5q-40 0 -65 -23.5t-25 -58.5z" />
    <glyph glyph-name="AE" unicode="&#xc6;" horiz-adv-x="1693" 
d="M217 0h-231q-8 0 -10.5 5t1.5 13l601 1209q16 31 36 108q7 11 17 11h942q14 0 14 -15l15 -196q1 -7 -3 -10t-12 -3h-561l27 -325h508q13 0 10 -13l-8 -200q0 -11 -15 -11h-477l31 -350h557q13 0 10 -14l-37 -197q-4 -12 -16 -12h-733q-9 0 -9 8l-34 398h-414l-188 -392
q-8 -14 -21 -14zM522 629h303l-28 332q-14 166 -17 213h-4q-16 -40 -54.5 -129.5t-51.5 -120.5z" />
    <glyph glyph-name="Ccedilla" unicode="&#xc7;" horiz-adv-x="1140" 
d="M553 -131l94 119q-123 18 -225.5 69t-181 133.5t-122.5 205.5t-44 274q0 311 200.5 503.5t532.5 192.5q188 0 266 -35q12 -6 12 -22v-195q0 -20 -16 -12q-96 45 -266 45q-217 0 -345 -128t-128 -343q0 -102 29 -185t76.5 -136t111 -88.5t128 -50.5t132.5 -15
q153 0 252 35q14 7 14 -11v-182q0 -21 -14 -27q-86 -33 -268 -36l-48 -62q88 -27 132.5 -74.5t44.5 -122.5q0 -86 -68 -140t-176 -54q-96 0 -152 27q-10 5 -10 16v106q0 13 12 11q60 -29 133 -29q86 0 86 61q0 74 -192 97q-5 6 -5 26.5t5 26.5z" />
    <glyph glyph-name="Egrave" unicode="&#xc8;" horiz-adv-x="1085" 
d="M1034 207l-30 -191q-2 -16 -19 -16h-815q-18 0 -18 16v1313q0 17 16 17h790q16 0 19 -15l22 -190q4 -19 -14 -19h-586v-325h533q14 0 14 -15v-194q0 -13 -14 -13h-533v-352h621q17 0 14 -16zM467 1704l238 -223q9 -19 -11 -19h-205q-14 0 -28 11l-281 225q-6 6 -4 11
t10 5h256q19 0 25 -10z" />
    <glyph glyph-name="Eacute" unicode="&#xc9;" horiz-adv-x="1085" 
d="M1034 207l-30 -191q-2 -16 -19 -16h-815q-18 0 -18 16v1313q0 17 16 17h790q16 0 19 -15l22 -190q4 -19 -14 -19h-586v-325h533q14 0 14 -15v-194q0 -13 -14 -13h-533v-352h621q17 0 14 -16zM408 1481l243 229q8 8 25 8h258q7 0 9 -6t-3 -10l-281 -225q-10 -13 -28 -13
h-215q-7 0 -10 5.5t2 11.5z" />
    <glyph glyph-name="Ecircumflex" unicode="&#xca;" horiz-adv-x="1085" 
d="M1034 207l-30 -191q-2 -16 -19 -16h-815q-18 0 -18 16v1313q0 17 16 17h790q16 0 19 -15l22 -190q4 -19 -14 -19h-586v-325h533q14 0 14 -15v-194q0 -13 -14 -13h-533v-352h621q17 0 14 -16zM680 1470l-129 134l-127 -134q-7 -12 -21 -12h-184q-7 0 -9 7t3 12l229 237
q12 6 21 6h186q20 0 25 -8l239 -239q7 -15 -10 -15h-196q-15 0 -27 12z" />
    <glyph glyph-name="Edieresis" unicode="&#xcb;" horiz-adv-x="1085" 
d="M1034 207l-30 -191q-2 -16 -19 -16h-815q-18 0 -18 16v1313q0 17 16 17h790q16 0 19 -15l22 -190q4 -19 -14 -19h-586v-325h533q14 0 14 -15v-194q0 -13 -14 -13h-533v-352h621q17 0 14 -16zM342 1470q-59 0 -95 32t-36 87q0 54 38.5 89.5t96.5 35.5q59 0 95 -35t36 -90
t-37 -87t-98 -32zM768 1470q-58 0 -94.5 32t-36.5 87q0 54 38.5 89.5t96.5 35.5q57 0 94 -35.5t37 -89.5q0 -55 -36.5 -87t-98.5 -32z" />
    <glyph glyph-name="Igrave" unicode="&#xcc;" horiz-adv-x="552" 
d="M399 1329v-1311q0 -18 -16 -18h-215q-16 0 -16 18v1311q0 17 16 17h215q16 0 16 -17zM158 1712l235 -225q6 -7 2.5 -12t-12.5 -5h-203q-19 0 -30 9l-281 225q-11 18 8 18h254q17 0 27 -10z" />
    <glyph glyph-name="Iacute" unicode="&#xcd;" horiz-adv-x="552" 
d="M399 1329v-1311q0 -18 -16 -18h-215q-16 0 -16 18v1311q0 17 16 17h215q16 0 16 -17zM145 1477l246 229q8 8 25 8h258q7 0 9 -5t-3 -11l-281 -223q-15 -15 -28 -15h-217q-8 0 -10.5 5.5t1.5 11.5z" />
    <glyph glyph-name="Icircumflex" unicode="&#xce;" horiz-adv-x="552" 
d="M399 1329v-1311q0 -18 -16 -18h-215q-16 0 -16 18v1311q0 17 16 17h215q16 0 16 -17zM395 1452l-129 133l-127 -131q-10 -12 -22 -12h-185q-6 0 -8.5 6.5t2.5 9.5l232 240q9 6 20 6h187q17 0 22 -8l240 -242q4 -4 1.5 -8t-10.5 -4h-198q-15 0 -25 10z" />
    <glyph glyph-name="Idieresis" unicode="&#xcf;" horiz-adv-x="552" 
d="M399 1329v-1311q0 -18 -16 -18h-215q-16 0 -16 18v1311q0 17 16 17h215q16 0 16 -17zM59 1462q-59 0 -94 33t-35 88q0 54 38 88.5t98 34.5q59 0 95 -35t36 -88q0 -55 -38 -88t-100 -33zM485 1462q-58 0 -93.5 33t-35.5 88q0 54 38.5 88.5t97.5 34.5q57 0 94 -34.5
t37 -88.5q0 -56 -38 -88.5t-100 -32.5z" />
    <glyph glyph-name="Eth" unicode="&#xd0;" horiz-adv-x="1376" 
d="M414 606v-393q39 -2 137 -2q222 0 353.5 125t131.5 354q0 217 -128.5 331t-344.5 114q-27 0 -149 -5v-348h319q10 0 10 -12v-152q0 -8 -2.5 -10t-9.5 -2h-317zM166 782v545q0 14 14 16q207 7 385 7q177 0 315.5 -48.5t228 -136t135.5 -206.5t46 -263q0 -145 -42.5 -264.5
t-113.5 -198.5t-166 -134t-196.5 -79t-208.5 -24q-317 0 -385 4q-12 0 -12 18v588h-131q-12 0 -12 15v149q0 12 10 12h133z" />
    <glyph glyph-name="Ntilde" unicode="&#xd1;" horiz-adv-x="1398" 
d="M369 0h-199q-10 0 -14 3.5t-4 14.5v1313q0 15 14 15h289q11 0 15 -3t9 -12q127 -225 307 -559t230 -442h2q-6 171 -6 317v682q0 17 18 17h197q18 0 18 -19v-1309q0 -18 -20 -18h-260q-19 0 -27 14q-14 28 -264 489.5t-297 579.5h-2q10 -130 10 -381v-684q0 -18 -16 -18z
M518 1470h-137q-16 0 -16 15q1 126 59.5 192t148.5 66q44 0 86 -16t69 -35.5t57 -35.5t53 -16q51 0 61 86q0 11 12 11h136q14 0 14 -13q-11 -256 -199 -256q-42 0 -83.5 16t-68 34.5t-58 34.5t-56.5 16t-44 -22t-22 -64q0 -13 -12 -13z" />
    <glyph glyph-name="Ograve" unicode="&#xd2;" horiz-adv-x="1417" 
d="M709 1366q147 0 267 -54t199 -147t122 -217.5t44 -267.5q1 -316 -174.5 -508t-457.5 -192q-194 0 -339.5 90.5t-220.5 247t-75 356.5q0 195 79.5 352.5t225 248.5t330.5 91zM330 674q0 -134 43.5 -240t132.5 -170.5t211 -64.5q172 0 271 129.5t97 345.5q0 217 -101 345
t-279 128q-167 0 -271 -125.5t-104 -347.5zM616 1726l236 -223q12 -18 -8 -18h-205q-17 0 -29 10l-282 225q-5 6 -2 11.5t10 5.5h254q17 0 26 -11z" />
    <glyph glyph-name="Oacute" unicode="&#xd3;" horiz-adv-x="1417" 
d="M709 1366q147 0 267 -54t199 -147t122 -217.5t44 -267.5q1 -316 -174.5 -508t-457.5 -192q-194 0 -339.5 90.5t-220.5 247t-75 356.5q0 195 79.5 352.5t225 248.5t330.5 91zM330 674q0 -134 43.5 -240t132.5 -170.5t211 -64.5q172 0 271 129.5t97 345.5q0 217 -101 345
t-279 128q-167 0 -271 -125.5t-104 -347.5zM545 1493l246 229q9 9 24 9h258q7 0 8.5 -6.5t-2.5 -10.5l-282 -225q-10 -12 -29 -12h-215q-7 0 -10 5t2 11z" />
    <glyph glyph-name="Ocircumflex" unicode="&#xd4;" horiz-adv-x="1417" 
d="M709 1366q147 0 267 -54t199 -147t122 -217.5t44 -267.5q1 -316 -174.5 -508t-457.5 -192q-194 0 -339.5 90.5t-220.5 247t-75 356.5q0 195 79.5 352.5t225 248.5t330.5 91zM330 674q0 -134 43.5 -240t132.5 -170.5t211 -64.5q172 0 271 129.5t97 345.5q0 217 -101 345
t-279 128q-167 0 -271 -125.5t-104 -347.5zM827 1475l-129 133l-127 -131q-10 -13 -22 -13h-184q-6 0 -8 6t1 11l232 239q9 6 20 6h187q17 0 22 -8l240 -241q5 -5 2 -9t-10 -4h-199q-14 0 -25 11z" />
    <glyph glyph-name="Otilde" unicode="&#xd5;" horiz-adv-x="1417" 
d="M709 1366q147 0 267 -54t199 -147t122 -217.5t44 -267.5q1 -316 -174.5 -508t-457.5 -192q-194 0 -339.5 90.5t-220.5 247t-75 356.5q0 195 79.5 352.5t225 248.5t330.5 91zM330 674q0 -134 43.5 -240t132.5 -170.5t211 -64.5q172 0 271 129.5t97 345.5q0 217 -101 345
t-279 128q-167 0 -271 -125.5t-104 -347.5zM514 1475h-137q-14 0 -17 12q1 126 60.5 193t148.5 67q44 0 87 -16.5t70 -36t57 -36t53 -16.5q52 0 59 87q0 12 12 12h137q13 0 13 -12q-4 -138 -58.5 -198.5t-140.5 -60.5q-42 0 -83.5 16t-68 34.5t-58 34.5t-56.5 16
q-24 0 -43 -22t-23 -64q0 -10 -12 -10z" />
    <glyph glyph-name="Odieresis" unicode="&#xd6;" horiz-adv-x="1417" 
d="M709 1366q147 0 267 -54t199 -147t122 -217.5t44 -267.5q1 -316 -174.5 -508t-457.5 -192q-194 0 -339.5 90.5t-220.5 247t-75 356.5q0 195 79.5 352.5t225 248.5t330.5 91zM330 674q0 -134 43.5 -240t132.5 -170.5t211 -64.5q172 0 271 129.5t97 345.5q0 217 -101 345
t-279 128q-167 0 -271 -125.5t-104 -347.5zM492 1477q-58 0 -94 32.5t-36 85.5q0 55 38 90t98 35q59 0 95 -35t36 -90q0 -54 -37.5 -86t-99.5 -32zM918 1477q-58 0 -94 31.5t-36 86.5t38.5 90t97.5 35q57 0 94 -35.5t37 -89.5q0 -55 -37.5 -86.5t-99.5 -31.5z" />
    <glyph glyph-name="multiply" unicode="&#xd7;" horiz-adv-x="1136" 
d="M82 930l94 96q11 11 25 0l368 -385l371 385q14 11 25 0l92 -98q11 -14 0 -23l-373 -379l375 -381q4 -2 5 -7.5t-5 -12.5l-96 -96q-11 -11 -25 0l-371 381l-368 -381l-2 -3q-2 -2 -3.5 -3t-3.5 -1.5t-4.5 1t-5.5 4.5l-102 100q-8 11 4 23l371 376l-373 381q-7 14 2 23z
" />
    <glyph glyph-name="Oslash" unicode="&#xd8;" horiz-adv-x="1417" 
d="M1020 989l-516 -737q91 -59 213 -59q180 0 282.5 131t102.5 350q0 191 -82 315zM401 356l517 738q-89 59 -213 59q-173 0 -281.5 -127.5t-108.5 -351.5q0 -191 86 -318zM1260 1331l-103 -145q181 -193 184 -506q1 -316 -174.5 -508t-457.5 -192q-191 0 -336 88l-41 -60
q-5 -8 -17 -8h-145q-7 0 -9 5t1 9l100 142q-92 93 -140 226t-48 292q0 195 79.5 352.5t225 248.5t330.5 91q190 0 335 -90l43 61q9 9 17 9h145q19 0 11 -15z" />
    <glyph glyph-name="Ugrave" unicode="&#xd9;" horiz-adv-x="1335" 
d="M381 1329v-807q0 -151 73.5 -237t217.5 -86q132 0 207 75t75 252v801q0 19 17 19h215q16 0 16 -17v-815q0 -140 -41 -244.5t-115 -167t-169.5 -92.5t-212.5 -30q-249 0 -390 133t-141 391v823q0 19 17 19h215q16 0 16 -17zM580 1708l237 -225q6 -9 2.5 -14t-12.5 -5h-205
q-15 0 -29 11l-280 225q-6 6 -4 12t10 6h256q17 0 25 -10z" />
    <glyph glyph-name="Uacute" unicode="&#xda;" horiz-adv-x="1335" 
d="M381 1329v-807q0 -151 73.5 -237t217.5 -86q132 0 207 75t75 252v801q0 19 17 19h215q16 0 16 -17v-815q0 -140 -41 -244.5t-115 -167t-169.5 -92.5t-212.5 -30q-249 0 -390 133t-141 391v823q0 19 17 19h215q16 0 16 -17zM506 1473l244 229q12 10 24 10h258q7 0 9 -6
t-3 -12l-280 -224q-10 -12 -29 -12h-215q-7 0 -10 5t2 10z" />
    <glyph glyph-name="Ucircumflex" unicode="&#xdb;" horiz-adv-x="1335" 
d="M381 1329v-807q0 -151 73.5 -237t217.5 -86q132 0 207 75t75 252v801q0 19 17 19h215q16 0 16 -17v-815q0 -140 -41 -244.5t-115 -167t-169.5 -92.5t-212.5 -30q-249 0 -390 133t-141 391v823q0 19 17 19h215q16 0 16 -17zM791 1473l-129 133l-127 -131q-8 -13 -21 -13
h-184q-6 0 -8.5 7t2.5 10l229 239q12 6 20 6h187q19 0 24 -8l240 -241q4 -5 1 -9t-11 -4h-197q-11 0 -26 11z" />
    <glyph glyph-name="Udieresis" unicode="&#xdc;" horiz-adv-x="1335" 
d="M381 1329v-807q0 -151 73.5 -237t217.5 -86q132 0 207 75t75 252v801q0 19 17 19h215q16 0 16 -17v-815q0 -140 -41 -244.5t-115 -167t-169.5 -92.5t-212.5 -30q-249 0 -390 133t-141 391v823q0 19 17 19h215q16 0 16 -17zM455 1468q-59 0 -95 33t-36 88q0 54 38 88.5
t97 34.5t95 -35t36 -88q0 -55 -37.5 -88t-97.5 -33zM881 1468q-59 0 -95 33t-36 88q0 54 38 88.5t97 34.5q57 0 94 -34.5t37 -88.5q0 -56 -37 -88.5t-98 -32.5z" />
    <glyph glyph-name="Yacute" unicode="&#xdd;" horiz-adv-x="1101" 
d="M410 543l-439 784q-5 9 -0.5 14t11.5 5h247q12 0 19 -11q53 -103 112 -217t86 -166.5t54.5 -107t40.5 -81.5t22 -48q57 125 305 618q3 13 17 13h239q16 0 9 -17l-445 -792q-16 -27 -16 -62v-457q0 -18 -19 -18h-209q-20 0 -20 18v465q0 33 -14 60zM399 1475l244 229
q13 10 25 10h258q7 0 9 -6t-3 -12l-281 -223q-10 -13 -28 -13h-215q-7 0 -10.5 5t1.5 10z" />
    <glyph glyph-name="Thorn" unicode="&#xde;" horiz-adv-x="1134" 
d="M150 14v1340q0 8 1.5 10t10.5 2h219q9 0 11.5 -2t2.5 -10v-246h191q216 0 346.5 -107t130.5 -303q0 -108 -39 -192t-109 -136t-163 -79t-205 -27h-152v-248q0 -16 -12 -16h-221q-12 0 -12 14zM395 893v-416h154q270 0 270 209q0 97 -66 152t-194 55h-164z" />
    <glyph glyph-name="germandbls" unicode="&#xdf;" horiz-adv-x="1181" 
d="M381 0h-215q-16 0 -16 16v787h-127q-11 0 -11 16v176q0 15 13 15h125v14q1 61 15 121t49 121t86 107.5t133 76t183 29.5q79 0 146 -19t114 -53t83 -80.5t53.5 -101t24.5 -115t-3 -121.5q-124 -31 -179.5 -77t-55.5 -91q0 -29 23 -56t87 -73q126 -95 172.5 -175.5
t46.5 -184.5q0 -153 -113 -252.5t-313 -99.5q-129 0 -196 36q-14 5 -14 29v182q0 18 14 11q92 -48 201 -48q76 0 128 31.5t52 87.5q0 47 -36 92t-122 107q-101 73 -140.5 134.5t-39.5 143.5q0 93 69 170.5t181 130.5q-2 72 -51 128.5t-136 56.5q-215 0 -215 -291v-965
q0 -16 -16 -16z" />
    <glyph glyph-name="agrave" unicode="&#xe0;" horiz-adv-x="1015" 
d="M647 199v252q-46 6 -112 6q-234 0 -234 -142q0 -62 48.5 -101.5t152.5 -39.5q82 0 145 25zM887 625v-416q0 -86 4 -129q0 -6 -4 -8q-121 -52 -218.5 -72t-207.5 -20q-178 0 -290 85t-112 250q0 158 127 242t334 84q91 0 127 -4v25q0 22 -8 44.5t-27.5 49t-64 43
t-107.5 16.5q-151 0 -268 -57q-5 -2 -10.5 1t-5.5 11v178q0 14 12 21q131 61 311 61q104 0 183.5 -31t128 -86.5t72.5 -128t24 -159.5zM442 1446l209 -293q5 -6 2 -11t-10 -5h-197q-10 0 -18 12l-258 289q-3 8 -0.5 13t8.5 5h244q12 0 20 -10z" />
    <glyph glyph-name="aacute" unicode="&#xe1;" horiz-adv-x="1015" 
d="M647 199v252q-46 6 -112 6q-234 0 -234 -142q0 -62 48.5 -101.5t152.5 -39.5q82 0 145 25zM887 625v-416q0 -86 4 -129q0 -6 -4 -8q-121 -52 -218.5 -72t-207.5 -20q-178 0 -290 85t-112 250q0 158 127 242t334 84q91 0 127 -4v25q0 22 -8 44.5t-27.5 49t-64 43
t-107.5 16.5q-151 0 -268 -57q-5 -2 -10.5 1t-5.5 11v178q0 14 12 21q131 61 311 61q104 0 183.5 -31t128 -86.5t72.5 -128t24 -159.5zM356 1151l203 289q9 18 23 18h235q21 0 12 -18l-249 -291q-12 -12 -27 -12h-191q-6 0 -7.5 4.5t1.5 9.5z" />
    <glyph glyph-name="acircumflex" unicode="&#xe2;" horiz-adv-x="1015" 
d="M647 199v252q-46 6 -112 6q-234 0 -234 -142q0 -62 48.5 -101.5t152.5 -39.5q82 0 145 25zM887 625v-416q0 -86 4 -129q0 -6 -4 -8q-121 -52 -218.5 -72t-207.5 -20q-178 0 -290 85t-112 250q0 158 127 242t334 84q91 0 127 -4v25q0 22 -8 44.5t-27.5 49t-64 43
t-107.5 16.5q-151 0 -268 -57q-5 -2 -10.5 1t-5.5 11v178q0 14 12 21q131 61 311 61q104 0 183.5 -31t128 -86.5t72.5 -128t24 -159.5zM618 1145l-129 184l-129 -186q-3 -6 -16 -6h-156q-8 0 -10 5t2 11l207 287q5 10 16 10h183q11 0 18 -10l211 -289q4 -6 2 -10t-8 -4h-170
q-16 0 -21 8z" />
    <glyph glyph-name="atilde" unicode="&#xe3;" horiz-adv-x="1015" 
d="M647 199v252q-46 6 -112 6q-234 0 -234 -142q0 -62 48.5 -101.5t152.5 -39.5q82 0 145 25zM887 625v-416q0 -86 4 -129q0 -6 -4 -8q-121 -52 -218.5 -72t-207.5 -20q-178 0 -290 85t-112 250q0 158 127 242t334 84q91 0 127 -4v25q0 22 -8 44.5t-27.5 49t-64 43
t-107.5 16.5q-151 0 -268 -57q-5 -2 -10.5 1t-5.5 11v178q0 14 12 21q131 61 311 61q104 0 183.5 -31t128 -86.5t72.5 -128t24 -159.5zM299 1143h-135q-14 0 -14 16q0 131 58.5 199.5t151.5 68.5q55 0 111.5 -25.5t101 -51t68.5 -25.5q58 0 61 86q0 12 15 12h133
q9 0 11.5 -2t2.5 -8q-3 -272 -200 -272q-51 0 -104 25t-99.5 50t-79.5 25q-64 0 -72 -86q0 -12 -10 -12z" />
    <glyph glyph-name="adieresis" unicode="&#xe4;" horiz-adv-x="1015" 
d="M647 199v252q-46 6 -112 6q-234 0 -234 -142q0 -62 48.5 -101.5t152.5 -39.5q82 0 145 25zM887 625v-416q0 -86 4 -129q0 -6 -4 -8q-121 -52 -218.5 -72t-207.5 -20q-178 0 -290 85t-112 250q0 158 127 242t334 84q91 0 127 -4v25q0 22 -8 44.5t-27.5 49t-64 43
t-107.5 16.5q-151 0 -268 -57q-5 -2 -10.5 1t-5.5 11v178q0 14 12 21q131 61 311 61q104 0 183.5 -31t128 -86.5t72.5 -128t24 -159.5zM309 1167q-55 0 -89 34.5t-34 90.5q0 58 35.5 93.5t91.5 35.5q54 0 87.5 -36t33.5 -93t-35 -91t-90 -34zM707 1167q-53 0 -87 34.5
t-34 90.5q0 58 36 93.5t89 35.5q55 0 87.5 -35.5t32.5 -93.5q0 -57 -34 -91t-90 -34z" />
    <glyph glyph-name="aring" unicode="&#xe5;" horiz-adv-x="1015" 
d="M647 199v252q-46 6 -112 6q-234 0 -234 -142q0 -62 48.5 -101.5t152.5 -39.5q82 0 145 25zM887 625v-416q0 -86 4 -129q0 -6 -4 -8q-121 -52 -218.5 -72t-207.5 -20q-178 0 -290 85t-112 250q0 158 127 242t334 84q91 0 127 -4v25q0 22 -8 44.5t-27.5 49t-64 43
t-107.5 16.5q-151 0 -268 -57q-5 -2 -10.5 1t-5.5 11v178q0 14 12 21q131 61 311 61q104 0 183.5 -31t128 -86.5t72.5 -128t24 -159.5zM287 1305q0 87 61 141.5t160 54.5q98 0 159.5 -55t61.5 -141q0 -90 -61 -145.5t-160 -55.5q-101 0 -161 54t-60 147zM416 1305
q0 -39 26.5 -63.5t65.5 -24.5q38 0 64 24t26 64q0 39 -26 63.5t-64 24.5q-39 0 -65.5 -24.5t-26.5 -63.5z" />
    <glyph glyph-name="ae" unicode="&#xe6;" horiz-adv-x="1605" 
d="M303 313q0 -65 47 -101t133 -36q128 0 215 78q-32 82 -34 197h-134q-227 0 -227 -138zM59 297q0 159 128 242.5t345 83.5h134v28q0 27 -8 52t-29 52.5t-66.5 44.5t-111.5 17q-145 0 -279 -67q-16 -8 -16 12v180q0 14 8 19q147 69 328 69q117 0 195 -39.5t112 -107.5
q120 147 331 147q105 0 187.5 -39t130 -102.5t72 -136t24.5 -148.5q0 -57 -5 -98.5t-13 -44.5q-52 -12 -217 -12h-416q8 -120 82 -189t223 -70q146 0 258 52q12 6 12 -9v-174q0 -17 -10 -22q-117 -57 -297 -57q-227 0 -356 126q-169 -126 -377 -126q-54 0 -105.5 10.5
t-99.5 35t-84 60.5t-58 90.5t-22 120.5zM1114 834q-94 0 -154 -59t-65 -154h346q64 0 70 6q2 4 2 22q0 28 -10.5 58t-31.5 59.5t-62 48.5t-95 19z" />
    <glyph glyph-name="ccedilla" unicode="&#xe7;" horiz-adv-x="882" 
d="M831 985l-2 -182q0 -16 -16 -12q-70 26 -176 26q-143 0 -230.5 -81t-87.5 -226q0 -80 27.5 -141.5t74 -97t101.5 -53t117 -17.5q119 0 178 20q14 6 14 -10v-182q0 -15 -10 -17q-64 -28 -200 -32l-46 -62q89 -27 132 -74t43 -123q0 -84 -68.5 -139t-175.5 -55
q-98 0 -150 27q-12 7 -12 24v96q0 16 14 13q63 -29 131 -29q89 0 89 61q0 73 -193 97q-5 6 -5.5 26.5t3.5 26.5l94 121q-192 35 -301.5 175t-109.5 337q0 230 156 379t407 149q128 0 192 -22q10 -5 10 -23z" />
    <glyph glyph-name="egrave" unicode="&#xe8;" horiz-adv-x="1028" 
d="M731 449h-416q5 -115 83 -187t227 -72q136 0 254 50q5 3 8.5 0.5t3.5 -9.5v-170q0 -16 -12 -22q-124 -59 -308 -59q-108 0 -195 29.5t-144 78.5t-95 116.5t-54.5 139t-16.5 150.5q0 145 54.5 265t166 195.5t260.5 75.5q88 0 160 -26.5t119 -69.5t80 -100t47 -116t14 -120
q0 -92 -9 -127q-3 -11 -16 -14q-39 -8 -211 -8zM315 625h306q104 0 112 2v16q0 26 -9.5 55.5t-29.5 61.5t-61 53t-96 21q-97 0 -152.5 -61.5t-69.5 -147.5zM475 1446l209 -293q8 -16 -10 -16h-195q-14 0 -18 12l-258 289q-7 18 8 18h242q14 0 22 -10z" />
    <glyph glyph-name="eacute" unicode="&#xe9;" horiz-adv-x="1028" 
d="M731 449h-416q5 -115 83 -187t227 -72q136 0 254 50q5 3 8.5 0.5t3.5 -9.5v-170q0 -16 -12 -22q-124 -59 -308 -59q-108 0 -195 29.5t-144 78.5t-95 116.5t-54.5 139t-16.5 150.5q0 145 54.5 265t166 195.5t260.5 75.5q88 0 160 -26.5t119 -69.5t80 -100t47 -116t14 -120
q0 -92 -9 -127q-3 -11 -16 -14q-39 -8 -211 -8zM315 625h306q104 0 112 2v16q0 26 -9.5 55.5t-29.5 61.5t-61 53t-96 21q-97 0 -152.5 -61.5t-69.5 -147.5zM391 1151l203 289q9 18 22 18h236q21 0 12 -18l-250 -291q-12 -12 -26 -12h-191q-6 0 -7.5 4.5t1.5 9.5z" />
    <glyph glyph-name="ecircumflex" unicode="&#xea;" horiz-adv-x="1028" 
d="M731 449h-416q5 -115 83 -187t227 -72q136 0 254 50q5 3 8.5 0.5t3.5 -9.5v-170q0 -16 -12 -22q-124 -59 -308 -59q-108 0 -195 29.5t-144 78.5t-95 116.5t-54.5 139t-16.5 150.5q0 145 54.5 265t166 195.5t260.5 75.5q88 0 160 -26.5t119 -69.5t80 -100t47 -116t14 -120
q0 -92 -9 -127q-3 -11 -16 -14q-39 -8 -211 -8zM315 625h306q104 0 112 2v16q0 26 -9.5 55.5t-29.5 61.5t-61 53t-96 21q-97 0 -152.5 -61.5t-69.5 -147.5zM653 1145l-129 184l-127 -186q-6 -6 -16 -6h-158q-7 0 -9 5t3 11l205 287q8 10 18 10h181q13 0 20 -10l211 -289
q4 -6 1 -10t-9 -4h-170q-13 0 -21 8z" />
    <glyph glyph-name="edieresis" unicode="&#xeb;" horiz-adv-x="1028" 
d="M731 449h-416q5 -115 83 -187t227 -72q136 0 254 50q5 3 8.5 0.5t3.5 -9.5v-170q0 -16 -12 -22q-124 -59 -308 -59q-108 0 -195 29.5t-144 78.5t-95 116.5t-54.5 139t-16.5 150.5q0 145 54.5 265t166 195.5t260.5 75.5q88 0 160 -26.5t119 -69.5t80 -100t47 -116t14 -120
q0 -92 -9 -127q-3 -11 -16 -14q-39 -8 -211 -8zM315 625h306q104 0 112 2v16q0 26 -9.5 55.5t-29.5 61.5t-61 53t-96 21q-97 0 -152.5 -61.5t-69.5 -147.5zM324 1163q-54 0 -88.5 34.5t-34.5 90.5q0 58 35.5 93.5t91.5 35.5q54 0 87.5 -36t33.5 -93t-35 -91t-90 -34z
M721 1163q-53 0 -87 34.5t-34 90.5q0 58 36 93.5t89 35.5q55 0 88 -35.5t33 -93.5q0 -57 -34.5 -91t-90.5 -34z" />
    <glyph glyph-name="igrave" unicode="&#xec;" horiz-adv-x="507" 
d="M129 18v977q0 15 16 15h217q17 0 17 -15v-979q0 -16 -19 -16h-210q-21 0 -21 18zM166 1446l209 -293q5 -6 2 -11t-10 -5h-197q-10 0 -18 12l-258 289q-3 8 -0.5 13t8.5 5h243q13 0 21 -10z" />
    <glyph glyph-name="iacute" unicode="&#xed;" horiz-adv-x="507" 
d="M129 18v977q0 15 16 15h217q17 0 17 -15v-979q0 -16 -19 -16h-210q-21 0 -21 18zM139 1151l203 289q9 18 23 18h235q21 0 12 -18l-250 -291q-12 -12 -26 -12h-191q-6 0 -7.5 4.5t1.5 9.5z" />
    <glyph glyph-name="icircumflex" unicode="&#xee;" horiz-adv-x="507" 
d="M129 18v977q0 15 16 15h217q17 0 17 -15v-979q0 -16 -19 -16h-210q-21 0 -21 18zM377 1145l-129 184l-129 -186q-3 -6 -17 -6h-155q-7 0 -10 5t2 11l206 287q5 10 17 10h182q11 0 18 -10l211 -289q4 -6 2 -10t-8 -4h-170q-15 0 -20 8z" />
    <glyph glyph-name="idieresis" unicode="&#xef;" horiz-adv-x="507" 
d="M129 18v977q0 15 16 15h217q17 0 17 -15v-979q0 -16 -19 -16h-210q-21 0 -21 18zM55 1163q-55 0 -89 34.5t-34 90.5q0 58 35.5 93.5t91.5 35.5q54 0 87.5 -36t33.5 -93t-35 -91t-90 -34zM453 1163q-53 0 -87 34.5t-34 90.5q0 58 36 93.5t89 35.5q55 0 88 -35.5t33 -93.5
q0 -57 -34.5 -91t-90.5 -34z" />
    <glyph glyph-name="eth" unicode="&#xf0;" horiz-adv-x="1124" 
d="M563 186q104 0 169 82t65 240q0 68 -19 119q-5 14 -18 32q-71 78 -189 78q-112 0 -182 -72t-70 -202q0 -118 67 -197.5t177 -79.5zM934 1307l-156 -84q130 -124 199.5 -293.5t69.5 -370.5q0 -278 -137 -428.5t-367 -150.5q-118 0 -211.5 42t-149.5 111.5t-85 154
t-29 175.5q0 214 133.5 343.5t353.5 129.5q118 0 178 -45q-44 122 -168 215l-295 -160q-5 -2 -9.5 1t-4.5 7v101q0 13 12 16l187 103q-131 65 -279 90q-14 0 -14 18v180q0 17 14 17q44 0 60 -4q264 -41 450 -177l246 136q12 5 12 -4v-107q0 -11 -10 -16z" />
    <glyph glyph-name="ntilde" unicode="&#xf1;" horiz-adv-x="1128" 
d="M129 16v758q0 139 -8 221q0 15 14 15h187q18 0 24 -15q7 -22 14 -77q133 112 297 112q64 0 119.5 -18t108 -60.5t83.5 -126t31 -200.5v-607q0 -18 -16 -18h-213q-18 0 -18 18v584q0 103 -44.5 158t-132.5 55q-120 0 -198 -84v-715q0 -16 -17 -16h-215q-16 0 -16 16z
M348 1145h-135q-13 0 -16 16q1 131 60.5 200t150.5 69q44 0 89.5 -16.5t76.5 -36t63.5 -36t52.5 -16.5q55 0 62 88q0 12 12 12h135q14 0 14 -10q-1 -143 -55 -208.5t-145 -65.5q-51 0 -104 25.5t-99.5 51t-79.5 25.5q-64 0 -72 -86q0 -12 -10 -12z" />
    <glyph glyph-name="ograve" unicode="&#xf2;" horiz-adv-x="1114" 
d="M563 1030q115 0 208.5 -41.5t154 -113t93 -165.5t32.5 -200q0 -237 -137 -383.5t-355 -146.5q-99 0 -182 29.5t-139.5 80t-96 118t-57.5 142t-18 154.5q0 146 59.5 265t174 190t263.5 71zM551 823q-104 0 -170 -85.5t-66 -229.5q0 -143 66.5 -231.5t181.5 -88.5
q101 0 168.5 82.5t67.5 233.5q0 138 -62.5 228.5t-185.5 90.5zM492 1446l210 -293q3 -6 0 -11t-10 -5h-194q-13 0 -21 12l-256 289q-4 8 -2 13t8 5h244q13 0 21 -10z" />
    <glyph glyph-name="oacute" unicode="&#xf3;" horiz-adv-x="1114" 
d="M563 1030q115 0 208.5 -41.5t154 -113t93 -165.5t32.5 -200q0 -237 -137 -383.5t-355 -146.5q-99 0 -182 29.5t-139.5 80t-96 118t-57.5 142t-18 154.5q0 146 59.5 265t174 190t263.5 71zM551 823q-104 0 -170 -85.5t-66 -229.5q0 -143 66.5 -231.5t181.5 -88.5
q101 0 168.5 82.5t67.5 233.5q0 138 -62.5 228.5t-185.5 90.5zM416 1151l202 289q9 18 23 18h236q21 0 12 -18l-250 -291q-12 -12 -27 -12h-190q-6 0 -7.5 4.5t1.5 9.5z" />
    <glyph glyph-name="ocircumflex" unicode="&#xf4;" horiz-adv-x="1114" 
d="M563 1030q115 0 208.5 -41.5t154 -113t93 -165.5t32.5 -200q0 -237 -137 -383.5t-355 -146.5q-99 0 -182 29.5t-139.5 80t-96 118t-57.5 142t-18 154.5q0 146 59.5 265t174 190t263.5 71zM551 823q-104 0 -170 -85.5t-66 -229.5q0 -143 66.5 -231.5t181.5 -88.5
q101 0 168.5 82.5t67.5 233.5q0 138 -62.5 228.5t-185.5 90.5zM678 1145l-129 184l-129 -186q-3 -6 -17 -6h-155q-8 0 -10 5t2 11l206 287q5 10 17 10h182q12 0 19 -10l210 -289q4 -6 2 -10t-8 -4h-170q-15 0 -20 8z" />
    <glyph glyph-name="otilde" unicode="&#xf5;" horiz-adv-x="1114" 
d="M563 1030q115 0 208.5 -41.5t154 -113t93 -165.5t32.5 -200q0 -237 -137 -383.5t-355 -146.5q-99 0 -182 29.5t-139.5 80t-96 118t-57.5 142t-18 154.5q0 146 59.5 265t174 190t263.5 71zM551 823q-104 0 -170 -85.5t-66 -229.5q0 -143 66.5 -231.5t181.5 -88.5
q101 0 168.5 82.5t67.5 233.5q0 138 -62.5 228.5t-185.5 90.5zM352 1143h-135q-13 0 -16 16q1 131 60.5 199.5t150.5 68.5q56 0 112.5 -26t101 -52t68.5 -26q55 0 62 88q0 12 12 12h135q15 0 15 -10q-1 -143 -55.5 -208.5t-145.5 -65.5q-51 0 -104 25.5t-99.5 51t-79.5 25.5
q-64 0 -72 -86q0 -12 -10 -12z" />
    <glyph glyph-name="odieresis" unicode="&#xf6;" horiz-adv-x="1114" 
d="M563 1030q115 0 208.5 -41.5t154 -113t93 -165.5t32.5 -200q0 -237 -137 -383.5t-355 -146.5q-99 0 -182 29.5t-139.5 80t-96 118t-57.5 142t-18 154.5q0 146 59.5 265t174 190t263.5 71zM551 823q-104 0 -170 -85.5t-66 -229.5q0 -143 66.5 -231.5t181.5 -88.5
q101 0 168.5 82.5t67.5 233.5q0 138 -62.5 228.5t-185.5 90.5zM356 1163q-54 0 -88.5 34.5t-34.5 90.5q0 58 35.5 93.5t91.5 35.5q54 0 87.5 -36t33.5 -93t-35 -91t-90 -34zM754 1163q-53 0 -87 34.5t-34 90.5q0 58 35.5 93.5t89.5 35.5q55 0 88 -35.5t33 -93.5
q0 -57 -34.5 -91t-90.5 -34z" />
    <glyph glyph-name="divide" unicode="&#xf7;" horiz-adv-x="1128" 
d="M561 770q-51 0 -82 33.5t-30 87.5q0 53 31.5 86t84.5 33q52 0 83.5 -33t31.5 -86q0 -55 -31.5 -88t-87.5 -33zM561 55q-51 0 -82.5 33t-29.5 86q0 55 31.5 88t84.5 33q52 0 83.5 -33.5t31.5 -87.5t-31.5 -86.5t-87.5 -32.5zM61 606q0 17 15 17h977q14 0 14 -15v-147
q0 -17 -14 -17h-977q-15 0 -15 19v143z" />
    <glyph glyph-name="oslash" unicode="&#xf8;" horiz-adv-x="1114" 
d="M774 682l-346 -461q56 -41 135 -41q105 0 174.5 84.5t69.5 239.5q0 102 -33 178zM346 319l350 465q-56 47 -145 47q-108 0 -177 -89t-69 -234q0 -109 41 -189zM1010 995l-88 -116q62 -70 95.5 -166t33.5 -203q0 -237 -137 -383.5t-355 -146.5q-153 0 -262 67l-37 -49
q-8 -10 -22 -10h-125q-7 0 -8.5 5t4.5 11l92 123q-67 73 -101 171.5t-34 205.5q0 147 59.5 266t173.5 189.5t264 70.5q149 0 264 -72l33 43q7 11 17 11h127q6 0 8 -5.5t-2 -11.5z" />
    <glyph glyph-name="ugrave" unicode="&#xf9;" horiz-adv-x="1116" 
d="M985 995v-770q0 -82 12 -211q1 -7 -3 -10.5t-13 -3.5h-188q-18 0 -21 12q-10 34 -14 72q-112 -104 -285 -104q-76 0 -136.5 21t-108 66t-73.5 122t-26 182v624q0 15 16 15h215q15 0 15 -15v-596q0 -204 178 -204q107 0 186 73v727q0 15 17 15h215q14 0 14 -15zM502 1446
l209 -293q3 -6 -0.5 -11t-10.5 -5h-194q-13 0 -21 12l-256 289q-4 8 -1.5 13t8.5 5h243q15 0 23 -10z" />
    <glyph glyph-name="uacute" unicode="&#xfa;" horiz-adv-x="1116" 
d="M985 995v-770q0 -82 12 -211q1 -7 -3 -10.5t-13 -3.5h-188q-18 0 -21 12q-10 34 -14 72q-112 -104 -285 -104q-76 0 -136.5 21t-108 66t-73.5 122t-26 182v624q0 15 16 15h215q15 0 15 -15v-596q0 -204 178 -204q107 0 186 73v727q0 15 17 15h215q14 0 14 -15zM428 1151
l203 289q9 18 22 18h236q21 0 12 -18l-250 -291q-12 -12 -26 -12h-191q-6 0 -7.5 4.5t1.5 9.5z" />
    <glyph glyph-name="ucircumflex" unicode="&#xfb;" horiz-adv-x="1116" 
d="M985 995v-770q0 -82 12 -211q1 -7 -3 -10.5t-13 -3.5h-188q-18 0 -21 12q-10 34 -14 72q-112 -104 -285 -104q-76 0 -136.5 21t-108 66t-73.5 122t-26 182v624q0 15 16 15h215q15 0 15 -15v-596q0 -204 178 -204q107 0 186 73v727q0 15 17 15h215q14 0 14 -15zM680 1149
l-129 184l-127 -186q-6 -6 -18 -6h-156q-8 0 -10 5.5t4 10.5l205 289q8 8 16 8h182q14 0 19 -8l213 -291q3 -5 0 -9.5t-9 -4.5h-170q-15 0 -20 8z" />
    <glyph glyph-name="udieresis" unicode="&#xfc;" horiz-adv-x="1116" 
d="M985 995v-770q0 -82 12 -211q1 -7 -3 -10.5t-13 -3.5h-188q-18 0 -21 12q-10 34 -14 72q-112 -104 -285 -104q-76 0 -136.5 21t-108 66t-73.5 122t-26 182v624q0 15 16 15h215q15 0 15 -15v-596q0 -204 178 -204q107 0 186 73v727q0 15 17 15h215q14 0 14 -15zM365 1163
q-55 0 -89 34.5t-34 90.5q0 58 35.5 93.5t91.5 35.5q54 0 87 -36t33 -93q0 -58 -34.5 -91.5t-89.5 -33.5zM762 1163q-53 0 -87 34.5t-34 90.5q0 58 35.5 93.5t89.5 35.5q55 0 88 -35.5t33 -93.5q0 -57 -34.5 -91t-90.5 -34z" />
    <glyph glyph-name="yacute" unicode="&#xfd;" horiz-adv-x="978" 
d="M14 1010h240q13 0 18 -13q179 -517 230 -704q220 671 231 704q7 13 23 13h211q15 0 12 -17q-198 -610 -537 -1384q-8 -15 -26 -15l-223 -16q-16 0 -11 16q93 187 193 424q6 18 2 33q-231 567 -375 944q-3 6 0.5 10.5t11.5 4.5zM362 1151l203 289q9 18 23 18h235
q22 0 13 -18l-250 -291q-12 -12 -27 -12h-190q-6 0 -8 4.5t1 9.5z" />
    <glyph glyph-name="thorn" unicode="&#xfe;" horiz-adv-x="1136" 
d="M379 995q99 35 211 35q114 0 206 -40t150.5 -109t89.5 -159.5t31 -193.5q0 -130 -48 -236.5t-127.5 -173t-179 -102.5t-206.5 -36q-69 0 -127 14v-412q0 -14 -14 -16q-30 -3 -84 -8.5t-92.5 -9.5t-43.5 -5q-14 0 -14 15v1904q0 17 16 17h215q17 0 17 -15v-469zM545 819
q-23 0 -42 -1t-39 -5t-28 -5.5t-31 -7.5t-26 -7v-584q65 -23 141 -23q127 0 210 81.5t83 246.5q0 147 -72 226t-196 79z" />
    <glyph glyph-name="ydieresis" unicode="&#xff;" horiz-adv-x="978" 
d="M14 1010h240q13 0 18 -13q179 -517 230 -704q220 671 231 704q7 13 23 13h211q15 0 12 -17q-198 -610 -537 -1384q-8 -15 -26 -15l-223 -16q-16 0 -11 16q93 187 193 424q6 18 2 33q-231 567 -375 944q-3 6 0.5 10.5t11.5 4.5zM299 1167q-56 0 -90.5 34t-34.5 91
q0 58 36.5 93.5t92.5 35.5q53 0 87 -36t34 -93t-35.5 -91t-89.5 -34zM696 1167q-53 0 -88 34.5t-35 90.5q0 58 36 93.5t91 35.5q54 0 87.5 -36t33.5 -93t-34.5 -91t-90.5 -34z" />
    <glyph glyph-name="Amacron" unicode="&#x100;" horiz-adv-x="1241" 
d="M852 354h-490l-112 -338q-5 -16 -23 -16h-204q-18 0 -15 20l422 1201q15 37 19 110q0 15 12 15h284q12 0 15 -13l473 -1315q3 -18 -12 -18h-230q-14 0 -20 12zM428 578h358q-13 42 -53.5 164.5t-74.5 229t-52 169.5h-2q-9 -39 -24 -90t-36 -117.5t-36 -113t-42.5 -129
t-37.5 -113.5zM319 1677h582q12 0 12 -14v-158q0 -14 -14 -14h-575q-19 0 -19 14v156q0 16 14 16z" />
    <glyph glyph-name="amacron" unicode="&#x101;" horiz-adv-x="1015" 
d="M647 199v252q-46 6 -112 6q-234 0 -234 -142q0 -62 48.5 -101.5t152.5 -39.5q82 0 145 25zM887 625v-416q0 -86 4 -129q0 -6 -4 -8q-121 -52 -218.5 -72t-207.5 -20q-178 0 -290 85t-112 250q0 158 127 242t334 84q91 0 127 -4v25q0 22 -8 44.5t-27.5 49t-64 43
t-107.5 16.5q-151 0 -268 -57q-5 -2 -10.5 1t-5.5 11v178q0 14 12 21q131 61 311 61q104 0 183.5 -31t128 -86.5t72.5 -128t24 -159.5zM223 1372h572q12 0 12 -14v-148q0 -12 -12 -12h-574q-12 0 -12 14v146q0 14 14 14z" />
    <glyph glyph-name="Abreve" unicode="&#x102;" horiz-adv-x="1241" 
d="M852 354h-490l-112 -338q-5 -16 -23 -16h-204q-18 0 -15 20l422 1201q15 37 19 110q0 15 12 15h284q12 0 15 -13l473 -1315q3 -18 -12 -18h-230q-14 0 -20 12zM428 578h358q-13 42 -53.5 164.5t-74.5 229t-52 169.5h-2q-9 -39 -24 -90t-36 -117.5t-36 -113t-42.5 -129
t-37.5 -113.5zM281 1749h168q11 0 14 -12q41 -103 145 -103q113 0 148 103q8 12 16 12h170q12 0 12 -16q-26 -135 -120 -209t-226 -74q-136 0 -228 72t-114 213q-2 5 2.5 9.5t12.5 4.5z" />
    <glyph glyph-name="abreve" unicode="&#x103;" horiz-adv-x="1015" 
d="M647 199v252q-46 6 -112 6q-234 0 -234 -142q0 -62 48.5 -101.5t152.5 -39.5q82 0 145 25zM887 625v-416q0 -86 4 -129q0 -6 -4 -8q-121 -52 -218.5 -72t-207.5 -20q-178 0 -290 85t-112 250q0 158 127 242t334 84q91 0 127 -4v25q0 22 -8 44.5t-27.5 49t-64 43
t-107.5 16.5q-151 0 -268 -57q-5 -2 -10.5 1t-5.5 11v178q0 14 12 21q131 61 311 61q104 0 183.5 -31t128 -86.5t72.5 -128t24 -159.5zM172 1421h164q12 0 12 -8q39 -104 150 -104q118 0 151 102q3 10 10 10h168q13 0 9 -12q-25 -131 -113.5 -205t-226.5 -74
q-134 0 -223 70.5t-113 208.5q-2 12 12 12z" />
    <glyph glyph-name="Aogonek" unicode="&#x104;" horiz-adv-x="1241" 
d="M428 578h358q-12 39 -53 163.5t-75 231t-52 170.5h-2q-26 -107 -176 -565zM967 25l-115 329h-490l-114 -338q-3 -16 -21 -16h-204q-18 0 -15 20l422 1201q15 37 19 110q0 15 12 15h284q12 0 15 -13l469 -1304q8 -20 -10 -29q-73 -41 -112.5 -88t-39.5 -92q0 -40 31 -65
t86 -25q34 0 88 12q10 2 13 0t3 -10v-131q0 -22 -14 -29q-54 -31 -168 -31q-49 0 -94 11t-85.5 34.5t-64.5 67t-24 102.5q0 130 155 248q-15 2 -26 21z" />
    <glyph glyph-name="aogonek" unicode="&#x105;" horiz-adv-x="1015" 
d="M659 205v250q-36 8 -116 8q-116 0 -179 -39t-63 -109q0 -63 52 -102t157 -39q78 0 149 31zM467 -20q-87 0 -160 19.5t-129 58t-87.5 103t-31.5 148.5q0 158 130 245t339 87q91 0 131 -4v22q0 18 -3.5 35.5t-16.5 41t-34 40.5t-60 29t-90 12q-152 0 -281 -69q-6 -3 -11 0
t-5 10v180q0 13 12 18q67 35 155.5 54.5t174.5 19.5q198 0 298.5 -112.5t100.5 -292.5v-410q0 -69 6 -137q0 -15 -12 -19q-236 -125 -236 -233q0 -44 32 -70t87 -26q59 0 103 14q16 5 16 -12v-129q0 -21 -14 -29q-60 -31 -174 -31q-49 0 -94.5 11t-86.5 34.5t-65.5 66
t-24.5 99.5q0 68 46 129.5t122 106.5q-61 -10 -137 -10z" />
    <glyph glyph-name="Cacute" unicode="&#x106;" horiz-adv-x="1140" 
d="M1073 225v-182q0 -21 -14 -27q-98 -36 -283 -36q-145 0 -270 43t-222.5 126t-153.5 217t-56 304q0 311 200.5 503.5t532.5 192.5q188 0 266 -35q12 -6 12 -22v-195q0 -20 -16 -12q-96 45 -266 45q-217 0 -345 -128t-128 -343q0 -102 29 -185t76.5 -136t111 -88.5
t128 -50.5t132.5 -15q153 0 252 35q14 7 14 -11zM539 1505l245 230q8 8 25 8h258q15 0 6 -17l-282 -223q-11 -14 -29 -14h-215q-7 0 -10 5t2 11z" />
    <glyph glyph-name="cacute" unicode="&#x107;" horiz-adv-x="882" 
d="M831 211v-182q0 -15 -10 -17q-78 -32 -227 -32q-243 0 -385.5 147.5t-142.5 374.5q0 230 156 379t407 149q128 0 192 -22q10 -5 10 -23l-2 -182q0 -16 -16 -12q-70 26 -176 26q-143 0 -230.5 -81t-87.5 -226q0 -80 27.5 -141.5t74 -97t101.5 -53t117 -17.5q119 0 178 20
q14 6 14 -10zM391 1151l203 289q9 18 22 18h236q21 0 12 -18l-250 -291q-12 -12 -26 -12h-191q-6 0 -7.5 4.5t1.5 9.5z" />
    <glyph glyph-name="Ccircumflex" unicode="&#x108;" horiz-adv-x="1140" 
d="M1073 225v-182q0 -21 -14 -27q-98 -36 -283 -36q-145 0 -270 43t-222.5 126t-153.5 217t-56 304q0 311 200.5 503.5t532.5 192.5q188 0 266 -35q12 -6 12 -22v-195q0 -20 -16 -12q-96 45 -266 45q-217 0 -345 -128t-128 -343q0 -102 29 -185t76.5 -136t111 -88.5
t128 -50.5t132.5 -15q153 0 252 35q14 7 14 -11zM803 1491l-129 133l-127 -131q-10 -12 -23 -12h-184q-6 0 -7.5 6.5t1.5 9.5l231 240q9 6 21 6h186q18 0 23 -8l239 -242q4 -5 2 -8.5t-10 -3.5h-199q-14 0 -24 10z" />
    <glyph glyph-name="ccircumflex" unicode="&#x109;" horiz-adv-x="882" 
d="M831 211v-182q0 -15 -10 -17q-78 -32 -227 -32q-243 0 -385.5 147.5t-142.5 374.5q0 230 156 379t407 149q128 0 192 -22q10 -5 10 -23l-2 -182q0 -16 -16 -12q-70 26 -176 26q-143 0 -230.5 -81t-87.5 -226q0 -80 27.5 -141.5t74 -97t101.5 -53t117 -17.5q119 0 178 20
q14 6 14 -10zM641 1149l-129 184l-129 -186q-3 -6 -16 -6h-156q-7 0 -10 5t2 11l207 287q5 10 16 10h182q12 0 19 -10l213 -289q3 -6 0 -10t-9 -4h-169q-16 0 -21 8z" />
    <glyph glyph-name="Cdotaccent" unicode="&#x10a;" horiz-adv-x="1140" 
d="M1073 225v-182q0 -21 -14 -27q-98 -36 -283 -36q-145 0 -270 43t-222.5 126t-153.5 217t-56 304q0 311 200.5 503.5t532.5 192.5q188 0 266 -35q12 -6 12 -22v-195q0 -20 -16 -12q-96 45 -266 45q-217 0 -345 -128t-128 -343q0 -102 29 -185t76.5 -136t111 -88.5
t128 -50.5t132.5 -15q153 0 252 35q14 7 14 -11zM696 1499q-63 0 -100 33.5t-37 89.5q0 55 39 89t102 34q62 0 99 -34t37 -89q0 -56 -38 -89.5t-102 -33.5z" />
    <glyph glyph-name="cdotaccent" unicode="&#x10b;" horiz-adv-x="882" 
d="M831 211v-182q0 -15 -10 -17q-78 -32 -227 -32q-243 0 -385.5 147.5t-142.5 374.5q0 230 156 379t407 149q128 0 192 -22q10 -5 10 -23l-2 -182q0 -16 -16 -12q-70 26 -176 26q-143 0 -230.5 -81t-87.5 -226q0 -80 27.5 -141.5t74 -97t101.5 -53t117 -17.5q119 0 178 20
q14 6 14 -10zM541 1157q-64 0 -103 39t-39 102q0 62 41 102t103 40q63 0 101 -39.5t38 -102.5t-39 -102t-102 -39z" />
    <glyph glyph-name="Ccaron" unicode="&#x10c;" horiz-adv-x="1140" 
d="M1073 225v-182q0 -21 -14 -27q-98 -36 -283 -36q-145 0 -270 43t-222.5 126t-153.5 217t-56 304q0 311 200.5 503.5t532.5 192.5q188 0 266 -35q12 -6 12 -22v-195q0 -20 -16 -12q-96 45 -266 45q-217 0 -345 -128t-128 -343q0 -102 29 -185t76.5 -136t111 -88.5
t128 -50.5t132.5 -15q153 0 252 35q14 7 14 -11zM575 1731l130 -134l126 134q13 10 23 10h184q6 0 8.5 -7t-2.5 -10l-231 -239q-6 -6 -20 -6h-187q-17 0 -22 8l-240 242q-4 5 -2 8.5t10 3.5h199q9 0 24 -10z" />
    <glyph glyph-name="ccaron" unicode="&#x10d;" horiz-adv-x="882" 
d="M831 211v-182q0 -15 -10 -17q-78 -32 -227 -32q-243 0 -385.5 147.5t-142.5 374.5q0 230 156 379t407 149q128 0 192 -22q10 -5 10 -23l-2 -182q0 -16 -16 -12q-70 26 -176 26q-143 0 -230.5 -81t-87.5 -226q0 -80 27.5 -141.5t74 -97t101.5 -53t117 -17.5q119 0 178 20
q14 6 14 -10zM410 1442l129 -185l129 187q3 6 16 6h156q8 0 10 -5t-2 -11l-207 -287q-5 -10 -16 -10h-183q-11 0 -18 10l-211 289q-4 6 -2 10t8 4h172q14 0 19 -8z" />
    <glyph glyph-name="Dcaron" unicode="&#x10e;" horiz-adv-x="1351" 
d="M152 18v1309q0 14 14 16q207 7 387 7q177 0 315.5 -48.5t227 -136t134.5 -206.5t46 -263q0 -145 -42.5 -264.5t-113.5 -198.5t-166 -134t-196.5 -79t-208.5 -24q-317 0 -383 4q-14 0 -14 18zM399 1130v-917q41 -2 140 -2q221 0 352 125t131 354q0 216 -128.5 330.5
t-342.5 114.5q-29 0 -152 -5zM479 1718l129 -133l127 133q13 13 21 13h186q6 0 7.5 -7.5t-3.5 -11.5l-229 -237q-9 -7 -21 -7h-186q-19 0 -25 9l-239 239q-3 6 -0.5 10.5t8.5 4.5h199q9 0 26 -13z" />
    <glyph glyph-name="dcaron" unicode="&#x10f;" horiz-adv-x="1247" 
d="M1104 977l-2 467q0 14 12 14h158q15 0 12 -16l-29 -463q0 -7 -4.5 -11.5t-9.5 -4.5h-123q-9 0 -11.5 2.5t-2.5 11.5zM592 -20q-151 0 -267.5 56t-186.5 174.5t-70 285.5q0 111 40.5 208.5t114.5 170t184 114t242 41.5q37 0 86 -6v420q0 14 15 14h221q12 0 12 -12v-1237
q0 -75 6 -131q0 -14 -12 -19q-184 -79 -385 -79zM735 209v600q-35 14 -94 14q-140 0 -229.5 -84.5t-89.5 -230.5q0 -159 82 -237t212 -78q72 0 119 16z" />
    <glyph glyph-name="Dcroat" unicode="&#x110;" horiz-adv-x="1376" 
d="M414 606v-393q39 -2 137 -2q222 0 353.5 125t131.5 354q0 217 -128.5 331t-344.5 114q-27 0 -149 -5v-348h319q10 0 10 -12v-152q0 -8 -2.5 -10t-9.5 -2h-317zM166 782v545q0 14 14 16q207 7 385 7q177 0 315.5 -48.5t228 -136t135.5 -206.5t46 -263q0 -145 -42.5 -264.5
t-113.5 -198.5t-166 -134t-196.5 -79t-208.5 -24q-317 0 -385 4q-12 0 -12 18v588h-131q-12 0 -12 15v149q0 12 10 12h133z" />
    <glyph glyph-name="dcroat" unicode="&#x111;" horiz-adv-x="1112" 
d="M735 215v541q-42 20 -108 20q-138 0 -223 -77.5t-85 -213.5q0 -78 24.5 -136t67 -91t94 -49t111.5 -16q71 0 119 22zM983 1303h141q8 0 10.5 -2t2.5 -9v-153q0 -13 -15 -13h-139v-909q0 -32 6 -131q0 -14 -12 -18q-180 -88 -385 -88q-113 0 -208 31t-166.5 91.5
t-111.5 156t-40 216.5q0 109 38.5 202t110 161t179 106.5t239.5 38.5q62 0 102 -8v151h-319q-15 0 -15 15v151q0 11 13 11h321v141q0 14 15 14h223q10 0 10 -12v-143z" />
    <glyph glyph-name="Emacron" unicode="&#x112;" horiz-adv-x="1085" 
d="M1034 207l-30 -191q-2 -16 -19 -16h-815q-18 0 -18 16v1313q0 17 16 17h790q16 0 19 -15l22 -190q4 -19 -14 -19h-586v-325h533q14 0 14 -15v-194q0 -13 -14 -13h-533v-352h621q17 0 14 -16zM270 1694h580q14 0 14 -15v-157q0 -15 -14 -15h-576q-11 0 -14.5 3t-3.5 12
v155q0 17 14 17z" />
    <glyph glyph-name="emacron" unicode="&#x113;" horiz-adv-x="1028" 
d="M731 449h-416q5 -115 83 -187t227 -72q136 0 254 50q5 3 8.5 0.5t3.5 -9.5v-170q0 -16 -12 -22q-124 -59 -308 -59q-108 0 -195 29.5t-144 78.5t-95 116.5t-54.5 139t-16.5 150.5q0 145 54.5 265t166 195.5t260.5 75.5q88 0 160 -26.5t119 -69.5t80 -100t47 -116t14 -120
q0 -92 -9 -127q-3 -11 -16 -14q-39 -8 -211 -8zM315 625h306q104 0 112 2v16q0 26 -9.5 55.5t-29.5 61.5t-61 53t-96 21q-97 0 -152.5 -61.5t-69.5 -147.5zM250 1372h571q13 0 13 -14v-148q0 -12 -13 -12h-573q-12 0 -12 14v146q0 14 14 14z" />
    <glyph glyph-name="Ebreve" unicode="&#x114;" horiz-adv-x="1085" 
d="M1034 207l-30 -191q-2 -16 -19 -16h-815q-18 0 -18 16v1313q0 17 16 17h790q16 0 19 -15l22 -190q4 -19 -14 -19h-586v-325h533q14 0 14 -15v-194q0 -13 -14 -13h-533v-352h621q17 0 14 -16zM229 1759h168q11 0 17 -14q39 -103 143 -103q112 0 150 105q8 12 16 12h168
q18 0 12 -18q-24 -134 -119 -208.5t-227 -74.5q-135 0 -227.5 72t-114.5 213q0 16 14 16z" />
    <glyph glyph-name="ebreve" unicode="&#x115;" horiz-adv-x="1028" 
d="M731 449h-416q5 -115 83 -187t227 -72q136 0 254 50q5 3 8.5 0.5t3.5 -9.5v-170q0 -16 -12 -22q-124 -59 -308 -59q-108 0 -195 29.5t-144 78.5t-95 116.5t-54.5 139t-16.5 150.5q0 145 54.5 265t166 195.5t260.5 75.5q88 0 160 -26.5t119 -69.5t80 -100t47 -116t14 -120
q0 -92 -9 -127q-3 -11 -16 -14q-39 -8 -211 -8zM315 625h306q104 0 112 2v16q0 26 -9.5 55.5t-29.5 61.5t-61 53t-96 21q-97 0 -152.5 -61.5t-69.5 -147.5zM205 1421h164q12 0 12 -8q39 -104 149 -104q119 0 152 102q2 10 10 10h168q12 0 8 -12q-25 -131 -113.5 -205
t-226.5 -74q-134 0 -222.5 70.5t-112.5 208.5q-2 12 12 12z" />
    <glyph glyph-name="Edotaccent" unicode="&#x116;" horiz-adv-x="1085" 
d="M1034 207l-30 -191q-2 -16 -19 -16h-815q-18 0 -18 16v1313q0 17 16 17h790q16 0 19 -15l22 -190q4 -19 -14 -19h-586v-325h533q14 0 14 -15v-194q0 -13 -14 -13h-533v-352h621q17 0 14 -16zM565 1481q-62 0 -99.5 34t-37.5 89t39 88.5t102 33.5t99.5 -33t36.5 -89
t-38 -89.5t-102 -33.5z" />
    <glyph glyph-name="edotaccent" unicode="&#x117;" horiz-adv-x="1028" 
d="M731 449h-416q5 -115 83 -187t227 -72q136 0 254 50q5 3 8.5 0.5t3.5 -9.5v-170q0 -16 -12 -22q-124 -59 -308 -59q-108 0 -195 29.5t-144 78.5t-95 116.5t-54.5 139t-16.5 150.5q0 145 54.5 265t166 195.5t260.5 75.5q88 0 160 -26.5t119 -69.5t80 -100t47 -116t14 -120
q0 -92 -9 -127q-3 -11 -16 -14q-39 -8 -211 -8zM315 625h306q104 0 112 2v16q0 26 -9.5 55.5t-29.5 61.5t-61 53t-96 21q-97 0 -152.5 -61.5t-69.5 -147.5zM532 1155q-64 0 -102.5 39t-38.5 102t39.5 102.5t101.5 39.5q65 0 103.5 -39.5t38.5 -102.5t-39.5 -102t-102.5 -39z
" />
    <glyph glyph-name="Eogonek" unicode="&#x118;" horiz-adv-x="1085" 
d="M985 0h-74q-131 -88 -131 -176q0 -43 31.5 -68.5t89.5 -25.5q52 0 103 14q14 3 14 -10v-140q0 -11 -12 -20q-64 -33 -177 -33q-50 0 -95.5 11.5t-86 35t-64.5 67t-24 101.5q0 130 164 244h-553q-18 0 -18 16v1313q0 17 16 17h790q16 0 19 -15l22 -190q4 -19 -14 -19h-586
v-325h533q14 0 14 -15v-194q0 -13 -14 -13h-533v-352h621q17 0 14 -16l-30 -191q-2 -16 -19 -16z" />
    <glyph glyph-name="eogonek" unicode="&#x119;" horiz-adv-x="1028" 
d="M315 625h306q104 0 112 2v18q0 26 -9.5 55.5t-30 61t-61.5 52t-95 20.5q-97 0 -152.5 -61.5t-69.5 -147.5zM569 -18q-109 -1 -196.5 28.5t-144 78t-94 116t-53 139t-15.5 150.5q0 108 32 204t91.5 170.5t152 118t205.5 43.5q88 0 160.5 -26t119.5 -69t79.5 -99.5
t46.5 -115.5t14 -120q0 -78 -9 -123q-4 -14 -16 -14q-48 -10 -211 -10h-416q3 -117 81 -190t229 -73q135 0 254 52q5 3 7.5 0.5t2.5 -11.5v-168q0 -21 -15 -28q-260 -105 -260 -213q0 -43 32.5 -69.5t88.5 -26.5q52 0 96 14q19 5 19 -12v-127q0 -21 -14 -27
q-61 -33 -172 -33q-50 0 -94.5 11t-84 35t-63 67t-23.5 100q0 65 46 125.5t124 102.5z" />
    <glyph glyph-name="Ecaron" unicode="&#x11a;" horiz-adv-x="1085" 
d="M1034 207l-30 -191q-2 -16 -19 -16h-815q-18 0 -18 16v1313q0 17 16 17h790q16 0 19 -15l22 -190q4 -19 -14 -19h-586v-325h533q14 0 14 -15v-194q0 -13 -14 -13h-533v-352h621q17 0 14 -16zM438 1718l129 -133l127 133q13 13 21 13h186q6 0 7.5 -7.5t-3.5 -11.5
l-229 -237q-9 -9 -21 -9h-186q-18 0 -25 11l-237 239q-4 6 -2 10.5t8 4.5h199q9 0 26 -13z" />
    <glyph glyph-name="ecaron" unicode="&#x11b;" horiz-adv-x="1028" 
d="M731 449h-416q5 -115 83 -187t227 -72q136 0 254 50q5 3 8.5 0.5t3.5 -9.5v-170q0 -16 -12 -22q-124 -59 -308 -59q-108 0 -195 29.5t-144 78.5t-95 116.5t-54.5 139t-16.5 150.5q0 145 54.5 265t166 195.5t260.5 75.5q88 0 160 -26.5t119 -69.5t80 -100t47 -116t14 -120
q0 -92 -9 -127q-3 -11 -16 -14q-39 -8 -211 -8zM315 625h306q104 0 112 2v16q0 26 -9.5 55.5t-29.5 61.5t-61 53t-96 21q-97 0 -152.5 -61.5t-69.5 -147.5zM397 1442l129 -185l127 187q6 6 19 6h155q8 0 10.5 -5t-3.5 -11l-205 -287q-7 -10 -17 -10h-182q-11 0 -18 10
l-213 289q-7 14 8 14h170q15 0 20 -8z" />
    <glyph glyph-name="Gcircumflex" unicode="&#x11c;" horiz-adv-x="1323" 
d="M961 532l-230 7q-10 1 -13 5t-3 13v182q0 13 14 13h463q10 0 13 -3.5t3 -13.5v-667q3 -16 -12 -19q-179 -69 -403 -69q-175 0 -313.5 53.5t-226 147t-133.5 216.5t-46 267q0 211 94 370.5t265 245.5t396 86q228 0 332 -49q13 -7 13 -25v-196q0 -9 -5.5 -11.5t-11.5 0.5
q-117 60 -319 60q-245 3 -376.5 -122.5t-131.5 -350.5q0 -208 125 -341.5t350 -133.5q95 0 156 18v317zM848 1493l-129 133l-129 -133q-8 -10 -21 -10h-184q-6 0 -8 5.5t2 10.5l231 240q9 6 21 6h186q15 0 23 -8l239 -242q5 -5 2 -8.5t-10 -3.5h-199q-14 0 -24 10z" />
    <glyph glyph-name="gcircumflex" unicode="&#x11d;" horiz-adv-x="1052" 
d="M360 1137h-155q-8 0 -10 5t4 11l204 287q7 10 17 10h182q12 0 19 -10l213 -289q3 -6 0 -10t-9 -4h-170q-15 0 -20 8l-129 184l-127 -186q-6 -6 -19 -6zM596 6l-223 10q-42 -29 -70.5 -70.5t-28.5 -66.5q0 -58 74 -104.5t195 -46.5q137 0 208.5 46t71.5 111q0 62 -60 89
t-167 32zM498 852q-77 0 -121.5 -45t-44.5 -123q0 -73 43.5 -118.5t122.5 -45.5q77 0 120.5 42.5t43.5 117.5q0 77 -41 124.5t-123 47.5zM440 223l209 -8q205 -10 303.5 -86.5t98.5 -206.5q0 -160 -145.5 -268.5t-379.5 -108.5q-119 0 -213.5 28t-150.5 74t-85.5 101
t-29.5 113q0 100 191 266q-46 67 -43 154q0 74 36 133q-141 89 -141 266q0 152 109.5 251t298.5 99q105 0 180 -14q27 -6 47 -6h285q12 0 12 -13v-168q0 -12 -12 -12q-83 0 -158 10q45 -65 45 -155q0 -158 -111 -244t-284 -86q-41 0 -82 6q-11 -36 -6 -61q3 -35 26 -64z" />
    <glyph glyph-name="Gbreve" unicode="&#x11e;" horiz-adv-x="1323" 
d="M961 532l-230 7q-10 1 -13 5t-3 13v182q0 13 14 13h463q10 0 13 -3.5t3 -13.5v-667q3 -16 -12 -19q-179 -69 -403 -69q-175 0 -313.5 53.5t-226 147t-133.5 216.5t-46 267q0 211 94 370.5t265 245.5t396 86q228 0 332 -49q13 -7 13 -25v-196q0 -9 -5.5 -11.5t-11.5 0.5
q-117 60 -319 60q-245 3 -376.5 -122.5t-131.5 -350.5q0 -208 125 -341.5t350 -133.5q95 0 156 18v317zM399 1778h168q11 0 17 -15q18 -48 54.5 -75t88.5 -27q112 0 150 104q9 13 16 13h168q18 0 12 -19q-24 -133 -119 -207.5t-227 -74.5q-135 0 -227.5 71.5t-114.5 212.5
q0 17 14 17z" />
    <glyph glyph-name="gbreve" unicode="&#x11f;" horiz-adv-x="1052" 
d="M659 1415h168q13 0 9 -12q-25 -131 -113.5 -205t-226.5 -74q-134 0 -223 70.5t-113 208.5q-2 12 12 12h164q12 0 12 -8q39 -104 150 -104q118 0 151 102q3 10 10 10zM596 6l-223 10q-42 -29 -70.5 -70.5t-28.5 -66.5q0 -58 74 -104.5t195 -46.5q137 0 208.5 46t71.5 111
q0 62 -60 89t-167 32zM498 852q-77 0 -121.5 -45t-44.5 -123q0 -73 43.5 -118.5t122.5 -45.5q77 0 120.5 42.5t43.5 117.5q0 77 -41 124.5t-123 47.5zM440 223l209 -8q205 -10 303.5 -86.5t98.5 -206.5q0 -160 -145.5 -268.5t-379.5 -108.5q-119 0 -213.5 28t-150.5 74
t-85.5 101t-29.5 113q0 100 191 266q-46 67 -43 154q0 74 36 133q-141 89 -141 266q0 152 109.5 251t298.5 99q105 0 180 -14q27 -6 47 -6h285q12 0 12 -13v-168q0 -12 -12 -12q-83 0 -158 10q45 -65 45 -155q0 -158 -111 -244t-284 -86q-41 0 -82 6q-11 -36 -6 -61
q3 -35 26 -64z" />
    <glyph glyph-name="Gdotaccent" unicode="&#x120;" horiz-adv-x="1323" 
d="M961 532l-230 7q-10 1 -13 5t-3 13v182q0 13 14 13h463q10 0 13 -3.5t3 -13.5v-667q3 -16 -12 -19q-179 -69 -403 -69q-175 0 -313.5 53.5t-226 147t-133.5 216.5t-46 267q0 211 94 370.5t265 245.5t396 86q228 0 332 -49q13 -7 13 -25v-196q0 -9 -5.5 -11.5t-11.5 0.5
q-117 60 -319 60q-245 3 -376.5 -122.5t-131.5 -350.5q0 -208 125 -341.5t350 -133.5q95 0 156 18v317zM748 1501q-63 0 -100.5 33.5t-37.5 89.5q0 55 39.5 89t102.5 34q62 0 98.5 -34t36.5 -89q0 -56 -37.5 -89.5t-101.5 -33.5z" />
    <glyph glyph-name="gdotaccent" unicode="&#x121;" horiz-adv-x="1052" 
d="M510 1155q-64 0 -102.5 39t-38.5 102t39.5 102.5t101.5 39.5q65 0 103 -39.5t38 -102.5t-39 -102t-102 -39zM596 6l-223 10q-42 -29 -70.5 -70.5t-28.5 -66.5q0 -58 74 -104.5t195 -46.5q137 0 208.5 46t71.5 111q0 62 -60 89t-167 32zM498 852q-77 0 -121.5 -45
t-44.5 -123q0 -73 43.5 -118.5t122.5 -45.5q77 0 120.5 42.5t43.5 117.5q0 77 -41 124.5t-123 47.5zM440 223l209 -8q205 -10 303.5 -86.5t98.5 -206.5q0 -160 -145.5 -268.5t-379.5 -108.5q-119 0 -213.5 28t-150.5 74t-85.5 101t-29.5 113q0 100 191 266q-46 67 -43 154
q0 74 36 133q-141 89 -141 266q0 152 109.5 251t298.5 99q105 0 180 -14q27 -6 47 -6h285q12 0 12 -13v-168q0 -12 -12 -12q-83 0 -158 10q45 -65 45 -155q0 -158 -111 -244t-284 -86q-41 0 -82 6q-11 -36 -6 -61q3 -35 26 -64z" />
    <glyph glyph-name="uni0122" unicode="&#x122;" horiz-adv-x="1323" 
d="M961 532l-230 7q-10 1 -13 5t-3 13v182q0 13 14 13h463q10 0 13 -3.5t3 -13.5v-667q3 -16 -12 -19q-179 -69 -403 -69q-175 0 -313.5 53.5t-226 147t-133.5 216.5t-46 267q0 211 94 370.5t265 245.5t396 86q228 0 332 -49q13 -7 13 -25v-196q0 -9 -5.5 -11.5t-11.5 0.5
q-117 60 -319 60q-245 3 -376.5 -122.5t-131.5 -350.5q0 -208 125 -341.5t350 -133.5q95 0 156 18v317zM780 -485h-186q-7 0 -9 5.5t1 10.5q76 117 76 223q0 48 -31 129q-3 6 0 10.5t8 4.5h203q7 0 20 -13q31 -52 31 -118q0 -73 -22.5 -130t-69.5 -116q-3 -6 -21 -6z" />
    <glyph glyph-name="uni0123" unicode="&#x123;" horiz-adv-x="1052" 
d="M621 1120h-203q-11 0 -21 13q-30 47 -30 116q0 134 92 246q3 6 20 6h187q7 0 9 -4.5t-1 -9.5q-76 -117 -76 -225q0 -45 31 -129q3 -6 0 -9.5t-8 -3.5zM596 6l-223 10q-42 -29 -70.5 -70.5t-28.5 -66.5q0 -58 74 -104.5t195 -46.5q137 0 208.5 46t71.5 111q0 62 -60 89
t-167 32zM498 852q-77 0 -121.5 -45t-44.5 -123q0 -73 43.5 -118.5t122.5 -45.5q77 0 120.5 42.5t43.5 117.5q0 77 -41 124.5t-123 47.5zM440 223l209 -8q205 -10 303.5 -86.5t98.5 -206.5q0 -160 -145.5 -268.5t-379.5 -108.5q-119 0 -213.5 28t-150.5 74t-85.5 101
t-29.5 113q0 100 191 266q-46 67 -43 154q0 74 36 133q-141 89 -141 266q0 152 109.5 251t298.5 99q105 0 180 -14q27 -6 47 -6h285q12 0 12 -13v-168q0 -12 -12 -12q-83 0 -158 10q45 -65 45 -155q0 -158 -111 -244t-284 -86q-41 0 -82 6q-11 -36 -6 -61q3 -35 26 -64z" />
    <glyph glyph-name="Hcircumflex" unicode="&#x124;" horiz-adv-x="1370" 
d="M1202 0h-215q-16 0 -16 16v572h-572v-570q0 -18 -16 -18h-211q-18 0 -18 18v1309q0 19 16 19h213q16 0 16 -17v-518h572v520q0 15 14 15h219q15 0 15 -15v-1315q0 -16 -17 -16zM809 1468l-129 134l-127 -134q-9 -12 -21 -12h-186q-6 0 -7.5 7t3.5 12l229 237q12 8 21 8
h186q18 0 25 -10l237 -240q4 -6 2 -10t-10 -4h-196q-15 0 -27 12z" />
    <glyph glyph-name="hcircumflex" unicode="&#x125;" horiz-adv-x="1130" 
d="M381 1530l-129 94l-119 -94q-8 -8 -24 -8h-187q-8 0 -11 4t3 10l238 203q6 6 18 6h174q15 0 25 -10l241 -201q6 -3 4 -7.5t-10 -4.5h-196q-19 0 -27 8zM377 743v-729q0 -14 -15 -14h-217q-16 0 -16 16v1428q0 14 16 14h217q15 0 15 -14v-508q129 94 280 94q51 0 96 -10
t91.5 -38t79.5 -72t54 -117t21 -168v-607q0 -18 -16 -18h-213q-18 0 -18 18v582q0 104 -45.5 159.5t-133.5 55.5q-115 0 -196 -72z" />
    <glyph glyph-name="Hbar" unicode="&#x126;" horiz-adv-x="1370" 
d="M985 778v176h-586v-176h586zM1231 1122h98q14 0 14 -12v-143q0 -13 -14 -13h-98v-938q0 -9 -2.5 -12.5t-11.5 -3.5h-216q-10 0 -13 3.5t-3 12.5v539h-586v-537q0 -18 -16 -18h-211q-18 0 -18 18v936h-105q-14 0 -14 15v141q0 12 12 12h107v205q0 19 16 19h213
q16 0 16 -17v-207h586v209q0 15 14 15h220q12 0 12 -15v-209z" />
    <glyph glyph-name="hbar" unicode="&#x127;" horiz-adv-x="1130" 
d="M377 1126v-233q111 94 285 94q50 0 95.5 -10t92 -38.5t80 -72t55 -116.5t21.5 -168v-564q0 -18 -19 -18h-213q-18 0 -18 18v547q0 104 -43.5 159.5t-130.5 55.5q-127 0 -205 -84v-682q0 -14 -15 -14h-217q-16 0 -16 16v1110h-133q-14 0 -14 15v151q0 11 10 11h137v141
q0 14 16 14h217q15 0 15 -14v-141h328q6 0 8 -2t2 -9v-153q0 -13 -13 -13h-325z" />
    <glyph glyph-name="Itilde" unicode="&#x128;" horiz-adv-x="552" 
d="M399 1329v-1311q0 -18 -16 -18h-215q-16 0 -16 18v1311q0 17 16 17h215q16 0 16 -17zM82 1464h-137q-15 0 -15 15q0 126 59 192t148 66q44 0 86.5 -16t69.5 -35.5t57 -35.5t53 -16q53 0 60 84q3 13 14 13h135q13 0 13 -13q-8 -256 -199 -256q-41 0 -82 16t-67.5 34.5
t-58 34.5t-56.5 16t-44.5 -22.5t-23.5 -63.5q0 -13 -12 -13z" />
    <glyph glyph-name="itilde" unicode="&#x129;" horiz-adv-x="507" 
d="M129 18v977q0 15 16 15h217q17 0 17 -15v-979q0 -16 -19 -16h-210q-21 0 -21 18zM51 1143h-135q-16 0 -16 16q1 131 60.5 199.5t150.5 68.5q56 0 112.5 -26t101 -52t68.5 -26q55 0 62 88q0 12 12 12h135q14 0 14 -10q-1 -143 -55 -208.5t-145 -65.5q-51 0 -104 25.5
t-99.5 51t-79.5 25.5q-64 0 -72 -86q0 -12 -10 -12z" />
    <glyph glyph-name="Imacron" unicode="&#x12a;" horiz-adv-x="552" 
d="M399 1329v-1311q0 -18 -16 -18h-215q-16 0 -16 18v1311q0 17 16 17h215q16 0 16 -17zM-12 1673h579q15 0 15 -14v-156q0 -14 -15 -14h-575q-11 0 -15 2.5t-4 11.5v156q0 14 15 14z" />
    <glyph glyph-name="imacron" unicode="&#x12b;" horiz-adv-x="507" 
d="M129 18v977q0 15 16 15h217q17 0 17 -15v-979q0 -16 -19 -16h-210q-21 0 -21 18zM-27 1372h572q12 0 12 -14v-148q0 -12 -12 -12h-574q-12 0 -12 14v146q0 14 14 14z" />
    <glyph glyph-name="Iogonek" unicode="&#x12e;" horiz-adv-x="552" 
d="M152 29v1302q0 15 14 15h221q12 0 12 -13v-1313q0 -14 -8 -20q-141 -99 -141 -195q0 -49 33 -76.5t86 -27.5q66 0 104 14q4 1 6 0.5t3 -3t1 -7.5v-135q0 -20 -10 -25q-58 -28 -176 -28q-114 0 -192 55t-78 168q0 127 141 264q-16 6 -16 25z" />
    <glyph glyph-name="iogonek" unicode="&#x12f;" horiz-adv-x="507" 
d="M379 995v-977q0 -10 -14 -18q-111 -83 -111 -166q0 -47 31.5 -75.5t87.5 -28.5q61 0 96 14q18 3 18 -12v-138q0 -11 -14 -22q-63 -29 -174 -29q-51 0 -97 12t-86 36t-63.5 68t-23.5 101q0 120 118 238q-18 3 -18 25v972q0 15 16 15h217q17 0 17 -15zM254 1174
q-59 0 -95 36.5t-36 96.5q0 59 37.5 96t95.5 37q61 0 96 -37t35 -96q0 -60 -36.5 -96.5t-96.5 -36.5z" />
    <glyph glyph-name="Idotaccent" unicode="&#x130;" horiz-adv-x="552" 
d="M399 1329v-1311q0 -18 -16 -18h-215q-16 0 -16 18v1311q0 17 16 17h215q16 0 16 -17zM272 1475q-61 0 -99 34t-38 88q0 55 39 89t102 34t99.5 -33.5t36.5 -89.5t-37.5 -89t-102.5 -33z" />
    <glyph glyph-name="dotlessi" unicode="&#x131;" horiz-adv-x="507" 
d="M129 18v977q0 15 16 15h217q17 0 17 -15v-979q0 -16 -19 -16h-210q-21 0 -21 18z" />
    <glyph glyph-name="Jcircumflex" unicode="&#x134;" horiz-adv-x="659" 
d="M268 365v966q0 15 17 15h217q14 0 14 -15v-942q0 -119 -16 -190q-34 -156 -141.5 -232t-270.5 -76q-54 0 -92 9q-14 5 -14 22v189q0 15 18 12q29 -4 63 -4q103 0 154 53.5t51 192.5zM508 1464l-129 133l-127 -133q-8 -10 -21 -10h-184q-7 0 -9 6t3 10l229 238q16 8 21 8
h186q18 0 25 -10l239 -240q8 -12 -10 -12h-196q-14 0 -27 10z" />
    <glyph glyph-name="jcircumflex" unicode="&#x135;" horiz-adv-x="507" 
d="M147 1010h215q17 0 17 -15v-942q0 -158 -24.5 -241t-78.5 -150q-47 -55 -122.5 -80.5t-149.5 -25.5q-31 0 -47 2q-16 3 -16 18v180q0 17 14 17q87 0 131 45.5t45 169.5v1007q0 15 16 15zM375 1145l-127 184l-129 -186q-3 -6 -17 -6h-155q-7 0 -10 5t2 11l204 287
q8 10 19 10h182q11 0 18 -10l211 -289q4 -6 2 -10t-8 -4h-172q-12 0 -20 8z" />
    <glyph glyph-name="uni0136" unicode="&#x136;" horiz-adv-x="1196" 
d="M510 -80h203q11 0 20 -12q31 -48 31 -117q0 -75 -22.5 -132t-69.5 -114q-3 -6 -21 -6h-186q-7 0 -9 5.5t1 9.5q75 116 75 225q0 47 -30 129q-6 12 8 12zM649 692l590 -669q6 -7 2.5 -15t-12.5 -8h-260q-21 0 -35 16l-535 609v-607q0 -18 -16 -18h-213q-18 0 -18 18v1313
q0 15 16 15h215q16 0 16 -17v-602l527 606q10 13 24 13h236q13 0 16 -7.5t-4 -13.5l-549 -614q-5 -8 0 -19z" />
    <glyph glyph-name="uni0137" unicode="&#x137;" horiz-adv-x="1021" 
d="M406 -84h202q12 0 21 -12q30 -47 30 -117q0 -134 -92 -246q-3 -6 -20 -6h-187q-7 0 -9 4.5t1 9.5q76 117 76 226q0 45 -31 129q-3 6 0.5 9t8.5 3zM772 1010h232q10 0 13 -6t-3 -13q-56 -66 -406 -434v-8q21 -24 202 -232.5t261 -298.5q5 -6 2 -12t-12 -6h-281
q-15 0 -26 14q-40 46 -377 453v-449q0 -18 -17 -18h-215q-11 0 -14.5 4t-3.5 14v1424q0 16 18 16h215q17 0 17 -16v-867q65 73 218 247t153 175q10 13 24 13z" />
    <glyph glyph-name="kgreenlandic" unicode="&#x138;" horiz-adv-x="1021" 
d="M772 1010h232q10 0 13 -6t-3 -13q-56 -66 -406 -434v-8q21 -24 202 -232.5t261 -298.5q6 -6 3 -12t-11 -6h-283q-16 0 -24 14q-52 57 -379 453v-449q0 -18 -17 -18h-215q-11 0 -14.5 4t-3.5 14v977q0 15 18 15h215q17 0 17 -15v-420q65 73 218 247t153 175q10 13 24 13z
" />
    <glyph glyph-name="Lacute" unicode="&#x139;" horiz-adv-x="1026" 
d="M963 0h-791q-20 0 -20 20v1307q0 19 16 19h219q12 0 12 -15v-1108h602q9 0 13 -4t2 -10l-35 -193q-2 -16 -18 -16zM147 1491l244 229q11 9 25 9h258q7 0 9 -5.5t-3 -11.5l-281 -223q-11 -14 -28 -14h-215q-7 0 -10.5 5.5t1.5 10.5z" />
    <glyph glyph-name="lacute" unicode="&#x13a;" horiz-adv-x="542" 
d="M133 1559l189 172q12 12 32 12h232q9 0 11 -7.5t-5 -13.5l-219 -172q-15 -10 -35 -10h-195q-10 0 -13.5 5t3.5 14zM129 244v1198q0 16 18 16h211q19 0 19 -16v-1176q0 -46 17 -65t55 -19q20 0 38 2q9 3 9 -12v-154q0 -14 -13 -22q-37 -16 -116 -16q-53 0 -93 11.5
t-74.5 39.5t-52.5 81.5t-18 131.5z" />
    <glyph glyph-name="uni013B" unicode="&#x13b;" horiz-adv-x="1026" 
d="M963 0h-791q-20 0 -20 20v1307q0 19 16 19h219q12 0 12 -15v-1108h602q9 0 13 -4t2 -10l-35 -193q-2 -16 -18 -16zM600 -485h-186q-7 0 -9 4.5t1 9.5q75 116 75 225q0 47 -30 129q-3 6 0 9.5t8 3.5h203q10 0 20 -13q31 -48 31 -116q0 -134 -92 -246q-3 -6 -21 -6z" />
    <glyph glyph-name="uni013C" unicode="&#x13c;" horiz-adv-x="542" 
d="M129 244v1198q0 16 18 16h211q19 0 19 -16v-1176q0 -46 17 -65t55 -19q20 0 38 2q9 3 9 -12v-154q0 -14 -13 -22q-37 -16 -116 -16q-53 0 -93 11.5t-74.5 39.5t-52.5 81.5t-18 131.5zM330 -477h-187q-7 0 -9 5.5t1 10.5q76 117 76 223q0 48 -31 129q-3 6 -1 10.5t7 4.5
h203q13 0 21 -12q32 -50 32 -119q0 -73 -22.5 -130t-69.5 -116q-6 -6 -20 -6z" />
    <glyph glyph-name="Lcaron" unicode="&#x13d;" horiz-adv-x="1026" 
d="M963 0h-791q-20 0 -20 20v1307q0 19 16 19h219q12 0 12 -15v-1108h602q9 0 13 -4t2 -10l-35 -193q-2 -16 -18 -16zM682 864l-2 469q0 15 14 15h183q15 0 12 -15l-37 -471q-2 -10 -14 -10h-142q-14 0 -14 12z" />
    <glyph glyph-name="lcaron" unicode="&#x13e;" horiz-adv-x="643" 
d="M502 977l-4 465q0 16 14 16h158q15 0 12 -16l-29 -465q-3 -14 -16 -14h-121q-8 0 -11 2.5t-3 11.5zM129 244v1198q0 16 18 16h211q19 0 19 -16v-1176q0 -46 17 -65t55 -19q20 0 38 2q9 3 9 -12v-154q0 -14 -13 -22q-37 -16 -116 -16q-53 0 -93 11.5t-74.5 39.5
t-52.5 81.5t-18 131.5z" />
    <glyph glyph-name="Ldot" unicode="&#x13f;" horiz-adv-x="1026" 
d="M963 0h-791q-20 0 -20 20v1307q0 19 16 19h219q12 0 12 -15v-1108h602q9 0 13 -4t2 -10l-35 -193q-2 -16 -18 -16zM795 633q-62 0 -100 34t-38 89t39.5 89t102.5 34t99 -33.5t36 -89.5t-37.5 -89.5t-101.5 -33.5z" />
    <glyph glyph-name="ldot" unicode="&#x140;" horiz-adv-x="602" 
d="M557 694q-53 0 -82 36.5t-29 103.5q0 65 29.5 101t81.5 36q56 0 84.5 -36t28.5 -101q0 -68 -29 -104t-84 -36zM129 244v1198q0 16 18 16h211q19 0 19 -16v-1176q0 -46 17 -65t55 -19q20 0 38 2q9 3 9 -12v-154q0 -14 -13 -22q-37 -16 -116 -16q-53 0 -93 11.5t-74.5 39.5
t-52.5 81.5t-18 131.5z" />
    <glyph glyph-name="Lslash" unicode="&#x141;" horiz-adv-x="1026" 
d="M399 223h602q9 0 13 -4t2 -10l-35 -193q-2 -16 -18 -16h-791q-20 0 -20 20v496l-144 -63q-4 -3 -7 -1t-3 7v151q0 7 8 15l146 65v637q0 19 16 19h219q12 0 12 -15v-530l293 131q15 6 15 -10v-140q0 -19 -13 -22l-295 -131v-406z" />
    <glyph glyph-name="lslash" unicode="&#x142;" horiz-adv-x="563" 
d="M397 973l138 69q14 6 14 -8v-110q0 -35 -10 -41l-142 -72v-545q0 -46 17 -65t55 -19q21 0 39 2q8 3 8 -12v-154q0 -15 -12 -22q-37 -16 -117 -16q-53 0 -93 11.5t-74 39.5t-52 81.5t-18 131.5v442l-105 -53q-14 -3 -14 6v137q0 12 10 17l109 55v594q0 16 18 16h211
q18 0 18 -16v-469z" />
    <glyph glyph-name="Nacute" unicode="&#x143;" horiz-adv-x="1398" 
d="M369 0h-199q-10 0 -14 3.5t-4 14.5v1313q0 15 14 15h289q11 0 15 -3t9 -12q127 -225 307 -559t230 -442h2q-6 171 -6 317v682q0 17 18 17h197q18 0 18 -19v-1309q0 -18 -20 -18h-260q-19 0 -27 14q-14 28 -264 489.5t-297 579.5h-2q10 -130 10 -381v-684q0 -18 -16 -18z
M555 1483l246 229q10 10 24 10h258q7 0 9.5 -6t-2.5 -12l-281 -223q-15 -15 -29 -15h-217q-7 0 -9 6t1 11z" />
    <glyph glyph-name="nacute" unicode="&#x144;" horiz-adv-x="1128" 
d="M129 16v758q0 139 -8 221q0 15 14 15h187q18 0 24 -15q7 -22 14 -77q133 112 297 112q64 0 119.5 -18t108 -60.5t83.5 -126t31 -200.5v-607q0 -18 -16 -18h-213q-18 0 -18 18v584q0 103 -44.5 158t-132.5 55q-120 0 -198 -84v-715q0 -16 -17 -16h-215q-16 0 -16 16z
M444 1151l203 289q9 18 23 18h235q22 0 13 -18l-250 -291q-12 -12 -27 -12h-190q-6 0 -8 4.5t1 9.5z" />
    <glyph glyph-name="uni0145" unicode="&#x145;" horiz-adv-x="1398" 
d="M369 0h-199q-10 0 -14 3.5t-4 14.5v1313q0 15 14 15h289q11 0 15 -3t9 -12q127 -225 307 -559t230 -442h2q-6 171 -6 317v682q0 17 18 17h197q18 0 18 -19v-1309q0 -18 -20 -18h-260q-19 0 -27 14q-14 28 -264 489.5t-297 579.5h-2q10 -130 10 -381v-684q0 -18 -16 -18z
M731 -467h-186q-7 0 -9 5.5t1 10.5q75 116 75 226q0 49 -30 127q-7 14 8 14h201q13 0 22 -12q31 -55 31 -117q0 -75 -22.5 -132t-69.5 -114q-8 -8 -21 -8z" />
    <glyph glyph-name="uni0146" unicode="&#x146;" horiz-adv-x="1128" 
d="M129 16v758q0 139 -8 221q0 15 14 15h187q18 0 24 -15q7 -22 14 -77q133 112 297 112q64 0 119.5 -18t108 -60.5t83.5 -126t31 -200.5v-607q0 -18 -16 -18h-213q-18 0 -18 18v584q0 103 -44.5 158t-132.5 55q-120 0 -198 -84v-715q0 -16 -17 -16h-215q-16 0 -16 16z
M594 -473h-186q-7 0 -9.5 4.5t0.5 9.5q76 120 76 226q0 45 -31 129q-6 12 7 12h202q15 0 21 -12q33 -52 33 -117q0 -133 -93 -246q-6 -6 -20 -6z" />
    <glyph glyph-name="Ncaron" unicode="&#x147;" horiz-adv-x="1398" 
d="M369 0h-199q-10 0 -14 3.5t-4 14.5v1313q0 15 14 15h289q11 0 15 -3t9 -12q127 -225 307 -559t230 -442h2q-6 171 -6 317v682q0 17 18 17h197q18 0 18 -19v-1309q0 -18 -20 -18h-260q-19 0 -27 14q-14 28 -264 489.5t-297 579.5h-2q10 -130 10 -381v-684q0 -18 -16 -18z
M584 1700l129 -133l127 133q10 10 20 10h184q7 0 9.5 -6t-2.5 -10l-230 -238q-11 -8 -20 -8h-187q-17 0 -24 10l-240 240q-8 12 8 12h199q14 0 27 -10z" />
    <glyph glyph-name="ncaron" unicode="&#x148;" horiz-adv-x="1128" 
d="M129 16v758q0 139 -8 221q0 15 14 15h187q18 0 24 -15q7 -22 14 -77q133 112 297 112q64 0 119.5 -18t108 -60.5t83.5 -126t31 -200.5v-607q0 -18 -16 -18h-213q-18 0 -18 18v584q0 103 -44.5 158t-132.5 55q-120 0 -198 -84v-715q0 -16 -17 -16h-215q-16 0 -16 16z
M428 1442l129 -185l129 187q3 6 16 6h156q8 0 10 -5t-2 -11l-207 -287q-5 -10 -16 -10h-182q-12 0 -19 10l-211 289q-4 6 -1.5 10t8.5 4h170q15 0 20 -8z" />
    <glyph glyph-name="napostrophe" unicode="&#x149;" horiz-adv-x="1134" 
d="M37 1135l-2 372q0 15 14 15h195q8 0 11.5 -3t2.5 -10l-37 -379q-3 -10 -14 -10h-156q-14 0 -14 15zM129 16v758q0 139 -8 221q0 15 14 15h187q18 0 24 -15q7 -22 14 -77q133 112 297 112q64 0 119.5 -18t108 -60.5t83.5 -126t31 -200.5v-607q0 -18 -16 -18h-213
q-18 0 -18 18v584q0 103 -44.5 158t-132.5 55q-120 0 -198 -84v-715q0 -16 -17 -16h-215q-16 0 -16 16z" />
    <glyph glyph-name="Omacron" unicode="&#x14c;" horiz-adv-x="1417" 
d="M709 1366q147 0 267 -54t199 -147t122 -217.5t44 -267.5q1 -316 -174.5 -508t-457.5 -192q-194 0 -339.5 90.5t-220.5 247t-75 356.5q0 195 79.5 352.5t225 248.5t330.5 91zM330 674q0 -134 43.5 -240t132.5 -170.5t211 -64.5q172 0 271 129.5t97 345.5q0 217 -101 345
t-279 128q-167 0 -271 -125.5t-104 -347.5zM424 1696h580q14 0 14 -15v-155q0 -17 -14 -17h-576q-18 0 -18 17v155q0 15 14 15z" />
    <glyph glyph-name="omacron" unicode="&#x14d;" horiz-adv-x="1114" 
d="M563 1030q115 0 208.5 -41.5t154 -113t93 -165.5t32.5 -200q0 -237 -137 -383.5t-355 -146.5q-99 0 -182 29.5t-139.5 80t-96 118t-57.5 142t-18 154.5q0 146 59.5 265t174 190t263.5 71zM551 823q-104 0 -170 -85.5t-66 -229.5q0 -143 66.5 -231.5t181.5 -88.5
q101 0 168.5 82.5t67.5 233.5q0 138 -62.5 228.5t-185.5 90.5zM274 1372h572q12 0 12 -14v-148q0 -12 -12 -12h-574q-12 0 -12 14v146q0 14 14 14z" />
    <glyph glyph-name="Ohungarumlaut" unicode="&#x150;" horiz-adv-x="1417" 
d="M709 1366q147 0 267 -54t199 -147t122 -217.5t44 -267.5q1 -316 -174.5 -508t-457.5 -192q-194 0 -339.5 90.5t-220.5 247t-75 356.5q0 195 79.5 352.5t225 248.5t330.5 91zM330 674q0 -134 43.5 -240t132.5 -170.5t211 -64.5q172 0 271 129.5t97 345.5q0 217 -101 345
t-279 128q-167 0 -271 -125.5t-104 -347.5zM383 1507l147 226q5 12 21 12h205q6 0 8 -5t-2 -11l-178 -228q-13 -10 -23 -10h-170q-14 0 -8 16zM766 1509l143 224q10 12 27 12h203q8 0 10 -5.5t-2 -13.5l-176 -221q-10 -12 -27 -12h-170q-7 0 -9.5 4.5t1.5 11.5z" />
    <glyph glyph-name="ohungarumlaut" unicode="&#x151;" horiz-adv-x="1114" 
d="M563 1030q115 0 208.5 -41.5t154 -113t93 -165.5t32.5 -200q0 -237 -137 -383.5t-355 -146.5q-99 0 -182 29.5t-139.5 80t-96 118t-57.5 142t-18 154.5q0 146 59.5 265t174 190t263.5 71zM551 823q-104 0 -170 -85.5t-66 -229.5q0 -143 66.5 -231.5t181.5 -88.5
q101 0 168.5 82.5t67.5 233.5q0 138 -62.5 228.5t-185.5 90.5zM264 1161l146 279q8 16 30 16h178q9 0 12 -7t-3 -13l-176 -285q-1 -2 -3 -4t-3 -3.5t-2.5 -3t-3 -2.5t-4.5 -1.5t-6.5 -1t-8.5 -0.5h-144q-11 0 -14 9.5t2 16.5zM637 1163l147 279q8 16 25 16h182q10 0 14 -8
t-1 -14l-181 -283q-10 -16 -35 -16h-137q-13 0 -16 8.5t2 17.5z" />
    <glyph glyph-name="OE" unicode="&#x152;" horiz-adv-x="1865" 
d="M932 211v915q-12 3 -27 4t-27 1t-37 -0.5t-44 -0.5q-212 0 -340.5 -119t-128.5 -341q0 -232 126 -348.5t349 -116.5q92 0 129 6zM1026 1343h711q18 0 20 -14l21 -190q4 -19 -15 -19h-583v-323h532q14 0 14 -17v-192q0 -15 -16 -15h-530v-352h620q15 0 12 -16l-28 -191
q-3 -16 -27 -16h-727q-120 -6 -250 -6q-328 0 -517 181.5t-189 494.5q0 157 56 286t154 215t232 132.5t291 46.5q140 0 219 -5z" />
    <glyph glyph-name="oe" unicode="&#x153;" horiz-adv-x="1763" 
d="M66 494q0 232 137.5 377t351.5 145q256 0 367 -193q118 193 364 193q108 0 190.5 -38t130.5 -101.5t71.5 -138t23.5 -156.5q0 -110 -21 -123q-30 -13 -217 -13h-413q3 -114 77 -185t228 -71q140 0 254 50q16 6 16 -13v-159q0 -21 -12 -31q-114 -57 -303 -57
q-278 0 -389 190q-122 -190 -367 -190q-121 0 -216.5 43t-154 115.5t-88.5 163.5t-30 192zM557 809q-110 0 -176 -82t-66 -223q0 -142 65.5 -229t182.5 -87q101 0 168.5 78t67.5 230q0 137 -59.5 225t-182.5 88zM1051 618h358q59 0 59 15v18q0 26 -10.5 53t-32 54t-62 44
t-93.5 17q-94 0 -150 -55t-69 -146z" />
    <glyph glyph-name="Racute" unicode="&#x154;" horiz-adv-x="1202" 
d="M379 0h-211q-16 0 -16 16v1309q0 18 14 18q284 7 405 7q248 0 384.5 -104.5t136.5 -299.5q0 -128 -73.5 -222.5t-191.5 -137.5q56 -78 194 -284.5t179 -278.5q12 -23 -4 -23h-256q-19 0 -29 10q-31 49 -141.5 227t-151.5 244q-11 20 -20.5 27.5t-26.5 7.5h-176v-500
q0 -16 -16 -16zM395 727h178q126 0 199.5 54t73.5 151q0 99 -75 151t-208 52q-85 0 -168 -5v-403zM399 1495l244 229q11 11 25 11h260q6 0 7.5 -6.5t-3.5 -10.5l-281 -225q-10 -12 -28 -12h-215q-7 0 -10.5 4.5t1.5 9.5z" />
    <glyph glyph-name="racute" unicode="&#x155;" horiz-adv-x="712" 
d="M131 1010h193q16 0 22 -17q18 -48 21 -123q57 70 142 115t185 45q17 0 17 -14v-217q0 -15 -19 -15q-105 3 -190.5 -28.5t-122.5 -79.5v-660q0 -16 -19 -16h-213q-18 0 -18 16v707q0 189 -10 274q0 13 12 13zM236 1151l202 289q9 18 23 18h235q22 0 13 -18l-250 -291
q-12 -12 -27 -12h-190q-6 0 -7.5 4.5t1.5 9.5z" />
    <glyph glyph-name="uni0156" unicode="&#x156;" horiz-adv-x="1202" 
d="M379 0h-211q-16 0 -16 16v1309q0 18 14 18q284 7 405 7q248 0 384.5 -104.5t136.5 -299.5q0 -128 -73.5 -222.5t-191.5 -137.5q56 -78 194 -284.5t179 -278.5q12 -23 -4 -23h-256q-19 0 -29 10q-31 49 -141.5 227t-151.5 244q-11 20 -20.5 27.5t-26.5 7.5h-176v-500
q0 -16 -16 -16zM395 727h178q126 0 199.5 54t73.5 151q0 99 -75 151t-208 52q-85 0 -168 -5v-403zM647 -451h-186q-7 0 -9 5.5t1 9.5q75 118 75 225q0 47 -30 129q-6 12 8 12h203q10 0 20 -10q31 -52 31 -119q0 -133 -92 -245q-4 -7 -21 -7z" />
    <glyph glyph-name="uni0157" unicode="&#x157;" horiz-adv-x="712" 
d="M131 1010h193q16 0 22 -17q18 -48 21 -123q57 70 142 115t185 45q17 0 17 -14v-217q0 -15 -19 -15q-105 3 -190.5 -28.5t-122.5 -79.5v-660q0 -16 -19 -16h-213q-18 0 -18 16v707q0 189 -10 274q0 13 12 13zM272 -471h-186q-7 0 -9 4.5t1 9.5q76 117 76 226q0 46 -31 127
q-3 6 -1 10t7 4h203q14 0 20 -12q33 -52 33 -117q0 -75 -22.5 -132t-69.5 -114q-6 -6 -21 -6z" />
    <glyph glyph-name="Rcaron" unicode="&#x158;" horiz-adv-x="1202" 
d="M379 0h-211q-16 0 -16 16v1309q0 18 14 18q284 7 405 7q248 0 384.5 -104.5t136.5 -299.5q0 -128 -73.5 -222.5t-191.5 -137.5q56 -78 194 -284.5t179 -278.5q12 -23 -4 -23h-256q-19 0 -29 10q-31 49 -141.5 227t-151.5 244q-11 20 -20.5 27.5t-26.5 7.5h-176v-500
q0 -16 -16 -16zM395 727h178q126 0 199.5 54t73.5 151q0 99 -75 151t-208 52q-85 0 -168 -5v-403zM432 1712l129 -133l127 133q13 10 23 10h184q6 0 8 -6t-2 -10l-231 -240q-9 -6 -21 -6h-186q-16 0 -23 10l-239 240q-5 4 -2 8t10 4h199q14 0 24 -10z" />
    <glyph glyph-name="rcaron" unicode="&#x159;" horiz-adv-x="712" 
d="M131 1010h193q16 0 22 -17q18 -48 21 -123q57 70 142 115t185 45q17 0 17 -14v-217q0 -15 -19 -15q-105 3 -190.5 -28.5t-122.5 -79.5v-660q0 -16 -19 -16h-213q-18 0 -18 16v707q0 189 -10 274q0 13 12 13zM272 1442l129 -185l129 187q3 6 17 6h155q8 0 10.5 -5
t-1.5 -11l-207 -287q-5 -10 -17 -10h-182q-13 0 -18 8l-213 291q-3 4 -0.5 9t8.5 5h170q15 0 20 -8z" />
    <glyph glyph-name="Sacute" unicode="&#x15a;" horiz-adv-x="1015" 
d="M446 -20q-222 0 -358 73q-14 8 -14 31v213q0 6 5 8.5t11 -0.5q163 -106 365 -106q121 0 180 41.5t59 111.5q0 59 -45.5 105t-159.5 94l-98 41q-178 75 -247.5 168.5t-69.5 218.5q0 170 125 278.5t350 108.5q210 0 313 -53q12 -7 12 -27v-199q0 -7 -4.5 -10t-13.5 2
q-118 68 -309 68q-122 0 -177 -42t-55 -104q0 -57 45 -99.5t164 -92.5l78 -33q190 -79 266 -175.5t76 -225.5q0 -181 -133.5 -288t-364.5 -107zM350 1507l246 230q10 10 25 10h258q7 0 9 -6t-3 -12l-281 -224q-11 -14 -29 -14h-215q-8 0 -11 5.5t1 10.5z" />
    <glyph glyph-name="sacute" unicode="&#x15b;" horiz-adv-x="819" 
d="M692 772q-47 26 -118 42.5t-138 16.5q-75 0 -110 -25.5t-35 -62.5q0 -35 33.5 -62.5t128.5 -64.5q172 -63 242.5 -137.5t70.5 -185.5q0 -145 -108 -229t-296 -84q-189 0 -288 57q-15 9 -15 22v195q0 7 5.5 10t11.5 0q127 -82 293 -82q77 0 117 24.5t40 65.5
q0 39 -36 68.5t-130 67.5q-165 61 -234 135t-69 186q0 125 100.5 213t282.5 88q178 0 258 -41q13 -8 13 -24v-181q0 -18 -19 -12zM262 1151l203 289q9 18 22 18h236q21 0 12 -18l-250 -291q-12 -12 -26 -12h-191q-6 0 -7.5 4.5t1.5 9.5z" />
    <glyph glyph-name="Scircumflex" unicode="&#x15c;" horiz-adv-x="1015" 
d="M446 -20q-222 0 -358 73q-14 8 -14 31v213q0 6 5 8.5t11 -0.5q163 -106 365 -106q121 0 180 41.5t59 111.5q0 59 -45.5 105t-159.5 94l-98 41q-178 75 -247.5 168.5t-69.5 218.5q0 170 125 278.5t350 108.5q210 0 313 -53q12 -7 12 -27v-199q0 -7 -4.5 -10t-13.5 2
q-118 68 -309 68q-122 0 -177 -42t-55 -104q0 -57 45 -99.5t164 -92.5l78 -33q190 -79 266 -175.5t76 -225.5q0 -181 -133.5 -288t-364.5 -107zM623 1483l-129 133l-127 -133q-8 -13 -21 -13h-186q-6 0 -7.5 7t3.5 12l229 237q18 9 21 9h186q17 0 24 -11l240 -239
q3 -6 0 -10.5t-10 -4.5h-197q-13 0 -26 13z" />
    <glyph glyph-name="scircumflex" unicode="&#x15d;" horiz-adv-x="819" 
d="M692 772q-47 26 -118 42.5t-138 16.5q-75 0 -110 -25.5t-35 -62.5q0 -35 33.5 -62.5t128.5 -64.5q172 -63 242.5 -137.5t70.5 -185.5q0 -145 -108 -229t-296 -84q-189 0 -288 57q-15 9 -15 22v195q0 7 5.5 10t11.5 0q127 -82 293 -82q77 0 117 24.5t40 65.5
q0 39 -36 68.5t-130 67.5q-165 61 -234 135t-69 186q0 125 100.5 213t282.5 88q178 0 258 -41q13 -8 13 -24v-181q0 -18 -19 -12zM530 1145l-129 184l-129 -186q-3 -6 -16 -6h-156q-8 0 -10 5t2 11l207 287q5 10 16 10h183q11 0 18 -10l213 -289q7 -14 -8 -14h-170
q-16 0 -21 8z" />
    <glyph glyph-name="uni015E" unicode="&#x15e;" horiz-adv-x="1015" 
d="M524 809l78 -33q190 -79 266 -175.5t76 -225.5q0 -154 -99 -256.5t-276 -130.5l-51 -70q87 -27 130.5 -74.5t43.5 -122.5q0 -86 -68 -140t-175 -54q-96 0 -152 27q-10 5 -10 16v106q0 13 12 11q60 -29 133 -29q86 0 86 61q0 74 -192 97q-3 7 -3.5 26.5t3.5 26.5l88 111
q-198 6 -326 73q-14 8 -14 31v213q0 6 5 8.5t11 -0.5q163 -106 365 -106q121 0 180 41.5t59 111.5q0 59 -45.5 105t-159.5 94l-98 41q-178 75 -247.5 168.5t-69.5 218.5q0 170 125 278.5t350 108.5q210 0 313 -53q12 -7 12 -27v-199q0 -7 -4.5 -10t-13.5 2q-118 68 -309 68
q-122 0 -177 -42t-55 -104q0 -57 45 -99.5t164 -92.5z" />
    <glyph glyph-name="uni015F" unicode="&#x15f;" horiz-adv-x="819" 
d="M711 965v-181q0 -18 -19 -12q-47 26 -118 42.5t-138 16.5q-75 0 -110 -25.5t-35 -62.5q0 -35 33.5 -62.5t128.5 -64.5q172 -63 242.5 -137.5t70.5 -185.5q0 -120 -74.5 -199t-208.5 -104l-55 -72q90 -27 133 -74t43 -123q0 -84 -69 -139t-177 -55q-93 0 -149 27
q-12 7 -12 24v96q0 16 16 13q63 -29 131 -29q86 0 86 61q0 74 -192 97q-4 6 -4 26.5t4 26.5l88 111q-162 6 -252 57q-15 9 -15 22v195q0 7 5.5 10t11.5 0q127 -82 293 -82q77 0 117 24.5t40 65.5q0 39 -36 68.5t-130 67.5q-165 61 -234 135t-69 186q0 125 100.5 213
t282.5 88q178 0 258 -41q13 -8 13 -24z" />
    <glyph glyph-name="Scaron" unicode="&#x160;" horiz-adv-x="1015" 
d="M446 -20q-222 0 -358 73q-14 8 -14 31v213q0 6 5 8.5t11 -0.5q163 -106 365 -106q121 0 180 41.5t59 111.5q0 59 -45.5 105t-159.5 94l-98 41q-178 75 -247.5 168.5t-69.5 218.5q0 170 125 278.5t350 108.5q210 0 313 -53q12 -7 12 -27v-199q0 -7 -4.5 -10t-13.5 2
q-118 68 -309 68q-122 0 -177 -42t-55 -104q0 -57 45 -99.5t164 -92.5l78 -33q190 -79 266 -175.5t76 -225.5q0 -181 -133.5 -288t-364.5 -107zM385 1726l129 -133l127 133q13 13 23 13h184q6 0 7.5 -7.5t-1.5 -11.5l-231 -237q-6 -6 -21 -6h-186q-20 0 -23 8l-239 241
q-4 4 -2 8.5t8 4.5h200q12 0 25 -13z" />
    <glyph glyph-name="scaron" unicode="&#x161;" horiz-adv-x="819" 
d="M692 772q-47 26 -118 42.5t-138 16.5q-75 0 -110 -25.5t-35 -62.5q0 -35 33.5 -62.5t128.5 -64.5q172 -63 242.5 -137.5t70.5 -185.5q0 -145 -108 -229t-296 -84q-189 0 -288 57q-15 9 -15 22v195q0 7 5.5 10t11.5 0q127 -82 293 -82q77 0 117 24.5t40 65.5
q0 39 -36 68.5t-130 67.5q-165 61 -234 135t-69 186q0 125 100.5 213t282.5 88q178 0 258 -41q13 -8 13 -24v-181q0 -18 -19 -12zM283 1442l129 -185l127 187q6 6 16 6h158q7 0 9 -5t-3 -11l-205 -287q-8 -10 -18 -10h-181q-13 0 -20 10l-211 289q-4 6 -1 10t9 4h170
q13 0 21 -8z" />
    <glyph glyph-name="uni0162" unicode="&#x162;" horiz-adv-x="1116" 
d="M1087 1327l21 -186q3 -19 -16 -19h-412v-1104q0 -18 -18 -18h-25l-57 -78q176 -52 176 -196q0 -86 -67.5 -139.5t-176.5 -53.5q-100 0 -152 27q-12 7 -12 22v96q0 20 17 13q62 -27 129 -27q40 0 64 15t24 45q0 75 -193 98q-5 4 -5 25t5 26l96 127h-34q-19 -3 -19 18v1104
h-414q-15 0 -12 17l25 190q3 17 20 17h1016q10 0 14 -4t6 -15z" />
    <glyph glyph-name="uni0163" unicode="&#x163;" horiz-adv-x="645" 
d="M401 1010h199q14 0 14 -15v-178q0 -14 -14 -14h-201v-486q0 -70 26.5 -101.5t90.5 -31.5q34 0 78 9q5 2 8.5 -1.5t3.5 -11.5v-147q0 -20 -12 -25q-62 -22 -135 -28l-47 -62q89 -27 131.5 -74t42.5 -123q0 -84 -68.5 -139t-175.5 -55q-97 0 -149 27q-13 8 -13 24v96
q0 16 15 13q63 -29 131 -29q88 0 88 61q0 73 -193 97q-5 6 -5.5 26.5t3.5 26.5l96 123q-163 49 -163 272v539h-129q-15 3 -15 18v172q0 17 17 17h129q5 175 20 252q3 15 16 18l207 29q15 3 15 -11q-11 -125 -11 -288z" />
    <glyph glyph-name="Tcaron" unicode="&#x164;" horiz-adv-x="1105" 
d="M430 18v1104h-416q-15 0 -12 17l27 190q3 17 18 17h1018q17 0 20 -19l19 -186q3 -19 -14 -19h-414v-1104q0 -18 -17 -18h-210q-19 -3 -19 18zM432 1710l129 -133l127 133q12 12 23 12h184q6 0 7.5 -7t-1.5 -11l-231 -238q-6 -6 -21 -6h-186q-20 0 -23 8l-239 240
q-4 6 -2 10t8 4h201q12 0 24 -12z" />
    <glyph glyph-name="tcaron" unicode="&#x165;" horiz-adv-x="645" 
d="M520 1206l-2 361q0 16 14 16h164q10 0 15.5 -4t3.5 -12l-37 -361q-3 -16 -19 -16h-124q-15 0 -15 16zM606 180v-147q0 -20 -12 -25q-77 -28 -174 -28q-268 0 -268 284v539h-129q-15 3 -15 18v172q0 17 17 17h129q5 175 20 252q3 15 16 18l207 29q15 3 15 -11
q-11 -125 -11 -288h199q14 0 14 -15v-178q0 -14 -14 -14h-201v-486q0 -70 26.5 -101.5t90.5 -31.5q34 0 78 9q5 2 8.5 -1.5t3.5 -11.5z" />
    <glyph glyph-name="Utilde" unicode="&#x168;" horiz-adv-x="1335" 
d="M381 1329v-807q0 -151 73.5 -237t217.5 -86q132 0 207 75t75 252v801q0 19 17 19h215q16 0 16 -17v-815q0 -140 -41 -244.5t-115 -167t-169.5 -92.5t-212.5 -30q-249 0 -390 133t-141 391v823q0 19 17 19h215q16 0 16 -17zM492 1479h-140q-14 0 -14 12q1 126 60 193
t149 67q55 0 106 -26t90.5 -52t67.5 -26q51 0 61 86q0 12 13 12h135q14 0 14 -12q-10 -258 -198 -258q-42 0 -83.5 15.5t-68.5 34.5t-58.5 34.5t-56.5 15.5t-43.5 -22t-21.5 -64q0 -10 -12 -10z" />
    <glyph glyph-name="utilde" unicode="&#x169;" horiz-adv-x="1116" 
d="M985 995v-770q0 -82 12 -211q1 -7 -3 -10.5t-13 -3.5h-188q-18 0 -21 12q-10 34 -14 72q-112 -104 -285 -104q-76 0 -136.5 21t-108 66t-73.5 122t-26 182v624q0 15 16 15h215q15 0 15 -15v-596q0 -204 178 -204q107 0 186 73v727q0 15 17 15h215q14 0 14 -15zM354 1143
h-135q-13 0 -16 16q1 131 60.5 199.5t150.5 68.5q56 0 112.5 -26t101 -52t68.5 -26q55 0 62 88q0 12 12 12h135q15 0 15 -10q-1 -143 -55.5 -208.5t-145.5 -65.5q-51 0 -104 25.5t-99.5 51t-79.5 25.5q-63 0 -71 -86q0 -12 -11 -12z" />
    <glyph glyph-name="Umacron" unicode="&#x16a;" horiz-adv-x="1335" 
d="M381 1329v-807q0 -151 73.5 -237t217.5 -86q132 0 207 75t75 252v801q0 19 17 19h215q16 0 16 -17v-815q0 -140 -41 -244.5t-115 -167t-169.5 -92.5t-212.5 -30q-249 0 -390 133t-141 391v823q0 19 17 19h215q16 0 16 -17zM381 1681h582q12 0 12 -14v-158q0 -14 -14 -14
h-576q-18 0 -18 14v156q0 16 14 16z" />
    <glyph glyph-name="umacron" unicode="&#x16b;" horiz-adv-x="1116" 
d="M985 995v-770q0 -82 12 -211q1 -7 -3 -10.5t-13 -3.5h-188q-18 0 -21 12q-10 34 -14 72q-112 -104 -285 -104q-76 0 -136.5 21t-108 66t-73.5 122t-26 182v624q0 15 16 15h215q15 0 15 -15v-596q0 -204 178 -204q107 0 186 73v727q0 15 17 15h215q14 0 14 -15zM279 1372
h571q12 0 12 -14v-148q0 -12 -12 -12h-574q-12 0 -12 14v146q0 14 15 14z" />
    <glyph glyph-name="Ubreve" unicode="&#x16c;" horiz-adv-x="1335" 
d="M381 1329v-807q0 -151 73.5 -237t217.5 -86q132 0 207 75t75 252v801q0 19 17 19h215q16 0 16 -17v-815q0 -140 -41 -244.5t-115 -167t-169.5 -92.5t-212.5 -30q-249 0 -390 133t-141 391v823q0 19 17 19h215q16 0 16 -17zM336 1720h170q8 0 14 -14q41 -100 146 -100
q113 0 147 102q8 12 16 12h168q18 0 13 -16q-24 -135 -118 -209t-226 -74q-136 0 -228 71.5t-114 211.5q-4 16 12 16z" />
    <glyph glyph-name="ubreve" unicode="&#x16d;" horiz-adv-x="1116" 
d="M985 995v-770q0 -82 12 -211q1 -7 -3 -10.5t-13 -3.5h-188q-18 0 -21 12q-10 34 -14 72q-112 -104 -285 -104q-76 0 -136.5 21t-108 66t-73.5 122t-26 182v624q0 15 16 15h215q15 0 15 -15v-596q0 -204 178 -204q107 0 186 73v727q0 15 17 15h215q14 0 14 -15zM236 1421
h163q13 0 13 -8q39 -104 149 -104q119 0 152 102q3 10 10 10h168q12 0 8 -12q-25 -131 -113.5 -205t-226.5 -74q-134 0 -223 70.5t-113 208.5q-1 7 2.5 9.5t10.5 2.5z" />
    <glyph glyph-name="Uring" unicode="&#x16e;" horiz-adv-x="1335" 
d="M381 1329v-807q0 -151 73.5 -237t217.5 -86q132 0 207 75t75 252v801q0 19 17 19h215q16 0 16 -17v-815q0 -140 -41 -244.5t-115 -167t-169.5 -92.5t-212.5 -30q-249 0 -390 133t-141 391v823q0 19 17 19h215q16 0 16 -17zM440 1597q0 86 63 135.5t161 49.5t160.5 -50.5
t62.5 -134.5q0 -87 -62.5 -137.5t-160.5 -50.5q-99 0 -161.5 50.5t-62.5 137.5zM571 1597q0 -36 26.5 -58.5t66.5 -22.5q41 0 66.5 22t25.5 59q0 36 -26 59t-66 23q-41 0 -67 -23t-26 -59z" />
    <glyph glyph-name="uring" unicode="&#x16f;" horiz-adv-x="1116" 
d="M985 995v-770q0 -82 12 -211q1 -7 -3 -10.5t-13 -3.5h-188q-18 0 -21 12q-10 34 -14 72q-112 -104 -285 -104q-76 0 -136.5 21t-108 66t-73.5 122t-26 182v624q0 15 16 15h215q15 0 15 -15v-596q0 -204 178 -204q107 0 186 73v727q0 15 17 15h215q14 0 14 -15zM342 1309
q0 87 60 142.5t159 55.5q100 0 161.5 -55t61.5 -143q0 -89 -62 -144t-161 -55q-100 0 -159.5 53.5t-59.5 145.5zM471 1309q0 -39 25.5 -63.5t64.5 -24.5t65.5 24.5t26.5 63.5t-26.5 63.5t-65.5 24.5t-64.5 -24t-25.5 -64z" />
    <glyph glyph-name="Uhungarumlaut" unicode="&#x170;" horiz-adv-x="1335" 
d="M381 1329v-807q0 -151 73.5 -237t217.5 -86q132 0 207 75t75 252v801q0 19 17 19h215q16 0 16 -17v-815q0 -140 -41 -244.5t-115 -167t-169.5 -92.5t-212.5 -30q-249 0 -390 133t-141 391v823q0 19 17 19h215q16 0 16 -17zM358 1483l146 225q7 12 20 12h205q7 0 9 -5
t-3 -11l-178 -227q-12 -9 -22 -9h-170q-16 0 -7 15zM741 1485l144 223q8 14 24 14h203q8 0 11 -6t-3 -14l-176 -219q-10 -15 -26 -15h-170q-6 0 -8.5 5t1.5 12z" />
    <glyph glyph-name="uhungarumlaut" unicode="&#x171;" horiz-adv-x="1116" 
d="M985 995v-770q0 -82 12 -211q1 -7 -3 -10.5t-13 -3.5h-188q-18 0 -21 12q-10 34 -14 72q-112 -104 -285 -104q-76 0 -136.5 21t-108 66t-73.5 122t-26 182v624q0 15 16 15h215q15 0 15 -15v-596q0 -204 178 -204q107 0 186 73v727q0 15 17 15h215q14 0 14 -15zM266 1161
l146 279q8 16 30 16h179q10 0 12.5 -7t-2.5 -13l-178 -285q-4 -6 -6 -8.5t-7.5 -5t-15.5 -2.5h-145q-11 0 -14 9.5t1 16.5zM639 1163l147 279q8 16 25 16h182q11 0 14.5 -8t-1.5 -14l-181 -283q-10 -16 -32 -16h-140q-13 0 -16 8.5t2 17.5z" />
    <glyph glyph-name="Uogonek" unicode="&#x172;" horiz-adv-x="1335" 
d="M995 57q-196 -122 -196 -233q0 -42 30.5 -69t83.5 -27t97 14q16 3 16 -12v-127q0 -21 -14 -29q-64 -33 -166 -33q-48 0 -92 11.5t-83 35t-62 67t-23 101.5q0 119 133 228q-24 -4 -51 -4q-250 0 -392.5 129.5t-142.5 382.5v835q0 19 17 19h215q16 0 16 -17v-815
q0 -149 75 -232t220 -83q64 0 113.5 15t90 50t62 99t21.5 155v809q0 19 16 19h215q16 0 16 -17v-825q0 -308 -215 -447z" />
    <glyph glyph-name="uogonek" unicode="&#x173;" horiz-adv-x="1116" 
d="M1051 -268v-129q0 -19 -17 -29q-64 -31 -164 -31q-49 0 -93 12t-82 36t-60.5 68t-22.5 101q0 77 42 141t116 132q-6 30 -6 53q-114 -106 -289 -106q-57 0 -106 11t-94 39t-76.5 71t-50.5 111.5t-19 156.5v626q0 15 16 15h215q15 0 15 -15v-592q0 -103 44 -159t134 -56
q115 0 190 84v723q0 15 19 15h215q14 0 14 -15v-770q0 -136 13 -200q4 -19 -11 -23q-71 -40 -113 -89.5t-42 -94.5q0 -42 27 -65t77 -23q48 0 88 14q21 6 21 -12z" />
    <glyph glyph-name="Wcircumflex" unicode="&#x174;" horiz-adv-x="1751" 
d="M1030 1329q187 -791 234 -1030h2q43 249 217 1030q3 17 20 17h215q18 0 15 -19l-347 -1315q-5 -12 -20 -12h-221q-15 0 -21 12q-217 948 -239 1055h-2q-31 -175 -262 -1049q-4 -18 -21 -18h-217q-13 0 -23 16l-342 1313q-3 17 13 17h231q19 0 21 -15q200 -842 227 -1030
h2q11 58 35.5 159.5t85 351t123.5 517.5q3 17 20 17h238q7 0 10 -3.5t6 -13.5zM1008 1475l-129 133l-127 -131q-8 -13 -21 -13h-184q-7 0 -9 6t3 11l229 239q12 6 21 6h186q16 0 24 -8l240 -241q4 -5 1 -9t-11 -4h-197q-11 0 -26 11z" />
    <glyph glyph-name="wcircumflex" unicode="&#x175;" horiz-adv-x="1513" 
d="M1178 0h-226q-16 0 -22 18q-112 431 -174 740h-2q-63 -273 -195 -742q-5 -16 -22 -16h-224q-14 0 -18.5 3t-7.5 13l-267 977q-3 7 1.5 12t13.5 5h225q13 0 16 -13q117 -456 168 -757h5q84 379 186 753q2 10 5 13.5t13 3.5h236q13 0 16 -13q30 -119 55.5 -225t41.5 -176
t30.5 -138t21 -101t14 -74.5t9.5 -49.5h4q3 16 20.5 107t32 160.5t47.5 207.5t74 289q3 13 19 13h207q7 0 11 -4t1 -11l-293 -979q-5 -10 -8.5 -13t-13.5 -3zM885 1145l-129 184l-127 -186q-6 -6 -19 -6h-155q-7 0 -9 5t3 11l204 287q7 10 19 10h180q15 0 18 -10l213 -289
q4 -6 1 -10t-9 -4h-170q-12 0 -20 8z" />
    <glyph glyph-name="Ycircumflex" unicode="&#x176;" horiz-adv-x="1101" 
d="M410 543l-439 784q-5 9 -0.5 14t11.5 5h247q12 0 19 -11q53 -103 112 -217t86 -166.5t54.5 -107t40.5 -81.5t22 -48q57 125 305 618q3 13 17 13h239q16 0 9 -17l-445 -792q-16 -27 -16 -62v-457q0 -18 -19 -18h-209q-20 0 -20 18v465q0 33 -14 60zM672 1479l-129 133
l-127 -133q-11 -11 -23 -11h-184q-6 0 -8 6t2 11l231 237q13 9 21 9h186q16 0 23 -11l239 -239q10 -13 -8 -13h-199q-16 0 -24 11z" />
    <glyph glyph-name="ycircumflex" unicode="&#x177;" horiz-adv-x="978" 
d="M14 1010h240q13 0 18 -13q179 -517 230 -704q220 671 231 704q7 13 23 13h211q15 0 12 -17q-198 -610 -537 -1384q-8 -15 -26 -15l-223 -16q-16 0 -11 16q93 187 193 424q6 18 2 33q-231 567 -375 944q-3 6 0.5 10.5t11.5 4.5zM612 1145l-129 184l-129 -186q-3 -6 -16 -6
h-156q-8 0 -10 5t2 11l207 287q5 10 16 10h183q11 0 18 -10l213 -289q7 -14 -8 -14h-170q-16 0 -21 8z" />
    <glyph glyph-name="Ydieresis" unicode="&#x178;" horiz-adv-x="1101" 
d="M410 543l-439 784q-5 9 -0.5 14t11.5 5h247q12 0 19 -11q53 -103 112 -217t86 -166.5t54.5 -107t40.5 -81.5t22 -48q57 125 305 618q3 13 17 13h239q16 0 9 -17l-445 -792q-16 -27 -16 -62v-457q0 -18 -19 -18h-209q-20 0 -20 18v465q0 33 -14 60zM346 1454q-59 0 -95 33
t-36 88q0 54 38 88.5t97 34.5t95 -35t36 -88q0 -55 -37.5 -88t-97.5 -33zM772 1454q-58 0 -94.5 33t-36.5 88q0 54 38 88.5t97 34.5q57 0 94 -34.5t37 -88.5q0 -56 -37 -88.5t-98 -32.5z" />
    <glyph glyph-name="Zacute" unicode="&#x179;" horiz-adv-x="1120" 
d="M1044 0h-997q-16 0 -16 16v138q0 12 6 24l711 946h-687q-17 0 -14 15l31 190q3 17 18 17h953q12 0 12 -13v-147q0 -16 -10 -29l-699 -934h733q17 0 11 -18l-33 -189q-3 -16 -19 -16zM406 1503l245 230q8 8 25 8h258q7 0 9 -6.5t-3 -10.5l-281 -225q-12 -12 -28 -12h-217
q-16 0 -8 16z" />
    <glyph glyph-name="zacute" unicode="&#x17a;" horiz-adv-x="862" 
d="M805 0h-770q-12 0 -12 14v123q0 12 6 21q76 109 280 367.5t219 279.5q-39 -2 -194 -2h-287q-20 0 -14 18l28 174q3 15 19 15h725q5 0 7.5 -1.5t4 -4t2.5 -7.5v-127q0 -16 -10 -28q-57 -84 -139.5 -194t-142.5 -186.5t-128.5 -163t-72.5 -91.5q24 1 58 1t87 -0.5t90 -0.5
h281q17 0 12 -17l-33 -176q-3 -14 -16 -14zM299 1151l203 289q9 18 22 18h236q21 0 12 -18l-250 -291q-12 -12 -26 -12h-191q-6 0 -7.5 4.5t1.5 9.5z" />
    <glyph glyph-name="Zdotaccent" unicode="&#x17b;" horiz-adv-x="1120" 
d="M1044 0h-997q-16 0 -16 16v138q0 12 6 24l711 946h-687q-17 0 -14 15l31 190q3 17 18 17h953q12 0 12 -13v-147q0 -16 -10 -29l-699 -934h733q17 0 11 -18l-33 -189q-3 -16 -19 -16zM551 1483q-63 0 -101 33.5t-38 89.5q0 55 39 89t104 34q61 0 98 -34.5t37 -88.5
q0 -56 -37.5 -89.5t-101.5 -33.5z" />
    <glyph glyph-name="zdotaccent" unicode="&#x17c;" horiz-adv-x="862" 
d="M805 0h-770q-12 0 -12 14v123q0 12 6 21q76 109 280 367.5t219 279.5q-39 -2 -194 -2h-287q-20 0 -14 18l28 174q3 15 19 15h725q5 0 7.5 -1.5t4 -4t2.5 -7.5v-127q0 -16 -10 -28q-57 -84 -139.5 -194t-142.5 -186.5t-128.5 -163t-72.5 -91.5q24 1 58 1t87 -0.5t90 -0.5
h281q17 0 12 -17l-33 -176q-3 -14 -16 -14zM434 1147q-64 0 -102.5 39t-38.5 102t40 102.5t103 39.5t101 -39.5t38 -102.5t-39 -102t-102 -39z" />
    <glyph glyph-name="Zcaron" unicode="&#x17d;" horiz-adv-x="1120" 
d="M1044 0h-997q-16 0 -16 16v138q0 12 6 24l711 946h-687q-17 0 -14 15l31 190q3 17 18 17h953q12 0 12 -13v-147q0 -16 -10 -29l-699 -934h733q17 0 11 -18l-33 -189q-3 -16 -19 -16zM428 1718l129 -133l127 133q10 13 21 13h186q6 0 7.5 -7.5t-3.5 -11.5l-229 -237
q-9 -7 -21 -7h-186q-19 0 -25 9l-239 241q-3 4 -1 8.5t9 4.5h198q10 0 27 -13z" />
    <glyph glyph-name="zcaron" unicode="&#x17e;" horiz-adv-x="862" 
d="M805 0h-770q-12 0 -12 14v123q0 12 6 21q76 109 280 367.5t219 279.5q-39 -2 -194 -2h-287q-20 0 -14 18l28 174q3 15 19 15h725q5 0 7.5 -1.5t4 -4t2.5 -7.5v-127q0 -16 -10 -28q-57 -84 -139.5 -194t-142.5 -186.5t-128.5 -163t-72.5 -91.5q24 1 58 1t87 -0.5t90 -0.5
h281q17 0 12 -17l-33 -176q-3 -14 -16 -14zM313 1442l129 -185l127 187q6 6 17 6h157q7 0 9.5 -5t-2.5 -11l-205 -287q-7 -10 -19 -10h-180q-13 0 -20 10l-211 289q-4 6 -1 10t9 4h170q12 0 20 -8z" />
    <glyph glyph-name="uni018F" unicode="&#x18f;" horiz-adv-x="1345" 
d="M416 756h602v12q-3 57 -16.5 108.5t-44.5 101.5t-76.5 86.5t-117.5 58.5t-163 22q-237 0 -432 -125q-14 -10 -14 10v197q0 17 8 22q203 117 467 117q137 0 247.5 -39t183 -104t121.5 -154t70 -185t21 -202q0 -207 -72 -364.5t-214.5 -247.5t-338.5 -90
q-121 0 -219.5 34.5t-164.5 92t-110.5 135.5t-64.5 162t-20 174q0 156 14 167q20 11 334 11zM1010 545h-512q-157 0 -166 -6q0 -4 -1 -15.5t-1 -15.5q0 -49 18.5 -100.5t56 -99.5t105 -78.5t154.5 -30.5q154 0 241.5 88t104.5 258z" />
    <glyph glyph-name="florin" unicode="&#x192;" horiz-adv-x="964" 
d="M154 676v137q0 8 2.5 10t11.5 2h186l19 127q10 67 27 126t49.5 122t76 107.5t110 73t148.5 28.5q93 0 146 -23q10 -5 10 -18v-176q0 -17 -14 -10q-47 20 -115 20q-83 0 -128.5 -63.5t-64.5 -194.5l-16 -119h215q6 0 8.5 -0.5t4 -3t1.5 -8.5v-137q0 -14 -12 -14h-239
l-66 -492q-13 -103 -38.5 -179.5t-69.5 -134t-110.5 -87t-156.5 -29.5q-106 0 -172 35q-10 5 -10 26v183q0 18 14 12q75 -37 138 -37q78 0 113 46t48 167l66 490h-168q-14 0 -14 14z" />
    <glyph glyph-name="Ohorn" unicode="&#x1a0;" horiz-adv-x="1417" 
d="M719 199q172 0 271 129.5t97 345.5q0 217 -101 345t-279 128q-167 0 -271 -125.5t-104 -347.5q0 -134 43.5 -240t132.5 -170.5t211 -64.5zM1120 1509h185q17 0 22 -16q10 -45 10 -96q0 -80 -43 -141.5t-123 -84.5q169 -190 172 -491q1 -316 -174.5 -508t-457.5 -192
q-194 0 -339.5 90.5t-220.5 247t-75 356.5q0 195 79.5 352.5t225 248.5t330.5 91q175 0 311 -76h4q57 0 77.5 27.5t20.5 77.5q0 32 -12 98q-3 16 8 16z" />
    <glyph glyph-name="ohorn" unicode="&#x1a1;" horiz-adv-x="1114" 
d="M563 188q101 0 168.5 82.5t67.5 233.5q0 138 -62.5 228.5t-185.5 90.5q-104 0 -170 -85.5t-66 -229.5q0 -143 66.5 -231.5t181.5 -88.5zM913 1163h185q17 0 22 -18q10 -42 10 -94q0 -81 -44 -143t-123 -83q88 -136 88 -315q0 -237 -137 -383.5t-355 -146.5
q-99 0 -182 29.5t-139.5 80t-96 118t-57.5 142t-18 154.5q0 146 59.5 265t174 190t263.5 71q166 0 283 -84q72 13 72 103q0 36 -15 98q-3 16 10 16z" />
    <glyph glyph-name="Uhorn" unicode="&#x1af;" horiz-adv-x="1366" 
d="M1190 1565h186q16 0 21 -19q12 -38 12 -94q0 -86 -48.5 -148.5t-137.5 -80.5l-17 14v-723q0 -140 -41 -244.5t-115 -167t-169 -92.5t-211 -30q-251 0 -392 133t-141 391v823q0 19 17 19h215q16 0 16 -17v-807q0 -151 74 -237t219 -86q280 0 280 327v801q0 19 17 19h106
h15q57 0 77.5 27t20.5 77q0 32 -12 98q-3 17 8 17z" />
    <glyph glyph-name="uhorn" unicode="&#x1b0;" horiz-adv-x="1116" 
d="M932 1231h186q15 0 21 -19q12 -40 12 -94q0 -82 -43 -144t-123 -83v-666q0 -82 12 -211q1 -7 -3 -10.5t-13 -3.5h-188q-18 0 -21 12q-10 34 -14 72q-112 -104 -285 -104q-76 0 -136.5 21t-108 66t-73.5 122t-26 182v624q0 15 16 15h215q15 0 15 -15v-596q0 -204 178 -204
q107 0 186 73v727q0 15 17 15h71h15q53 0 73.5 26.5t20.5 77.5q0 32 -12 98q-4 19 8 19z" />
    <glyph glyph-name="uni01CD" unicode="&#x1cd;" horiz-adv-x="1241" 
d="M852 354h-490l-112 -338q-5 -16 -23 -16h-204q-18 0 -15 20l422 1201q15 37 19 110q0 15 12 15h284q12 0 15 -13l473 -1315q3 -18 -12 -18h-230q-14 0 -20 12zM428 578h358q-13 42 -53.5 164.5t-74.5 229t-52 169.5h-2q-9 -39 -24 -90t-36 -117.5t-36 -113t-42.5 -129
t-37.5 -113.5zM489 1708l129 -133l127 133q9 12 21 12h186q6 0 7.5 -7t-3.5 -11l-229 -238q-11 -8 -20 -8h-187q-17 0 -24 10l-240 240q-7 14 8 14h199q10 0 26 -12z" />
    <glyph glyph-name="uni01CE" unicode="&#x1ce;" horiz-adv-x="1015" 
d="M647 199v252q-46 6 -112 6q-234 0 -234 -142q0 -62 48.5 -101.5t152.5 -39.5q82 0 145 25zM887 625v-416q0 -86 4 -129q0 -6 -4 -8q-121 -52 -218.5 -72t-207.5 -20q-178 0 -290 85t-112 250q0 158 127 242t334 84q91 0 127 -4v25q0 22 -8 44.5t-27.5 49t-64 43
t-107.5 16.5q-151 0 -268 -57q-5 -2 -10.5 1t-5.5 11v178q0 14 12 21q131 61 311 61q104 0 183.5 -31t128 -86.5t72.5 -128t24 -159.5zM389 1442l129 -185l127 187q6 6 17 6h157q7 0 9 -5t-3 -11l-204 -287q-7 -10 -19 -10h-180q-14 0 -21 10l-211 289q-4 6 -1 10t10 4h170
q12 0 20 -8z" />
    <glyph glyph-name="uni01CF" unicode="&#x1cf;" horiz-adv-x="552" 
d="M399 1329v-1311q0 -18 -16 -18h-215q-16 0 -16 18v1311q0 17 16 17h215q16 0 16 -17zM158 1702l129 -133l127 133q10 10 20 10h184q7 0 9.5 -6t-2.5 -10l-230 -238q-11 -8 -20 -8h-187q-17 0 -24 10l-240 240q-8 12 8 12h199q14 0 27 -10z" />
    <glyph glyph-name="uni01D0" unicode="&#x1d0;" horiz-adv-x="507" 
d="M129 18v977q0 15 16 15h217q17 0 17 -15v-979q0 -16 -19 -16h-210q-21 0 -21 18zM137 1442l129 -185l127 187q6 6 17 6h157q7 0 9 -5t-3 -11l-204 -287q-7 -10 -19 -10h-180q-13 0 -20 10l-211 289q-4 6 -1 10t9 4h170q12 0 20 -8z" />
    <glyph glyph-name="uni01D1" unicode="&#x1d1;" horiz-adv-x="1417" 
d="M709 1366q147 0 267 -54t199 -147t122 -217.5t44 -267.5q1 -316 -174.5 -508t-457.5 -192q-194 0 -339.5 90.5t-220.5 247t-75 356.5q0 195 79.5 352.5t225 248.5t330.5 91zM330 674q0 -134 43.5 -240t132.5 -170.5t211 -64.5q172 0 271 129.5t97 345.5q0 217 -101 345
t-279 128q-167 0 -271 -125.5t-104 -347.5zM573 1720l129 -133l127 133q11 11 23 11h184q6 0 8 -6.5t-2 -10.5l-231 -237q-9 -9 -20 -9h-187q-15 0 -22 11l-240 239q-10 13 8 13h199q13 0 24 -11z" />
    <glyph glyph-name="uni01D2" unicode="&#x1d2;" horiz-adv-x="1114" 
d="M563 1030q115 0 208.5 -41.5t154 -113t93 -165.5t32.5 -200q0 -237 -137 -383.5t-355 -146.5q-99 0 -182 29.5t-139.5 80t-96 118t-57.5 142t-18 154.5q0 146 59.5 265t174 190t263.5 71zM551 823q-104 0 -170 -85.5t-66 -229.5q0 -143 66.5 -231.5t181.5 -88.5
q101 0 168.5 82.5t67.5 233.5q0 138 -62.5 228.5t-185.5 90.5zM432 1442l129 -185l127 187q6 6 17 6h157q7 0 9 -5t-3 -11l-204 -287q-8 -10 -19 -10h-180q-14 0 -21 10l-211 289q-4 6 -1 10t10 4h170q12 0 20 -8z" />
    <glyph glyph-name="uni01D3" unicode="&#x1d3;" horiz-adv-x="1335" 
d="M381 1329v-807q0 -151 73.5 -237t217.5 -86q132 0 207 75t75 252v801q0 19 17 19h215q16 0 16 -17v-815q0 -140 -41 -244.5t-115 -167t-169.5 -92.5t-212.5 -30q-249 0 -390 133t-141 391v823q0 19 17 19h215q16 0 16 -17zM549 1696l129 -133l127 133q13 10 22 10h185
q6 0 8 -6t-2 -10l-232 -238q-8 -8 -20 -8h-186q-16 0 -23 10l-240 240q-4 4 -1.5 8t10.5 4h198q15 0 25 -10z" />
    <glyph glyph-name="uni01D4" unicode="&#x1d4;" horiz-adv-x="1116" 
d="M985 995v-770q0 -82 12 -211q1 -7 -3 -10.5t-13 -3.5h-188q-18 0 -21 12q-10 34 -14 72q-112 -104 -285 -104q-76 0 -136.5 21t-108 66t-73.5 122t-26 182v624q0 15 16 15h215q15 0 15 -15v-596q0 -204 178 -204q107 0 186 73v727q0 15 17 15h215q14 0 14 -15zM438 1442
l129 -185l127 187q6 6 17 6h157q7 0 9 -5t-3 -11l-204 -287q-8 -10 -19 -10h-180q-13 0 -20 10l-211 289q-4 6 -1 10t9 4h170q12 0 20 -8z" />
    <glyph glyph-name="uni01D5" unicode="&#x1d5;" horiz-adv-x="1335" 
d="M381 1329v-807q0 -151 73.5 -237t217.5 -86q132 0 207 75t75 252v801q0 19 17 19h215q16 0 16 -17v-815q0 -140 -41 -244.5t-115 -167t-169.5 -92.5t-212.5 -30q-249 0 -390 133t-141 391v823q0 19 17 19h215q16 0 16 -17zM389 1837h567q15 0 15 -14v-123q0 -14 -15 -14
h-569q-12 0 -12 14v123q0 14 14 14zM463 1430q-46 0 -75.5 24t-29.5 62q0 41 30 65.5t77 24.5q44 0 72 -25t28 -65q0 -38 -29.5 -62t-72.5 -24zM883 1430q-44 0 -72.5 24t-28.5 62q0 41 29 65.5t74 24.5q46 0 74 -25t28 -65q0 -38 -29 -62t-75 -24z" />
    <glyph glyph-name="uni01D6" unicode="&#x1d6;" horiz-adv-x="1116" 
d="M985 995v-770q0 -82 12 -211q1 -7 -3 -10.5t-13 -3.5h-188q-18 0 -21 12q-10 34 -14 72q-112 -104 -285 -104q-76 0 -136.5 21t-108 66t-73.5 122t-26 182v624q0 15 16 15h215q15 0 15 -15v-596q0 -204 178 -204q107 0 186 73v727q0 15 17 15h215q14 0 14 -15zM373 1108
q-48 0 -78.5 27t-30.5 71t32.5 72.5t78.5 28.5q49 0 78.5 -28t29.5 -73q0 -43 -31.5 -70.5t-78.5 -27.5zM739 1108q-46 0 -76 27t-30 71t31 72.5t77 28.5q49 0 78 -28t29 -73q0 -44 -30.5 -71t-78.5 -27zM285 1536h551q12 0 12 -14v-115q0 -12 -14 -12h-549q-15 0 -15 14
v113q0 14 15 14z" />
    <glyph glyph-name="uni01D7" unicode="&#x1d7;" horiz-adv-x="1335" 
d="M381 1329v-807q0 -151 73.5 -237t217.5 -86q132 0 207 75t75 252v801q0 19 17 19h215q16 0 16 -17v-815q0 -140 -41 -244.5t-115 -167t-169.5 -92.5t-212.5 -30q-249 0 -390 133t-141 391v823q0 19 17 19h215q16 0 16 -17zM555 1665l143 174q5 10 17 10h211q10 0 6 -12
l-164 -176q-5 -8 -20 -8h-183q-13 0 -10 12zM457 1438q-46 0 -75.5 24t-29.5 62q0 39 31 64.5t76 25.5q44 0 72 -25.5t28 -64.5t-29 -62.5t-73 -23.5zM877 1438q-45 0 -73 23.5t-28 62.5t29 64.5t74 25.5q46 0 74 -25t28 -65q0 -38 -29 -62t-75 -24z" />
    <glyph glyph-name="uni01D8" unicode="&#x1d8;" horiz-adv-x="1116" 
d="M985 995v-770q0 -82 12 -211q1 -7 -3 -10.5t-13 -3.5h-188q-18 0 -21 12q-10 34 -14 72q-112 -104 -285 -104q-76 0 -136.5 21t-108 66t-73.5 122t-26 182v624q0 15 16 15h215q15 0 15 -15v-596q0 -204 178 -204q107 0 186 73v727q0 15 17 15h215q14 0 14 -15zM440 1376
l144 191q8 10 20 10h207q12 0 6 -12l-168 -193q-3 -8 -18 -8h-185q-5 0 -7.5 3t1.5 9zM375 1120q-46 0 -75.5 25.5t-29.5 66.5q0 42 31 68.5t76 26.5q44 0 72 -26t28 -69q0 -42 -29 -67t-73 -25zM739 1120q-45 0 -72.5 25t-27.5 67t29.5 68.5t74.5 26.5t73 -26.5t28 -68.5
q0 -41 -29.5 -66.5t-75.5 -25.5z" />
    <glyph glyph-name="uni01D9" unicode="&#x1d9;" horiz-adv-x="1335" 
d="M381 1329v-807q0 -151 73.5 -237t217.5 -86q132 0 207 75t75 252v801q0 19 17 19h215q16 0 16 -17v-815q0 -140 -41 -244.5t-115 -167t-169.5 -92.5t-212.5 -30q-249 0 -390 133t-141 391v823q0 19 17 19h215q16 0 16 -17zM672 1737q57 52 104 90q5 8 21 8h170
q7 0 9 -5.5t-1 -10.5l-184 -154q-5 -8 -21 -8h-213q-15 0 -20 8l-193 154q-8 16 8 16h189q9 0 22 -10q65 -55 109 -88zM457 1434q-46 0 -75.5 23.5t-29.5 62.5t30.5 64.5t76.5 25.5q44 0 72 -25.5t28 -64.5t-29 -62.5t-73 -23.5zM877 1434q-44 0 -72.5 23.5t-28.5 62.5
t29 64.5t74 25.5q46 0 74 -25t28 -65q0 -38 -29 -62t-75 -24z" />
    <glyph glyph-name="uni01DA" unicode="&#x1da;" horiz-adv-x="1116" 
d="M985 995v-770q0 -82 12 -211q1 -7 -3 -10.5t-13 -3.5h-188q-18 0 -21 12q-10 34 -14 72q-112 -104 -285 -104q-76 0 -136.5 21t-108 66t-73.5 122t-26 182v624q0 15 16 15h215q15 0 15 -15v-596q0 -204 178 -204q107 0 186 73v727q0 15 17 15h215q14 0 14 -15zM375 1112
q-46 0 -75.5 26t-29.5 68t31 68t76 26q44 0 72 -26.5t28 -67.5q0 -43 -29 -68.5t-73 -25.5zM739 1112q-45 0 -72.5 25t-27.5 69q0 42 29.5 68t74.5 26q44 0 72.5 -26.5t28.5 -67.5q0 -42 -29.5 -68t-75.5 -26zM557 1450q30 32 105 102q7 7 20 7h170q8 0 10 -5.5t-4 -11.5
l-186 -176q-8 -10 -21 -10h-202q-15 0 -23 8l-193 180q-3 6 0 10.5t9 4.5h188q7 0 21 -9q93 -87 106 -100z" />
    <glyph glyph-name="uni01DB" unicode="&#x1db;" horiz-adv-x="1335" 
d="M381 1329v-807q0 -151 73.5 -237t217.5 -86q132 0 207 75t75 252v801q0 19 17 19h215q16 0 16 -17v-815q0 -140 -41 -244.5t-115 -167t-169.5 -92.5t-212.5 -30q-249 0 -390 133t-141 391v823q0 19 17 19h215q16 0 16 -17zM653 1833l140 -174q4 -6 1 -9t-10 -3h-184
q-13 0 -18 8l-164 176q-3 5 -1 8.5t7 3.5h209q13 0 20 -10zM457 1430q-46 0 -75.5 24.5t-29.5 63.5t31 64.5t76 25.5q44 0 72 -25.5t28 -64.5t-29 -63.5t-73 -24.5zM877 1430q-45 0 -73 24.5t-28 63.5t29 64.5t74 25.5q46 0 74 -25t28 -65q0 -38 -29 -63t-75 -25z" />
    <glyph glyph-name="uni01DC" unicode="&#x1dc;" horiz-adv-x="1116" 
d="M985 995v-770q0 -82 12 -211q1 -7 -3 -10.5t-13 -3.5h-188q-18 0 -21 12q-10 34 -14 72q-112 -104 -285 -104q-76 0 -136.5 21t-108 66t-73.5 122t-26 182v624q0 15 16 15h215q15 0 15 -15v-596q0 -204 178 -204q107 0 186 73v727q0 15 17 15h215q14 0 14 -15zM528 1567
l150 -191q6 -12 -8 -12h-183q-14 0 -22 8l-172 193q-3 5 -1.5 8.5t7.5 3.5h211q13 0 18 -10zM375 1120q-46 0 -75.5 25.5t-29.5 66.5q0 42 31 68.5t76 26.5q44 0 72 -26t28 -69q0 -42 -29 -67t-73 -25zM739 1120q-45 0 -72.5 25t-27.5 67t29.5 68.5t74.5 26.5t73 -26.5
t28 -68.5q0 -41 -29.5 -66.5t-75.5 -25.5z" />
    <glyph glyph-name="Gcaron" unicode="&#x1e6;" horiz-adv-x="1323" 
d="M961 532l-230 7q-10 1 -13 5t-3 13v182q0 13 14 13h463q10 0 13 -3.5t3 -13.5v-667q3 -16 -12 -19q-179 -69 -403 -69q-175 0 -313.5 53.5t-226 147t-133.5 216.5t-46 267q0 211 94 370.5t265 245.5t396 86q228 0 332 -49q13 -7 13 -25v-196q0 -9 -5.5 -11.5t-11.5 0.5
q-117 60 -319 60q-245 3 -376.5 -122.5t-131.5 -350.5q0 -208 125 -341.5t350 -133.5q95 0 156 18v317zM625 1731l129 -134l127 134q9 12 20 12h186q6 0 8 -7.5t-3 -11.5l-230 -237q-8 -6 -20 -6h-187q-19 0 -24 8l-240 240q-7 14 8 14h199q11 0 27 -12z" />
    <glyph glyph-name="gcaron" unicode="&#x1e7;" horiz-adv-x="1052" 
d="M399 1147l-211 289q-4 6 -1 10t10 4h170q12 0 20 -8l129 -185l127 187q6 6 16 6h158q7 0 9 -5t-3 -11l-205 -287q-8 -10 -18 -10h-180q-14 0 -21 10zM596 6l-223 10q-42 -29 -70.5 -70.5t-28.5 -66.5q0 -58 74 -104.5t195 -46.5q137 0 208.5 46t71.5 111q0 62 -60 89
t-167 32zM498 852q-77 0 -121.5 -45t-44.5 -123q0 -73 43.5 -118.5t122.5 -45.5q77 0 120.5 42.5t43.5 117.5q0 77 -41 124.5t-123 47.5zM440 223l209 -8q205 -10 303.5 -86.5t98.5 -206.5q0 -160 -145.5 -268.5t-379.5 -108.5q-119 0 -213.5 28t-150.5 74t-85.5 101
t-29.5 113q0 100 191 266q-46 67 -43 154q0 74 36 133q-141 89 -141 266q0 152 109.5 251t298.5 99q105 0 180 -14q27 -6 47 -6h285q12 0 12 -13v-168q0 -12 -12 -12q-83 0 -158 10q45 -65 45 -155q0 -158 -111 -244t-284 -86q-41 0 -82 6q-11 -36 -6 -61q3 -35 26 -64z" />
    <glyph glyph-name="uni0218" unicode="&#x218;" horiz-adv-x="1015" 
d="M446 -20q-222 0 -358 73q-14 8 -14 31v213q0 6 5 8.5t11 -0.5q163 -106 365 -106q121 0 180 41.5t59 111.5q0 59 -45.5 105t-159.5 94l-98 41q-178 75 -247.5 168.5t-69.5 218.5q0 170 125 278.5t350 108.5q210 0 313 -53q12 -7 12 -27v-199q0 -7 -4.5 -10t-13.5 2
q-118 68 -309 68q-122 0 -177 -42t-55 -104q0 -57 45 -99.5t164 -92.5l78 -33q190 -79 266 -175.5t76 -225.5q0 -181 -133.5 -288t-364.5 -107zM518 -492h-186q-7 0 -9 5t1 10q75 118 75 225q0 47 -30 129q-6 12 8 12h203q11 0 20 -12q31 -48 31 -117q0 -133 -92 -245
q-7 -7 -21 -7z" />
    <glyph glyph-name="uni0219" unicode="&#x219;" horiz-adv-x="819" 
d="M692 772q-47 26 -118 42.5t-138 16.5q-75 0 -110 -25.5t-35 -62.5q0 -35 33.5 -62.5t128.5 -64.5q172 -63 242.5 -137.5t70.5 -185.5q0 -145 -108 -229t-296 -84q-189 0 -288 57q-15 9 -15 22v195q0 7 5.5 10t11.5 0q127 -82 293 -82q77 0 117 24.5t40 65.5
q0 39 -36 68.5t-130 67.5q-165 61 -234 135t-69 186q0 125 100.5 213t282.5 88q178 0 258 -41q13 -8 13 -24v-181q0 -18 -19 -12zM418 -479h-187q-7 0 -9 4.5t1 9.5q76 120 76 225q0 45 -31 129q-3 6 0 9.5t8 3.5h203q11 0 21 -13q30 -47 30 -116q0 -134 -92 -246
q-6 -6 -20 -6z" />
    <glyph glyph-name="uni021A" unicode="&#x21a;" horiz-adv-x="1105" 
d="M430 18v1104h-416q-15 0 -12 17l27 190q3 17 18 17h1018q17 0 20 -19l19 -186q3 -19 -14 -19h-414v-1104q0 -18 -17 -18h-210q-19 -3 -19 18zM575 -477h-188q-6 0 -7.5 4.5t1.5 9.5q76 120 76 225q0 48 -33 129q-3 13 8 13h203q13 0 20 -13q33 -52 33 -116
q0 -130 -92 -246q-6 -6 -21 -6z" />
    <glyph glyph-name="uni021B" unicode="&#x21b;" horiz-adv-x="645" 
d="M606 180v-147q0 -20 -12 -25q-77 -28 -174 -28q-268 0 -268 284v539h-129q-15 3 -15 18v172q0 17 17 17h129q5 175 20 252q3 15 16 18l207 29q15 3 15 -11q-11 -125 -11 -288h199q14 0 14 -15v-178q0 -14 -14 -14h-201v-486q0 -70 26.5 -101.5t90.5 -31.5q34 0 78 9
q5 2 8.5 -1.5t3.5 -11.5zM389 -489h-188q-6 0 -7.5 5.5t1.5 10.5q75 116 75 223q0 54 -32 129q-1 6 1 10.5t7 4.5h203q11 0 20 -13q33 -56 33 -119q0 -73 -22.5 -129.5t-69.5 -115.5q-6 -6 -21 -6z" />
    <glyph glyph-name="uni0237" unicode="&#x237;" horiz-adv-x="507" 
d="M147 1010h215q17 0 17 -15v-942q0 -158 -24.5 -241t-78.5 -150q-47 -55 -122.5 -80.5t-149.5 -25.5q-31 0 -47 2q-16 3 -16 18v180q0 17 14 17q87 0 131 45.5t45 169.5v1007q0 15 16 15z" />
    <glyph glyph-name="uni0251" unicode="&#x251;" horiz-adv-x="1118" 
d="M592 -20q-113 0 -208 33t-166.5 96t-111.5 162.5t-40 226.5q0 111 39 207.5t110 169t179.5 114t240.5 41.5q189 0 334 -49q14 -3 14 -18v-746q0 -32 6 -131q0 -14 -12 -18q-180 -88 -385 -88zM735 215v594q-47 14 -108 14q-137 0 -222.5 -85t-85.5 -232
q0 -80 24.5 -141.5t66.5 -98t94 -55t112 -18.5q71 0 119 22z" />
    <glyph glyph-name="uni0259" unicode="&#x259;" horiz-adv-x="1036" 
d="M299 563h416q-3 110 -75 182t-212 72q-160 0 -274 -57q-13 -4 -13 10v170q0 13 13 23q137 65 327 65q102 0 185 -29.5t138.5 -78.5t92.5 -116t53.5 -139.5t16.5 -150.5q0 -112 -31 -209t-90 -169.5t-150 -114t-204 -41.5q-88 0 -161.5 26.5t-122 70.5t-82 101.5
t-48.5 117t-15 120.5q0 86 11 123q3 13 16 16q58 8 209 8zM715 393h-303q-101 0 -113 -4q-2 -4 -2 -18q0 -20 6 -43.5t21.5 -50.5t38 -48.5t59 -36t80.5 -14.5q98 0 150.5 61.5t62.5 153.5z" />
    <glyph glyph-name="uni0261" unicode="&#x261;" horiz-adv-x="1112" 
d="M731 227v580q-41 16 -117 16q-135 0 -213.5 -89t-78.5 -224q0 -147 82.5 -226t197.5 -79q84 0 129 22zM977 829v-682q0 -145 -23 -249q-86 -353 -522 -353q-184 0 -299 56q-12 5 -12 20v213q0 14 14 8q125 -69 301 -69q160 0 225 61.5t68 171.5v10q-62 -22 -156 -22
q-143 0 -256.5 57.5t-181 173t-67.5 273.5q0 109 38 205t109 169t181.5 115.5t246.5 42.5q193 0 338 -55q4 -2 4 -14q-8 -70 -8 -132z" />
    <glyph glyph-name="uni02BB" unicode="&#x2bb;" horiz-adv-x="585" 
d="M225 1458h170q15 0 11 -14q-42 -120 -60 -201t-18 -172q0 -71 12 -137q0 -14 -12 -14h-178q-16 0 -21 16q-14 49 -14 139q0 192 94 373q7 10 16 10z" />
    <glyph glyph-name="uni02BC" unicode="&#x2bc;" horiz-adv-x="585" 
d="M283 920h-170q-13 0 -9 14q42 120 60 201t18 172q0 71 -12 137q0 14 10 14h180q16 0 21 -16q14 -61 14 -139q0 -192 -94 -373q-10 -10 -18 -10z" />
    <glyph glyph-name="uni02BE" unicode="&#x2be;" horiz-adv-x="817" 
d="M289 1397v112q108 4 173.5 -52t65.5 -144q0 -92 -65 -148.5t-174 -52.5v115q50 -3 79 20t29 66q0 41 -28.5 63.5t-79.5 20.5z" />
    <glyph glyph-name="uni02BF" unicode="&#x2bf;" horiz-adv-x="817" 
d="M528 1223v-111q-108 -4 -173.5 52.5t-65.5 144.5q0 92 65 148t174 50v-114q-51 3 -79.5 -19.5t-28.5 -64.5t28 -64.5t80 -21.5z" />
    <glyph glyph-name="circumflex" unicode="&#x2c6;" 
d="M518 1145l-129 184l-129 -186q-3 -6 -16 -6h-156q-8 0 -10 5t2 11l207 287q5 10 16 10h182q12 0 19 -10l213 -289q7 -14 -8 -14h-170q-16 0 -21 8z" />
    <glyph glyph-name="caron" unicode="&#x2c7;" 
d="M279 1442l129 -185l127 187q6 6 16 6h158q7 0 9 -5t-3 -11l-205 -287q-8 -10 -18 -10h-181q-13 0 -20 10l-211 289q-4 6 -1 10t9 4h170q13 0 21 -8z" />
    <glyph glyph-name="uni02C8" unicode="&#x2c8;" horiz-adv-x="817" 
d="M309 1141l-16 327q0 17 14 17h205q12 0 12 -12l-22 -334q-3 -13 -17 -13h-161q-15 0 -15 15z" />
    <glyph glyph-name="uni02C9" unicode="&#x2c9;" 
d="M115 1372h571q12 0 12 -14v-148q0 -12 -12 -12h-573q-13 0 -13 14v146q0 14 15 14z" />
    <glyph glyph-name="uni02CA" unicode="&#x2ca;" 
d="M276 1151l203 289q9 18 23 18h235q22 0 13 -18l-250 -291q-12 -12 -27 -12h-190q-6 0 -8 4.5t1 9.5z" />
    <glyph glyph-name="uni02CB" unicode="&#x2cb;" 
d="M346 1446l209 -293q3 -6 0 -11t-10 -5h-195q-12 0 -20 12l-256 289q-4 8 -2 13t8 5h244q14 0 22 -10z" />
    <glyph glyph-name="uni02CC" unicode="&#x2cc;" horiz-adv-x="817" 
d="M309 -451l-16 330q0 15 14 15h205q12 0 12 -11l-22 -336q-2 -12 -17 -12h-161q-15 0 -15 14z" />
    <glyph glyph-name="breve" unicode="&#x2d8;" 
d="M72 1421h164q12 0 12 -8q39 -104 149 -104q119 0 152 102q3 10 10 10h168q12 0 8 -12q-25 -131 -113.5 -205t-226.5 -74q-134 0 -223 70.5t-113 208.5q-1 7 2.5 9.5t10.5 2.5z" />
    <glyph glyph-name="dotaccent" unicode="&#x2d9;" 
d="M399 1147q-64 0 -102.5 39t-38.5 102t39.5 102.5t101.5 39.5q65 0 103.5 -39.5t38.5 -102.5t-39.5 -102t-102.5 -39z" />
    <glyph glyph-name="ring" unicode="&#x2da;" 
d="M176 1311q0 87 61 141.5t160 54.5q98 0 159.5 -55t61.5 -141q0 -90 -61 -145.5t-160 -55.5q-101 0 -161 54t-60 147zM305 1311q0 -39 26.5 -63.5t65.5 -24.5q38 0 64 24t26 64q0 39 -26 63.5t-64 24.5q-39 0 -65.5 -24.5t-26.5 -63.5z" />
    <glyph glyph-name="ogonek" unicode="&#x2db;" 
d="M154 -244q0 83 70.5 161t195.5 144h186q-231 -122 -231 -237q0 -43 31.5 -68.5t87.5 -25.5q64 0 102 14q7 1 10.5 -2.5t3.5 -11.5v-127q0 -20 -12 -29q-68 -33 -174 -33q-51 0 -96.5 11.5t-85.5 35t-64 67t-24 101.5z" />
    <glyph glyph-name="tilde" unicode="&#x2dc;" 
d="M193 1143h-136q-13 0 -16 16q1 131 60.5 199.5t150.5 68.5q44 0 89.5 -16.5t77 -35.5t64 -35.5t52.5 -16.5q54 0 61 88q0 12 12 12h135q15 0 15 -10q-1 -143 -55.5 -208.5t-145.5 -65.5q-51 0 -104 25.5t-99.5 51t-79.5 25.5q-63 0 -71 -86q0 -12 -10 -12z" />
    <glyph glyph-name="hungarumlaut" unicode="&#x2dd;" 
d="M117 1161l145 279q8 16 31 16h178q9 0 11.5 -7t-3.5 -13l-176 -285q-1 -2 -3 -4t-3 -3.5t-2.5 -3t-3 -2.5t-4.5 -1.5t-6.5 -1t-8.5 -0.5h-143q-11 0 -14 9.5t2 16.5zM489 1163l148 279q8 16 25 16h182q10 0 13.5 -8t-1.5 -14l-180 -283q-10 -16 -35 -16h-137
q-13 0 -16.5 8.5t1.5 17.5z" />
    <glyph glyph-name="gravecomb" unicode="&#x300;" horiz-adv-x="0" 
d="M14 1446l211 -293q3 -6 0 -11t-10 -5h-195q-12 0 -20 12l-256 289q-4 8 -2 13t8 5h244q12 0 20 -10z" />
    <glyph glyph-name="acutecomb" unicode="&#x301;" horiz-adv-x="0" 
d="M-217 1151l205 289q6 18 22 18h236q19 0 10 -18l-248 -291q-12 -12 -26 -12h-191q-6 0 -8 4.5t0 9.5z" />
    <glyph glyph-name="uni0302" unicode="&#x302;" horiz-adv-x="0" 
d="M121 1145l-129 184l-127 -186q-6 -6 -19 -6h-155q-8 0 -10 5t4 11l204 287q7 10 17 10h182q11 0 18 -10l213 -289q7 -14 -8 -14h-170q-15 0 -20 8z" />
    <glyph glyph-name="tildecomb" unicode="&#x303;" horiz-adv-x="0" 
d="M-205 1143h-137q-14 0 -14 16q0 130 59.5 199t151.5 69q43 0 88 -16.5t76 -35.5t63.5 -35.5t52.5 -16.5q57 0 64 88q0 12 12 12h135q12 0 12 -10q-3 -274 -200 -274q-50 0 -103.5 25.5t-100 51t-79.5 25.5q-64 0 -72 -86q0 -12 -8 -12z" />
    <glyph glyph-name="uni0304" unicode="&#x304;" horiz-adv-x="0" 
d="M-283 1372h572q12 0 12 -14v-148q0 -12 -14 -12h-572q-14 0 -14 14v146q0 14 16 14z" />
    <glyph glyph-name="uni0306" unicode="&#x306;" horiz-adv-x="0" 
d="M-326 1421h164q12 0 12 -8q39 -104 150 -104q119 0 152 102q2 10 10 10h168q12 0 8 -12q-25 -131 -113.5 -205t-226.5 -74q-134 0 -223 70.5t-113 208.5q-2 12 12 12z" />
    <glyph glyph-name="uni0307" unicode="&#x307;" horiz-adv-x="0" 
d="M0 1147q-64 0 -102.5 39t-38.5 102t40 102.5t103 39.5t101 -39.5t38 -102.5t-39 -102t-102 -39z" />
    <glyph glyph-name="uni0308" unicode="&#x308;" horiz-adv-x="0" 
d="M-199 1163q-56 0 -90.5 34t-34.5 91q0 58 36 93.5t91 35.5q54 0 87.5 -36t33.5 -93t-34.5 -91t-88.5 -34zM199 1163q-53 0 -88 34.5t-35 90.5q0 58 36 93.5t89 35.5q55 0 89 -36t34 -93t-34.5 -91t-90.5 -34z" />
    <glyph glyph-name="hookabovecomb" unicode="&#x309;" horiz-adv-x="0" 
d="M-203 1348v118q0 12 8 17q80 37 181 37q100 0 158.5 -49.5t58.5 -131.5q0 -48 -24 -90.5t-64 -72.5t-84 -51t-92 -33q-15 0 -15 10v112q0 11 8 15q80 46 80 90q0 24 -17 38.5t-50 14.5q-59 0 -133 -33q-5 -3 -10 0t-5 9z" />
    <glyph glyph-name="uni030A" unicode="&#x30a;" horiz-adv-x="0" 
d="M-221 1311q0 87 61 141.5t160 54.5q98 0 160.5 -55t62.5 -141q0 -90 -62 -145.5t-161 -55.5q-101 0 -161 54t-60 147zM-90 1311q0 -39 25.5 -63.5t64.5 -24.5q38 0 64 24t26 64q0 39 -26 63.5t-64 24.5q-39 0 -64.5 -24.5t-25.5 -63.5z" />
    <glyph glyph-name="uni030B" unicode="&#x30b;" horiz-adv-x="0" 
d="M-365 1161l146 279q8 16 31 16h176q10 0 12.5 -7t-2.5 -13l-178 -285q-1 -1 -3 -4.5t-2.5 -4t-2.5 -3t-4.5 -3t-6.5 -1t-10 -0.5h-143q-11 0 -14.5 9.5t1.5 16.5zM8 1163l148 279q8 16 24 16h182q10 0 14 -8t-1 -14l-180 -283q-10 -16 -35 -16h-137q-13 0 -16.5 8.5
t1.5 17.5z" />
    <glyph glyph-name="uni030C" unicode="&#x30c;" horiz-adv-x="0" 
d="M-121 1442l129 -185l129 187q3 6 17 6h155q7 0 10 -5t-2 -11l-206 -287q-5 -10 -17 -10h-182q-11 0 -18 10l-211 289q-4 6 -2 10t8 4h170q15 0 20 -8z" />
    <glyph glyph-name="uni031B" unicode="&#x31b;" horiz-adv-x="0" 
d="M473 1229h180q17 0 23 -17q10 -45 10 -94q0 -86 -46 -145.5t-134 -83.5h-221q-27 0 -27 16v88q0 17 16 17h74q71 0 94 28t23 82q0 32 -4 94q-3 15 12 15z" />
    <glyph glyph-name="dotbelowcomb" unicode="&#x323;" horiz-adv-x="0" 
d="M-2 -395q-62 0 -100.5 37.5t-38.5 97.5t40.5 98.5t102.5 38.5t99.5 -38t37.5 -99q0 -60 -38.5 -97.5t-102.5 -37.5z" />
    <glyph glyph-name="uni0324" unicode="&#x324;" horiz-adv-x="0" 
d="M-199 -408q-56 0 -90.5 34t-34.5 91q0 58 36.5 93.5t92.5 35.5q53 0 87 -36t34 -93t-35.5 -91t-89.5 -34zM199 -408q-53 0 -88 34.5t-35 90.5q0 57 36 93t89 36q55 0 89 -36t34 -93t-34.5 -91t-90.5 -34z" />
    <glyph glyph-name="uni0326" unicode="&#x326;" horiz-adv-x="0" 
d="M41 -463h-186q-6 0 -9 6t0 11q76 113 76 223q0 48 -31 129q-3 14 9 14h202q9 0 21 -12q12 -19 21.5 -53t9.5 -64q0 -74 -23 -131t-70 -115q-4 -8 -20 -8z" />
    <glyph glyph-name="uni0327" unicode="&#x327;" horiz-adv-x="0" 
d="M-51 12h149l-71 -94q90 -27 133 -74t43 -123q0 -84 -69 -139t-177 -55q-98 0 -150 27q-12 7 -12 24v96q0 16 17 13q63 -29 129 -29q88 0 88 61q0 74 -193 97q-4 6 -4 26.5t4 26.5z" />
    <glyph glyph-name="uni0328" unicode="&#x328;" horiz-adv-x="0" 
d="M-231 -244q0 83 71 161t195 144h186q-231 -122 -231 -237q0 -43 31.5 -68.5t87.5 -25.5q64 0 102 14q7 1 10.5 -2.5t3.5 -11.5v-127q0 -22 -12 -29q-68 -33 -174 -33q-51 0 -96.5 11.5t-85.5 35t-64 67t-24 101.5z" />
    <glyph glyph-name="uni032E" unicode="&#x32e;" horiz-adv-x="0" 
d="M-330 -145h168q11 0 17 -15q39 -100 143 -100q111 0 149 102q4 13 15 13h170q12 0 12 -17q-17 -130 -115.5 -207t-230.5 -77q-138 0 -234.5 73t-107.5 213q0 15 14 15z" />
    <glyph glyph-name="uni0331" unicode="&#x331;" horiz-adv-x="0" 
d="M-258 -158h518q12 0 12 -14v-147q0 -15 -14 -15h-518q-14 0 -14 15v147q0 14 16 14z" />
    <glyph glyph-name="uni037E" unicode="&#x37e;" horiz-adv-x="563" 
d="M281 639q-67 0 -108.5 41.5t-41.5 112.5q0 66 42 107.5t108 41.5q67 0 109 -42t42 -107q0 -70 -40 -112t-111 -42zM238 -274h-172q-9 0 -12.5 5t-0.5 11q73 142 97 272.5t16 280.5q0 10 12 10h201q14 0 16 -14q9 -153 -24 -297t-109 -256q-6 -12 -24 -12z" />
    <glyph glyph-name="tonos" unicode="&#x384;" 
d="M276 1169l203 289q9 19 23 19h235q10 0 14 -5.5t-1 -13.5l-250 -291q-7 -12 -27 -12h-190q-14 0 -7 14z" />
    <glyph glyph-name="dieresistonos" unicode="&#x385;" 
d="M256 1135l115 362q3 12 12 12h188q5 0 7.5 -4t1.5 -10l-152 -362q-6 -11 -16 -11h-148q-12 0 -8 13zM100 1180q-48 0 -78 30.5t-30 81.5q0 50 31.5 81.5t78.5 31.5q51 0 80 -32t29 -81q0 -51 -30 -81.5t-81 -30.5zM707 1180q-48 0 -78.5 30t-30.5 82q0 50 31.5 81.5
t79.5 31.5t78 -31t30 -82t-30 -81.5t-80 -30.5z" />
    <glyph glyph-name="Alphatonos" unicode="&#x386;" horiz-adv-x="1449" 
d="M979 354h-490l-112 -338q-5 -16 -23 -16h-204q-18 0 -15 20l422 1201q14 34 18 110q0 15 13 15h284q12 0 15 -13l473 -1315q3 -18 -12 -18h-230q-14 0 -20 12zM555 578h358q-13 42 -53.5 164.5t-74.5 229t-52 169.5h-2q-9 -39 -24 -90t-36 -117.5t-36 -113t-42.5 -129
t-37.5 -113.5zM0 913l106 422q6 11 19 11h209q15 0 12 -15l-135 -420q-4 -12 -18 -12h-181q-15 0 -12 14z" />
    <glyph glyph-name="anoteleia" unicode="&#x387;" horiz-adv-x="456" 
d="M227 655q-65 0 -106 40.5t-41 107.5q0 63 41.5 104t107.5 41q65 0 106.5 -41.5t41.5 -103.5q0 -66 -40.5 -107t-109.5 -41z" />
    <glyph glyph-name="Epsilontonos" unicode="&#x388;" horiz-adv-x="1437" 
d="M1372 207l-31 -191q-1 -10 -5 -13t-13 -3h-815q-16 0 -16 16v1313q0 17 16 17h788q16 0 19 -15l22 -190q4 -19 -14 -19h-586v-325h533q14 0 14 -15v-194q0 -13 -14 -13h-533v-352h621q17 0 14 -16zM4 911l107 422q5 13 16 13h211q15 0 12 -15l-137 -422q-2 -10 -16 -10
h-181q-8 0 -10.5 2.5t-1.5 9.5z" />
    <glyph glyph-name="Etatonos" unicode="&#x389;" horiz-adv-x="1726" 
d="M1540 0h-215q-16 0 -16 16v572h-572v-570q0 -18 -16 -18h-211q-18 0 -18 18v1309q0 19 16 19h213q16 0 16 -17v-518h572v520q0 15 14 15h219q14 0 14 -15v-1315q0 -16 -16 -16zM0 911l106 422q5 13 17 13h211q15 0 12 -15l-137 -422q-4 -10 -16 -10h-181q-8 0 -10.5 2.5
t-1.5 9.5z" />
    <glyph glyph-name="Iotatonos" unicode="&#x38a;" horiz-adv-x="878" 
d="M723 1329v-1311q0 -18 -16 -18h-215q-17 0 -17 18v1311q0 10 4 13.5t13 3.5h215q16 0 16 -17zM-25 911l109 422q5 13 16 13h211q16 0 13 -15l-138 -422q-4 -10 -18 -10h-180q-7 0 -10.5 2.5t-2.5 9.5z" />
    <glyph glyph-name="Omicrontonos" unicode="&#x38c;" horiz-adv-x="1732" 
d="M963 1366q146 0 266 -54t198.5 -147t121.5 -217.5t44 -267.5q1 -316 -174 -508t-458 -192q-194 0 -339 90.5t-219.5 247t-74.5 356.5q0 195 79 352.5t224.5 248.5t331.5 91zM582 674q0 -206 103 -340.5t284 -134.5q173 0 272.5 129.5t97.5 345.5q-2 217 -103 345
t-278 128q-168 0 -272 -125.5t-104 -347.5zM-39 911l109 422q2 8 4.5 10.5t11.5 2.5h211q13 0 10 -15l-135 -422q-4 -10 -18 -10h-181q-8 0 -10.5 2.5t-1.5 9.5z" />
    <glyph glyph-name="Upsilontonos" unicode="&#x38e;" horiz-adv-x="1626" 
d="M815 543l-440 784q-5 8 0 13.5t12 5.5h248q11 0 18 -11q299 -581 316 -620q29 67 303 618q5 13 18 13h238q15 0 8 -17l-442 -792q-19 -27 -19 -62v-457q0 -18 -16 -18h-209q-23 0 -23 18v465q0 37 -12 60zM-45 911l106 422q5 13 17 13h211q15 0 12 -15l-137 -422
q-2 -10 -17 -10h-180q-8 0 -10.5 2.5t-1.5 9.5z" />
    <glyph glyph-name="Omegatonos" unicode="&#x38f;" horiz-adv-x="1740" 
d="M891 0h-569q-17 0 -17 16l-14 193q0 16 14 16h309q-231 197 -231 527q0 124 43.5 235t122 195.5t197.5 134t262 49.5q142 0 256 -50t185.5 -135.5t109.5 -194.5t38 -232q0 -327 -241 -531h323q15 0 15 -14l-23 -193q0 -16 -16 -16h-563q-17 0 -17 16v172q0 14 12 21
q126 91 192.5 216.5t66.5 301.5q0 192 -90.5 307t-264.5 115q-172 0 -265 -119t-93 -307q0 -170 73 -299.5t189 -212.5q12 -7 12 -21v-172q0 -18 -16 -18zM-18 911l106 422q5 13 16 13h211q16 0 13 -15l-138 -422q-2 -10 -16 -10h-180q-8 0 -10.5 2.5t-1.5 9.5z" />
    <glyph glyph-name="iotadieresistonos" unicode="&#x390;" horiz-adv-x="542" 
d="M377 999v-733q0 -46 17 -65t55 -19q20 0 38 2q9 3 9 -12v-154q0 -14 -13 -22q-37 -16 -116 -16q-53 0 -93 12t-74.5 40t-52.5 82t-18 132v749q0 15 16 15h220q12 0 12 -11zM145 1135l115 364q3 10 12 10h187q6 0 9 -3.5t1 -8.5l-152 -364q-7 -11 -18 -11h-145
q-13 0 -9 13zM-10 1182q-48 0 -78.5 30t-30.5 80t31.5 81.5t79.5 31.5q51 0 79.5 -31t28.5 -82t-30 -80.5t-80 -29.5zM596 1182q-48 0 -78.5 29.5t-30.5 80.5q0 50 31.5 81.5t79.5 31.5t78.5 -31t30.5 -82t-30.5 -80.5t-80.5 -29.5z" />
    <glyph glyph-name="Alpha" unicode="&#x391;" horiz-adv-x="1241" 
d="M852 354h-490l-112 -338q-5 -16 -23 -16h-204q-18 0 -15 20l422 1201q15 37 19 110q0 15 12 15h284q12 0 15 -13l473 -1315q3 -18 -12 -18h-230q-14 0 -20 12zM428 578h358q-13 42 -53.5 164.5t-74.5 229t-52 169.5h-2q-9 -39 -24 -90t-36 -117.5t-36 -113t-42.5 -129
t-37.5 -113.5z" />
    <glyph glyph-name="Beta" unicode="&#x392;" horiz-adv-x="1193" 
d="M152 16v1309q0 16 12 18q259 7 397 7q89 0 162 -13t123 -34.5t88.5 -52t61 -62t36.5 -68t18.5 -66.5t4.5 -61q0 -97 -39 -163t-90 -103q34 -17 63.5 -40.5t62 -61t51.5 -93.5t19 -122q0 -192 -152.5 -303t-408.5 -111q-239 0 -395 4q-14 3 -14 16zM395 596v-389
q90 -4 158 -4q148 -2 231.5 48.5t83.5 151.5q0 142 -147 179q-52 14 -139 14h-187zM395 1137v-328h156q124 0 186 -12q78 63 78 161q0 181 -258 181q-36 0 -89.5 -1t-72.5 -1z" />
    <glyph glyph-name="Gamma" unicode="&#x393;" horiz-adv-x="989" 
d="M154 1331q0 15 10 15h784q15 0 15 -13l24 -196q3 -15 -14 -15h-574v-1106q0 -16 -14 -16h-217q-14 0 -14 16v1315z" />
    <glyph glyph-name="uni0394" unicode="&#x394;" horiz-adv-x="1232" 
d="M1186 0h-1139q-14 0 -14 14v142q0 10 6 28l391 1035q11 39 14 114q3 13 13 13h286q11 0 17 -11l432 -1149q6 -10 6 -34v-136v-3q0 -5 -0.5 -7.5t-3 -4t-8.5 -1.5zM283 223h645q-39 113 -117 324.5t-136.5 372.5t-70.5 204h-4q-11 -45 -60 -184.5t-131.5 -366.5
t-125.5 -350z" />
    <glyph glyph-name="Epsilon" unicode="&#x395;" horiz-adv-x="1085" 
d="M1034 207l-30 -191q-2 -16 -19 -16h-815q-18 0 -18 16v1313q0 17 16 17h790q16 0 19 -15l22 -190q4 -19 -14 -19h-586v-325h533q14 0 14 -15v-194q0 -13 -14 -13h-533v-352h621q17 0 14 -16z" />
    <glyph glyph-name="Zeta" unicode="&#x396;" horiz-adv-x="1120" 
d="M1044 0h-997q-16 0 -16 16v138q0 12 6 24l711 946h-687q-17 0 -14 15l31 190q3 17 18 17h953q12 0 12 -13v-147q0 -16 -10 -29l-699 -934h733q17 0 11 -18l-33 -189q-3 -16 -19 -16z" />
    <glyph glyph-name="Eta" unicode="&#x397;" horiz-adv-x="1370" 
d="M1202 0h-215q-16 0 -16 16v572h-572v-570q0 -18 -16 -18h-211q-18 0 -18 18v1309q0 19 16 19h213q16 0 16 -17v-518h572v520q0 15 14 15h219q15 0 15 -15v-1315q0 -16 -17 -16z" />
    <glyph glyph-name="Theta" unicode="&#x398;" horiz-adv-x="1417" 
d="M455 788h506q16 0 16 -14v-190q0 -17 -14 -17h-506q-15 0 -15 19v188q0 14 13 14zM709 1366q147 0 267 -54t199 -147t122 -217.5t44 -267.5q1 -316 -174.5 -508t-457.5 -192q-194 0 -339.5 90.5t-220.5 247t-75 356.5q0 195 79.5 352.5t225 248.5t330.5 91zM330 674
q0 -134 43.5 -240t132.5 -170.5t211 -64.5q172 0 271 129.5t97 345.5q0 217 -101 345t-279 128q-167 0 -271 -125.5t-104 -347.5z" />
    <glyph glyph-name="Iota" unicode="&#x399;" horiz-adv-x="552" 
d="M399 1329v-1311q0 -18 -16 -18h-215q-16 0 -16 18v1311q0 17 16 17h215q16 0 16 -17z" />
    <glyph glyph-name="Kappa" unicode="&#x39a;" horiz-adv-x="1196" 
d="M649 692l590 -669q6 -7 2.5 -15t-12.5 -8h-260q-21 0 -35 16l-535 609v-607q0 -18 -16 -18h-213q-18 0 -18 18v1313q0 15 16 15h215q16 0 16 -17v-602l527 606q10 13 24 13h236q13 0 16 -7.5t-4 -13.5l-549 -614q-5 -8 0 -19z" />
    <glyph glyph-name="Lambda" unicode="&#x39b;" horiz-adv-x="1241" 
d="M971 12q-62 187 -153.5 458t-142.5 424t-69 216h-2q-30 -132 -306 -951q-32 -94 -48 -143q-5 -16 -23 -16h-204q-18 0 -15 20l422 1201q15 37 19 110q0 15 12 15h284q12 0 15 -13l473 -1315q3 -18 -12 -18h-230q-11 0 -20 12z" />
    <glyph glyph-name="Mu" unicode="&#x39c;" horiz-adv-x="1701" 
d="M207 1333q2 13 16 13h328q14 0 20 -15q240 -813 281 -1005h2q25 102 160.5 532.5t148.5 472.5q7 15 19 15h319q14 0 17 -13l55 -1317q3 -16 -14 -16h-228q-16 0 -16 14q-7 301 -10.5 672.5t-1.5 482.5h-3q-13 -56 -43.5 -163.5t-74.5 -255t-78 -262t-82.5 -273
t-60.5 -199.5q-2 -16 -19 -16h-205q-18 0 -20 14q-233 823 -309 1157h-5q-4 -429 -38 -1157q0 -14 -17 -14h-205q-9 0 -12 3t-2 13z" />
    <glyph glyph-name="Nu" unicode="&#x39d;" horiz-adv-x="1398" 
d="M369 0h-199q-10 0 -14 3.5t-4 14.5v1313q0 15 14 15h289q11 0 15 -3t9 -12q127 -225 307 -559t230 -442h2q-6 171 -6 317v682q0 17 18 17h197q18 0 18 -19v-1309q0 -18 -20 -18h-260q-19 0 -27 14q-14 28 -264 489.5t-297 579.5h-2q10 -130 10 -381v-684q0 -18 -16 -18z
" />
    <glyph glyph-name="Xi" unicode="&#x39e;" horiz-adv-x="1036" 
d="M950 0h-876q-15 0 -17 14l-18 195q-3 14 12 14h932q15 0 12 -16l-26 -195q-1 -8 -5 -10t-14 -2zM94 1346h844q15 0 18 -13l21 -196q3 -15 -12 -15h-895q-13 0 -13 13l23 198q3 13 14 13zM891 784v-196q0 -15 -14 -15h-719q-15 0 -15 17v192q0 15 13 15h721q14 0 14 -13z
" />
    <glyph glyph-name="Omicron" unicode="&#x39f;" horiz-adv-x="1417" 
d="M709 1366q147 0 267 -54t199 -147t122 -217.5t44 -267.5q1 -316 -174.5 -508t-457.5 -192q-194 0 -339.5 90.5t-220.5 247t-75 356.5q0 195 79.5 352.5t225 248.5t330.5 91zM330 674q0 -134 43.5 -240t132.5 -170.5t211 -64.5q172 0 271 129.5t97 345.5q0 217 -101 345
t-279 128q-167 0 -271 -125.5t-104 -347.5z" />
    <glyph glyph-name="Pi" unicode="&#x3a0;" horiz-adv-x="1370" 
d="M1202 0h-215q-16 0 -16 16v1106h-572v-1104q0 -18 -16 -18h-211q-18 0 -18 18v1309q0 19 16 19h1034q15 0 15 -15v-1315q0 -16 -17 -16z" />
    <glyph glyph-name="Rho" unicode="&#x3a1;" horiz-adv-x="1161" 
d="M152 14v1313q0 16 14 16q273 7 379 7q143 0 251.5 -37.5t170.5 -102t92.5 -142t30.5 -165.5q0 -119 -44 -210t-121.5 -146.5t-177.5 -83t-219 -27.5h-129v-420q0 -16 -16 -16h-215q-16 0 -16 14zM399 1130v-475q35 -2 129 -2q68 0 123 12.5t100 39.5t70 76t25 116
q0 113 -77 175.5t-218 62.5q-95 0 -152 -5z" />
    <glyph glyph-name="Sigma" unicode="&#x3a3;" horiz-adv-x="1110" 
d="M1006 1346q14 0 16 -15l20 -194q2 -15 -12 -15h-661l407 -428q14 -14 0 -28l-432 -443h741q5 0 6.5 -0.5t3 -3t1.5 -8.5l-33 -197q-3 -14 -16 -14h-998q-14 0 -14 14v150q0 12 8 20l463 478l-451 483q-10 10 -10 26v160q0 15 12 15h949z" />
    <glyph glyph-name="Tau" unicode="&#x3a4;" horiz-adv-x="1105" 
d="M430 18v1104h-416q-15 0 -12 17l27 190q3 17 18 17h1018q17 0 20 -19l19 -186q3 -19 -14 -19h-414v-1104q0 -18 -17 -18h-210q-19 -3 -19 18z" />
    <glyph glyph-name="Upsilon" unicode="&#x3a5;" horiz-adv-x="1101" 
d="M410 543l-439 784q-5 9 -0.5 14t11.5 5h247q12 0 19 -11q53 -103 112 -217t86 -166.5t54.5 -107t40.5 -81.5t22 -48q57 125 305 618q3 13 17 13h239q16 0 9 -17l-445 -792q-16 -27 -16 -62v-457q0 -18 -19 -18h-209q-20 0 -20 18v465q0 33 -14 60z" />
    <glyph glyph-name="Phi" unicode="&#x3a6;" horiz-adv-x="1482" 
d="M641 1397h201q12 0 12 -15v-118q87 -8 166 -33.5t150.5 -73t124 -113t83.5 -158.5t31 -204q0 -115 -31 -209.5t-82.5 -159.5t-124 -112.5t-151 -73t-166.5 -35.5v-125q0 -16 -14 -16h-199q-9 0 -11.5 3.5t-2.5 12.5v125q-113 11 -210 51t-175 109t-123 176.5t-45 241.5
q0 115 34 211.5t88.5 162t128 113.5t148.5 73.5t154 33.5v118q0 15 14 15zM627 291v778q-42 -2 -84 -17.5t-83 -47t-72.5 -75.5t-51 -108.5t-19.5 -140.5q0 -92 26.5 -165t71 -119t98.5 -72.5t114 -32.5zM854 1069v-778q60 5 114 30.5t99 71t71.5 120.5t26.5 171
q0 98 -27.5 173.5t-74 119.5t-99.5 67t-110 25z" />
    <glyph glyph-name="Chi" unicode="&#x3a7;" horiz-adv-x="1114" 
d="M1104 1325l-387 -633l413 -672q5 -8 2.5 -13t-10.5 -7h-252q-22 0 -30 16q-268 459 -299 514h-2q-128 -238 -285 -514q-8 -16 -25 -16h-239q-10 0 -11.5 7t3.5 13l401 656l-393 651q-4 7 -1 13t11 6h250q16 0 24 -15q48 -91 145.5 -261t139.5 -247h2q37 70 281 506
q7 17 24 17h230q18 0 8 -21z" />
    <glyph glyph-name="Psi" unicode="&#x3a8;" horiz-adv-x="1433" 
d="M596 643v686q0 14 14 14h211q15 0 15 -14v-686q42 3 73.5 11t67 30t59 56.5t40.5 94t20 140.5q15 324 30 358q6 13 19 13h203q15 0 12 -19q-12 -57 -25 -381q-5 -131 -45.5 -229.5t-110.5 -157.5t-154 -90.5t-189 -40.5v-414q0 -14 -15 -14h-209q-16 0 -16 18v410
q-484 44 -500 516q-9 292 -22 383q-4 19 12 19h201q15 0 20 -11q17 -43 27 -377q3 -75 21 -132t43 -89t61.5 -53t67 -29t69.5 -12z" />
    <glyph glyph-name="uni03A9" unicode="&#x3a9;" horiz-adv-x="1449" 
d="M625 0h-570q-16 0 -16 16l-14 193q0 16 14 16h309q-231 197 -231 527q0 124 43 235t121.5 195.5t197.5 134t262 49.5q114 0 211 -32.5t166 -90t117.5 -135t72 -167t23.5 -187.5q0 -327 -241 -531h323q14 0 14 -14l-22 -193q0 -16 -16 -16h-564q-16 0 -16 16v172
q0 14 12 21q125 91 191.5 216t66.5 302q0 192 -90 307t-264 115q-172 0 -265 -119t-93 -307q0 -170 73 -299.5t189 -212.5q12 -7 12 -21v-172q0 -18 -16 -18z" />
    <glyph glyph-name="Iotadieresis" unicode="&#x3aa;" horiz-adv-x="552" 
d="M399 1329v-1311q0 -18 -16 -18h-215q-16 0 -16 18v1311q0 17 16 17h215q16 0 16 -17zM59 1462q-59 0 -94 33t-35 88q0 54 38 88.5t98 34.5q59 0 95 -35t36 -88q0 -55 -38 -88t-100 -33zM485 1462q-58 0 -93.5 33t-35.5 88q0 54 38.5 88.5t97.5 34.5q57 0 94 -34.5
t37 -88.5q0 -56 -38 -88.5t-100 -32.5z" />
    <glyph glyph-name="Upsilondieresis" unicode="&#x3ab;" horiz-adv-x="1101" 
d="M410 543l-439 784q-5 9 -0.5 14t11.5 5h247q12 0 19 -11q53 -103 112 -217t86 -166.5t54.5 -107t40.5 -81.5t22 -48q57 125 305 618q3 13 17 13h239q16 0 9 -17l-445 -792q-16 -27 -16 -62v-457q0 -18 -19 -18h-209q-20 0 -20 18v465q0 33 -14 60zM338 1470q-59 0 -95 33
t-36 88q0 54 38 88.5t97 34.5t95 -35t36 -88q0 -55 -37.5 -88t-97.5 -33zM764 1470q-58 0 -94.5 33t-36.5 88q0 54 38 88.5t97 34.5q57 0 94 -34.5t37 -88.5q0 -57 -36.5 -89t-98.5 -32z" />
    <glyph glyph-name="alphatonos" unicode="&#x3ac;" horiz-adv-x="1132" 
d="M453 -20q-169 0 -278 140t-109 372q0 233 116.5 385.5t306.5 152.5q237 0 299 -194q4 44 16.5 99t20.5 71q4 4 13 4h188q9 0 12 -2.5t0 -12.5q-25 -94 -47 -268t-22 -332v-51q0 -85 24 -116t68 -31q23 0 35 2q14 5 14 -13v-170q0 -14 -12 -20q-47 -16 -123 -16
q-89 0 -143 49t-60 135l-2 12q-96 -196 -317 -196zM317 502q0 -142 59.5 -216.5t145.5 -74.5q58 0 101 27.5t67 75t35.5 102t11.5 116.5q0 134 -52.5 209.5t-147.5 75.5q-105 0 -162.5 -86.5t-57.5 -228.5zM436 1169l203 289q9 19 23 19h237q9 0 12 -5.5t-2 -13.5l-250 -291
q-7 -12 -24 -12h-191q-15 0 -8 14z" />
    <glyph glyph-name="epsilontonos" unicode="&#x3ad;" horiz-adv-x="858" 
d="M254 512q-83 29 -122.5 89.5t-39.5 139.5q0 54 24 104t72.5 92.5t132.5 67.5t193 25q180 0 268 -49q13 -5 13 -20v-173q0 -6 -5.5 -9.5t-11.5 -0.5q-96 47 -243 47q-96 0 -142.5 -31t-46.5 -73q0 -44 39.5 -72t124.5 -28h131q14 0 14 -15v-172q0 -16 -14 -16h-131
q-86 0 -130 -29t-44 -78q0 -55 54 -89t159 -34q152 0 246 41q16 8 16 -8v-164q0 -21 -14 -26q-102 -51 -297 -51q-88 0 -164.5 18t-138.5 53.5t-98 95.5t-36 138q0 85 54.5 144.5t136.5 82.5zM309 1155l203 289q9 18 23 18h235q10 0 13.5 -5t-1.5 -13l-250 -291
q-7 -12 -26 -12h-191q-13 0 -6 14z" />
    <glyph glyph-name="etatonos" unicode="&#x3ae;" horiz-adv-x="1130" 
d="M129 16v756q0 141 -16 223q-3 15 10 15h190q21 0 25 -13q9 -19 17 -68.5t10 -84.5q108 186 323 186q66 0 119.5 -21t98.5 -67t70 -128.5t25 -195.5v-1017q0 -15 -12 -17q-179 -26 -221 -26q-16 0 -16 14v1032q0 213 -154 213q-101 0 -161 -91t-60 -222v-486
q0 -18 -17 -18h-215q-16 0 -16 16zM410 1169l204 289q6 19 21 19h237q22 0 11 -19l-248 -291q-7 -12 -27 -12h-190q-12 0 -8 14z" />
    <glyph glyph-name="iotatonos" unicode="&#x3af;" horiz-adv-x="542" 
d="M377 999v-733q0 -46 17 -65t55 -19q20 0 38 2q9 3 9 -12v-154q0 -14 -13 -22q-37 -16 -116 -16q-53 0 -93 12t-74.5 40t-52.5 82t-18 132v749q0 15 16 15h220q12 0 12 -11zM113 1147l204 291q6 16 21 16h237q20 0 11 -18l-248 -291q-7 -12 -27 -12h-190q-7 0 -9 4.5
t1 9.5z" />
    <glyph glyph-name="upsilondieresistonos" unicode="&#x3b0;" horiz-adv-x="1085" 
d="M692 1010h209q16 0 21 -13q32 -65 53.5 -184t21.5 -242q0 -98 -14 -181.5t-48.5 -160.5t-87.5 -131t-135.5 -86t-187.5 -32q-185 0 -294 97.5t-109 284.5v326q0 212 -21 307q-3 15 15 15h213q15 0 20 -13q9 -17 15 -78.5t6 -123.5v-426q0 -95 47.5 -139t122.5 -44
q111 0 161 88.5t50 290.5q0 123 -22 242.5t-48 187.5q-3 15 12 15zM393 1135l115 362q3 12 14 12h187q5 0 8 -4t0 -10l-152 -362q-3 -11 -16 -11h-146q-14 0 -10 13zM238 1180q-48 0 -78.5 31t-30.5 81t32 81.5t79 31.5q51 0 80.5 -32t29.5 -81q0 -51 -30.5 -81.5
t-81.5 -30.5zM844 1180q-48 0 -78.5 30t-30.5 82q0 50 31.5 81.5t79.5 31.5t78 -31t30 -82t-30 -81.5t-80 -30.5z" />
    <glyph glyph-name="alpha" unicode="&#x3b1;" horiz-adv-x="1132" 
d="M453 -20q-169 0 -278 140t-109 372q0 233 116.5 385.5t306.5 152.5q237 0 299 -194q4 44 16.5 99t20.5 71q4 4 13 4h188q9 0 12 -2.5t0 -12.5q-25 -94 -47 -268t-22 -332v-51q0 -85 24 -116t68 -31q23 0 35 2q14 5 14 -13v-170q0 -14 -12 -20q-47 -16 -123 -16
q-89 0 -143 49t-60 135l-2 12q-96 -196 -317 -196zM317 502q0 -142 59.5 -216.5t145.5 -74.5q58 0 101 27.5t67 75t35.5 102t11.5 116.5q0 134 -52.5 209.5t-147.5 75.5q-105 0 -162.5 -86.5t-57.5 -228.5z" />
    <glyph glyph-name="beta" unicode="&#x3b2;" horiz-adv-x="1126" 
d="M377 1006v-756q79 -66 203 -66q108 0 168.5 62t60.5 170q0 246 -262 246h-41q-12 0 -12 12v186q0 14 12 14h43q199 0 199 191q0 96 -46.5 150.5t-132.5 54.5q-97 0 -144.5 -62t-47.5 -202zM129 -412v1393q0 247 114.5 371.5t329.5 124.5q194 0 301 -105t107 -280
q0 -112 -52.5 -188.5t-129.5 -115.5q35 -11 69 -29.5t69.5 -50.5t61.5 -72t43 -97t17 -123q0 -205 -131 -320.5t-326 -115.5q-136 0 -225 47v-418q0 -6 -0.5 -8t-3 -4t-8.5 -3q-175 -20 -222 -20q-14 0 -14 14z" />
    <glyph glyph-name="gamma" unicode="&#x3b3;" horiz-adv-x="974" 
d="M559 -408q-157 -18 -215 -18q-13 0 -10 16q2 19 12 130.5t16 185.5t7 114q3 145 -123.5 448t-278.5 525q-10 17 8 17h258q17 0 21 -9q61 -100 137 -288.5t115 -350.5h2q37 130 114.5 333.5t127.5 303.5q4 11 16 11h225q15 0 8 -15q-121 -237 -240 -510t-151 -413
q-6 -17 -10 -56q-4 -50 -9 -127.5t-9.5 -163.5t-6.5 -116q0 -11 -14 -17z" />
    <glyph glyph-name="delta" unicode="&#x3b4;" horiz-adv-x="1071" 
d="M543 186q100 0 158.5 71t58.5 185q0 95 -48.5 168.5t-172.5 143.5q-1 0 -2 1t-2 1q-90 -17 -157 -93.5t-67 -201.5q0 -128 67 -201.5t165 -73.5zM938 1378v-209q0 -14 -12 -8q-162 103 -357 103q-174 0 -174 -78q0 -32 43 -73t166 -114q158 -92 246.5 -177.5t122 -169.5
t33.5 -195q0 -213 -130.5 -345t-336.5 -132q-221 0 -347 135t-126 346q0 148 76.5 257t209.5 159q-94 73 -142 147t-48 164q0 54 23.5 104t71 92.5t129.5 67.5t189 25q118 0 213.5 -21.5t145.5 -58.5q4 -6 4 -19z" />
    <glyph glyph-name="epsilon" unicode="&#x3b5;" horiz-adv-x="858" 
d="M254 512q-83 29 -122.5 89.5t-39.5 139.5q0 54 24 104t72.5 92.5t132.5 67.5t193 25q180 0 268 -49q13 -5 13 -20v-173q0 -6 -5.5 -9.5t-11.5 -0.5q-96 47 -243 47q-96 0 -142.5 -31t-46.5 -73q0 -44 39.5 -72t124.5 -28h131q14 0 14 -15v-172q0 -16 -14 -16h-131
q-86 0 -130 -29t-44 -78q0 -55 54 -89t159 -34q152 0 246 41q16 8 16 -8v-164q0 -21 -14 -26q-102 -51 -297 -51q-88 0 -164.5 18t-138.5 53.5t-98 95.5t-36 138q0 85 54.5 144.5t136.5 82.5z" />
    <glyph glyph-name="zeta" unicode="&#x3b6;" horiz-adv-x="804" 
d="M78 422q0 397 448 819h-164q-157 0 -184 4q-14 3 -14 17l24 188q0 14 15 14q53 -6 221 -6h403q15 0 15 -14v-160q0 -12 -11 -18q-43 -26 -86 -66q-421 -405 -421 -733q0 -85 25.5 -136t72.5 -78t135 -50q73 -19 120.5 -40t87 -55t57.5 -84.5t18 -121.5
q0 -57 -19.5 -112.5t-59.5 -108.5t-110.5 -93t-163.5 -57q-14 -3 -14 12l-2 195q0 11 14 14q57 19 90 51.5t33 69.5q-1 44 -33.5 67.5t-119.5 43.5q-103 23 -169.5 53t-115.5 79.5t-70.5 123.5t-21.5 182z" />
    <glyph glyph-name="eta" unicode="&#x3b7;" horiz-adv-x="1130" 
d="M129 16v756q0 141 -16 223q-3 15 10 15h190q21 0 25 -13q9 -19 17 -68.5t10 -84.5q108 186 323 186q66 0 119.5 -21t98.5 -67t70 -128.5t25 -195.5v-1017q0 -15 -12 -17q-179 -26 -221 -26q-16 0 -16 14v1032q0 213 -154 213q-101 0 -161 -91t-60 -222v-486
q0 -18 -17 -18h-215q-16 0 -16 16z" />
    <glyph glyph-name="theta" unicode="&#x3b8;" horiz-adv-x="1107" 
d="M557 -20q-234 0 -359.5 193t-125.5 564q0 218 57 384t169.5 261t266.5 95q157 0 265 -94.5t158 -258t50 -387.5q0 -358 -121.5 -557.5t-359.5 -199.5zM317 850h474q-2 123 -26 214.5t-77.5 148.5t-132.5 57q-77 0 -132 -61t-79.5 -153t-26.5 -206zM795 633h-476
q5 -209 68 -327t172 -118q117 0 174 119t62 326z" />
    <glyph glyph-name="iota" unicode="&#x3b9;" horiz-adv-x="542" 
d="M377 999v-733q0 -46 17 -65t55 -19q20 0 38 2q9 3 9 -12v-154q0 -14 -13 -22q-37 -16 -116 -16q-53 0 -93 12t-74.5 40t-52.5 82t-18 132v749q0 15 16 15h220q12 0 12 -11z" />
    <glyph glyph-name="kappa" unicode="&#x3ba;" horiz-adv-x="1021" 
d="M780 1010h232q10 0 13 -6t-3 -13q-82 -94 -414 -434v-8q250 -296 453 -531q6 -6 3 -12t-11 -6h-283q-17 0 -25 14q-33 37 -368 451v-447q0 -18 -17 -18h-215q-11 0 -14.5 4t-3.5 14v977q0 15 18 15h215q17 0 17 -15v-420q64 69 214.5 238t164.5 184q10 13 24 13z" />
    <glyph glyph-name="lambda" unicode="&#x3bb;" horiz-adv-x="1015" 
d="M735 12l-235 721h-4q-20 -86 -96 -322.5t-136 -398.5q-3 -12 -16 -12h-228q-16 0 -10 18l359 947q12 27 6 47l-19 47q-38 101 -99.5 145.5t-158.5 44.5q-25 0 -57 -4q-12 0 -12 10v197q0 13 12 16q33 9 86 9q60 0 108.5 -9t102 -36t98.5 -73.5t91 -124.5t87 -185
q297 -783 390 -1033q5 -16 -15 -16h-237q-12 0 -17 12z" />
    <glyph glyph-name="uni03BC" unicode="&#x3bc;" horiz-adv-x="1153" 
d="M983 -20q-177 0 -207 161q0 2 -1 13.5t-1 13.5q-39 -96 -109 -142t-155 -46q-102 0 -150 59q10 -133 7 -426q0 -17 -15 -19q-42 -5 -118.5 -11.5t-88.5 -6.5q-16 0 -16 16v1403q0 9 3.5 12t14.5 3h215q15 0 15 -13v-632q0 -81 37 -126.5t106 -45.5q97 0 158 86.5
t61 267.5v450q0 13 13 13h223q12 0 12 -13v-712q0 -58 17 -80.5t55 -22.5q21 0 39 2q8 3 8 -12v-154q0 -17 -12 -22q-37 -16 -111 -16z" />
    <glyph glyph-name="nu" unicode="&#x3bd;" horiz-adv-x="962" 
d="M-10 1010h252q13 0 22 -11q50 -90 121 -328t102 -419h5q78 136 129 295t51 315q0 68 -10 133q0 15 16 15h194q16 0 19 -13q10 -50 10 -127q0 -207 -99 -441t-241 -413q-10 -16 -26 -16h-183q-19 0 -24 14q-39 210 -144.5 518.5t-203.5 462.5q-6 15 10 15z" />
    <glyph glyph-name="xi" unicode="&#x3be;" horiz-adv-x="870" 
d="M594 1477q162 0 237 -35q9 -4 9 -19v-186q0 -7 -3.5 -11t-9.5 -1q-70 43 -217 43q-119 0 -177 -57t-58 -144q0 -93 66.5 -141.5t181.5 -48.5h122q19 0 19 -19v-180q0 -19 -19 -19l-129 -4q-146 0 -218 -60.5t-72 -156.5q0 -98 58.5 -150.5t217.5 -86.5q87 -19 146 -47.5
t91 -68.5t45 -84t13 -103q0 -129 -84 -226t-266 -129q-17 -3 -17 13v176q0 16 15 18q123 38 123 113q-2 41 -31.5 68t-120.5 44q-237 46 -339.5 142.5t-102.5 279.5q0 136 75.5 232.5t196.5 138.5q-217 90 -217 324q0 77 30.5 146t87 122.5t146.5 85t201 31.5z" />
    <glyph glyph-name="omicron" unicode="&#x3bf;" horiz-adv-x="1114" 
d="M563 1030q115 0 208.5 -41.5t154 -113t93 -165.5t32.5 -200q0 -237 -137 -383.5t-355 -146.5q-99 0 -182 29.5t-139.5 80t-96 118t-57.5 142t-18 154.5q0 146 59.5 265t174 190t263.5 71zM551 823q-104 0 -170 -85.5t-66 -229.5q0 -143 66.5 -231.5t181.5 -88.5
q101 0 168.5 82.5t67.5 233.5q0 138 -62.5 228.5t-185.5 90.5z" />
    <glyph glyph-name="pi" unicode="&#x3c0;" horiz-adv-x="1116" 
d="M354 0h-202q-17 0 -11 14q36 105 39 279v510h-174q-8 0 -11 2.5t-3 11.5l28 172q3 12 13 12q52 9 174 9h887q12 0 12 -13l-21 -180q0 -9 -2 -11.5t-10 -2.5h-145v-500q0 -166 39 -285q9 -18 -13 -18h-211q-16 0 -22 14q-43 82 -43 291v498h-262v-508q0 -190 -41 -283
q-2 -12 -21 -12z" />
    <glyph glyph-name="rho" unicode="&#x3c1;" horiz-adv-x="1118" 
d="M588 1030q113 0 203.5 -43t146.5 -115.5t85.5 -163.5t29.5 -192q0 -236 -139 -386t-357 -150q-116 0 -180 43v-408q0 -18 -17 -21q-25 -2 -78 -7.5t-90 -9t-42 -3.5q-21 0 -21 18v975q0 213 122.5 338t336.5 125zM571 825q-88 0 -141 -57t-53 -172v-344q67 -64 172 -64
q106 0 179 81.5t73 242.5q0 146 -61 229.5t-169 83.5z" />
    <glyph glyph-name="uni03C2" unicode="&#x3c2;" horiz-adv-x="843" 
d="M66 494q0 147 62.5 268.5t183.5 194.5t278 73q140 0 203 -29q12 -6 12 -22v-182q0 -21 -17 -13q-70 33 -188 33q-134 0 -211.5 -82.5t-77.5 -218.5q0 -144 55 -213t207 -108q141 -36 198.5 -107.5t57.5 -181.5q0 -56 -16.5 -108t-52.5 -102.5t-103 -86.5t-159 -49
q-17 -3 -17 12v178q0 17 13 19q106 30 106 108q0 39 -30.5 62.5t-104.5 40.5q-215 48 -307 172.5t-92 341.5z" />
    <glyph glyph-name="sigma" unicode="&#x3c3;" horiz-adv-x="1112" 
d="M63 498q0 238 132.5 375t367.5 137h570q15 0 12 -13l-17 -194q-2 -10 -14 -10q-156 0 -235 8q54 -44 87 -132.5t33 -187.5q0 -124 -37 -222t-101 -157.5t-145.5 -90.5t-174.5 -31q-213 0 -345.5 141t-132.5 377zM539 819q-111 0 -168.5 -87.5t-57.5 -227.5
q0 -136 61.5 -226t164.5 -90q102 0 159.5 82t57.5 232q0 158 -55.5 237.5t-161.5 79.5z" />
    <glyph glyph-name="tau" unicode="&#x3c4;" horiz-adv-x="862" 
d="M293 248v555h-283q-14 0 -14 14l20 176q1 7 4 9t11 4q46 4 139 4h686q10 0 10 -11l-14 -184q-2 -12 -14 -12h-299v-535q0 -88 86 -88q26 0 53 8q6 1 8 -1.5t2 -8.5v-153q0 -16 -12 -21q-56 -24 -137 -24q-49 0 -88 10.5t-77 37t-59.5 82.5t-21.5 138z" />
    <glyph glyph-name="upsilon" unicode="&#x3c5;" horiz-adv-x="1085" 
d="M692 1010h209q16 0 21 -13q32 -65 53.5 -184t21.5 -242q0 -98 -14 -181.5t-48.5 -160.5t-87.5 -131t-135.5 -86t-187.5 -32q-185 0 -294 97.5t-109 284.5v326q0 212 -21 307q-3 15 15 15h213q15 0 20 -13q9 -17 15 -78.5t6 -123.5v-426q0 -95 47.5 -139t122.5 -44
q111 0 161 88.5t50 290.5q0 123 -22 242.5t-48 187.5q-3 15 12 15z" />
    <glyph glyph-name="phi" unicode="&#x3c6;" horiz-adv-x="1431" 
d="M610 1333h211q15 0 15 -20v-289q244 -24 387 -156.5t143 -367.5q0 -120 -41 -215.5t-114 -158t-167.5 -99t-207.5 -47.5v-369q0 -18 -17 -21q-21 -3 -111 -8.5t-100 -5.5q-14 0 -14 16v390q-154 14 -271.5 75t-187 174.5t-69.5 264.5q0 227 148.5 366t381.5 162v291
q0 18 14 18zM596 180v651q-130 -12 -204.5 -103.5t-74.5 -227.5q0 -134 77 -221.5t202 -98.5zM836 831v-651q124 9 201 93.5t77 228.5q0 140 -73 229.5t-205 99.5z" />
    <glyph glyph-name="chi" unicode="&#x3c7;" horiz-adv-x="919" 
d="M2 1010h244q14 0 18 -11q26 -60 69 -160.5t77.5 -181.5t64.5 -149h2q16 40 48.5 114t84 188.5t82.5 184.5q6 15 19 15h211q18 0 10 -17l-332 -651l336 -707q11 -18 -8 -24q-48 -12 -128 -29.5t-89 -17.5q-12 0 -19 14q-113 255 -241 561h-5q-21 -54 -247 -563
q-3 -10 -15 -10q-8 0 -198 43q-12 6 -6 18l344 709l-330 659q-9 15 8 15z" />
    <glyph glyph-name="psi" unicode="&#x3c8;" horiz-adv-x="1456" 
d="M612 -408v388q-226 26 -343.5 147t-135.5 375q-22 322 -53 493q-6 15 14 15h209q13 0 19 -11q22 -58 53 -489q11 -161 73 -231t166 -82v1034q0 10 3.5 13t13.5 3h213q8 0 11 -2t3 -12v-1036q111 8 171.5 80t72.5 233q29 438 45 487q8 13 20 13h197q15 0 12 -19
q-3 -21 -9 -87t-16.5 -189t-19.5 -219q-10 -135 -48 -232t-103 -154.5t-142 -87.5t-180 -42v-369q0 -15 -12 -17q-152 -16 -219 -16q-15 0 -15 14z" />
    <glyph glyph-name="omega" unicode="&#x3c9;" horiz-adv-x="1447" 
d="M848 723l-4 -342q0 -81 32 -127.5t95 -46.5q71 0 117.5 77t46.5 244q0 135 -39 256t-99 209q-5 6 -2.5 11.5t9.5 5.5h213q12 0 24 -9q57 -70 98 -202t41 -281q0 -255 -112 -396.5t-283 -141.5q-88 0 -160.5 44t-109.5 119q-38 -72 -110.5 -117.5t-160.5 -45.5
q-75 0 -141 30.5t-119.5 91t-84.5 161.5t-31 231q0 151 43.5 284t107.5 221q9 11 25 11h200q8 0 10.5 -6t-1.5 -13q-60 -94 -101 -222t-41 -259q0 -157 47 -230t119 -73q58 0 91.5 49t31.5 123l-4 346q0 12 16 12h222q14 0 14 -14z" />
    <glyph glyph-name="iotadieresis" unicode="&#x3ca;" horiz-adv-x="542" 
d="M377 999v-733q0 -46 17 -65t55 -19q20 0 38 2q9 3 9 -12v-154q0 -14 -13 -22q-37 -16 -116 -16q-53 0 -93 12t-74.5 40t-52.5 82t-18 132v749q0 15 16 15h220q12 0 12 -11zM76 1163q-54 0 -88.5 34.5t-34.5 90.5q0 58 36 93.5t91 35.5q54 0 87.5 -36t33.5 -93t-35 -91
t-90 -34zM473 1163q-53 0 -87 34.5t-34 90.5q0 58 36 93.5t89 35.5q55 0 88 -35.5t33 -93.5q0 -57 -34.5 -91t-90.5 -34z" />
    <glyph glyph-name="upsilondieresis" unicode="&#x3cb;" horiz-adv-x="1085" 
d="M692 1010h209q16 0 21 -13q32 -65 53.5 -184t21.5 -242q0 -98 -14 -181.5t-48.5 -160.5t-87.5 -131t-135.5 -86t-187.5 -32q-185 0 -294 97.5t-109 284.5v326q0 212 -21 307q-3 15 15 15h213q15 0 20 -13q9 -17 15 -78.5t6 -123.5v-426q0 -95 47.5 -139t122.5 -44
q111 0 161 88.5t50 290.5q0 123 -22 242.5t-48 187.5q-3 15 12 15zM334 1163q-54 0 -88.5 34.5t-34.5 90.5q0 58 35.5 93.5t91.5 35.5q54 0 87.5 -36t33.5 -93t-35 -91t-90 -34zM731 1163q-53 0 -87 34.5t-34 90.5q0 58 36 93.5t89 35.5q55 0 88 -35.5t33 -93.5
q0 -57 -34.5 -91t-90.5 -34z" />
    <glyph glyph-name="omicrontonos" unicode="&#x3cc;" horiz-adv-x="1114" 
d="M563 1030q115 0 208.5 -41.5t154 -113t93 -165.5t32.5 -200q0 -237 -137 -383.5t-355 -146.5q-99 0 -182 29.5t-139.5 80t-96 118t-57.5 142t-18 154.5q0 146 59.5 265t174 190t263.5 71zM551 823q-104 0 -170 -85.5t-66 -229.5q0 -143 66.5 -231.5t181.5 -88.5
q101 0 168.5 82.5t67.5 233.5q0 138 -62.5 228.5t-185.5 90.5zM391 1169l203 289q10 17 22 17h238q20 0 10 -19l-248 -291q-10 -12 -26 -12h-191q-16 0 -8 16z" />
    <glyph glyph-name="upsilontonos" unicode="&#x3cd;" horiz-adv-x="1085" 
d="M692 1010h209q16 0 21 -13q32 -65 53.5 -184t21.5 -242q0 -98 -14 -181.5t-48.5 -160.5t-87.5 -131t-135.5 -86t-187.5 -32q-185 0 -294 97.5t-109 284.5v326q0 212 -21 307q-3 15 15 15h213q15 0 20 -13q9 -17 15 -78.5t6 -123.5v-426q0 -95 47.5 -139t122.5 -44
q111 0 161 88.5t50 290.5q0 123 -22 242.5t-48 187.5q-3 15 12 15zM395 1147l203 289q9 18 23 18h237q9 0 12 -5t-2 -13l-250 -291q-7 -12 -24 -12h-191q-15 0 -8 14z" />
    <glyph glyph-name="omegatonos" unicode="&#x3ce;" horiz-adv-x="1447" 
d="M848 723l-4 -342q0 -81 32 -127.5t95 -46.5q71 0 117.5 77t46.5 244q0 135 -39 256t-99 209q-5 6 -2.5 11.5t9.5 5.5h213q12 0 24 -9q57 -70 98 -202t41 -281q0 -255 -112 -396.5t-283 -141.5q-88 0 -160.5 44t-109.5 119q-38 -72 -110.5 -117.5t-160.5 -45.5
q-75 0 -141 30.5t-119.5 91t-84.5 161.5t-31 231q0 151 43.5 284t107.5 221q9 11 25 11h200q8 0 10.5 -6t-1.5 -13q-60 -94 -101 -222t-41 -259q0 -157 47 -230t119 -73q58 0 91.5 49t31.5 123l-4 346q0 12 16 12h222q14 0 14 -14zM565 1128l205 289q6 19 23 19h235
q23 0 10 -19l-247 -291q-7 -12 -27 -12h-191q-6 0 -8 4.5t0 9.5z" />
    <glyph glyph-name="uni03D1" unicode="&#x3d1;" horiz-adv-x="1069" 
d="M317 1065q0 -119 85 -193.5t245 -74.5q58 0 113 10q-2 218 -64.5 340.5t-187.5 122.5q-92 0 -141.5 -57t-49.5 -148zM61 522h224q12 0 18 -12q23 -39 53 -139q31 -97 65 -141t97 -44q181 0 230 408q-61 -12 -127 -12q-244 0 -391.5 123.5t-147.5 349.5q0 114 50 209.5
t150.5 155t233.5 59.5q105 0 191.5 -39t154 -119.5t105 -217t37.5 -317.5q0 -126 -16.5 -240t-55 -218.5t-95 -181t-142.5 -121.5t-193 -45q-82 0 -143 22t-104 67.5t-72 101.5t-54 138q-37 121 -74 197q-3 6 -1.5 11t7.5 5z" />
    <glyph glyph-name="uni03D7" unicode="&#x3d7;" horiz-adv-x="1144" 
d="M698 559q79 -21 144 -59t117 -93t81 -133t29 -172q0 -242 -170.5 -383t-464.5 -141q-236 0 -397 82q-12 4 -12 23v200q1 10 8.5 12.5t11.5 -1.5q167 -95 377 -95q193 0 288 82.5t95 216.5q0 77 -31.5 135.5t-88 93t-127.5 51.5t-157 19v-381q0 -16 -16 -16h-215
q-16 0 -16 18v762q0 132 -21 215q-3 15 14 15h213q16 0 21 -15q20 -53 20 -217v-176q16 0 103 -6l252 405q4 9 18 9h244q18 0 8 -19z" />
    <glyph glyph-name="uni0400" unicode="&#x400;" horiz-adv-x="1085" 
d="M1034 207l-30 -191q-2 -16 -19 -16h-815q-18 0 -18 16v1313q0 17 16 17h790q16 0 19 -15l22 -190q4 -19 -14 -19h-586v-325h533q14 0 14 -15v-194q0 -13 -14 -13h-533v-352h621q17 0 14 -16zM467 1704l238 -223q9 -19 -11 -19h-205q-14 0 -28 11l-281 225q-6 6 -4 11
t10 5h256q19 0 25 -10z" />
    <glyph glyph-name="uni0401" unicode="&#x401;" horiz-adv-x="1085" 
d="M1034 207l-30 -191q-2 -16 -19 -16h-815q-18 0 -18 16v1313q0 17 16 17h790q16 0 19 -15l22 -190q4 -19 -14 -19h-586v-325h533q14 0 14 -15v-194q0 -13 -14 -13h-533v-352h621q17 0 14 -16zM342 1470q-59 0 -95 32t-36 87q0 54 38.5 89.5t96.5 35.5q59 0 95 -35t36 -90
t-37 -87t-98 -32zM768 1470q-58 0 -94.5 32t-36.5 87q0 54 38.5 89.5t96.5 35.5q57 0 94 -35.5t37 -89.5q0 -55 -36.5 -87t-98.5 -32z" />
    <glyph glyph-name="uni0402" unicode="&#x402;" horiz-adv-x="1361" 
d="M610 598v-582q0 -9 -3.5 -11.5t-14.5 -4.5h-215q-17 0 -17 16v1106h-348q-13 0 -10 15l27 196q3 13 16 13h1055q13 0 16 -13l23 -196q0 -15 -15 -15h-514v-319q88 14 207 14q216 0 344.5 -106t128.5 -299q0 -92 -29 -167t-74 -122.5t-103.5 -80.5t-114 -47t-109.5 -15
q-16 0 -16 12v186q0 12 10 15q184 33 184 206q0 104 -71.5 158.5t-202.5 54.5q-91 0 -154 -14z" />
    <glyph glyph-name="uni0403" unicode="&#x403;" horiz-adv-x="989" 
d="M154 1331q0 15 10 15h784q15 0 15 -13l24 -196q3 -15 -14 -15h-574v-1106q0 -16 -14 -16h-217q-14 0 -14 16v1315zM401 1487l246 229q8 10 25 10h258q7 0 8.5 -6t-2.5 -10l-281 -225q-12 -12 -30 -12h-215q-7 0 -10.5 4.5t1.5 9.5z" />
    <glyph glyph-name="uni0404" unicode="&#x404;" horiz-adv-x="1134" 
d="M1071 229v-184q0 -19 -14 -25q-93 -40 -301 -40q-112 0 -211.5 25t-186 79t-149.5 133.5t-99 195t-36 257.5q0 207 84.5 364.5t245 244.5t376.5 87q205 0 291 -39q12 -6 12 -22v-197q0 -20 -16 -12q-92 51 -279 51t-302 -87.5t-146 -256.5h551q14 0 14 -15v-188
q0 -12 -2.5 -15t-11.5 -3h-555q11 -87 44 -154.5t77.5 -109.5t102.5 -69t115 -37.5t120 -10.5q158 0 262 37q14 7 14 -9z" />
    <glyph glyph-name="uni0405" unicode="&#x405;" horiz-adv-x="1015" 
d="M446 -20q-222 0 -358 73q-14 8 -14 31v213q0 6 5 8.5t11 -0.5q163 -106 365 -106q121 0 180 41.5t59 111.5q0 59 -45.5 105t-159.5 94l-98 41q-178 75 -247.5 168.5t-69.5 218.5q0 170 125 278.5t350 108.5q210 0 313 -53q12 -7 12 -27v-199q0 -7 -4.5 -10t-13.5 2
q-118 68 -309 68q-122 0 -177 -42t-55 -104q0 -57 45 -99.5t164 -92.5l78 -33q190 -79 266 -175.5t76 -225.5q0 -181 -133.5 -288t-364.5 -107z" />
    <glyph glyph-name="uni0406" unicode="&#x406;" horiz-adv-x="552" 
d="M399 1329v-1311q0 -18 -16 -18h-215q-16 0 -16 18v1311q0 17 16 17h215q16 0 16 -17z" />
    <glyph glyph-name="uni0407" unicode="&#x407;" horiz-adv-x="552" 
d="M399 1329v-1311q0 -18 -16 -18h-215q-16 0 -16 18v1311q0 17 16 17h215q16 0 16 -17zM59 1462q-59 0 -94 33t-35 88q0 54 38 88.5t98 34.5q59 0 95 -35t36 -88q0 -55 -38 -88t-100 -33zM485 1462q-58 0 -93.5 33t-35.5 88q0 54 38.5 88.5t97.5 34.5q57 0 94 -34.5
t37 -88.5q0 -56 -38 -88.5t-100 -32.5z" />
    <glyph glyph-name="uni0408" unicode="&#x408;" horiz-adv-x="659" 
d="M268 365v966q0 15 17 15h217q14 0 14 -15v-942q0 -119 -16 -190q-34 -156 -141.5 -232t-270.5 -76q-54 0 -92 9q-14 5 -14 22v189q0 15 18 12q29 -4 63 -4q103 0 154 53.5t51 192.5z" />
    <glyph glyph-name="uni0409" unicode="&#x409;" horiz-adv-x="1878" 
d="M1124 813h187q248 0 371.5 -107.5t123.5 -289.5q0 -203 -140 -309.5t-382 -106.5h-389q-12 0 -12 16v1106h-252q-39 -410 -98.5 -625t-163.5 -343q-69 -85 -162 -127.5t-197 -40.5q-14 0 -14 16v215q0 14 14 14q47 0 96.5 20.5t86.5 63.5q94 111 144 349t83 669
q0 13 14 13h676q14 0 14 -13v-520zM1124 602v-395h170q128 0 194 51.5t66 147.5q0 99 -65 148.5t-189 47.5h-176z" />
    <glyph glyph-name="uni040A" unicode="&#x40a;" horiz-adv-x="1914" 
d="M1161 1331v-493q76 2 176 2q251 0 378.5 -114t127.5 -306q0 -202 -146.5 -314t-387.5 -112q-149 0 -377 6q-8 0 -11 2.5t-3 11.5v613h-519v-611q0 -16 -14 -16h-219q-14 0 -14 16v1313q0 17 12 17h221q14 0 14 -15v-495h519v493q0 17 14 17h215q14 0 14 -15zM1159 627
v-418q93 -6 156 -6q132 0 203 54t71 159q0 107 -68.5 161t-195.5 52q-121 0 -166 -2z" />
    </font>
</defs>
</svg>
